<svg xmlns="http://www.w3.org/2000/svg" width="980" height="560" viewBox="0 0 980 560" role="img" aria-label="Paarweise Differenzen Teil 8/8">
<rect width="100%" height="100%" fill="white"/>
<text x="490" y="34" text-anchor="middle" font-size="26" font-weight="700" fill="#0f172a">Paarweise Differenzen Teil 8/8</text>
<text x="28" y="265" transform="rotate(-90 28 265)" text-anchor="middle" font-size="24" fill="#475569">Workflow - Direkter Aufruf (Prozentpunkte)</text>
<text x="532.5" y="536" text-anchor="middle" font-size="24" fill="#475569">Antwortpaare 701-713 von 713</text>
<line x1="115" y1="379.9" x2="950" y2="379.9" stroke="#94a3b8" stroke-dasharray="4 4"/>
<line x1="115" y1="65" x2="115" y2="465" stroke="#cbd5e1"/>
<line x1="115" y1="465" x2="950" y2="465" stroke="#cbd5e1"/>
<line x1="115" y1="465.0" x2="950" y2="465.0" stroke="#e2e8f0"/>
<text x="105" y="470.0" text-anchor="end" font-size="16" fill="#64748b">-7</text>
<line x1="115" y1="365.0" x2="950" y2="365.0" stroke="#e2e8f0"/>
<text x="105" y="370.0" text-anchor="end" font-size="16" fill="#64748b">1</text>
<line x1="115" y1="265.0" x2="950" y2="265.0" stroke="#e2e8f0"/>
<text x="105" y="270.0" text-anchor="end" font-size="16" fill="#64748b">10</text>
<line x1="115" y1="165.0" x2="950" y2="165.0" stroke="#e2e8f0"/>
<text x="105" y="170.0" text-anchor="end" font-size="16" fill="#64748b">19</text>
<line x1="115" y1="65.0" x2="950" y2="65.0" stroke="#e2e8f0"/>
<text x="105" y="70.0" text-anchor="end" font-size="16" fill="#64748b">27</text>
<rect x="124.0" y="379.9" width="46.2" height="1.0" fill="#15803d" opacity="0.78"/>
<text x="147.1" y="371.9" text-anchor="middle" font-size="16" font-weight="700" fill="#0f172a">0.0</text>
<rect x="188.2" y="379.9" width="46.2" height="1.0" fill="#15803d" opacity="0.78"/>
<text x="211.3" y="371.9" text-anchor="middle" font-size="16" font-weight="700" fill="#0f172a">0.0</text>
<rect x="252.5" y="379.9" width="46.2" height="1.0" fill="#15803d" opacity="0.78"/>
<text x="275.6" y="371.9" text-anchor="middle" font-size="16" font-weight="700" fill="#0f172a">0.0</text>
<rect x="316.7" y="379.9" width="46.2" height="1.0" fill="#15803d" opacity="0.78"/>
<text x="339.8" y="371.9" text-anchor="middle" font-size="16" font-weight="700" fill="#0f172a">0.0</text>
<rect x="380.9" y="379.9" width="46.2" height="1.0" fill="#15803d" opacity="0.78"/>
<text x="404.0" y="371.9" text-anchor="middle" font-size="16" font-weight="700" fill="#0f172a">0.0</text>
<rect x="445.1" y="379.9" width="46.2" height="1.0" fill="#15803d" opacity="0.78"/>
<text x="468.3" y="371.9" text-anchor="middle" font-size="16" font-weight="700" fill="#0f172a">0.0</text>
<rect x="509.4" y="379.9" width="46.2" height="1.0" fill="#15803d" opacity="0.78"/>
<text x="532.5" y="371.9" text-anchor="middle" font-size="16" font-weight="700" fill="#0f172a">0.0</text>
<rect x="573.6" y="379.9" width="46.2" height="1.0" fill="#15803d" opacity="0.78"/>
<text x="596.7" y="371.9" text-anchor="middle" font-size="16" font-weight="700" fill="#0f172a">0.0</text>
<rect x="637.8" y="379.9" width="46.2" height="1.0" fill="#15803d" opacity="0.78"/>
<text x="661.0" y="371.9" text-anchor="middle" font-size="16" font-weight="700" fill="#0f172a">0.0</text>
<rect x="702.1" y="379.9" width="46.2" height="1.0" fill="#15803d" opacity="0.78"/>
<text x="725.2" y="371.9" text-anchor="middle" font-size="16" font-weight="700" fill="#0f172a">0.0</text>
<rect x="766.3" y="379.9" width="46.2" height="1.0" fill="#15803d" opacity="0.78"/>
<text x="789.4" y="371.9" text-anchor="middle" font-size="16" font-weight="700" fill="#0f172a">0.0</text>
<rect x="830.5" y="92.6" width="46.2" height="287.4" fill="#15803d" opacity="0.78"/>
<text x="853.7" y="84.6" text-anchor="middle" font-size="16" font-weight="700" fill="#0f172a">25.0</text>
<rect x="894.8" y="92.6" width="46.2" height="287.4" fill="#15803d" opacity="0.78"/>
<text x="917.9" y="84.6" text-anchor="middle" font-size="16" font-weight="700" fill="#0f172a">25.0</text>

</svg>
