<svg xmlns="http://www.w3.org/2000/svg" width="980" height="560" viewBox="0 0 980 560" role="img" aria-label="Paarweise Differenzen Teil 9/9">
<rect width="100%" height="100%" fill="white"/>
<text x="490" y="34" text-anchor="middle" font-size="26" font-weight="700" fill="#0f172a">Paarweise Differenzen Teil 9/9</text>
<text x="28" y="265" transform="rotate(-90 28 265)" text-anchor="middle" font-size="24" fill="#475569">Workflow - Direkter Aufruf (Prozentpunkte)</text>
<text x="532.5" y="536" text-anchor="middle" font-size="24" fill="#475569">Antwortpaare 801-895 von 895</text>
<line x1="115" y1="265.0" x2="950" y2="265.0" stroke="#94a3b8" stroke-dasharray="4 4"/>
<line x1="115" y1="65" x2="115" y2="465" stroke="#cbd5e1"/>
<line x1="115" y1="465" x2="950" y2="465" stroke="#cbd5e1"/>
<line x1="115" y1="465.0" x2="950" y2="465.0" stroke="#e2e8f0"/>
<text x="105" y="470.0" text-anchor="end" font-size="16" fill="#64748b">-116</text>
<line x1="115" y1="365.0" x2="950" y2="365.0" stroke="#e2e8f0"/>
<text x="105" y="370.0" text-anchor="end" font-size="16" fill="#64748b">-58</text>
<line x1="115" y1="265.0" x2="950" y2="265.0" stroke="#e2e8f0"/>
<text x="105" y="270.0" text-anchor="end" font-size="16" fill="#64748b">0</text>
<line x1="115" y1="165.0" x2="950" y2="165.0" stroke="#e2e8f0"/>
<text x="105" y="170.0" text-anchor="end" font-size="16" fill="#64748b">58</text>
<line x1="115" y1="65.0" x2="950" y2="65.0" stroke="#e2e8f0"/>
<text x="105" y="70.0" text-anchor="end" font-size="16" fill="#64748b">116</text>
<rect x="116.2" y="265.0" width="6.3" height="1.0" fill="#15803d" opacity="0.78"/>

<rect x="125.0" y="265.0" width="6.3" height="1.0" fill="#15803d" opacity="0.78"/>

<rect x="133.8" y="265.0" width="6.3" height="1.0" fill="#15803d" opacity="0.78"/>

<rect x="142.6" y="265.0" width="6.3" height="1.0" fill="#15803d" opacity="0.78"/>

<rect x="151.4" y="265.0" width="6.3" height="1.0" fill="#15803d" opacity="0.78"/>

<rect x="160.2" y="265.0" width="6.3" height="1.0" fill="#15803d" opacity="0.78"/>

<rect x="169.0" y="221.9" width="6.3" height="43.1" fill="#15803d" opacity="0.78"/>

<rect x="177.8" y="221.9" width="6.3" height="43.1" fill="#15803d" opacity="0.78"/>

<rect x="186.5" y="221.9" width="6.3" height="43.1" fill="#15803d" opacity="0.78"/>

<rect x="195.3" y="221.9" width="6.3" height="43.1" fill="#15803d" opacity="0.78"/>

<rect x="204.1" y="265.0" width="6.3" height="1.0" fill="#15803d" opacity="0.78"/>

<rect x="212.9" y="265.0" width="6.3" height="1.0" fill="#15803d" opacity="0.78"/>

<rect x="221.7" y="265.0" width="6.3" height="1.0" fill="#15803d" opacity="0.78"/>

<rect x="230.5" y="221.9" width="6.3" height="43.1" fill="#15803d" opacity="0.78"/>

<rect x="239.3" y="221.9" width="6.3" height="43.1" fill="#15803d" opacity="0.78"/>

<rect x="248.1" y="265.0" width="6.3" height="1.0" fill="#15803d" opacity="0.78"/>

<rect x="256.9" y="265.0" width="6.3" height="43.1" fill="#dc2626" opacity="0.78"/>

<rect x="265.7" y="265.0" width="6.3" height="1.0" fill="#15803d" opacity="0.78"/>

<rect x="274.4" y="265.0" width="6.3" height="1.0" fill="#15803d" opacity="0.78"/>

<rect x="283.2" y="265.0" width="6.3" height="1.0" fill="#15803d" opacity="0.78"/>

<rect x="292.0" y="265.0" width="6.3" height="1.0" fill="#15803d" opacity="0.78"/>

<rect x="300.8" y="265.0" width="6.3" height="1.0" fill="#15803d" opacity="0.78"/>

<rect x="309.6" y="221.9" width="6.3" height="43.1" fill="#15803d" opacity="0.78"/>

<rect x="318.4" y="265.0" width="6.3" height="1.0" fill="#15803d" opacity="0.78"/>

<rect x="327.2" y="265.0" width="6.3" height="1.0" fill="#15803d" opacity="0.78"/>

<rect x="336.0" y="265.0" width="6.3" height="1.0" fill="#15803d" opacity="0.78"/>

<rect x="344.8" y="265.0" width="6.3" height="43.1" fill="#dc2626" opacity="0.78"/>

<rect x="353.5" y="265.0" width="6.3" height="43.1" fill="#dc2626" opacity="0.78"/>

<rect x="362.3" y="265.0" width="6.3" height="1.0" fill="#15803d" opacity="0.78"/>

<rect x="371.1" y="265.0" width="6.3" height="1.0" fill="#15803d" opacity="0.78"/>

<rect x="379.9" y="265.0" width="6.3" height="1.0" fill="#15803d" opacity="0.78"/>

<rect x="388.7" y="265.0" width="6.3" height="1.0" fill="#15803d" opacity="0.78"/>

<rect x="397.5" y="265.0" width="6.3" height="1.0" fill="#15803d" opacity="0.78"/>

<rect x="406.3" y="265.0" width="6.3" height="1.0" fill="#15803d" opacity="0.78"/>

<rect x="415.1" y="221.9" width="6.3" height="43.1" fill="#15803d" opacity="0.78"/>

<rect x="423.9" y="265.0" width="6.3" height="43.1" fill="#dc2626" opacity="0.78"/>

<rect x="432.7" y="265.0" width="6.3" height="1.0" fill="#15803d" opacity="0.78"/>

<rect x="441.4" y="265.0" width="6.3" height="1.0" fill="#15803d" opacity="0.78"/>

<rect x="450.2" y="265.0" width="6.3" height="1.0" fill="#15803d" opacity="0.78"/>

<rect x="459.0" y="265.0" width="6.3" height="1.0" fill="#15803d" opacity="0.78"/>

<rect x="467.8" y="265.0" width="6.3" height="1.0" fill="#15803d" opacity="0.78"/>

<rect x="476.6" y="221.9" width="6.3" height="43.1" fill="#15803d" opacity="0.78"/>

<rect x="485.4" y="265.0" width="6.3" height="1.0" fill="#15803d" opacity="0.78"/>

<rect x="494.2" y="265.0" width="6.3" height="43.1" fill="#dc2626" opacity="0.78"/>

<rect x="503.0" y="265.0" width="6.3" height="1.0" fill="#15803d" opacity="0.78"/>

<rect x="511.8" y="265.0" width="6.3" height="1.0" fill="#15803d" opacity="0.78"/>

<rect x="520.5" y="265.0" width="6.3" height="1.0" fill="#15803d" opacity="0.78"/>

<rect x="529.3" y="265.0" width="6.3" height="1.0" fill="#15803d" opacity="0.78"/>

<rect x="538.1" y="265.0" width="6.3" height="1.0" fill="#15803d" opacity="0.78"/>

<rect x="546.9" y="265.0" width="6.3" height="1.0" fill="#15803d" opacity="0.78"/>

<rect x="555.7" y="265.0" width="6.3" height="1.0" fill="#15803d" opacity="0.78"/>

<rect x="564.5" y="265.0" width="6.3" height="129.3" fill="#dc2626" opacity="0.78"/>

<rect x="573.3" y="178.8" width="6.3" height="86.2" fill="#15803d" opacity="0.78"/>

<rect x="582.1" y="265.0" width="6.3" height="43.1" fill="#dc2626" opacity="0.78"/>

<rect x="590.9" y="92.6" width="6.3" height="172.4" fill="#15803d" opacity="0.78"/>

<rect x="599.7" y="265.0" width="6.3" height="1.0" fill="#15803d" opacity="0.78"/>

<rect x="608.4" y="265.0" width="6.3" height="1.0" fill="#15803d" opacity="0.78"/>

<rect x="617.2" y="265.0" width="6.3" height="1.0" fill="#15803d" opacity="0.78"/>

<rect x="626.0" y="265.0" width="6.3" height="1.0" fill="#15803d" opacity="0.78"/>

<rect x="634.8" y="265.0" width="6.3" height="1.0" fill="#15803d" opacity="0.78"/>

<rect x="643.6" y="265.0" width="6.3" height="1.0" fill="#15803d" opacity="0.78"/>

<rect x="652.4" y="265.0" width="6.3" height="1.0" fill="#15803d" opacity="0.78"/>

<rect x="661.2" y="265.0" width="6.3" height="1.0" fill="#15803d" opacity="0.78"/>

<rect x="670.0" y="265.0" width="6.3" height="43.1" fill="#dc2626" opacity="0.78"/>

<rect x="678.8" y="265.0" width="6.3" height="1.0" fill="#15803d" opacity="0.78"/>

<rect x="687.5" y="265.0" width="6.3" height="86.2" fill="#dc2626" opacity="0.78"/>

<rect x="696.3" y="265.0" width="6.3" height="129.3" fill="#dc2626" opacity="0.78"/>

<rect x="705.1" y="265.0" width="6.3" height="1.0" fill="#15803d" opacity="0.78"/>

<rect x="713.9" y="265.0" width="6.3" height="43.1" fill="#dc2626" opacity="0.78"/>

<rect x="722.7" y="265.0" width="6.3" height="172.4" fill="#dc2626" opacity="0.78"/>

<rect x="731.5" y="265.0" width="6.3" height="1.0" fill="#15803d" opacity="0.78"/>

<rect x="740.3" y="265.0" width="6.3" height="1.0" fill="#15803d" opacity="0.78"/>

<rect x="749.1" y="265.0" width="6.3" height="1.0" fill="#15803d" opacity="0.78"/>

<rect x="757.9" y="265.0" width="6.3" height="1.0" fill="#15803d" opacity="0.78"/>

<rect x="766.7" y="265.0" width="6.3" height="1.0" fill="#15803d" opacity="0.78"/>

<rect x="775.4" y="265.0" width="6.3" height="1.0" fill="#15803d" opacity="0.78"/>

<rect x="784.2" y="265.0" width="6.3" height="1.0" fill="#15803d" opacity="0.78"/>

<rect x="793.0" y="265.0" width="6.3" height="1.0" fill="#15803d" opacity="0.78"/>

<rect x="801.8" y="221.9" width="6.3" height="43.1" fill="#15803d" opacity="0.78"/>

<rect x="810.6" y="265.0" width="6.3" height="1.0" fill="#15803d" opacity="0.78"/>

<rect x="819.4" y="265.0" width="6.3" height="1.0" fill="#15803d" opacity="0.78"/>

<rect x="828.2" y="265.0" width="6.3" height="1.0" fill="#15803d" opacity="0.78"/>

<rect x="837.0" y="265.0" width="6.3" height="1.0" fill="#15803d" opacity="0.78"/>

<rect x="845.8" y="265.0" width="6.3" height="1.0" fill="#15803d" opacity="0.78"/>

<rect x="854.5" y="265.0" width="6.3" height="1.0" fill="#15803d" opacity="0.78"/>

<rect x="863.3" y="265.0" width="6.3" height="1.0" fill="#15803d" opacity="0.78"/>

<rect x="872.1" y="265.0" width="6.3" height="43.1" fill="#dc2626" opacity="0.78"/>

<rect x="880.9" y="265.0" width="6.3" height="172.4" fill="#dc2626" opacity="0.78"/>

<rect x="889.7" y="265.0" width="6.3" height="86.2" fill="#dc2626" opacity="0.78"/>

<rect x="898.5" y="265.0" width="6.3" height="86.2" fill="#dc2626" opacity="0.78"/>

<rect x="907.3" y="265.0" width="6.3" height="43.1" fill="#dc2626" opacity="0.78"/>

<rect x="916.1" y="265.0" width="6.3" height="1.0" fill="#15803d" opacity="0.78"/>

<rect x="924.9" y="221.9" width="6.3" height="43.1" fill="#15803d" opacity="0.78"/>

<rect x="933.7" y="265.0" width="6.3" height="1.0" fill="#15803d" opacity="0.78"/>

<rect x="942.4" y="265.0" width="6.3" height="1.0" fill="#15803d" opacity="0.78"/>


</svg>
