<svg xmlns="http://www.w3.org/2000/svg" width="980" height="560" viewBox="0 0 980 560" role="img" aria-label="Paarweise Differenzen Teil 2/2">
<rect width="100%" height="100%" fill="white"/>
<text x="490" y="34" text-anchor="middle" font-size="26" font-weight="700" fill="#0f172a">Paarweise Differenzen Teil 2/2</text>
<text x="28" y="265" transform="rotate(-90 28 265)" text-anchor="middle" font-size="24" fill="#475569">Workflow - Direkter Aufruf (Prozentpunkte)</text>
<text x="532.5" y="536" text-anchor="middle" font-size="24" fill="#475569">Antwortpaare 101-199 von 199</text>
<line x1="115" y1="109.0" x2="950" y2="109.0" stroke="#94a3b8" stroke-dasharray="4 4"/>
<line x1="115" y1="65" x2="115" y2="465" stroke="#cbd5e1"/>
<line x1="115" y1="465" x2="950" y2="465" stroke="#cbd5e1"/>
<line x1="115" y1="465.0" x2="950" y2="465.0" stroke="#e2e8f0"/>
<text x="105" y="470.0" text-anchor="end" font-size="16" fill="#64748b">-108</text>
<line x1="115" y1="365.0" x2="950" y2="365.0" stroke="#e2e8f0"/>
<text x="105" y="370.0" text-anchor="end" font-size="16" fill="#64748b">-78</text>
<line x1="115" y1="265.0" x2="950" y2="265.0" stroke="#e2e8f0"/>
<text x="105" y="270.0" text-anchor="end" font-size="16" fill="#64748b">-48</text>
<line x1="115" y1="165.0" x2="950" y2="165.0" stroke="#e2e8f0"/>
<text x="105" y="170.0" text-anchor="end" font-size="16" fill="#64748b">-17</text>
<line x1="115" y1="65.0" x2="950" y2="65.0" stroke="#e2e8f0"/>
<text x="105" y="70.0" text-anchor="end" font-size="16" fill="#64748b">13</text>
<rect x="116.2" y="109.0" width="6.1" height="1.0" fill="#15803d" opacity="0.78"/>

<rect x="124.6" y="109.0" width="6.1" height="1.0" fill="#15803d" opacity="0.78"/>

<rect x="133.0" y="109.0" width="6.1" height="1.0" fill="#15803d" opacity="0.78"/>

<rect x="141.5" y="109.0" width="6.1" height="1.0" fill="#15803d" opacity="0.78"/>

<rect x="149.9" y="109.0" width="6.1" height="1.0" fill="#15803d" opacity="0.78"/>

<rect x="158.4" y="109.0" width="6.1" height="1.0" fill="#15803d" opacity="0.78"/>

<rect x="166.8" y="109.0" width="6.1" height="1.0" fill="#15803d" opacity="0.78"/>

<rect x="175.2" y="109.0" width="6.1" height="1.0" fill="#15803d" opacity="0.78"/>

<rect x="183.7" y="109.0" width="6.1" height="1.0" fill="#15803d" opacity="0.78"/>

<rect x="192.1" y="109.0" width="6.1" height="1.0" fill="#15803d" opacity="0.78"/>

<rect x="200.5" y="109.0" width="6.1" height="1.0" fill="#15803d" opacity="0.78"/>

<rect x="209.0" y="109.0" width="6.1" height="1.0" fill="#15803d" opacity="0.78"/>

<rect x="217.4" y="109.0" width="6.1" height="1.0" fill="#15803d" opacity="0.78"/>

<rect x="225.8" y="109.0" width="6.1" height="1.0" fill="#15803d" opacity="0.78"/>

<rect x="234.3" y="109.0" width="6.1" height="1.0" fill="#15803d" opacity="0.78"/>

<rect x="242.7" y="109.0" width="6.1" height="1.0" fill="#15803d" opacity="0.78"/>

<rect x="251.1" y="109.0" width="6.1" height="1.0" fill="#15803d" opacity="0.78"/>

<rect x="259.6" y="109.0" width="6.1" height="1.0" fill="#15803d" opacity="0.78"/>

<rect x="268.0" y="109.0" width="6.1" height="1.0" fill="#15803d" opacity="0.78"/>

<rect x="276.4" y="109.0" width="6.1" height="1.0" fill="#15803d" opacity="0.78"/>

<rect x="284.9" y="109.0" width="6.1" height="1.0" fill="#15803d" opacity="0.78"/>

<rect x="293.3" y="109.0" width="6.1" height="1.0" fill="#15803d" opacity="0.78"/>

<rect x="301.7" y="109.0" width="6.1" height="1.0" fill="#15803d" opacity="0.78"/>

<rect x="310.2" y="109.0" width="6.1" height="1.0" fill="#15803d" opacity="0.78"/>

<rect x="318.6" y="109.0" width="6.1" height="1.0" fill="#15803d" opacity="0.78"/>

<rect x="327.0" y="109.0" width="6.1" height="1.0" fill="#15803d" opacity="0.78"/>

<rect x="335.5" y="109.0" width="6.1" height="1.0" fill="#15803d" opacity="0.78"/>

<rect x="343.9" y="109.0" width="6.1" height="1.0" fill="#15803d" opacity="0.78"/>

<rect x="352.3" y="109.0" width="6.1" height="1.0" fill="#15803d" opacity="0.78"/>

<rect x="360.8" y="109.0" width="6.1" height="1.0" fill="#15803d" opacity="0.78"/>

<rect x="369.2" y="109.0" width="6.1" height="1.0" fill="#15803d" opacity="0.78"/>

<rect x="377.6" y="109.0" width="6.1" height="1.0" fill="#15803d" opacity="0.78"/>

<rect x="386.1" y="109.0" width="6.1" height="1.0" fill="#15803d" opacity="0.78"/>

<rect x="394.5" y="109.0" width="6.1" height="1.0" fill="#15803d" opacity="0.78"/>

<rect x="402.9" y="109.0" width="6.1" height="1.0" fill="#15803d" opacity="0.78"/>

<rect x="411.4" y="109.0" width="6.1" height="1.0" fill="#15803d" opacity="0.78"/>

<rect x="419.8" y="109.0" width="6.1" height="1.0" fill="#15803d" opacity="0.78"/>

<rect x="428.3" y="109.0" width="6.1" height="1.0" fill="#15803d" opacity="0.78"/>

<rect x="436.7" y="109.0" width="6.1" height="1.0" fill="#15803d" opacity="0.78"/>

<rect x="445.1" y="109.0" width="6.1" height="1.0" fill="#15803d" opacity="0.78"/>

<rect x="453.6" y="109.0" width="6.1" height="1.0" fill="#15803d" opacity="0.78"/>

<rect x="462.0" y="109.0" width="6.1" height="1.0" fill="#15803d" opacity="0.78"/>

<rect x="470.4" y="109.0" width="6.1" height="1.0" fill="#15803d" opacity="0.78"/>

<rect x="478.9" y="109.0" width="6.1" height="1.0" fill="#15803d" opacity="0.78"/>

<rect x="487.3" y="109.0" width="6.1" height="1.0" fill="#15803d" opacity="0.78"/>

<rect x="495.7" y="109.0" width="6.1" height="1.0" fill="#15803d" opacity="0.78"/>

<rect x="504.2" y="109.0" width="6.1" height="1.0" fill="#15803d" opacity="0.78"/>

<rect x="512.6" y="109.0" width="6.1" height="1.0" fill="#15803d" opacity="0.78"/>

<rect x="521.0" y="109.0" width="6.1" height="1.0" fill="#15803d" opacity="0.78"/>

<rect x="529.5" y="109.0" width="6.1" height="1.0" fill="#15803d" opacity="0.78"/>

<rect x="537.9" y="109.0" width="6.1" height="1.0" fill="#15803d" opacity="0.78"/>

<rect x="546.3" y="109.0" width="6.1" height="1.0" fill="#15803d" opacity="0.78"/>

<rect x="554.8" y="109.0" width="6.1" height="1.0" fill="#15803d" opacity="0.78"/>

<rect x="563.2" y="109.0" width="6.1" height="1.0" fill="#15803d" opacity="0.78"/>

<rect x="571.6" y="109.0" width="6.1" height="1.0" fill="#15803d" opacity="0.78"/>

<rect x="580.1" y="109.0" width="6.1" height="1.0" fill="#15803d" opacity="0.78"/>

<rect x="588.5" y="109.0" width="6.1" height="1.0" fill="#15803d" opacity="0.78"/>

<rect x="596.9" y="109.0" width="6.1" height="328.4" fill="#dc2626" opacity="0.78"/>

<rect x="605.4" y="109.0" width="6.1" height="1.0" fill="#15803d" opacity="0.78"/>

<rect x="613.8" y="109.0" width="6.1" height="1.0" fill="#15803d" opacity="0.78"/>

<rect x="622.2" y="109.0" width="6.1" height="1.0" fill="#15803d" opacity="0.78"/>

<rect x="630.7" y="109.0" width="6.1" height="1.0" fill="#15803d" opacity="0.78"/>

<rect x="639.1" y="109.0" width="6.1" height="246.3" fill="#dc2626" opacity="0.78"/>

<rect x="647.5" y="109.0" width="6.1" height="1.0" fill="#15803d" opacity="0.78"/>

<rect x="656.0" y="109.0" width="6.1" height="1.0" fill="#15803d" opacity="0.78"/>

<rect x="664.4" y="109.0" width="6.1" height="1.0" fill="#15803d" opacity="0.78"/>

<rect x="672.8" y="109.0" width="6.1" height="1.0" fill="#15803d" opacity="0.78"/>

<rect x="681.3" y="109.0" width="6.1" height="1.0" fill="#15803d" opacity="0.78"/>

<rect x="689.7" y="109.0" width="6.1" height="1.0" fill="#15803d" opacity="0.78"/>

<rect x="698.2" y="109.0" width="6.1" height="1.0" fill="#15803d" opacity="0.78"/>

<rect x="706.6" y="109.0" width="6.1" height="1.0" fill="#15803d" opacity="0.78"/>

<rect x="715.0" y="109.0" width="6.1" height="1.0" fill="#15803d" opacity="0.78"/>

<rect x="723.5" y="109.0" width="6.1" height="1.0" fill="#15803d" opacity="0.78"/>

<rect x="731.9" y="109.0" width="6.1" height="1.0" fill="#15803d" opacity="0.78"/>

<rect x="740.3" y="109.0" width="6.1" height="1.0" fill="#15803d" opacity="0.78"/>

<rect x="748.8" y="109.0" width="6.1" height="1.0" fill="#15803d" opacity="0.78"/>

<rect x="757.2" y="109.0" width="6.1" height="1.0" fill="#15803d" opacity="0.78"/>

<rect x="765.6" y="109.0" width="6.1" height="1.0" fill="#15803d" opacity="0.78"/>

<rect x="774.1" y="109.0" width="6.1" height="1.0" fill="#15803d" opacity="0.78"/>

<rect x="782.5" y="109.0" width="6.1" height="1.0" fill="#15803d" opacity="0.78"/>

<rect x="790.9" y="109.0" width="6.1" height="1.0" fill="#15803d" opacity="0.78"/>

<rect x="799.4" y="109.0" width="6.1" height="1.0" fill="#15803d" opacity="0.78"/>

<rect x="807.8" y="109.0" width="6.1" height="1.0" fill="#15803d" opacity="0.78"/>

<rect x="816.2" y="109.0" width="6.1" height="1.0" fill="#15803d" opacity="0.78"/>

<rect x="824.7" y="109.0" width="6.1" height="1.0" fill="#15803d" opacity="0.78"/>

<rect x="833.1" y="109.0" width="6.1" height="1.0" fill="#15803d" opacity="0.78"/>

<rect x="841.5" y="109.0" width="6.1" height="1.0" fill="#15803d" opacity="0.78"/>

<rect x="850.0" y="109.0" width="6.1" height="1.0" fill="#15803d" opacity="0.78"/>

<rect x="858.4" y="109.0" width="6.1" height="1.0" fill="#15803d" opacity="0.78"/>

<rect x="866.8" y="109.0" width="6.1" height="1.0" fill="#15803d" opacity="0.78"/>

<rect x="875.3" y="109.0" width="6.1" height="1.0" fill="#15803d" opacity="0.78"/>

<rect x="883.7" y="109.0" width="6.1" height="1.0" fill="#15803d" opacity="0.78"/>

<rect x="892.1" y="109.0" width="6.1" height="1.0" fill="#15803d" opacity="0.78"/>

<rect x="900.6" y="109.0" width="6.1" height="1.0" fill="#15803d" opacity="0.78"/>

<rect x="909.0" y="109.0" width="6.1" height="1.0" fill="#15803d" opacity="0.78"/>

<rect x="917.4" y="109.0" width="6.1" height="1.0" fill="#15803d" opacity="0.78"/>

<rect x="925.9" y="109.0" width="6.1" height="1.0" fill="#15803d" opacity="0.78"/>

<rect x="934.3" y="109.0" width="6.1" height="1.0" fill="#15803d" opacity="0.78"/>

<rect x="942.7" y="109.0" width="6.1" height="1.0" fill="#15803d" opacity="0.78"/>


</svg>
