<svg xmlns="http://www.w3.org/2000/svg" width="980" height="560" viewBox="0 0 980 560" role="img" aria-label="Paarweise Differenzen Teil 3/3">
<rect width="100%" height="100%" fill="white"/>
<text x="490" y="34" text-anchor="middle" font-size="26" font-weight="700" fill="#0f172a">Paarweise Differenzen Teil 3/3</text>
<text x="28" y="265" transform="rotate(-90 28 265)" text-anchor="middle" font-size="24" fill="#475569">Workflow - Direkter Aufruf (Prozentpunkte)</text>
<text x="532.5" y="536" text-anchor="middle" font-size="24" fill="#475569">Antwortpaare 201-251 von 251</text>
<line x1="115" y1="368.4" x2="950" y2="368.4" stroke="#94a3b8" stroke-dasharray="4 4"/>
<line x1="115" y1="65" x2="115" y2="465" stroke="#cbd5e1"/>
<line x1="115" y1="465" x2="950" y2="465" stroke="#cbd5e1"/>
<line x1="115" y1="465.0" x2="950" y2="465.0" stroke="#e2e8f0"/>
<text x="105" y="470.0" text-anchor="end" font-size="16" fill="#64748b">-35</text>
<line x1="115" y1="365.0" x2="950" y2="365.0" stroke="#e2e8f0"/>
<text x="105" y="370.0" text-anchor="end" font-size="16" fill="#64748b">1</text>
<line x1="115" y1="265.0" x2="950" y2="265.0" stroke="#e2e8f0"/>
<text x="105" y="270.0" text-anchor="end" font-size="16" fill="#64748b">38</text>
<line x1="115" y1="165.0" x2="950" y2="165.0" stroke="#e2e8f0"/>
<text x="105" y="170.0" text-anchor="end" font-size="16" fill="#64748b">74</text>
<line x1="115" y1="65.0" x2="950" y2="65.0" stroke="#e2e8f0"/>
<text x="105" y="70.0" text-anchor="end" font-size="16" fill="#64748b">110</text>
<rect x="117.3" y="299.5" width="11.8" height="69.0" fill="#15803d" opacity="0.78"/>
<text x="123.2" y="291.5" text-anchor="middle" font-size="16" font-weight="700" fill="#0f172a">25.0</text>
<rect x="133.7" y="92.6" width="11.8" height="275.9" fill="#15803d" opacity="0.78"/>
<text x="139.6" y="84.6" text-anchor="middle" font-size="16" font-weight="700" fill="#0f172a">100.0</text>
<rect x="150.0" y="92.6" width="11.8" height="275.9" fill="#15803d" opacity="0.78"/>
<text x="155.9" y="84.6" text-anchor="middle" font-size="16" font-weight="700" fill="#0f172a">100.0</text>
<rect x="166.4" y="299.5" width="11.8" height="69.0" fill="#15803d" opacity="0.78"/>
<text x="172.3" y="291.5" text-anchor="middle" font-size="16" font-weight="700" fill="#0f172a">25.0</text>
<rect x="182.8" y="368.4" width="11.8" height="1.0" fill="#15803d" opacity="0.78"/>
<text x="188.7" y="360.4" text-anchor="middle" font-size="16" font-weight="700" fill="#0f172a">0.0</text>
<rect x="199.2" y="299.5" width="11.8" height="69.0" fill="#15803d" opacity="0.78"/>
<text x="205.0" y="291.5" text-anchor="middle" font-size="16" font-weight="700" fill="#0f172a">25.0</text>
<rect x="215.5" y="299.5" width="11.8" height="69.0" fill="#15803d" opacity="0.78"/>
<text x="221.4" y="291.5" text-anchor="middle" font-size="16" font-weight="700" fill="#0f172a">25.0</text>
<rect x="231.9" y="299.5" width="11.8" height="69.0" fill="#15803d" opacity="0.78"/>
<text x="237.8" y="291.5" text-anchor="middle" font-size="16" font-weight="700" fill="#0f172a">25.0</text>
<rect x="248.3" y="299.5" width="11.8" height="69.0" fill="#15803d" opacity="0.78"/>
<text x="254.2" y="291.5" text-anchor="middle" font-size="16" font-weight="700" fill="#0f172a">25.0</text>
<rect x="264.6" y="230.5" width="11.8" height="137.9" fill="#15803d" opacity="0.78"/>
<text x="270.5" y="222.5" text-anchor="middle" font-size="16" font-weight="700" fill="#0f172a">50.0</text>
<rect x="281.0" y="299.5" width="11.8" height="69.0" fill="#15803d" opacity="0.78"/>
<text x="286.9" y="291.5" text-anchor="middle" font-size="16" font-weight="700" fill="#0f172a">25.0</text>
<rect x="297.4" y="368.4" width="11.8" height="1.0" fill="#15803d" opacity="0.78"/>
<text x="303.3" y="360.4" text-anchor="middle" font-size="16" font-weight="700" fill="#0f172a">0.0</text>
<rect x="313.8" y="368.4" width="11.8" height="69.0" fill="#dc2626" opacity="0.78"/>
<text x="319.7" y="455.4" text-anchor="middle" font-size="16" font-weight="700" fill="#0f172a">-25.0</text>
<rect x="330.1" y="161.6" width="11.8" height="206.9" fill="#15803d" opacity="0.78"/>
<text x="336.0" y="153.6" text-anchor="middle" font-size="16" font-weight="700" fill="#0f172a">75.0</text>
<rect x="346.5" y="299.5" width="11.8" height="69.0" fill="#15803d" opacity="0.78"/>
<text x="352.4" y="291.5" text-anchor="middle" font-size="16" font-weight="700" fill="#0f172a">25.0</text>
<rect x="362.9" y="299.5" width="11.8" height="69.0" fill="#15803d" opacity="0.78"/>
<text x="368.8" y="291.5" text-anchor="middle" font-size="16" font-weight="700" fill="#0f172a">25.0</text>
<rect x="379.3" y="299.5" width="11.8" height="69.0" fill="#15803d" opacity="0.78"/>
<text x="385.1" y="291.5" text-anchor="middle" font-size="16" font-weight="700" fill="#0f172a">25.0</text>
<rect x="395.6" y="368.4" width="11.8" height="1.0" fill="#15803d" opacity="0.78"/>
<text x="401.5" y="360.4" text-anchor="middle" font-size="16" font-weight="700" fill="#0f172a">0.0</text>
<rect x="412.0" y="299.5" width="11.8" height="69.0" fill="#15803d" opacity="0.78"/>
<text x="417.9" y="291.5" text-anchor="middle" font-size="16" font-weight="700" fill="#0f172a">25.0</text>
<rect x="428.4" y="299.5" width="11.8" height="69.0" fill="#15803d" opacity="0.78"/>
<text x="434.3" y="291.5" text-anchor="middle" font-size="16" font-weight="700" fill="#0f172a">25.0</text>
<rect x="444.7" y="230.5" width="11.8" height="137.9" fill="#15803d" opacity="0.78"/>
<text x="450.6" y="222.5" text-anchor="middle" font-size="16" font-weight="700" fill="#0f172a">50.0</text>
<rect x="461.1" y="230.5" width="11.8" height="137.9" fill="#15803d" opacity="0.78"/>
<text x="467.0" y="222.5" text-anchor="middle" font-size="16" font-weight="700" fill="#0f172a">50.0</text>
<rect x="477.5" y="230.5" width="11.8" height="137.9" fill="#15803d" opacity="0.78"/>
<text x="483.4" y="222.5" text-anchor="middle" font-size="16" font-weight="700" fill="#0f172a">50.0</text>
<rect x="493.9" y="230.5" width="11.8" height="137.9" fill="#15803d" opacity="0.78"/>
<text x="499.8" y="222.5" text-anchor="middle" font-size="16" font-weight="700" fill="#0f172a">50.0</text>
<rect x="510.2" y="299.5" width="11.8" height="69.0" fill="#15803d" opacity="0.78"/>
<text x="516.1" y="291.5" text-anchor="middle" font-size="16" font-weight="700" fill="#0f172a">25.0</text>
<rect x="526.6" y="368.4" width="11.8" height="1.0" fill="#15803d" opacity="0.78"/>
<text x="532.5" y="360.4" text-anchor="middle" font-size="16" font-weight="700" fill="#0f172a">0.0</text>
<rect x="543.0" y="299.5" width="11.8" height="69.0" fill="#15803d" opacity="0.78"/>
<text x="548.9" y="291.5" text-anchor="middle" font-size="16" font-weight="700" fill="#0f172a">25.0</text>
<rect x="559.4" y="299.5" width="11.8" height="69.0" fill="#15803d" opacity="0.78"/>
<text x="565.2" y="291.5" text-anchor="middle" font-size="16" font-weight="700" fill="#0f172a">25.0</text>
<rect x="575.7" y="299.5" width="11.8" height="69.0" fill="#15803d" opacity="0.78"/>
<text x="581.6" y="291.5" text-anchor="middle" font-size="16" font-weight="700" fill="#0f172a">25.0</text>
<rect x="592.1" y="230.5" width="11.8" height="137.9" fill="#15803d" opacity="0.78"/>
<text x="598.0" y="222.5" text-anchor="middle" font-size="16" font-weight="700" fill="#0f172a">50.0</text>
<rect x="608.5" y="230.5" width="11.8" height="137.9" fill="#15803d" opacity="0.78"/>
<text x="614.4" y="222.5" text-anchor="middle" font-size="16" font-weight="700" fill="#0f172a">50.0</text>
<rect x="624.8" y="230.5" width="11.8" height="137.9" fill="#15803d" opacity="0.78"/>
<text x="630.7" y="222.5" text-anchor="middle" font-size="16" font-weight="700" fill="#0f172a">50.0</text>
<rect x="641.2" y="299.5" width="11.8" height="69.0" fill="#15803d" opacity="0.78"/>
<text x="647.1" y="291.5" text-anchor="middle" font-size="16" font-weight="700" fill="#0f172a">25.0</text>
<rect x="657.6" y="161.6" width="11.8" height="206.9" fill="#15803d" opacity="0.78"/>
<text x="663.5" y="153.6" text-anchor="middle" font-size="16" font-weight="700" fill="#0f172a">75.0</text>
<rect x="674.0" y="299.5" width="11.8" height="69.0" fill="#15803d" opacity="0.78"/>
<text x="679.9" y="291.5" text-anchor="middle" font-size="16" font-weight="700" fill="#0f172a">25.0</text>
<rect x="690.3" y="299.5" width="11.8" height="69.0" fill="#15803d" opacity="0.78"/>
<text x="696.2" y="291.5" text-anchor="middle" font-size="16" font-weight="700" fill="#0f172a">25.0</text>
<rect x="706.7" y="299.5" width="11.8" height="69.0" fill="#15803d" opacity="0.78"/>
<text x="712.6" y="291.5" text-anchor="middle" font-size="16" font-weight="700" fill="#0f172a">25.0</text>
<rect x="723.1" y="299.5" width="11.8" height="69.0" fill="#15803d" opacity="0.78"/>
<text x="729.0" y="291.5" text-anchor="middle" font-size="16" font-weight="700" fill="#0f172a">25.0</text>
<rect x="739.4" y="299.5" width="11.8" height="69.0" fill="#15803d" opacity="0.78"/>
<text x="745.3" y="291.5" text-anchor="middle" font-size="16" font-weight="700" fill="#0f172a">25.0</text>
<rect x="755.8" y="299.5" width="11.8" height="69.0" fill="#15803d" opacity="0.78"/>
<text x="761.7" y="291.5" text-anchor="middle" font-size="16" font-weight="700" fill="#0f172a">25.0</text>
<rect x="772.2" y="299.5" width="11.8" height="69.0" fill="#15803d" opacity="0.78"/>
<text x="778.1" y="291.5" text-anchor="middle" font-size="16" font-weight="700" fill="#0f172a">25.0</text>
<rect x="788.6" y="299.5" width="11.8" height="69.0" fill="#15803d" opacity="0.78"/>
<text x="794.5" y="291.5" text-anchor="middle" font-size="16" font-weight="700" fill="#0f172a">25.0</text>
<rect x="804.9" y="368.4" width="11.8" height="1.0" fill="#15803d" opacity="0.78"/>
<text x="810.8" y="360.4" text-anchor="middle" font-size="16" font-weight="700" fill="#0f172a">0.0</text>
<rect x="821.3" y="368.4" width="11.8" height="1.0" fill="#15803d" opacity="0.78"/>
<text x="827.2" y="360.4" text-anchor="middle" font-size="16" font-weight="700" fill="#0f172a">0.0</text>
<rect x="837.7" y="368.4" width="11.8" height="1.0" fill="#15803d" opacity="0.78"/>
<text x="843.6" y="360.4" text-anchor="middle" font-size="16" font-weight="700" fill="#0f172a">0.0</text>
<rect x="854.1" y="299.5" width="11.8" height="69.0" fill="#15803d" opacity="0.78"/>
<text x="860.0" y="291.5" text-anchor="middle" font-size="16" font-weight="700" fill="#0f172a">25.0</text>
<rect x="870.4" y="299.5" width="11.8" height="69.0" fill="#15803d" opacity="0.78"/>
<text x="876.3" y="291.5" text-anchor="middle" font-size="16" font-weight="700" fill="#0f172a">25.0</text>
<rect x="886.8" y="299.5" width="11.8" height="69.0" fill="#15803d" opacity="0.78"/>
<text x="892.7" y="291.5" text-anchor="middle" font-size="16" font-weight="700" fill="#0f172a">25.0</text>
<rect x="903.2" y="299.5" width="11.8" height="69.0" fill="#15803d" opacity="0.78"/>
<text x="909.1" y="291.5" text-anchor="middle" font-size="16" font-weight="700" fill="#0f172a">25.0</text>
<rect x="919.5" y="230.5" width="11.8" height="137.9" fill="#15803d" opacity="0.78"/>
<text x="925.4" y="222.5" text-anchor="middle" font-size="16" font-weight="700" fill="#0f172a">50.0</text>
<rect x="935.9" y="368.4" width="11.8" height="1.0" fill="#15803d" opacity="0.78"/>
<text x="941.8" y="360.4" text-anchor="middle" font-size="16" font-weight="700" fill="#0f172a">0.0</text>

</svg>
