<svg xmlns="http://www.w3.org/2000/svg" width="980" height="560" viewBox="0 0 980 560" role="img" aria-label="Paarweise Differenzen (Sample)">
<rect width="100%" height="100%" fill="white"/>
<text x="490" y="34" text-anchor="middle" font-size="26" font-weight="700" fill="#0f172a">Paarweise Differenzen (Sample)</text>
<text x="28" y="265" transform="rotate(-90 28 265)" text-anchor="middle" font-size="24" fill="#475569">Workflow - Direkter Aufruf (Prozentpunkte)</text>
<text x="532.5" y="536" text-anchor="middle" font-size="24" fill="#475569">Erste 120 Antwortpaare, geordnet nach Frage/Run</text>
<line x1="115" y1="308.1" x2="950" y2="308.1" stroke="#94a3b8" stroke-dasharray="4 4"/>
<line x1="115" y1="65" x2="115" y2="465" stroke="#cbd5e1"/>
<line x1="115" y1="465" x2="950" y2="465" stroke="#cbd5e1"/>
<line x1="115" y1="465.0" x2="950" y2="465.0" stroke="#e2e8f0"/>
<text x="105" y="470.0" text-anchor="end" font-size="16" fill="#64748b">-73</text>
<line x1="115" y1="365.0" x2="950" y2="365.0" stroke="#e2e8f0"/>
<text x="105" y="370.0" text-anchor="end" font-size="16" fill="#64748b">-26</text>
<line x1="115" y1="265.0" x2="950" y2="265.0" stroke="#e2e8f0"/>
<text x="105" y="270.0" text-anchor="end" font-size="16" fill="#64748b">20</text>
<line x1="115" y1="165.0" x2="950" y2="165.0" stroke="#e2e8f0"/>
<text x="105" y="170.0" text-anchor="end" font-size="16" fill="#64748b">66</text>
<line x1="115" y1="65.0" x2="950" y2="65.0" stroke="#e2e8f0"/>
<text x="105" y="70.0" text-anchor="end" font-size="16" fill="#64748b">113</text>
<rect x="116.4" y="265.0" width="7.1" height="43.1" fill="#15803d" opacity="0.78"/>
<text x="119.9" y="257.0" text-anchor="middle" font-size="16" font-weight="700" fill="#0f172a">20.0</text>
<rect x="126.2" y="308.1" width="7.1" height="43.1" fill="#dc2626" opacity="0.78"/>
<text x="129.7" y="369.2" text-anchor="middle" font-size="16" font-weight="700" fill="#0f172a">-20.0</text>
<rect x="136.0" y="200.3" width="7.1" height="107.8" fill="#15803d" opacity="0.78"/>
<text x="139.6" y="192.3" text-anchor="middle" font-size="16" font-weight="700" fill="#0f172a">50.0</text>
<rect x="145.8" y="308.1" width="7.1" height="1.0" fill="#15803d" opacity="0.78"/>
<text x="149.4" y="300.1" text-anchor="middle" font-size="16" font-weight="700" fill="#0f172a">0.0</text>
<rect x="155.7" y="178.8" width="7.1" height="129.3" fill="#15803d" opacity="0.78"/>
<text x="159.2" y="170.8" text-anchor="middle" font-size="16" font-weight="700" fill="#0f172a">60.0</text>
<rect x="165.5" y="308.1" width="7.1" height="1.0" fill="#15803d" opacity="0.78"/>
<text x="169.0" y="300.1" text-anchor="middle" font-size="16" font-weight="700" fill="#0f172a">0.0</text>
<rect x="175.3" y="308.1" width="7.1" height="1.0" fill="#15803d" opacity="0.78"/>
<text x="178.9" y="300.1" text-anchor="middle" font-size="16" font-weight="700" fill="#0f172a">0.0</text>
<rect x="185.1" y="308.1" width="7.1" height="1.0" fill="#15803d" opacity="0.78"/>
<text x="188.7" y="300.1" text-anchor="middle" font-size="16" font-weight="700" fill="#0f172a">0.0</text>
<rect x="195.0" y="308.1" width="7.1" height="129.3" fill="#dc2626" opacity="0.78"/>
<text x="198.5" y="455.4" text-anchor="middle" font-size="16" font-weight="700" fill="#0f172a">-60.0</text>
<rect x="204.8" y="308.1" width="7.1" height="43.1" fill="#dc2626" opacity="0.78"/>
<text x="208.3" y="369.2" text-anchor="middle" font-size="16" font-weight="700" fill="#0f172a">-20.0</text>
<rect x="214.6" y="308.1" width="7.1" height="43.1" fill="#dc2626" opacity="0.78"/>
<text x="218.1" y="369.2" text-anchor="middle" font-size="16" font-weight="700" fill="#0f172a">-20.0</text>
<rect x="224.4" y="308.1" width="7.1" height="1.0" fill="#15803d" opacity="0.78"/>
<text x="228.0" y="300.1" text-anchor="middle" font-size="16" font-weight="700" fill="#0f172a">0.0</text>
<rect x="234.3" y="265.0" width="7.1" height="43.1" fill="#15803d" opacity="0.78"/>
<text x="237.8" y="257.0" text-anchor="middle" font-size="16" font-weight="700" fill="#0f172a">20.0</text>
<rect x="244.1" y="308.1" width="7.1" height="1.0" fill="#15803d" opacity="0.78"/>
<text x="247.6" y="300.1" text-anchor="middle" font-size="16" font-weight="700" fill="#0f172a">0.0</text>
<rect x="253.9" y="308.1" width="7.1" height="1.0" fill="#15803d" opacity="0.78"/>
<text x="257.4" y="300.1" text-anchor="middle" font-size="16" font-weight="700" fill="#0f172a">0.0</text>
<rect x="263.7" y="178.8" width="7.1" height="129.3" fill="#15803d" opacity="0.78"/>
<text x="267.3" y="170.8" text-anchor="middle" font-size="16" font-weight="700" fill="#0f172a">60.0</text>
<rect x="273.6" y="178.8" width="7.1" height="129.3" fill="#15803d" opacity="0.78"/>
<text x="277.1" y="170.8" text-anchor="middle" font-size="16" font-weight="700" fill="#0f172a">60.0</text>
<rect x="283.4" y="178.8" width="7.1" height="129.3" fill="#15803d" opacity="0.78"/>
<text x="286.9" y="170.8" text-anchor="middle" font-size="16" font-weight="700" fill="#0f172a">60.0</text>
<rect x="293.2" y="308.1" width="7.1" height="1.0" fill="#15803d" opacity="0.78"/>
<text x="296.7" y="300.1" text-anchor="middle" font-size="16" font-weight="700" fill="#0f172a">0.0</text>
<rect x="303.0" y="308.1" width="7.1" height="1.0" fill="#15803d" opacity="0.78"/>
<text x="306.6" y="300.1" text-anchor="middle" font-size="16" font-weight="700" fill="#0f172a">0.0</text>
<rect x="312.8" y="308.1" width="7.1" height="1.0" fill="#15803d" opacity="0.78"/>
<text x="316.4" y="300.1" text-anchor="middle" font-size="16" font-weight="700" fill="#0f172a">0.0</text>
<rect x="322.7" y="308.1" width="7.1" height="1.0" fill="#15803d" opacity="0.78"/>
<text x="326.2" y="300.1" text-anchor="middle" font-size="16" font-weight="700" fill="#0f172a">0.0</text>
<rect x="332.5" y="265.0" width="7.1" height="43.1" fill="#15803d" opacity="0.78"/>
<text x="336.0" y="257.0" text-anchor="middle" font-size="16" font-weight="700" fill="#0f172a">20.0</text>
<rect x="342.3" y="308.1" width="7.1" height="1.0" fill="#15803d" opacity="0.78"/>
<text x="345.9" y="300.1" text-anchor="middle" font-size="16" font-weight="700" fill="#0f172a">0.0</text>
<rect x="352.1" y="308.1" width="7.1" height="1.0" fill="#15803d" opacity="0.78"/>
<text x="355.7" y="300.1" text-anchor="middle" font-size="16" font-weight="700" fill="#0f172a">0.0</text>
<rect x="362.0" y="135.7" width="7.1" height="172.4" fill="#15803d" opacity="0.78"/>
<text x="365.5" y="127.7" text-anchor="middle" font-size="16" font-weight="700" fill="#0f172a">80.0</text>
<rect x="371.8" y="178.8" width="7.1" height="129.3" fill="#15803d" opacity="0.78"/>
<text x="375.3" y="170.8" text-anchor="middle" font-size="16" font-weight="700" fill="#0f172a">60.0</text>
<rect x="381.6" y="178.8" width="7.1" height="129.3" fill="#15803d" opacity="0.78"/>
<text x="385.1" y="170.8" text-anchor="middle" font-size="16" font-weight="700" fill="#0f172a">60.0</text>
<rect x="391.4" y="308.1" width="7.1" height="1.0" fill="#15803d" opacity="0.78"/>
<text x="395.0" y="300.1" text-anchor="middle" font-size="16" font-weight="700" fill="#0f172a">0.0</text>
<rect x="401.3" y="178.8" width="7.1" height="129.3" fill="#15803d" opacity="0.78"/>
<text x="404.8" y="170.8" text-anchor="middle" font-size="16" font-weight="700" fill="#0f172a">60.0</text>
<rect x="411.1" y="308.1" width="7.1" height="1.0" fill="#15803d" opacity="0.78"/>
<text x="414.6" y="300.1" text-anchor="middle" font-size="16" font-weight="700" fill="#0f172a">0.0</text>
<rect x="420.9" y="308.1" width="7.1" height="1.0" fill="#15803d" opacity="0.78"/>
<text x="424.4" y="300.1" text-anchor="middle" font-size="16" font-weight="700" fill="#0f172a">0.0</text>
<rect x="430.7" y="221.9" width="7.1" height="86.2" fill="#15803d" opacity="0.78"/>
<text x="434.3" y="213.9" text-anchor="middle" font-size="16" font-weight="700" fill="#0f172a">40.0</text>
<rect x="440.6" y="254.2" width="7.1" height="53.9" fill="#15803d" opacity="0.78"/>
<text x="444.1" y="246.2" text-anchor="middle" font-size="16" font-weight="700" fill="#0f172a">25.0</text>
<rect x="450.4" y="254.2" width="7.1" height="53.9" fill="#15803d" opacity="0.78"/>
<text x="453.9" y="246.2" text-anchor="middle" font-size="16" font-weight="700" fill="#0f172a">25.0</text>
<rect x="460.2" y="284.2" width="7.1" height="23.9" fill="#15803d" opacity="0.78"/>
<text x="463.7" y="276.2" text-anchor="middle" font-size="16" font-weight="700" fill="#0f172a">11.1</text>
<rect x="470.0" y="260.2" width="7.1" height="47.9" fill="#15803d" opacity="0.78"/>
<text x="473.6" y="252.2" text-anchor="middle" font-size="16" font-weight="700" fill="#0f172a">22.2</text>
<rect x="479.8" y="284.2" width="7.1" height="23.9" fill="#15803d" opacity="0.78"/>
<text x="483.4" y="276.2" text-anchor="middle" font-size="16" font-weight="700" fill="#0f172a">11.1</text>
<rect x="489.7" y="260.2" width="7.1" height="47.9" fill="#15803d" opacity="0.78"/>
<text x="493.2" y="252.2" text-anchor="middle" font-size="16" font-weight="700" fill="#0f172a">22.2</text>
<rect x="499.5" y="308.1" width="7.1" height="1.0" fill="#15803d" opacity="0.78"/>
<text x="503.0" y="300.1" text-anchor="middle" font-size="16" font-weight="700" fill="#0f172a">0.0</text>
<rect x="509.3" y="236.3" width="7.1" height="71.8" fill="#15803d" opacity="0.78"/>
<text x="512.9" y="228.3" text-anchor="middle" font-size="16" font-weight="700" fill="#0f172a">33.3</text>
<rect x="519.1" y="200.3" width="7.1" height="107.8" fill="#15803d" opacity="0.78"/>
<text x="522.7" y="192.3" text-anchor="middle" font-size="16" font-weight="700" fill="#0f172a">50.0</text>
<rect x="529.0" y="254.2" width="7.1" height="53.9" fill="#15803d" opacity="0.78"/>
<text x="532.5" y="246.2" text-anchor="middle" font-size="16" font-weight="700" fill="#0f172a">25.0</text>
<rect x="538.8" y="200.3" width="7.1" height="107.8" fill="#15803d" opacity="0.78"/>
<text x="542.3" y="192.3" text-anchor="middle" font-size="16" font-weight="700" fill="#0f172a">50.0</text>
<rect x="548.6" y="200.3" width="7.1" height="107.8" fill="#15803d" opacity="0.78"/>
<text x="552.1" y="192.3" text-anchor="middle" font-size="16" font-weight="700" fill="#0f172a">50.0</text>
<rect x="558.4" y="254.2" width="7.1" height="53.9" fill="#15803d" opacity="0.78"/>
<text x="562.0" y="246.2" text-anchor="middle" font-size="16" font-weight="700" fill="#0f172a">25.0</text>
<rect x="568.3" y="308.1" width="7.1" height="1.0" fill="#15803d" opacity="0.78"/>
<text x="571.8" y="300.1" text-anchor="middle" font-size="16" font-weight="700" fill="#0f172a">0.0</text>
<rect x="578.1" y="308.1" width="7.1" height="1.0" fill="#15803d" opacity="0.78"/>
<text x="581.6" y="300.1" text-anchor="middle" font-size="16" font-weight="700" fill="#0f172a">0.0</text>
<rect x="587.9" y="92.6" width="7.1" height="215.5" fill="#15803d" opacity="0.78"/>
<text x="591.4" y="84.6" text-anchor="middle" font-size="16" font-weight="700" fill="#0f172a">100.0</text>
<rect x="597.7" y="92.6" width="7.1" height="215.5" fill="#15803d" opacity="0.78"/>
<text x="601.3" y="84.6" text-anchor="middle" font-size="16" font-weight="700" fill="#0f172a">100.0</text>
<rect x="607.6" y="200.3" width="7.1" height="107.8" fill="#15803d" opacity="0.78"/>
<text x="611.1" y="192.3" text-anchor="middle" font-size="16" font-weight="700" fill="#0f172a">50.0</text>
<rect x="617.4" y="254.2" width="7.1" height="53.9" fill="#15803d" opacity="0.78"/>
<text x="620.9" y="246.2" text-anchor="middle" font-size="16" font-weight="700" fill="#0f172a">25.0</text>
<rect x="627.2" y="92.6" width="7.1" height="215.5" fill="#15803d" opacity="0.78"/>
<text x="630.7" y="84.6" text-anchor="middle" font-size="16" font-weight="700" fill="#0f172a">100.0</text>
<rect x="637.0" y="92.6" width="7.1" height="215.5" fill="#15803d" opacity="0.78"/>
<text x="640.6" y="84.6" text-anchor="middle" font-size="16" font-weight="700" fill="#0f172a">100.0</text>
<rect x="646.8" y="92.6" width="7.1" height="215.5" fill="#15803d" opacity="0.78"/>
<text x="650.4" y="84.6" text-anchor="middle" font-size="16" font-weight="700" fill="#0f172a">100.0</text>
<rect x="656.7" y="92.6" width="7.1" height="215.5" fill="#15803d" opacity="0.78"/>
<text x="660.2" y="84.6" text-anchor="middle" font-size="16" font-weight="700" fill="#0f172a">100.0</text>
<rect x="666.5" y="308.1" width="7.1" height="1.0" fill="#15803d" opacity="0.78"/>
<text x="670.0" y="300.1" text-anchor="middle" font-size="16" font-weight="700" fill="#0f172a">0.0</text>
<rect x="676.3" y="146.5" width="7.1" height="161.6" fill="#15803d" opacity="0.78"/>
<text x="679.9" y="138.5" text-anchor="middle" font-size="16" font-weight="700" fill="#0f172a">75.0</text>
<rect x="686.1" y="308.1" width="7.1" height="1.0" fill="#15803d" opacity="0.78"/>
<text x="689.7" y="300.1" text-anchor="middle" font-size="16" font-weight="700" fill="#0f172a">0.0</text>
<rect x="696.0" y="200.3" width="7.1" height="107.8" fill="#15803d" opacity="0.78"/>
<text x="699.5" y="192.3" text-anchor="middle" font-size="16" font-weight="700" fill="#0f172a">50.0</text>
<rect x="705.8" y="200.3" width="7.1" height="107.8" fill="#15803d" opacity="0.78"/>
<text x="709.3" y="192.3" text-anchor="middle" font-size="16" font-weight="700" fill="#0f172a">50.0</text>
<rect x="715.6" y="254.2" width="7.1" height="53.9" fill="#15803d" opacity="0.78"/>
<text x="719.1" y="246.2" text-anchor="middle" font-size="16" font-weight="700" fill="#0f172a">25.0</text>
<rect x="725.4" y="254.2" width="7.1" height="53.9" fill="#15803d" opacity="0.78"/>
<text x="729.0" y="246.2" text-anchor="middle" font-size="16" font-weight="700" fill="#0f172a">25.0</text>
<rect x="735.3" y="200.3" width="7.1" height="107.8" fill="#15803d" opacity="0.78"/>
<text x="738.8" y="192.3" text-anchor="middle" font-size="16" font-weight="700" fill="#0f172a">50.0</text>
<rect x="745.1" y="308.1" width="7.1" height="1.0" fill="#15803d" opacity="0.78"/>
<text x="748.6" y="300.1" text-anchor="middle" font-size="16" font-weight="700" fill="#0f172a">0.0</text>
<rect x="754.9" y="200.3" width="7.1" height="107.8" fill="#15803d" opacity="0.78"/>
<text x="758.4" y="192.3" text-anchor="middle" font-size="16" font-weight="700" fill="#0f172a">50.0</text>
<rect x="764.7" y="92.6" width="7.1" height="215.5" fill="#15803d" opacity="0.78"/>
<text x="768.3" y="84.6" text-anchor="middle" font-size="16" font-weight="700" fill="#0f172a">100.0</text>
<rect x="774.6" y="92.6" width="7.1" height="215.5" fill="#15803d" opacity="0.78"/>
<text x="778.1" y="84.6" text-anchor="middle" font-size="16" font-weight="700" fill="#0f172a">100.0</text>
<rect x="784.4" y="254.2" width="7.1" height="53.9" fill="#15803d" opacity="0.78"/>
<text x="787.9" y="246.2" text-anchor="middle" font-size="16" font-weight="700" fill="#0f172a">25.0</text>
<rect x="794.2" y="200.3" width="7.1" height="107.8" fill="#15803d" opacity="0.78"/>
<text x="797.7" y="192.3" text-anchor="middle" font-size="16" font-weight="700" fill="#0f172a">50.0</text>
<rect x="804.0" y="146.5" width="7.1" height="161.6" fill="#15803d" opacity="0.78"/>
<text x="807.6" y="138.5" text-anchor="middle" font-size="16" font-weight="700" fill="#0f172a">75.0</text>
<rect x="813.8" y="200.3" width="7.1" height="107.8" fill="#15803d" opacity="0.78"/>
<text x="817.4" y="192.3" text-anchor="middle" font-size="16" font-weight="700" fill="#0f172a">50.0</text>
<rect x="823.7" y="200.3" width="7.1" height="107.8" fill="#15803d" opacity="0.78"/>
<text x="827.2" y="192.3" text-anchor="middle" font-size="16" font-weight="700" fill="#0f172a">50.0</text>
<rect x="833.5" y="200.3" width="7.1" height="107.8" fill="#15803d" opacity="0.78"/>
<text x="837.0" y="192.3" text-anchor="middle" font-size="16" font-weight="700" fill="#0f172a">50.0</text>
<rect x="843.3" y="200.3" width="7.1" height="107.8" fill="#15803d" opacity="0.78"/>
<text x="846.9" y="192.3" text-anchor="middle" font-size="16" font-weight="700" fill="#0f172a">50.0</text>
<rect x="853.1" y="200.3" width="7.1" height="107.8" fill="#15803d" opacity="0.78"/>
<text x="856.7" y="192.3" text-anchor="middle" font-size="16" font-weight="700" fill="#0f172a">50.0</text>
<rect x="863.0" y="200.3" width="7.1" height="107.8" fill="#15803d" opacity="0.78"/>
<text x="866.5" y="192.3" text-anchor="middle" font-size="16" font-weight="700" fill="#0f172a">50.0</text>
<rect x="872.8" y="200.3" width="7.1" height="107.8" fill="#15803d" opacity="0.78"/>
<text x="876.3" y="192.3" text-anchor="middle" font-size="16" font-weight="700" fill="#0f172a">50.0</text>
<rect x="882.6" y="254.2" width="7.1" height="53.9" fill="#15803d" opacity="0.78"/>
<text x="886.1" y="246.2" text-anchor="middle" font-size="16" font-weight="700" fill="#0f172a">25.0</text>
<rect x="892.4" y="146.5" width="7.1" height="161.6" fill="#15803d" opacity="0.78"/>
<text x="896.0" y="138.5" text-anchor="middle" font-size="16" font-weight="700" fill="#0f172a">75.0</text>
<rect x="902.3" y="254.2" width="7.1" height="53.9" fill="#15803d" opacity="0.78"/>
<text x="905.8" y="246.2" text-anchor="middle" font-size="16" font-weight="700" fill="#0f172a">25.0</text>
<rect x="912.1" y="254.2" width="7.1" height="53.9" fill="#15803d" opacity="0.78"/>
<text x="915.6" y="246.2" text-anchor="middle" font-size="16" font-weight="700" fill="#0f172a">25.0</text>
<rect x="921.9" y="254.2" width="7.1" height="53.9" fill="#15803d" opacity="0.78"/>
<text x="925.4" y="246.2" text-anchor="middle" font-size="16" font-weight="700" fill="#0f172a">25.0</text>
<rect x="931.7" y="254.2" width="7.1" height="53.9" fill="#15803d" opacity="0.78"/>
<text x="935.3" y="246.2" text-anchor="middle" font-size="16" font-weight="700" fill="#0f172a">25.0</text>
<rect x="941.6" y="200.3" width="7.1" height="107.8" fill="#15803d" opacity="0.78"/>
<text x="945.1" y="192.3" text-anchor="middle" font-size="16" font-weight="700" fill="#0f172a">50.0</text>

</svg>
