<svg xmlns="http://www.w3.org/2000/svg" width="980" height="560" viewBox="0 0 980 560" role="img" aria-label="Paarweise Differenzen Teil 4/4">
<rect width="100%" height="100%" fill="white"/>
<text x="490" y="34" text-anchor="middle" font-size="26" font-weight="700" fill="#0f172a">Paarweise Differenzen Teil 4/4</text>
<text x="28" y="265" transform="rotate(-90 28 265)" text-anchor="middle" font-size="24" fill="#475569">Workflow - Direkter Aufruf (Prozentpunkte)</text>
<text x="532.5" y="536" text-anchor="middle" font-size="24" fill="#475569">Antwortpaare 301-374 von 374</text>
<line x1="115" y1="240.4" x2="950" y2="240.4" stroke="#94a3b8" stroke-dasharray="4 4"/>
<line x1="115" y1="65" x2="115" y2="465" stroke="#cbd5e1"/>
<line x1="115" y1="465" x2="950" y2="465" stroke="#cbd5e1"/>
<line x1="115" y1="465.0" x2="950" y2="465.0" stroke="#e2e8f0"/>
<text x="105" y="470.0" text-anchor="end" font-size="16" fill="#64748b">-114</text>
<line x1="115" y1="365.0" x2="950" y2="365.0" stroke="#e2e8f0"/>
<text x="105" y="370.0" text-anchor="end" font-size="16" fill="#64748b">-63</text>
<line x1="115" y1="265.0" x2="950" y2="265.0" stroke="#e2e8f0"/>
<text x="105" y="270.0" text-anchor="end" font-size="16" fill="#64748b">-13</text>
<line x1="115" y1="165.0" x2="950" y2="165.0" stroke="#e2e8f0"/>
<text x="105" y="170.0" text-anchor="end" font-size="16" fill="#64748b">38</text>
<line x1="115" y1="65.0" x2="950" y2="65.0" stroke="#e2e8f0"/>
<text x="105" y="70.0" text-anchor="end" font-size="16" fill="#64748b">89</text>
<rect x="116.6" y="240.4" width="8.1" height="1.0" fill="#15803d" opacity="0.78"/>

<rect x="127.9" y="240.4" width="8.1" height="1.0" fill="#15803d" opacity="0.78"/>

<rect x="139.1" y="240.4" width="8.1" height="1.0" fill="#15803d" opacity="0.78"/>

<rect x="150.4" y="240.4" width="8.1" height="1.0" fill="#15803d" opacity="0.78"/>

<rect x="161.7" y="240.4" width="8.1" height="1.0" fill="#15803d" opacity="0.78"/>

<rect x="173.0" y="240.4" width="8.1" height="1.0" fill="#15803d" opacity="0.78"/>

<rect x="184.3" y="240.4" width="8.1" height="49.3" fill="#dc2626" opacity="0.78"/>

<rect x="195.6" y="240.4" width="8.1" height="1.0" fill="#15803d" opacity="0.78"/>

<rect x="206.8" y="240.4" width="8.1" height="1.0" fill="#15803d" opacity="0.78"/>

<rect x="218.1" y="240.4" width="8.1" height="1.0" fill="#15803d" opacity="0.78"/>

<rect x="229.4" y="240.4" width="8.1" height="1.0" fill="#15803d" opacity="0.78"/>

<rect x="240.7" y="240.4" width="8.1" height="1.0" fill="#15803d" opacity="0.78"/>

<rect x="252.0" y="240.4" width="8.1" height="98.5" fill="#dc2626" opacity="0.78"/>

<rect x="263.3" y="240.4" width="8.1" height="1.0" fill="#15803d" opacity="0.78"/>

<rect x="274.6" y="191.1" width="8.1" height="49.3" fill="#15803d" opacity="0.78"/>

<rect x="285.8" y="240.4" width="8.1" height="1.0" fill="#15803d" opacity="0.78"/>

<rect x="297.1" y="240.4" width="8.1" height="1.0" fill="#15803d" opacity="0.78"/>

<rect x="308.4" y="240.4" width="8.1" height="1.0" fill="#15803d" opacity="0.78"/>

<rect x="319.7" y="240.4" width="8.1" height="1.0" fill="#15803d" opacity="0.78"/>

<rect x="331.0" y="240.4" width="8.1" height="1.0" fill="#15803d" opacity="0.78"/>

<rect x="342.3" y="240.4" width="8.1" height="1.0" fill="#15803d" opacity="0.78"/>

<rect x="353.5" y="240.4" width="8.1" height="1.0" fill="#15803d" opacity="0.78"/>

<rect x="364.8" y="240.4" width="8.1" height="1.0" fill="#15803d" opacity="0.78"/>

<rect x="376.1" y="240.4" width="8.1" height="1.0" fill="#15803d" opacity="0.78"/>

<rect x="387.4" y="240.4" width="8.1" height="1.0" fill="#15803d" opacity="0.78"/>

<rect x="398.7" y="240.4" width="8.1" height="49.3" fill="#dc2626" opacity="0.78"/>

<rect x="410.0" y="240.4" width="8.1" height="1.0" fill="#15803d" opacity="0.78"/>

<rect x="421.2" y="240.4" width="8.1" height="49.3" fill="#dc2626" opacity="0.78"/>

<rect x="432.5" y="240.4" width="8.1" height="49.3" fill="#dc2626" opacity="0.78"/>

<rect x="443.8" y="240.4" width="8.1" height="49.3" fill="#dc2626" opacity="0.78"/>

<rect x="455.1" y="240.4" width="8.1" height="49.3" fill="#dc2626" opacity="0.78"/>

<rect x="466.4" y="240.4" width="8.1" height="1.0" fill="#15803d" opacity="0.78"/>

<rect x="477.7" y="191.1" width="8.1" height="49.3" fill="#15803d" opacity="0.78"/>

<rect x="488.9" y="191.1" width="8.1" height="49.3" fill="#15803d" opacity="0.78"/>

<rect x="500.2" y="240.4" width="8.1" height="1.0" fill="#15803d" opacity="0.78"/>

<rect x="511.5" y="240.4" width="8.1" height="1.0" fill="#15803d" opacity="0.78"/>

<rect x="522.8" y="191.1" width="8.1" height="49.3" fill="#15803d" opacity="0.78"/>

<rect x="534.1" y="141.8" width="8.1" height="98.5" fill="#15803d" opacity="0.78"/>

<rect x="545.4" y="191.1" width="8.1" height="49.3" fill="#15803d" opacity="0.78"/>

<rect x="556.6" y="240.4" width="8.1" height="98.5" fill="#dc2626" opacity="0.78"/>

<rect x="567.9" y="240.4" width="8.1" height="1.0" fill="#15803d" opacity="0.78"/>

<rect x="579.2" y="240.4" width="8.1" height="1.0" fill="#15803d" opacity="0.78"/>

<rect x="590.5" y="191.1" width="8.1" height="49.3" fill="#15803d" opacity="0.78"/>

<rect x="601.8" y="240.4" width="8.1" height="1.0" fill="#15803d" opacity="0.78"/>

<rect x="613.1" y="240.4" width="8.1" height="1.0" fill="#15803d" opacity="0.78"/>

<rect x="624.4" y="240.4" width="8.1" height="1.0" fill="#15803d" opacity="0.78"/>

<rect x="635.6" y="191.1" width="8.1" height="49.3" fill="#15803d" opacity="0.78"/>

<rect x="646.9" y="240.4" width="8.1" height="1.0" fill="#15803d" opacity="0.78"/>

<rect x="658.2" y="240.4" width="8.1" height="197.0" fill="#dc2626" opacity="0.78"/>

<rect x="669.5" y="240.4" width="8.1" height="49.3" fill="#dc2626" opacity="0.78"/>

<rect x="680.8" y="240.4" width="8.1" height="1.0" fill="#15803d" opacity="0.78"/>

<rect x="692.1" y="240.4" width="8.1" height="1.0" fill="#15803d" opacity="0.78"/>

<rect x="703.3" y="240.4" width="8.1" height="49.3" fill="#dc2626" opacity="0.78"/>

<rect x="714.6" y="240.4" width="8.1" height="49.3" fill="#dc2626" opacity="0.78"/>

<rect x="725.9" y="240.4" width="8.1" height="1.0" fill="#15803d" opacity="0.78"/>

<rect x="737.2" y="240.4" width="8.1" height="1.0" fill="#15803d" opacity="0.78"/>

<rect x="748.5" y="191.1" width="8.1" height="49.3" fill="#15803d" opacity="0.78"/>

<rect x="759.8" y="240.4" width="8.1" height="1.0" fill="#15803d" opacity="0.78"/>

<rect x="771.0" y="240.4" width="8.1" height="1.0" fill="#15803d" opacity="0.78"/>

<rect x="782.3" y="92.6" width="8.1" height="147.8" fill="#15803d" opacity="0.78"/>

<rect x="793.6" y="141.8" width="8.1" height="98.5" fill="#15803d" opacity="0.78"/>

<rect x="804.9" y="240.4" width="8.1" height="1.0" fill="#15803d" opacity="0.78"/>

<rect x="816.2" y="240.4" width="8.1" height="1.0" fill="#15803d" opacity="0.78"/>

<rect x="827.5" y="141.8" width="8.1" height="98.5" fill="#15803d" opacity="0.78"/>

<rect x="838.7" y="240.4" width="8.1" height="1.0" fill="#15803d" opacity="0.78"/>

<rect x="850.0" y="240.4" width="8.1" height="49.3" fill="#dc2626" opacity="0.78"/>

<rect x="861.3" y="240.4" width="8.1" height="1.0" fill="#15803d" opacity="0.78"/>

<rect x="872.6" y="141.8" width="8.1" height="98.5" fill="#15803d" opacity="0.78"/>

<rect x="883.9" y="240.4" width="8.1" height="1.0" fill="#15803d" opacity="0.78"/>

<rect x="895.2" y="240.4" width="8.1" height="1.0" fill="#15803d" opacity="0.78"/>

<rect x="906.4" y="240.4" width="8.1" height="49.3" fill="#dc2626" opacity="0.78"/>

<rect x="917.7" y="240.4" width="8.1" height="1.0" fill="#15803d" opacity="0.78"/>

<rect x="929.0" y="240.4" width="8.1" height="1.0" fill="#15803d" opacity="0.78"/>

<rect x="940.3" y="240.4" width="8.1" height="49.3" fill="#dc2626" opacity="0.78"/>


</svg>
