<svg xmlns="http://www.w3.org/2000/svg" width="980" height="560" viewBox="0 0 980 560" role="img" aria-label="Paarweise Differenzen Teil 2/2">
<rect width="100%" height="100%" fill="white"/>
<text x="490" y="34" text-anchor="middle" font-size="26" font-weight="700" fill="#0f172a">Paarweise Differenzen Teil 2/2</text>
<text x="28" y="265" transform="rotate(-90 28 265)" text-anchor="middle" font-size="24" fill="#475569">Workflow - Direkter Aufruf (Prozentpunkte)</text>
<text x="532.5" y="536" text-anchor="middle" font-size="24" fill="#475569">Antwortpaare 101-196 von 196</text>
<line x1="115" y1="368.4" x2="950" y2="368.4" stroke="#94a3b8" stroke-dasharray="4 4"/>
<line x1="115" y1="65" x2="115" y2="465" stroke="#cbd5e1"/>
<line x1="115" y1="465" x2="950" y2="465" stroke="#cbd5e1"/>
<line x1="115" y1="465.0" x2="950" y2="465.0" stroke="#e2e8f0"/>
<text x="105" y="470.0" text-anchor="end" font-size="16" fill="#64748b">-35</text>
<line x1="115" y1="365.0" x2="950" y2="365.0" stroke="#e2e8f0"/>
<text x="105" y="370.0" text-anchor="end" font-size="16" fill="#64748b">1</text>
<line x1="115" y1="265.0" x2="950" y2="265.0" stroke="#e2e8f0"/>
<text x="105" y="270.0" text-anchor="end" font-size="16" fill="#64748b">38</text>
<line x1="115" y1="165.0" x2="950" y2="165.0" stroke="#e2e8f0"/>
<text x="105" y="170.0" text-anchor="end" font-size="16" fill="#64748b">74</text>
<line x1="115" y1="65.0" x2="950" y2="65.0" stroke="#e2e8f0"/>
<text x="105" y="70.0" text-anchor="end" font-size="16" fill="#64748b">110</text>
<rect x="116.2" y="299.5" width="6.3" height="69.0" fill="#15803d" opacity="0.78"/>

<rect x="124.9" y="368.4" width="6.3" height="1.0" fill="#15803d" opacity="0.78"/>

<rect x="133.6" y="368.4" width="6.3" height="1.0" fill="#15803d" opacity="0.78"/>

<rect x="142.3" y="368.4" width="6.3" height="1.0" fill="#15803d" opacity="0.78"/>

<rect x="151.0" y="368.4" width="6.3" height="1.0" fill="#15803d" opacity="0.78"/>

<rect x="159.7" y="299.5" width="6.3" height="69.0" fill="#15803d" opacity="0.78"/>

<rect x="168.4" y="368.4" width="6.3" height="69.0" fill="#dc2626" opacity="0.78"/>

<rect x="177.1" y="299.5" width="6.3" height="69.0" fill="#15803d" opacity="0.78"/>

<rect x="185.8" y="299.5" width="6.3" height="69.0" fill="#15803d" opacity="0.78"/>

<rect x="194.5" y="368.4" width="6.3" height="1.0" fill="#15803d" opacity="0.78"/>

<rect x="203.2" y="368.4" width="6.3" height="1.0" fill="#15803d" opacity="0.78"/>

<rect x="211.9" y="368.4" width="6.3" height="1.0" fill="#15803d" opacity="0.78"/>

<rect x="220.6" y="368.4" width="6.3" height="1.0" fill="#15803d" opacity="0.78"/>

<rect x="229.3" y="299.5" width="6.3" height="69.0" fill="#15803d" opacity="0.78"/>

<rect x="238.0" y="368.4" width="6.3" height="1.0" fill="#15803d" opacity="0.78"/>

<rect x="246.7" y="368.4" width="6.3" height="1.0" fill="#15803d" opacity="0.78"/>

<rect x="255.4" y="368.4" width="6.3" height="1.0" fill="#15803d" opacity="0.78"/>

<rect x="264.1" y="368.4" width="6.3" height="1.0" fill="#15803d" opacity="0.78"/>

<rect x="272.8" y="368.4" width="6.3" height="1.0" fill="#15803d" opacity="0.78"/>

<rect x="281.5" y="368.4" width="6.3" height="1.0" fill="#15803d" opacity="0.78"/>

<rect x="290.2" y="368.4" width="6.3" height="1.0" fill="#15803d" opacity="0.78"/>

<rect x="298.9" y="368.4" width="6.3" height="1.0" fill="#15803d" opacity="0.78"/>

<rect x="307.6" y="230.5" width="6.3" height="137.9" fill="#15803d" opacity="0.78"/>

<rect x="316.3" y="368.4" width="6.3" height="1.0" fill="#15803d" opacity="0.78"/>

<rect x="325.0" y="299.5" width="6.3" height="69.0" fill="#15803d" opacity="0.78"/>

<rect x="333.7" y="299.5" width="6.3" height="69.0" fill="#15803d" opacity="0.78"/>

<rect x="342.4" y="299.5" width="6.3" height="69.0" fill="#15803d" opacity="0.78"/>

<rect x="351.1" y="299.5" width="6.3" height="69.0" fill="#15803d" opacity="0.78"/>

<rect x="359.8" y="368.4" width="6.3" height="1.0" fill="#15803d" opacity="0.78"/>

<rect x="368.5" y="299.5" width="6.3" height="69.0" fill="#15803d" opacity="0.78"/>

<rect x="377.2" y="368.4" width="6.3" height="1.0" fill="#15803d" opacity="0.78"/>

<rect x="385.9" y="368.4" width="6.3" height="1.0" fill="#15803d" opacity="0.78"/>

<rect x="394.6" y="368.4" width="6.3" height="1.0" fill="#15803d" opacity="0.78"/>

<rect x="403.2" y="368.4" width="6.3" height="1.0" fill="#15803d" opacity="0.78"/>

<rect x="411.9" y="299.5" width="6.3" height="69.0" fill="#15803d" opacity="0.78"/>

<rect x="420.6" y="368.4" width="6.3" height="1.0" fill="#15803d" opacity="0.78"/>

<rect x="429.3" y="368.4" width="6.3" height="1.0" fill="#15803d" opacity="0.78"/>

<rect x="438.0" y="299.5" width="6.3" height="69.0" fill="#15803d" opacity="0.78"/>

<rect x="446.7" y="299.5" width="6.3" height="69.0" fill="#15803d" opacity="0.78"/>

<rect x="455.4" y="368.4" width="6.3" height="1.0" fill="#15803d" opacity="0.78"/>

<rect x="464.1" y="368.4" width="6.3" height="1.0" fill="#15803d" opacity="0.78"/>

<rect x="472.8" y="368.4" width="6.3" height="1.0" fill="#15803d" opacity="0.78"/>

<rect x="481.5" y="230.5" width="6.3" height="137.9" fill="#15803d" opacity="0.78"/>

<rect x="490.2" y="230.5" width="6.3" height="137.9" fill="#15803d" opacity="0.78"/>

<rect x="498.9" y="368.4" width="6.3" height="1.0" fill="#15803d" opacity="0.78"/>

<rect x="507.6" y="368.4" width="6.3" height="1.0" fill="#15803d" opacity="0.78"/>

<rect x="516.3" y="368.4" width="6.3" height="69.0" fill="#dc2626" opacity="0.78"/>

<rect x="525.0" y="230.5" width="6.3" height="137.9" fill="#15803d" opacity="0.78"/>

<rect x="533.7" y="368.4" width="6.3" height="69.0" fill="#dc2626" opacity="0.78"/>

<rect x="542.4" y="230.5" width="6.3" height="137.9" fill="#15803d" opacity="0.78"/>

<rect x="551.1" y="299.5" width="6.3" height="69.0" fill="#15803d" opacity="0.78"/>

<rect x="559.8" y="299.5" width="6.3" height="69.0" fill="#15803d" opacity="0.78"/>

<rect x="568.5" y="368.4" width="6.3" height="1.0" fill="#15803d" opacity="0.78"/>

<rect x="577.2" y="368.4" width="6.3" height="1.0" fill="#15803d" opacity="0.78"/>

<rect x="585.9" y="368.4" width="6.3" height="1.0" fill="#15803d" opacity="0.78"/>

<rect x="594.6" y="368.4" width="6.3" height="1.0" fill="#15803d" opacity="0.78"/>

<rect x="603.3" y="299.5" width="6.3" height="69.0" fill="#15803d" opacity="0.78"/>

<rect x="612.0" y="368.4" width="6.3" height="1.0" fill="#15803d" opacity="0.78"/>

<rect x="620.7" y="368.4" width="6.3" height="1.0" fill="#15803d" opacity="0.78"/>

<rect x="629.4" y="368.4" width="6.3" height="69.0" fill="#dc2626" opacity="0.78"/>

<rect x="638.1" y="368.4" width="6.3" height="69.0" fill="#dc2626" opacity="0.78"/>

<rect x="646.8" y="368.4" width="6.3" height="1.0" fill="#15803d" opacity="0.78"/>

<rect x="655.5" y="368.4" width="6.3" height="1.0" fill="#15803d" opacity="0.78"/>

<rect x="664.2" y="368.4" width="6.3" height="69.0" fill="#dc2626" opacity="0.78"/>

<rect x="672.9" y="368.4" width="6.3" height="69.0" fill="#dc2626" opacity="0.78"/>

<rect x="681.6" y="368.4" width="6.3" height="69.0" fill="#dc2626" opacity="0.78"/>

<rect x="690.3" y="368.4" width="6.3" height="69.0" fill="#dc2626" opacity="0.78"/>

<rect x="699.0" y="368.4" width="6.3" height="1.0" fill="#15803d" opacity="0.78"/>

<rect x="707.7" y="368.4" width="6.3" height="1.0" fill="#15803d" opacity="0.78"/>

<rect x="716.4" y="299.5" width="6.3" height="69.0" fill="#15803d" opacity="0.78"/>

<rect x="725.1" y="368.4" width="6.3" height="1.0" fill="#15803d" opacity="0.78"/>

<rect x="733.8" y="299.5" width="6.3" height="69.0" fill="#15803d" opacity="0.78"/>

<rect x="742.5" y="299.5" width="6.3" height="69.0" fill="#15803d" opacity="0.78"/>

<rect x="751.2" y="230.5" width="6.3" height="137.9" fill="#15803d" opacity="0.78"/>

<rect x="759.9" y="299.5" width="6.3" height="69.0" fill="#15803d" opacity="0.78"/>

<rect x="768.6" y="299.5" width="6.3" height="69.0" fill="#15803d" opacity="0.78"/>

<rect x="777.3" y="368.4" width="6.3" height="1.0" fill="#15803d" opacity="0.78"/>

<rect x="786.0" y="368.4" width="6.3" height="1.0" fill="#15803d" opacity="0.78"/>

<rect x="794.7" y="299.5" width="6.3" height="69.0" fill="#15803d" opacity="0.78"/>

<rect x="803.4" y="368.4" width="6.3" height="1.0" fill="#15803d" opacity="0.78"/>

<rect x="812.1" y="368.4" width="6.3" height="1.0" fill="#15803d" opacity="0.78"/>

<rect x="820.7" y="368.4" width="6.3" height="1.0" fill="#15803d" opacity="0.78"/>

<rect x="829.4" y="368.4" width="6.3" height="69.0" fill="#dc2626" opacity="0.78"/>

<rect x="838.1" y="368.4" width="6.3" height="1.0" fill="#15803d" opacity="0.78"/>

<rect x="846.8" y="368.4" width="6.3" height="1.0" fill="#15803d" opacity="0.78"/>

<rect x="855.5" y="368.4" width="6.3" height="1.0" fill="#15803d" opacity="0.78"/>

<rect x="864.2" y="299.5" width="6.3" height="69.0" fill="#15803d" opacity="0.78"/>

<rect x="872.9" y="299.5" width="6.3" height="69.0" fill="#15803d" opacity="0.78"/>

<rect x="881.6" y="368.4" width="6.3" height="1.0" fill="#15803d" opacity="0.78"/>

<rect x="890.3" y="368.4" width="6.3" height="1.0" fill="#15803d" opacity="0.78"/>

<rect x="899.0" y="299.5" width="6.3" height="69.0" fill="#15803d" opacity="0.78"/>

<rect x="907.7" y="92.6" width="6.3" height="275.9" fill="#15803d" opacity="0.78"/>

<rect x="916.4" y="368.4" width="6.3" height="1.0" fill="#15803d" opacity="0.78"/>

<rect x="925.1" y="368.4" width="6.3" height="69.0" fill="#dc2626" opacity="0.78"/>

<rect x="933.8" y="230.5" width="6.3" height="137.9" fill="#15803d" opacity="0.78"/>

<rect x="942.5" y="368.4" width="6.3" height="1.0" fill="#15803d" opacity="0.78"/>


</svg>
