<svg xmlns="http://www.w3.org/2000/svg" width="980" height="560" viewBox="0 0 980 560" role="img" aria-label="Verteilung der Scores des direkten Aufrufs">
<rect width="100%" height="100%" fill="white"/>
<text x="490" y="34" text-anchor="middle" font-size="26" font-weight="700" fill="#0f172a">Verteilung der Scores des direkten Aufrufs</text>
<text x="28" y="227.5" transform="rotate(-90 28 227.5)" text-anchor="middle" font-size="24" fill="#475569">Anzahl Paare</text>
<text x="532.5" y="536" text-anchor="middle" font-size="24" fill="#475569">Score des direkten Aufrufs</text>
<line x1="115" y1="390.0" x2="950" y2="390.0" stroke="#94a3b8" stroke-dasharray="4 4"/>
<line x1="115" y1="65" x2="115" y2="390" stroke="#cbd5e1"/>
<line x1="115" y1="390" x2="950" y2="390" stroke="#cbd5e1"/>
<line x1="115" y1="390.0" x2="950" y2="390.0" stroke="#e2e8f0"/>
<text x="105" y="395.0" text-anchor="end" font-size="16" fill="#64748b">0</text>
<line x1="115" y1="308.8" x2="950" y2="308.8" stroke="#e2e8f0"/>
<text x="105" y="313.8" text-anchor="end" font-size="16" fill="#64748b">27</text>
<line x1="115" y1="227.5" x2="950" y2="227.5" stroke="#e2e8f0"/>
<text x="105" y="232.5" text-anchor="end" font-size="16" fill="#64748b">54</text>
<line x1="115" y1="146.3" x2="950" y2="146.3" stroke="#e2e8f0"/>
<text x="105" y="151.3" text-anchor="end" font-size="16" fill="#64748b">81</text>
<line x1="115" y1="65.0" x2="950" y2="65.0" stroke="#e2e8f0"/>
<text x="105" y="70.0" text-anchor="end" font-size="16" fill="#64748b">108</text>
<rect x="144.2" y="368.9" width="150.3" height="21.1" fill="#16a34a" opacity="0.78"/>
<text x="219.4" y="360.9" text-anchor="middle" font-size="16" font-weight="700" fill="#0f172a">7</text>
<rect x="353.0" y="368.9" width="150.3" height="21.1" fill="#84cc16" opacity="0.78"/>
<text x="428.1" y="360.9" text-anchor="middle" font-size="16" font-weight="700" fill="#0f172a">7</text>
<rect x="561.7" y="155.3" width="150.3" height="234.7" fill="#f59e0b" opacity="0.78"/>
<text x="636.9" y="147.3" text-anchor="middle" font-size="16" font-weight="700" fill="#0f172a">78</text>
<rect x="770.5" y="65.0" width="150.3" height="325.0" fill="#dc2626" opacity="0.78"/>
<text x="845.6" y="79.0" text-anchor="middle" font-size="16" font-weight="700" fill="#0f172a">108</text>
<text x="219.4" y="414.0" transform="rotate(-45 219.4 414.0)" font-size="20" text-anchor="end" fill="#475569">&lt;50</text>
<text x="428.1" y="414.0" transform="rotate(-45 428.1 414.0)" font-size="20" text-anchor="end" fill="#475569">50-74</text>
<text x="636.9" y="414.0" transform="rotate(-45 636.9 414.0)" font-size="20" text-anchor="end" fill="#475569">75-99</text>
<text x="845.6" y="414.0" transform="rotate(-45 845.6 414.0)" font-size="20" text-anchor="end" fill="#475569">100</text>
</svg>
