<svg xmlns="http://www.w3.org/2000/svg" width="980" height="560" viewBox="0 0 980 560" role="img" aria-label="Paarweise Differenzen Teil 9/9">
<rect width="100%" height="100%" fill="white"/>
<text x="490" y="34" text-anchor="middle" font-size="26" font-weight="700" fill="#0f172a">Paarweise Differenzen Teil 9/9</text>
<text x="28" y="265" transform="rotate(-90 28 265)" text-anchor="middle" font-size="24" fill="#475569">Workflow - Direkter Aufruf (Prozentpunkte)</text>
<text x="532.5" y="536" text-anchor="middle" font-size="24" fill="#475569">Antwortpaare 801-849 von 849</text>
<line x1="115" y1="178.8" x2="950" y2="178.8" stroke="#94a3b8" stroke-dasharray="4 4"/>
<line x1="115" y1="65" x2="115" y2="465" stroke="#cbd5e1"/>
<line x1="115" y1="465" x2="950" y2="465" stroke="#cbd5e1"/>
<line x1="115" y1="465.0" x2="950" y2="465.0" stroke="#e2e8f0"/>
<text x="105" y="470.0" text-anchor="end" font-size="16" fill="#64748b">-83</text>
<line x1="115" y1="365.0" x2="950" y2="365.0" stroke="#e2e8f0"/>
<text x="105" y="370.0" text-anchor="end" font-size="16" fill="#64748b">-54</text>
<line x1="115" y1="265.0" x2="950" y2="265.0" stroke="#e2e8f0"/>
<text x="105" y="270.0" text-anchor="end" font-size="16" fill="#64748b">-25</text>
<line x1="115" y1="165.0" x2="950" y2="165.0" stroke="#e2e8f0"/>
<text x="105" y="170.0" text-anchor="end" font-size="16" fill="#64748b">4</text>
<line x1="115" y1="65.0" x2="950" y2="65.0" stroke="#e2e8f0"/>
<text x="105" y="70.0" text-anchor="end" font-size="16" fill="#64748b">33</text>
<rect x="117.4" y="178.8" width="12.3" height="1.0" fill="#15803d" opacity="0.78"/>
<text x="123.5" y="170.8" text-anchor="middle" font-size="16" font-weight="700" fill="#0f172a">0.0</text>
<rect x="134.4" y="178.8" width="12.3" height="86.2" fill="#dc2626" opacity="0.78"/>
<text x="140.6" y="283.0" text-anchor="middle" font-size="16" font-weight="700" fill="#0f172a">-25.0</text>
<rect x="151.5" y="178.8" width="12.3" height="1.0" fill="#15803d" opacity="0.78"/>
<text x="157.6" y="170.8" text-anchor="middle" font-size="16" font-weight="700" fill="#0f172a">0.0</text>
<rect x="168.5" y="178.8" width="12.3" height="1.0" fill="#15803d" opacity="0.78"/>
<text x="174.6" y="170.8" text-anchor="middle" font-size="16" font-weight="700" fill="#0f172a">0.0</text>
<rect x="185.5" y="178.8" width="12.3" height="1.0" fill="#15803d" opacity="0.78"/>
<text x="191.7" y="170.8" text-anchor="middle" font-size="16" font-weight="700" fill="#0f172a">0.0</text>
<rect x="202.6" y="178.8" width="12.3" height="1.0" fill="#15803d" opacity="0.78"/>
<text x="208.7" y="170.8" text-anchor="middle" font-size="16" font-weight="700" fill="#0f172a">0.0</text>
<rect x="219.6" y="92.6" width="12.3" height="86.2" fill="#15803d" opacity="0.78"/>
<text x="225.8" y="84.6" text-anchor="middle" font-size="16" font-weight="700" fill="#0f172a">25.0</text>
<rect x="236.7" y="178.8" width="12.3" height="1.0" fill="#15803d" opacity="0.78"/>
<text x="242.8" y="170.8" text-anchor="middle" font-size="16" font-weight="700" fill="#0f172a">0.0</text>
<rect x="253.7" y="178.8" width="12.3" height="1.0" fill="#15803d" opacity="0.78"/>
<text x="259.8" y="170.8" text-anchor="middle" font-size="16" font-weight="700" fill="#0f172a">0.0</text>
<rect x="270.8" y="178.8" width="12.3" height="172.4" fill="#dc2626" opacity="0.78"/>
<text x="276.9" y="369.2" text-anchor="middle" font-size="16" font-weight="700" fill="#0f172a">-50.0</text>
<rect x="287.8" y="178.8" width="12.3" height="1.0" fill="#15803d" opacity="0.78"/>
<text x="293.9" y="170.8" text-anchor="middle" font-size="16" font-weight="700" fill="#0f172a">0.0</text>
<rect x="304.8" y="178.8" width="12.3" height="1.0" fill="#15803d" opacity="0.78"/>
<text x="311.0" y="170.8" text-anchor="middle" font-size="16" font-weight="700" fill="#0f172a">0.0</text>
<rect x="321.9" y="178.8" width="12.3" height="1.0" fill="#15803d" opacity="0.78"/>
<text x="328.0" y="170.8" text-anchor="middle" font-size="16" font-weight="700" fill="#0f172a">0.0</text>
<rect x="338.9" y="178.8" width="12.3" height="1.0" fill="#15803d" opacity="0.78"/>
<text x="345.1" y="170.8" text-anchor="middle" font-size="16" font-weight="700" fill="#0f172a">0.0</text>
<rect x="356.0" y="178.8" width="12.3" height="1.0" fill="#15803d" opacity="0.78"/>
<text x="362.1" y="170.8" text-anchor="middle" font-size="16" font-weight="700" fill="#0f172a">0.0</text>
<rect x="373.0" y="178.8" width="12.3" height="258.6" fill="#dc2626" opacity="0.78"/>
<text x="379.1" y="455.4" text-anchor="middle" font-size="16" font-weight="700" fill="#0f172a">-75.0</text>
<rect x="390.0" y="178.8" width="12.3" height="1.0" fill="#15803d" opacity="0.78"/>
<text x="396.2" y="170.8" text-anchor="middle" font-size="16" font-weight="700" fill="#0f172a">0.0</text>
<rect x="407.1" y="178.8" width="12.3" height="258.6" fill="#dc2626" opacity="0.78"/>
<text x="413.2" y="455.4" text-anchor="middle" font-size="16" font-weight="700" fill="#0f172a">-75.0</text>
<rect x="424.1" y="178.8" width="12.3" height="172.4" fill="#dc2626" opacity="0.78"/>
<text x="430.3" y="369.2" text-anchor="middle" font-size="16" font-weight="700" fill="#0f172a">-50.0</text>
<rect x="441.2" y="178.8" width="12.3" height="1.0" fill="#15803d" opacity="0.78"/>
<text x="447.3" y="170.8" text-anchor="middle" font-size="16" font-weight="700" fill="#0f172a">0.0</text>
<rect x="458.2" y="178.8" width="12.3" height="1.0" fill="#15803d" opacity="0.78"/>
<text x="464.3" y="170.8" text-anchor="middle" font-size="16" font-weight="700" fill="#0f172a">0.0</text>
<rect x="475.2" y="92.6" width="12.3" height="86.2" fill="#15803d" opacity="0.78"/>
<text x="481.4" y="84.6" text-anchor="middle" font-size="16" font-weight="700" fill="#0f172a">25.0</text>
<rect x="492.3" y="178.8" width="12.3" height="1.0" fill="#15803d" opacity="0.78"/>
<text x="498.4" y="170.8" text-anchor="middle" font-size="16" font-weight="700" fill="#0f172a">0.0</text>
<rect x="509.3" y="178.8" width="12.3" height="86.2" fill="#dc2626" opacity="0.78"/>
<text x="515.5" y="283.0" text-anchor="middle" font-size="16" font-weight="700" fill="#0f172a">-25.0</text>
<rect x="526.4" y="178.8" width="12.3" height="1.0" fill="#15803d" opacity="0.78"/>
<text x="532.5" y="170.8" text-anchor="middle" font-size="16" font-weight="700" fill="#0f172a">0.0</text>
<rect x="543.4" y="178.8" width="12.3" height="1.0" fill="#15803d" opacity="0.78"/>
<text x="549.5" y="170.8" text-anchor="middle" font-size="16" font-weight="700" fill="#0f172a">0.0</text>
<rect x="560.4" y="178.8" width="12.3" height="1.0" fill="#15803d" opacity="0.78"/>
<text x="566.6" y="170.8" text-anchor="middle" font-size="16" font-weight="700" fill="#0f172a">0.0</text>
<rect x="577.5" y="178.8" width="12.3" height="1.0" fill="#15803d" opacity="0.78"/>
<text x="583.6" y="170.8" text-anchor="middle" font-size="16" font-weight="700" fill="#0f172a">0.0</text>
<rect x="594.5" y="178.8" width="12.3" height="1.0" fill="#15803d" opacity="0.78"/>
<text x="600.7" y="170.8" text-anchor="middle" font-size="16" font-weight="700" fill="#0f172a">0.0</text>
<rect x="611.6" y="178.8" width="12.3" height="1.0" fill="#15803d" opacity="0.78"/>
<text x="617.7" y="170.8" text-anchor="middle" font-size="16" font-weight="700" fill="#0f172a">0.0</text>
<rect x="628.6" y="178.8" width="12.3" height="1.0" fill="#15803d" opacity="0.78"/>
<text x="634.7" y="170.8" text-anchor="middle" font-size="16" font-weight="700" fill="#0f172a">0.0</text>
<rect x="645.7" y="178.8" width="12.3" height="1.0" fill="#15803d" opacity="0.78"/>
<text x="651.8" y="170.8" text-anchor="middle" font-size="16" font-weight="700" fill="#0f172a">0.0</text>
<rect x="662.7" y="178.8" width="12.3" height="1.0" fill="#15803d" opacity="0.78"/>
<text x="668.8" y="170.8" text-anchor="middle" font-size="16" font-weight="700" fill="#0f172a">0.0</text>
<rect x="679.7" y="178.8" width="12.3" height="1.0" fill="#15803d" opacity="0.78"/>
<text x="685.9" y="170.8" text-anchor="middle" font-size="16" font-weight="700" fill="#0f172a">0.0</text>
<rect x="696.8" y="178.8" width="12.3" height="1.0" fill="#15803d" opacity="0.78"/>
<text x="702.9" y="170.8" text-anchor="middle" font-size="16" font-weight="700" fill="#0f172a">0.0</text>
<rect x="713.8" y="178.8" width="12.3" height="172.4" fill="#dc2626" opacity="0.78"/>
<text x="719.9" y="369.2" text-anchor="middle" font-size="16" font-weight="700" fill="#0f172a">-50.0</text>
<rect x="730.9" y="178.8" width="12.3" height="86.2" fill="#dc2626" opacity="0.78"/>
<text x="737.0" y="283.0" text-anchor="middle" font-size="16" font-weight="700" fill="#0f172a">-25.0</text>
<rect x="747.9" y="178.8" width="12.3" height="1.0" fill="#15803d" opacity="0.78"/>
<text x="754.0" y="170.8" text-anchor="middle" font-size="16" font-weight="700" fill="#0f172a">0.0</text>
<rect x="764.9" y="92.6" width="12.3" height="86.2" fill="#15803d" opacity="0.78"/>
<text x="771.1" y="84.6" text-anchor="middle" font-size="16" font-weight="700" fill="#0f172a">25.0</text>
<rect x="782.0" y="178.8" width="12.3" height="1.0" fill="#15803d" opacity="0.78"/>
<text x="788.1" y="170.8" text-anchor="middle" font-size="16" font-weight="700" fill="#0f172a">0.0</text>
<rect x="799.0" y="178.8" width="12.3" height="172.4" fill="#dc2626" opacity="0.78"/>
<text x="805.2" y="369.2" text-anchor="middle" font-size="16" font-weight="700" fill="#0f172a">-50.0</text>
<rect x="816.1" y="178.8" width="12.3" height="172.4" fill="#dc2626" opacity="0.78"/>
<text x="822.2" y="369.2" text-anchor="middle" font-size="16" font-weight="700" fill="#0f172a">-50.0</text>
<rect x="833.1" y="178.8" width="12.3" height="1.0" fill="#15803d" opacity="0.78"/>
<text x="839.2" y="170.8" text-anchor="middle" font-size="16" font-weight="700" fill="#0f172a">0.0</text>
<rect x="850.1" y="178.8" width="12.3" height="258.6" fill="#dc2626" opacity="0.78"/>
<text x="856.3" y="455.4" text-anchor="middle" font-size="16" font-weight="700" fill="#0f172a">-75.0</text>
<rect x="867.2" y="178.8" width="12.3" height="1.0" fill="#15803d" opacity="0.78"/>
<text x="873.3" y="170.8" text-anchor="middle" font-size="16" font-weight="700" fill="#0f172a">0.0</text>
<rect x="884.2" y="178.8" width="12.3" height="1.0" fill="#15803d" opacity="0.78"/>
<text x="890.4" y="170.8" text-anchor="middle" font-size="16" font-weight="700" fill="#0f172a">0.0</text>
<rect x="901.3" y="178.8" width="12.3" height="1.0" fill="#15803d" opacity="0.78"/>
<text x="907.4" y="170.8" text-anchor="middle" font-size="16" font-weight="700" fill="#0f172a">0.0</text>
<rect x="918.3" y="178.8" width="12.3" height="1.0" fill="#15803d" opacity="0.78"/>
<text x="924.4" y="170.8" text-anchor="middle" font-size="16" font-weight="700" fill="#0f172a">0.0</text>
<rect x="935.3" y="178.8" width="12.3" height="86.2" fill="#dc2626" opacity="0.78"/>
<text x="941.5" y="283.0" text-anchor="middle" font-size="16" font-weight="700" fill="#0f172a">-25.0</text>

</svg>
