<svg xmlns="http://www.w3.org/2000/svg" width="980" height="560" viewBox="0 0 980 560" role="img" aria-label="Paarweise Differenzen Teil 2/2">
<rect width="100%" height="100%" fill="white"/>
<text x="490" y="34" text-anchor="middle" font-size="26" font-weight="700" fill="#0f172a">Paarweise Differenzen Teil 2/2</text>
<text x="28" y="265" transform="rotate(-90 28 265)" text-anchor="middle" font-size="24" fill="#475569">Workflow - Direkter Aufruf (Prozentpunkte)</text>
<text x="532.5" y="536" text-anchor="middle" font-size="24" fill="#475569">Antwortpaare 101-150 von 150</text>
<line x1="115" y1="123.9" x2="950" y2="123.9" stroke="#94a3b8" stroke-dasharray="4 4"/>
<line x1="115" y1="65" x2="115" y2="465" stroke="#cbd5e1"/>
<line x1="115" y1="465" x2="950" y2="465" stroke="#cbd5e1"/>
<line x1="115" y1="465.0" x2="950" y2="465.0" stroke="#e2e8f0"/>
<text x="105" y="470.0" text-anchor="end" font-size="16" fill="#64748b">-54</text>
<line x1="115" y1="365.0" x2="950" y2="365.0" stroke="#e2e8f0"/>
<text x="105" y="370.0" text-anchor="end" font-size="16" fill="#64748b">-38</text>
<line x1="115" y1="265.0" x2="950" y2="265.0" stroke="#e2e8f0"/>
<text x="105" y="270.0" text-anchor="end" font-size="16" fill="#64748b">-23</text>
<line x1="115" y1="165.0" x2="950" y2="165.0" stroke="#e2e8f0"/>
<text x="105" y="170.0" text-anchor="end" font-size="16" fill="#64748b">-7</text>
<line x1="115" y1="65.0" x2="950" y2="65.0" stroke="#e2e8f0"/>
<text x="105" y="70.0" text-anchor="end" font-size="16" fill="#64748b">9</text>
<rect x="117.3" y="123.9" width="12.0" height="1.0" fill="#15803d" opacity="0.78"/>
<text x="123.3" y="115.9" text-anchor="middle" font-size="16" font-weight="700" fill="#0f172a">0.0</text>
<rect x="134.0" y="123.9" width="12.0" height="313.5" fill="#dc2626" opacity="0.78"/>
<text x="140.0" y="455.4" text-anchor="middle" font-size="16" font-weight="700" fill="#0f172a">-50.0</text>
<rect x="150.7" y="123.9" width="12.0" height="1.0" fill="#15803d" opacity="0.78"/>
<text x="156.8" y="115.9" text-anchor="middle" font-size="16" font-weight="700" fill="#0f172a">0.0</text>
<rect x="167.4" y="123.9" width="12.0" height="1.0" fill="#15803d" opacity="0.78"/>
<text x="173.4" y="115.9" text-anchor="middle" font-size="16" font-weight="700" fill="#0f172a">0.0</text>
<rect x="184.1" y="123.9" width="12.0" height="1.0" fill="#15803d" opacity="0.78"/>
<text x="190.2" y="115.9" text-anchor="middle" font-size="16" font-weight="700" fill="#0f172a">0.0</text>
<rect x="200.8" y="123.9" width="12.0" height="1.0" fill="#15803d" opacity="0.78"/>
<text x="206.8" y="115.9" text-anchor="middle" font-size="16" font-weight="700" fill="#0f172a">0.0</text>
<rect x="217.5" y="123.9" width="12.0" height="1.0" fill="#15803d" opacity="0.78"/>
<text x="223.5" y="115.9" text-anchor="middle" font-size="16" font-weight="700" fill="#0f172a">0.0</text>
<rect x="234.2" y="123.9" width="12.0" height="1.0" fill="#15803d" opacity="0.78"/>
<text x="240.2" y="115.9" text-anchor="middle" font-size="16" font-weight="700" fill="#0f172a">0.0</text>
<rect x="250.9" y="123.9" width="12.0" height="1.0" fill="#15803d" opacity="0.78"/>
<text x="256.9" y="115.9" text-anchor="middle" font-size="16" font-weight="700" fill="#0f172a">0.0</text>
<rect x="267.6" y="123.9" width="12.0" height="1.0" fill="#15803d" opacity="0.78"/>
<text x="273.6" y="115.9" text-anchor="middle" font-size="16" font-weight="700" fill="#0f172a">0.0</text>
<rect x="284.3" y="123.9" width="12.0" height="1.0" fill="#15803d" opacity="0.78"/>
<text x="290.4" y="115.9" text-anchor="middle" font-size="16" font-weight="700" fill="#0f172a">0.0</text>
<rect x="301.0" y="123.9" width="12.0" height="1.0" fill="#15803d" opacity="0.78"/>
<text x="307.1" y="115.9" text-anchor="middle" font-size="16" font-weight="700" fill="#0f172a">0.0</text>
<rect x="317.7" y="123.9" width="12.0" height="1.0" fill="#15803d" opacity="0.78"/>
<text x="323.8" y="115.9" text-anchor="middle" font-size="16" font-weight="700" fill="#0f172a">0.0</text>
<rect x="334.4" y="123.9" width="12.0" height="1.0" fill="#15803d" opacity="0.78"/>
<text x="340.5" y="115.9" text-anchor="middle" font-size="16" font-weight="700" fill="#0f172a">0.0</text>
<rect x="351.1" y="123.9" width="12.0" height="1.0" fill="#15803d" opacity="0.78"/>
<text x="357.1" y="115.9" text-anchor="middle" font-size="16" font-weight="700" fill="#0f172a">0.0</text>
<rect x="367.8" y="123.9" width="12.0" height="1.0" fill="#15803d" opacity="0.78"/>
<text x="373.9" y="115.9" text-anchor="middle" font-size="16" font-weight="700" fill="#0f172a">0.0</text>
<rect x="384.5" y="123.9" width="12.0" height="1.0" fill="#15803d" opacity="0.78"/>
<text x="390.6" y="115.9" text-anchor="middle" font-size="16" font-weight="700" fill="#0f172a">0.0</text>
<rect x="401.2" y="123.9" width="12.0" height="1.0" fill="#15803d" opacity="0.78"/>
<text x="407.3" y="115.9" text-anchor="middle" font-size="16" font-weight="700" fill="#0f172a">0.0</text>
<rect x="417.9" y="123.9" width="12.0" height="1.0" fill="#15803d" opacity="0.78"/>
<text x="423.9" y="115.9" text-anchor="middle" font-size="16" font-weight="700" fill="#0f172a">0.0</text>
<rect x="434.6" y="123.9" width="12.0" height="1.0" fill="#15803d" opacity="0.78"/>
<text x="440.7" y="115.9" text-anchor="middle" font-size="16" font-weight="700" fill="#0f172a">0.0</text>
<rect x="451.3" y="123.9" width="12.0" height="1.0" fill="#15803d" opacity="0.78"/>
<text x="457.4" y="115.9" text-anchor="middle" font-size="16" font-weight="700" fill="#0f172a">0.0</text>
<rect x="468.0" y="123.9" width="12.0" height="1.0" fill="#15803d" opacity="0.78"/>
<text x="474.1" y="115.9" text-anchor="middle" font-size="16" font-weight="700" fill="#0f172a">0.0</text>
<rect x="484.7" y="123.9" width="12.0" height="1.0" fill="#15803d" opacity="0.78"/>
<text x="490.8" y="115.9" text-anchor="middle" font-size="16" font-weight="700" fill="#0f172a">0.0</text>
<rect x="501.4" y="123.9" width="12.0" height="1.0" fill="#15803d" opacity="0.78"/>
<text x="507.4" y="115.9" text-anchor="middle" font-size="16" font-weight="700" fill="#0f172a">0.0</text>
<rect x="518.1" y="123.9" width="12.0" height="1.0" fill="#15803d" opacity="0.78"/>
<text x="524.1" y="115.9" text-anchor="middle" font-size="16" font-weight="700" fill="#0f172a">0.0</text>
<rect x="534.8" y="123.9" width="12.0" height="1.0" fill="#15803d" opacity="0.78"/>
<text x="540.8" y="115.9" text-anchor="middle" font-size="16" font-weight="700" fill="#0f172a">0.0</text>
<rect x="551.5" y="123.9" width="12.0" height="1.0" fill="#15803d" opacity="0.78"/>
<text x="557.5" y="115.9" text-anchor="middle" font-size="16" font-weight="700" fill="#0f172a">0.0</text>
<rect x="568.2" y="123.9" width="12.0" height="1.0" fill="#15803d" opacity="0.78"/>
<text x="574.2" y="115.9" text-anchor="middle" font-size="16" font-weight="700" fill="#0f172a">0.0</text>
<rect x="584.9" y="123.9" width="12.0" height="1.0" fill="#15803d" opacity="0.78"/>
<text x="590.9" y="115.9" text-anchor="middle" font-size="16" font-weight="700" fill="#0f172a">0.0</text>
<rect x="601.6" y="123.9" width="12.0" height="1.0" fill="#15803d" opacity="0.78"/>
<text x="607.6" y="115.9" text-anchor="middle" font-size="16" font-weight="700" fill="#0f172a">0.0</text>
<rect x="618.3" y="123.9" width="12.0" height="1.0" fill="#15803d" opacity="0.78"/>
<text x="624.3" y="115.9" text-anchor="middle" font-size="16" font-weight="700" fill="#0f172a">0.0</text>
<rect x="635.0" y="123.9" width="12.0" height="1.0" fill="#15803d" opacity="0.78"/>
<text x="641.0" y="115.9" text-anchor="middle" font-size="16" font-weight="700" fill="#0f172a">0.0</text>
<rect x="651.7" y="123.9" width="12.0" height="1.0" fill="#15803d" opacity="0.78"/>
<text x="657.7" y="115.9" text-anchor="middle" font-size="16" font-weight="700" fill="#0f172a">0.0</text>
<rect x="668.4" y="123.9" width="12.0" height="1.0" fill="#15803d" opacity="0.78"/>
<text x="674.4" y="115.9" text-anchor="middle" font-size="16" font-weight="700" fill="#0f172a">0.0</text>
<rect x="685.1" y="123.9" width="12.0" height="1.0" fill="#15803d" opacity="0.78"/>
<text x="691.1" y="115.9" text-anchor="middle" font-size="16" font-weight="700" fill="#0f172a">0.0</text>
<rect x="701.8" y="123.9" width="12.0" height="1.0" fill="#15803d" opacity="0.78"/>
<text x="707.8" y="115.9" text-anchor="middle" font-size="16" font-weight="700" fill="#0f172a">0.0</text>
<rect x="718.5" y="123.9" width="12.0" height="1.0" fill="#15803d" opacity="0.78"/>
<text x="724.5" y="115.9" text-anchor="middle" font-size="16" font-weight="700" fill="#0f172a">0.0</text>
<rect x="735.2" y="123.9" width="12.0" height="1.0" fill="#15803d" opacity="0.78"/>
<text x="741.2" y="115.9" text-anchor="middle" font-size="16" font-weight="700" fill="#0f172a">0.0</text>
<rect x="751.9" y="123.9" width="12.0" height="1.0" fill="#15803d" opacity="0.78"/>
<text x="757.9" y="115.9" text-anchor="middle" font-size="16" font-weight="700" fill="#0f172a">0.0</text>
<rect x="768.6" y="123.9" width="12.0" height="1.0" fill="#15803d" opacity="0.78"/>
<text x="774.6" y="115.9" text-anchor="middle" font-size="16" font-weight="700" fill="#0f172a">0.0</text>
<rect x="785.3" y="123.9" width="12.0" height="1.0" fill="#15803d" opacity="0.78"/>
<text x="791.3" y="115.9" text-anchor="middle" font-size="16" font-weight="700" fill="#0f172a">0.0</text>
<rect x="802.0" y="123.9" width="12.0" height="1.0" fill="#15803d" opacity="0.78"/>
<text x="808.0" y="115.9" text-anchor="middle" font-size="16" font-weight="700" fill="#0f172a">0.0</text>
<rect x="818.7" y="123.9" width="12.0" height="1.0" fill="#15803d" opacity="0.78"/>
<text x="824.7" y="115.9" text-anchor="middle" font-size="16" font-weight="700" fill="#0f172a">0.0</text>
<rect x="835.4" y="123.9" width="12.0" height="1.0" fill="#15803d" opacity="0.78"/>
<text x="841.4" y="115.9" text-anchor="middle" font-size="16" font-weight="700" fill="#0f172a">0.0</text>
<rect x="852.1" y="123.9" width="12.0" height="1.0" fill="#15803d" opacity="0.78"/>
<text x="858.1" y="115.9" text-anchor="middle" font-size="16" font-weight="700" fill="#0f172a">0.0</text>
<rect x="868.8" y="123.9" width="12.0" height="1.0" fill="#15803d" opacity="0.78"/>
<text x="874.8" y="115.9" text-anchor="middle" font-size="16" font-weight="700" fill="#0f172a">0.0</text>
<rect x="885.5" y="123.9" width="12.0" height="1.0" fill="#15803d" opacity="0.78"/>
<text x="891.5" y="115.9" text-anchor="middle" font-size="16" font-weight="700" fill="#0f172a">0.0</text>
<rect x="902.2" y="123.9" width="12.0" height="1.0" fill="#15803d" opacity="0.78"/>
<text x="908.2" y="115.9" text-anchor="middle" font-size="16" font-weight="700" fill="#0f172a">0.0</text>
<rect x="918.9" y="123.9" width="12.0" height="1.0" fill="#15803d" opacity="0.78"/>
<text x="924.9" y="115.9" text-anchor="middle" font-size="16" font-weight="700" fill="#0f172a">0.0</text>
<rect x="935.6" y="123.9" width="12.0" height="1.0" fill="#15803d" opacity="0.78"/>
<text x="941.6" y="115.9" text-anchor="middle" font-size="16" font-weight="700" fill="#0f172a">0.0</text>

</svg>
