<svg xmlns="http://www.w3.org/2000/svg" width="980" height="560" viewBox="0 0 980 560" role="img" aria-label="Paarweise Differenzen Teil 6/6">
<rect width="100%" height="100%" fill="white"/>
<text x="490" y="34" text-anchor="middle" font-size="26" font-weight="700" fill="#0f172a">Paarweise Differenzen Teil 6/6</text>
<text x="28" y="265" transform="rotate(-90 28 265)" text-anchor="middle" font-size="24" fill="#475569">Workflow - Direkter Aufruf (Prozentpunkte)</text>
<text x="532.5" y="536" text-anchor="middle" font-size="24" fill="#475569">Antwortpaare 501-514 von 514</text>
<line x1="115" y1="265.0" x2="950" y2="265.0" stroke="#94a3b8" stroke-dasharray="4 4"/>
<line x1="115" y1="65" x2="115" y2="465" stroke="#cbd5e1"/>
<line x1="115" y1="465" x2="950" y2="465" stroke="#cbd5e1"/>
<line x1="115" y1="465.0" x2="950" y2="465.0" stroke="#e2e8f0"/>
<text x="105" y="470.0" text-anchor="end" font-size="16" fill="#64748b">-29</text>
<line x1="115" y1="365.0" x2="950" y2="365.0" stroke="#e2e8f0"/>
<text x="105" y="370.0" text-anchor="end" font-size="16" fill="#64748b">-15</text>
<line x1="115" y1="265.0" x2="950" y2="265.0" stroke="#e2e8f0"/>
<text x="105" y="270.0" text-anchor="end" font-size="16" fill="#64748b">0</text>
<line x1="115" y1="165.0" x2="950" y2="165.0" stroke="#e2e8f0"/>
<text x="105" y="170.0" text-anchor="end" font-size="16" fill="#64748b">15</text>
<line x1="115" y1="65.0" x2="950" y2="65.0" stroke="#e2e8f0"/>
<text x="105" y="70.0" text-anchor="end" font-size="16" fill="#64748b">29</text>
<rect x="123.3" y="265.0" width="42.9" height="1.0" fill="#15803d" opacity="0.78"/>
<text x="144.8" y="257.0" text-anchor="middle" font-size="16" font-weight="700" fill="#0f172a">0.0</text>
<rect x="183.0" y="265.0" width="42.9" height="1.0" fill="#15803d" opacity="0.78"/>
<text x="204.5" y="257.0" text-anchor="middle" font-size="16" font-weight="700" fill="#0f172a">0.0</text>
<rect x="242.6" y="265.0" width="42.9" height="1.0" fill="#15803d" opacity="0.78"/>
<text x="264.1" y="257.0" text-anchor="middle" font-size="16" font-weight="700" fill="#0f172a">0.0</text>
<rect x="302.3" y="265.0" width="42.9" height="172.4" fill="#dc2626" opacity="0.78"/>
<text x="323.8" y="455.4" text-anchor="middle" font-size="16" font-weight="700" fill="#0f172a">-25.0</text>
<rect x="361.9" y="265.0" width="42.9" height="1.0" fill="#15803d" opacity="0.78"/>
<text x="383.4" y="257.0" text-anchor="middle" font-size="16" font-weight="700" fill="#0f172a">0.0</text>
<rect x="421.6" y="265.0" width="42.9" height="1.0" fill="#15803d" opacity="0.78"/>
<text x="443.0" y="257.0" text-anchor="middle" font-size="16" font-weight="700" fill="#0f172a">0.0</text>
<rect x="481.2" y="265.0" width="42.9" height="1.0" fill="#15803d" opacity="0.78"/>
<text x="502.7" y="257.0" text-anchor="middle" font-size="16" font-weight="700" fill="#0f172a">0.0</text>
<rect x="540.9" y="265.0" width="42.9" height="1.0" fill="#15803d" opacity="0.78"/>
<text x="562.3" y="257.0" text-anchor="middle" font-size="16" font-weight="700" fill="#0f172a">0.0</text>
<rect x="600.5" y="265.0" width="42.9" height="1.0" fill="#15803d" opacity="0.78"/>
<text x="622.0" y="257.0" text-anchor="middle" font-size="16" font-weight="700" fill="#0f172a">0.0</text>
<rect x="660.1" y="265.0" width="42.9" height="1.0" fill="#15803d" opacity="0.78"/>
<text x="681.6" y="257.0" text-anchor="middle" font-size="16" font-weight="700" fill="#0f172a">0.0</text>
<rect x="719.8" y="265.0" width="42.9" height="1.0" fill="#15803d" opacity="0.78"/>
<text x="741.3" y="257.0" text-anchor="middle" font-size="16" font-weight="700" fill="#0f172a">0.0</text>
<rect x="779.4" y="92.6" width="42.9" height="172.4" fill="#15803d" opacity="0.78"/>
<text x="800.9" y="84.6" text-anchor="middle" font-size="16" font-weight="700" fill="#0f172a">25.0</text>
<rect x="839.1" y="265.0" width="42.9" height="1.0" fill="#15803d" opacity="0.78"/>
<text x="860.5" y="257.0" text-anchor="middle" font-size="16" font-weight="700" fill="#0f172a">0.0</text>
<rect x="898.7" y="92.6" width="42.9" height="172.4" fill="#15803d" opacity="0.78"/>
<text x="920.2" y="84.6" text-anchor="middle" font-size="16" font-weight="700" fill="#0f172a">25.0</text>

</svg>
