<svg xmlns="http://www.w3.org/2000/svg" width="1120" height="620" viewBox="0 0 1120 620" role="img" aria-label="Datenqualitaet nach Kriterium">
<rect width="100%" height="100%" fill="white"/>
<text x="560" y="34" text-anchor="middle" font-size="26" font-weight="700" fill="#0f172a">Datenqualitaet nach Kriterium</text>
<rect x="150" y="52" width="18" height="18" fill="#16a34a" opacity="0.84"/><text x="175" y="67" font-size="17" fill="#475569">Ausgewählt</text>
<rect x="450" y="52" width="18" height="18" fill="#0f766e" opacity="0.84"/><text x="475" y="67" font-size="17" fill="#475569">Ausgelassen</text>
<rect x="750" y="52" width="18" height="18" fill="#f59e0b" opacity="0.84"/><text x="775" y="67" font-size="17" fill="#475569">Review</text>
<rect x="150" y="78" width="18" height="18" fill="#64748b" opacity="0.84"/><text x="175" y="93" font-size="17" fill="#475569">Manuell ausgeschlossen</text>
<rect x="450" y="78" width="18" height="18" fill="#dc2626" opacity="0.84"/><text x="475" y="93" font-size="17" fill="#475569">Fehler</text>
<rect x="750" y="78" width="18" height="18" fill="#2563eb" opacity="0.84"/><text x="775" y="93" font-size="17" fill="#475569">Unvollständig</text>
<text x="28" y="263" transform="rotate(-90 28 263)" text-anchor="middle" font-size="24" fill="#475569">Paare</text>
<line x1="120" y1="430" x2="1080" y2="430" stroke="#cbd5e1"/>
<line x1="120" y1="96" x2="120" y2="430" stroke="#cbd5e1"/>
<line x1="120" y1="430.0" x2="1080" y2="430.0" stroke="#e2e8f0"/>
<text x="110" y="435.0" text-anchor="end" font-size="16" fill="#64748b">0</text>
<line x1="120" y1="346.5" x2="1080" y2="346.5" stroke="#e2e8f0"/>
<text x="110" y="351.5" text-anchor="end" font-size="16" fill="#64748b">228</text>
<line x1="120" y1="263.0" x2="1080" y2="263.0" stroke="#e2e8f0"/>
<text x="110" y="268.0" text-anchor="end" font-size="16" fill="#64748b">457</text>
<line x1="120" y1="179.5" x2="1080" y2="179.5" stroke="#e2e8f0"/>
<text x="110" y="184.5" text-anchor="end" font-size="16" fill="#64748b">685</text>
<line x1="120" y1="96.0" x2="1080" y2="96.0" stroke="#e2e8f0"/>
<text x="110" y="101.0" text-anchor="end" font-size="16" fill="#64748b">913</text>
<rect x="142.4" y="304.5" width="61.9" height="125.5" fill="#16a34a" opacity="0.84"/>
<rect x="142.4" y="102.6" width="61.9" height="201.9" fill="#0f766e" opacity="0.84"/>
<rect x="142.4" y="97.8" width="61.9" height="4.8" fill="#f59e0b" opacity="0.84"/>


<rect x="142.4" y="96.0" width="61.9" height="1.8" fill="#2563eb" opacity="0.84"/>
<text x="173.3" y="89.0" text-anchor="middle" font-size="13" fill="#475569">913</text>
<rect x="249.1" y="237.2" width="61.9" height="192.8" fill="#16a34a" opacity="0.84"/>
<rect x="249.1" y="197.3" width="61.9" height="39.9" fill="#0f766e" opacity="0.84"/>
<rect x="249.1" y="160.0" width="61.9" height="37.3" fill="#f59e0b" opacity="0.84"/>



<text x="280.0" y="153.0" text-anchor="middle" font-size="13" fill="#475569">738</text>
<rect x="355.7" y="217.5" width="61.9" height="212.5" fill="#16a34a" opacity="0.84"/>
<rect x="355.7" y="171.0" width="61.9" height="46.5" fill="#0f766e" opacity="0.84"/>
<rect x="355.7" y="162.6" width="61.9" height="8.4" fill="#f59e0b" opacity="0.84"/>


<rect x="355.7" y="161.5" width="61.9" height="1.1" fill="#2563eb" opacity="0.84"/>
<text x="386.7" y="154.5" text-anchor="middle" font-size="13" fill="#475569">734</text>
<rect x="462.4" y="242.0" width="61.9" height="188.0" fill="#16a34a" opacity="0.84"/>
<rect x="462.4" y="162.2" width="61.9" height="79.8" fill="#0f766e" opacity="0.84"/>
<rect x="462.4" y="160.0" width="61.9" height="2.2" fill="#f59e0b" opacity="0.84"/>



<text x="493.3" y="153.0" text-anchor="middle" font-size="13" fill="#475569">738</text>
<rect x="569.1" y="338.2" width="61.9" height="91.8" fill="#16a34a" opacity="0.84"/>
<rect x="569.1" y="176.5" width="61.9" height="161.7" fill="#0f766e" opacity="0.84"/>
<rect x="569.1" y="160.0" width="61.9" height="16.5" fill="#f59e0b" opacity="0.84"/>


<rect x="569.1" y="158.9" width="61.9" height="1.1" fill="#2563eb" opacity="0.84"/>
<text x="600.0" y="151.9" text-anchor="middle" font-size="13" fill="#475569">741</text>
<rect x="675.7" y="284.8" width="61.9" height="145.2" fill="#16a34a" opacity="0.84"/>
<rect x="675.7" y="144.7" width="61.9" height="140.1" fill="#0f766e" opacity="0.84"/>
<rect x="675.7" y="132.2" width="61.9" height="12.4" fill="#f59e0b" opacity="0.84"/>


<rect x="675.7" y="118.7" width="61.9" height="13.5" fill="#2563eb" opacity="0.84"/>
<text x="706.7" y="111.7" text-anchor="middle" font-size="13" fill="#475569">851</text>
<rect x="782.4" y="390.1" width="61.9" height="39.9" fill="#16a34a" opacity="0.84"/>
<rect x="782.4" y="119.4" width="61.9" height="270.7" fill="#0f766e" opacity="0.84"/>
<rect x="782.4" y="116.5" width="61.9" height="2.9" fill="#f59e0b" opacity="0.84"/>


<rect x="782.4" y="111.0" width="61.9" height="5.5" fill="#2563eb" opacity="0.84"/>
<text x="813.3" y="104.0" text-anchor="middle" font-size="13" fill="#475569">872</text>
<rect x="889.1" y="290.3" width="61.9" height="139.7" fill="#16a34a" opacity="0.84"/>
<rect x="889.1" y="171.0" width="61.9" height="119.3" fill="#0f766e" opacity="0.84"/>
<rect x="889.1" y="160.0" width="61.9" height="11.0" fill="#f59e0b" opacity="0.84"/>


<rect x="889.1" y="158.9" width="61.9" height="1.1" fill="#2563eb" opacity="0.84"/>
<text x="920.0" y="151.9" text-anchor="middle" font-size="13" fill="#475569">741</text>
<rect x="995.7" y="377.0" width="61.9" height="53.0" fill="#16a34a" opacity="0.84"/>
<rect x="995.7" y="169.2" width="61.9" height="207.8" fill="#0f766e" opacity="0.84"/>
<rect x="995.7" y="161.8" width="61.9" height="7.3" fill="#f59e0b" opacity="0.84"/>


<rect x="995.7" y="160.8" width="61.9" height="1.1" fill="#2563eb" opacity="0.84"/>
<text x="1026.7" y="153.8" text-anchor="middle" font-size="13" fill="#475569">736</text>
<text x="173.3" y="454.0" transform="rotate(-45 173.3 454.0)" font-size="20" text-anchor="end" fill="#475569">Richtigkeit</text>
<text x="280.0" y="454.0" transform="rotate(-45 280.0 454.0)" font-size="20" text-anchor="end" fill="#475569">Rückfragefähigkeit</text>
<text x="386.7" y="454.0" transform="rotate(-45 386.7 454.0)" font-size="20" text-anchor="end" fill="#475569">Internet- / Quelle...</text>
<text x="493.3" y="454.0" transform="rotate(-45 493.3 454.0)" font-size="20" text-anchor="end" fill="#475569">Prüfung / Verifika...</text>
<text x="600.0" y="454.0" transform="rotate(-45 600.0 454.0)" font-size="20" text-anchor="end" fill="#475569">Unsicherheit offen...</text>
<text x="706.7" y="454.0" transform="rotate(-45 706.7 454.0)" font-size="20" text-anchor="end" fill="#475569">Vollständigkeit ge...</text>
<text x="813.3" y="454.0" transform="rotate(-45 813.3 454.0)" font-size="20" text-anchor="end" fill="#475569">Vollständigkeit ge...</text>
<text x="920.0" y="454.0" transform="rotate(-45 920.0 454.0)" font-size="20" text-anchor="end" fill="#475569">Klarheit / Verstän...</text>
<text x="1026.7" y="454.0" transform="rotate(-45 1026.7 454.0)" font-size="20" text-anchor="end" fill="#475569">Relevanz</text>
</svg>
