<svg xmlns="http://www.w3.org/2000/svg" width="980" height="585" viewBox="0 0 980 585" role="img" aria-label="Mittelwert Direkter Aufruf vs Workflow">
<rect width="100%" height="100%" fill="white"/>
<text x="490" y="34" text-anchor="middle" font-size="26" font-weight="700" fill="#0f172a">Mittelwert Direkter Aufruf vs Workflow</text>
<rect x="437.5" y="543" width="18" height="18" fill="#64748b" opacity="0.78"/><text x="462.5" y="558" font-size="18" fill="#475569">Direkt</text>
<rect x="552.5" y="543" width="18" height="18" fill="#2563eb" opacity="0.78"/><text x="577.5" y="558" font-size="18" fill="#475569">Workflow</text>
<text x="28" y="226" transform="rotate(-90 28 226)" text-anchor="middle" font-size="24" fill="#475569">Mittlerer Score (%)</text>
<line x1="115" y1="380" x2="950" y2="380" stroke="#cbd5e1"/>
<line x1="115" y1="72" x2="115" y2="380" stroke="#cbd5e1"/>
<line x1="115" y1="380.0" x2="950" y2="380.0" stroke="#e2e8f0"/>
<text x="105" y="385.0" text-anchor="end" font-size="16" fill="#64748b">0</text>
<line x1="115" y1="303.0" x2="950" y2="303.0" stroke="#e2e8f0"/>
<text x="105" y="308.0" text-anchor="end" font-size="16" fill="#64748b">25</text>
<line x1="115" y1="226.0" x2="950" y2="226.0" stroke="#e2e8f0"/>
<text x="105" y="231.0" text-anchor="end" font-size="16" fill="#64748b">50</text>
<line x1="115" y1="149.0" x2="950" y2="149.0" stroke="#e2e8f0"/>
<text x="105" y="154.0" text-anchor="end" font-size="16" fill="#64748b">75</text>
<line x1="115" y1="72.0" x2="950" y2="72.0" stroke="#e2e8f0"/>
<text x="105" y="77.0" text-anchor="end" font-size="16" fill="#64748b">100</text>
<rect x="134.4" y="115.8" width="26.0" height="264.2" fill="#64748b" opacity="0.78"/>
<rect x="162.4" y="113.2" width="26.0" height="266.8" fill="#2563eb" opacity="0.78"/>
<text x="147.4" y="108.8" text-anchor="middle" font-size="13" font-weight="700" fill="#0f172a">85.8</text>
<text x="175.4" y="106.2" text-anchor="middle" font-size="13" font-weight="700" fill="#0f172a">86.6</text>
<rect x="227.2" y="229.9" width="26.0" height="150.1" fill="#64748b" opacity="0.78"/>
<rect x="255.2" y="231.9" width="26.0" height="148.1" fill="#2563eb" opacity="0.78"/>
<text x="240.2" y="222.9" text-anchor="middle" font-size="13" font-weight="700" fill="#0f172a">48.7</text>
<text x="268.2" y="224.9" text-anchor="middle" font-size="13" font-weight="700" fill="#0f172a">48.1</text>
<rect x="320.0" y="188.8" width="26.0" height="191.2" fill="#64748b" opacity="0.78"/>
<rect x="347.9" y="199.5" width="26.0" height="180.5" fill="#2563eb" opacity="0.78"/>
<text x="333.0" y="181.8" text-anchor="middle" font-size="13" font-weight="700" fill="#0f172a">62.1</text>
<text x="360.9" y="192.5" text-anchor="middle" font-size="13" font-weight="700" fill="#0f172a">58.6</text>
<rect x="412.7" y="163.3" width="26.0" height="216.7" fill="#64748b" opacity="0.78"/>
<rect x="440.7" y="171.8" width="26.0" height="208.2" fill="#2563eb" opacity="0.78"/>
<text x="425.7" y="156.3" text-anchor="middle" font-size="13" font-weight="700" fill="#0f172a">70.4</text>
<text x="453.7" y="164.8" text-anchor="middle" font-size="13" font-weight="700" fill="#0f172a">67.6</text>
<rect x="505.5" y="120.0" width="26.0" height="260.0" fill="#64748b" opacity="0.78"/>
<rect x="533.5" y="115.1" width="26.0" height="264.9" fill="#2563eb" opacity="0.78"/>
<text x="518.5" y="113.0" text-anchor="middle" font-size="13" font-weight="700" fill="#0f172a">84.4</text>
<text x="546.5" y="108.1" text-anchor="middle" font-size="13" font-weight="700" fill="#0f172a">86.0</text>
<rect x="598.3" y="133.1" width="26.0" height="246.9" fill="#64748b" opacity="0.78"/>
<rect x="626.3" y="127.3" width="26.0" height="252.7" fill="#2563eb" opacity="0.78"/>
<text x="611.3" y="126.1" text-anchor="middle" font-size="13" font-weight="700" fill="#0f172a">80.2</text>
<text x="639.3" y="120.3" text-anchor="middle" font-size="13" font-weight="700" fill="#0f172a">82.1</text>
<rect x="691.1" y="110.6" width="26.0" height="269.4" fill="#64748b" opacity="0.78"/>
<rect x="719.1" y="109.8" width="26.0" height="270.2" fill="#2563eb" opacity="0.78"/>
<text x="704.1" y="103.6" text-anchor="middle" font-size="13" font-weight="700" fill="#0f172a">87.5</text>
<text x="732.0" y="102.8" text-anchor="middle" font-size="13" font-weight="700" fill="#0f172a">87.7</text>
<rect x="783.9" y="123.8" width="26.0" height="256.2" fill="#64748b" opacity="0.78"/>
<rect x="811.8" y="135.1" width="26.0" height="244.9" fill="#2563eb" opacity="0.78"/>
<text x="796.8" y="116.8" text-anchor="middle" font-size="13" font-weight="700" fill="#0f172a">83.2</text>
<text x="824.8" y="128.1" text-anchor="middle" font-size="13" font-weight="700" fill="#0f172a">79.5</text>
<rect x="876.6" y="86.0" width="26.0" height="294.0" fill="#64748b" opacity="0.78"/>
<rect x="904.6" y="86.1" width="26.0" height="293.9" fill="#2563eb" opacity="0.78"/>
<text x="889.6" y="79.0" text-anchor="middle" font-size="13" font-weight="700" fill="#0f172a">95.5</text>
<text x="917.6" y="79.1" text-anchor="middle" font-size="13" font-weight="700" fill="#0f172a">95.4</text>
<text x="161.4" y="404.0" transform="rotate(-45 161.4 404.0)" font-size="20" text-anchor="end" fill="#475569">Richtigkeit</text>
<text x="254.2" y="404.0" transform="rotate(-45 254.2 404.0)" font-size="20" text-anchor="end" fill="#475569">Rückfragefähigkeit</text>
<text x="346.9" y="404.0" transform="rotate(-45 346.9 404.0)" font-size="20" text-anchor="end" fill="#475569">Internet- / Quelle...</text>
<text x="439.7" y="404.0" transform="rotate(-45 439.7 404.0)" font-size="20" text-anchor="end" fill="#475569">Prüfung / Verifika...</text>
<text x="532.5" y="404.0" transform="rotate(-45 532.5 404.0)" font-size="20" text-anchor="end" fill="#475569">Unsicherheit offen...</text>
<text x="625.3" y="404.0" transform="rotate(-45 625.3 404.0)" font-size="20" text-anchor="end" fill="#475569">Vollständigkeit ge...</text>
<text x="718.1" y="404.0" transform="rotate(-45 718.1 404.0)" font-size="20" text-anchor="end" fill="#475569">Vollständigkeit ge...</text>
<text x="810.8" y="404.0" transform="rotate(-45 810.8 404.0)" font-size="20" text-anchor="end" fill="#475569">Klarheit / Verstän...</text>
<text x="903.6" y="404.0" transform="rotate(-45 903.6 404.0)" font-size="20" text-anchor="end" fill="#475569">Relevanz</text>
</svg>
