<svg xmlns="http://www.w3.org/2000/svg" width="1600" height="1000" viewBox="0 0 1600 1000">
  <defs>
    <marker id="arrowBlue" markerWidth="10" markerHeight="10" refX="9" refY="3" orient="auto"><path d="M0,0 L0,6 L9,3 z" fill="#0647b8"/></marker>
    <marker id="arrowRed" markerWidth="10" markerHeight="10" refX="9" refY="3" orient="auto"><path d="M0,0 L0,6 L9,3 z" fill="#d60000"/></marker>
    <marker id="arrowGreen" markerWidth="10" markerHeight="10" refX="9" refY="3" orient="auto"><path d="M0,0 L0,6 L9,3 z" fill="#007a2f"/></marker>
    <marker id="arrowPurple" markerWidth="10" markerHeight="10" refX="9" refY="3" orient="auto"><path d="M0,0 L0,6 L9,3 z" fill="#6a1b9a"/></marker>
    <style>
      .title{font-family:Arial,Helvetica,sans-serif;font-size:46px;font-weight:700;fill:#06246b}
      .subtitle{font-family:Arial,Helvetica,sans-serif;font-size:27px;font-weight:700;fill:#06246b}
      .text{font-family:Arial,Helvetica,sans-serif;font-size:18px;fill:#000}
      .small{font-family:Arial,Helvetica,sans-serif;font-size:15px;fill:#000}
      .blue{font-family:Arial,Helvetica,sans-serif;fill:#0647b8;font-weight:700}
      .red{font-family:Arial,Helvetica,sans-serif;fill:#d60000;font-weight:700}
      .green{font-family:Arial,Helvetica,sans-serif;fill:#007a2f;font-weight:700}
      .purple{font-family:Arial,Helvetica,sans-serif;fill:#6a1b9a;font-weight:700}
      .axis{stroke:#000;stroke-width:3}
      .curve{fill:none;stroke:#0647b8;stroke-width:5}
      .dashRed{stroke:#e00000;stroke-width:3;stroke-dasharray:10 8}
      .dashGreen{stroke:#007a2f;stroke-width:3;stroke-dasharray:10 8}
      .dashBlack{stroke:#000;stroke-width:2;stroke-dasharray:10 8}
    </style>
  </defs>

  <rect width="1600" height="1000" fill="white"/>

  <text x="800" y="55" text-anchor="middle" class="title">T-Verteilung: zweiseitiger t-Test</text>
  <text x="800" y="92" text-anchor="middle" class="subtitle">(Wahrscheinlichkeitsverteilung f&#252;r Mittelwerte)</text>

  <!-- Axis -->
  <line x1="60" y1="570" x2="1220" y2="570" class="axis" marker-end="url(#arrowBlue)" style="marker-end:url(#arrowBlue);stroke:#000"/>
  <text x="1198" y="600" class="text" font-weight="700">t</text>

  <!-- Alpha critical areas: both tails -->
  <path d="M90,560 C170,555 240,530 300,470 L300,570 L90,570 Z" fill="#ff4b4b" opacity="0.35"/>
  <path d="M960,470 C1015,525 1080,555 1150,564 L1150,570 L960,570 Z" fill="#ff4b4b" opacity="0.35"/>

  <!-- P-value areas from +/- observed T values outward -->
  <path d="M90,560 C140,558 190,550 235,532 L235,570 L90,570 Z" fill="#8e44ad" opacity="0.42"/>
  <path d="M1025,532 C1065,552 1105,560 1150,564 L1150,570 L1025,570 Z" fill="#8e44ad" opacity="0.42"/>

  <!-- Curve -->
  <path d="M90,560 C170,555 240,530 300,470 C370,400 430,260 520,180 C585,120 675,120 740,180 C830,260 890,400 960,470 C1020,530 1090,555 1150,564" class="curve"/>

  <!-- Lines -->
  <line x1="300" y1="430" x2="300" y2="665" class="dashRed"/>
  <line x1="960" y1="430" x2="960" y2="665" class="dashRed"/>
  <line x1="630" y1="130" x2="630" y2="590" class="dashBlack"/>
  <line x1="235" y1="525" x2="235" y2="735" class="dashGreen"/>
  <line x1="1025" y1="525" x2="1025" y2="735" class="dashGreen"/>
  <circle cx="235" cy="735" r="7" fill="#007a2f"/>
  <circle cx="1025" cy="735" r="7" fill="#007a2f"/>

  <!-- Labels -->
  <text x="300" y="615" text-anchor="middle" class="text" font-weight="700">-t<tspan baseline-shift="sub" font-size="14">kritisch</tspan></text>
  <text x="960" y="615" text-anchor="middle" class="text" font-weight="700">t<tspan baseline-shift="sub" font-size="14">kritisch</tspan></text>
  <text x="630" y="600" text-anchor="middle" class="text" font-weight="700">0</text>
  <text x="235" y="765" text-anchor="middle" class="green" font-size="19">-T Wert</text>
  <text x="1025" y="765" text-anchor="middle" class="green" font-size="19">T Wert</text>
  <text x="630" y="790" text-anchor="middle" class="green" font-size="19">(Messwert, Betrag z&#228;hlt)</text>

  <!-- P label -->
  <text x="1095" y="515" class="purple" font-size="21">P-Wert</text>
  <text x="1095" y="540" class="purple" font-size="17">Fl&#228;chen ab |T-Wert|</text>
  <line x1="1090" y1="547" x2="1065" y2="562" stroke="#6a1b9a" stroke-width="2" marker-end="url(#arrowPurple)"/>
  <line x1="1045" y1="547" x2="235" y2="555" stroke="#6a1b9a" stroke-width="2" marker-end="url(#arrowPurple)" opacity="0.75"/>

  <!-- Standard error -->
  <line x1="450" y1="500" x2="810" y2="500" stroke="#0647b8" stroke-width="3" marker-start="url(#arrowBlue)" marker-end="url(#arrowBlue)"/>
  <text x="630" y="475" text-anchor="middle" class="blue" font-size="20">&#177; 1 Standard Error</text>
  <text x="630" y="500" text-anchor="middle" class="blue" font-size="20">(Breite der Kurve)</text>

  <!-- Acceptance area -->
  <line x1="300" y1="665" x2="960" y2="665" stroke="#007a2f" stroke-width="3"/>
  <line x1="300" y1="650" x2="300" y2="665" stroke="#007a2f" stroke-width="3"/>
  <line x1="960" y1="650" x2="960" y2="665" stroke="#007a2f" stroke-width="3"/>
  <rect x="500" y="645" width="260" height="55" fill="white"/>
  <text x="630" y="675" text-anchor="middle" class="green" font-size="22">H0 Annahme Bereich</text>
  <text x="630" y="700" text-anchor="middle" class="green" font-size="20">Fl&#228;che = 95%</text>

  <!-- Small text boxes -->
  <rect x="35" y="120" width="335" height="185" rx="8" fill="white" stroke="#0647b8" stroke-width="2"/>
  <text x="55" y="150" class="blue" font-size="22">Standard Error</text>
  <text x="55" y="176" class="text" fill="#0647b8">(Standard Abweichung f&#252;r Mittelwerte)</text>
  <line x1="55" y1="190" x2="345" y2="190" stroke="#0647b8"/>
  <text x="55" y="220" class="small">Breite der T-Verteilung.</text>
  <text x="55" y="245" class="small">Typische Schwankung der</text>
  <text x="55" y="270" class="small">Stichprobenmittelwerte um 0.</text>
  <line x1="370" y1="300" x2="425" y2="390" stroke="#0647b8" stroke-width="2" marker-end="url(#arrowBlue)"/>

  <rect x="990" y="125" width="300" height="145" rx="8" fill="white" stroke="#d60000" stroke-width="2"/>
  <text x="1010" y="155" class="red" font-size="22">Signifikanzniveau 5%</text>
  <text x="1010" y="180" class="red" font-size="22">= &#945;-Wert und Fl&#228;che</text>
  <line x1="1010" y1="193" x2="1265" y2="193" stroke="#d60000"/>
  <text x="1140" y="220" text-anchor="middle" class="red" font-size="20">&#945; = 0,05</text>
  <text x="1015" y="242" class="small">Zweiseitig: je 2,5% links</text>
  <text x="1015" y="262" class="small">und rechts au&#223;en.</text>
  <line x1="1080" y1="270" x2="980" y2="450" stroke="#d60000" stroke-width="2" marker-end="url(#arrowRed)"/>
  <line x1="1015" y1="270" x2="305" y2="450" stroke="#d60000" stroke-width="2" marker-end="url(#arrowRed)" opacity="0.75"/>

  <rect x="1085" y="315" width="245" height="145" rx="8" fill="white" stroke="#6a1b9a" stroke-width="2"/>
  <text x="1105" y="345" class="purple" font-size="21">P-Wert = Fl&#228;chen</text>
  <text x="1105" y="375" class="small">Beim zweiseitigen Test:</text>
  <text x="1105" y="398" class="small">Fl&#228;chen links und rechts</text>
  <text x="1105" y="421" class="small">vom Betrag des T-Werts.</text>
  <text x="1105" y="444" class="small">Je kleiner, desto</text>
  <text x="1105" y="462" class="small">st&#228;rker gegen H0.</text>
  <line x1="1120" y1="460" x2="1045" y2="535" stroke="#6a1b9a" stroke-width="2" marker-end="url(#arrowPurple)"/>

  <rect x="1308" y="150" width="250" height="330" rx="8" fill="white" stroke="#007a2f" stroke-width="2"/>
  <text x="1328" y="180" class="green" font-size="22">T Wert ungef&#228;hr</text>
  <text x="1328" y="212" class="small">standardisierter Messwert:</text>
  <text x="1328" y="235" class="small">Abstand des Ergebnisses</text>
  <text x="1328" y="258" class="small">von 0 in Einheiten des</text>
  <text x="1328" y="281" class="small">Standard Errors.</text>
  <line x1="1328" y1="301" x2="1535" y2="301" stroke="#007a2f"/>
  <text x="1328" y="331" class="green" font-size="17">Interpretation:</text>
  <text x="1328" y="356" class="small">Je weiter von 0 entfernt,</text>
  <text x="1328" y="379" class="small">egal ob links oder rechts,</text>
  <text x="1328" y="402" class="small">desto unwahrscheinlicher</text>
  <text x="1328" y="425" class="small">unter der Nullhypothese.</text>
  <text x="1328" y="458" class="green" font-size="17">Beispiel:</text>
  <text x="1328" y="480" class="small">T = -3 und T = 3</text>
  <text x="1328" y="502" class="small">sind gleich extrem.</text>

  <!-- Critical note -->
  <text x="815" y="695" class="red" font-size="18">T kritisch (R&#228;nder)</text>
  <text x="790" y="720" class="small">Grenzen zwischen Annahmebereich</text>
  <text x="790" y="740" class="small">und kritischen Bereichen</text>

  <!-- Summary box -->
  <rect x="40" y="795" width="900" height="180" rx="8" fill="white" stroke="#000" stroke-width="1.5"/>
  <line x1="260" y1="795" x2="260" y2="975" stroke="#999"/>
  <line x1="40" y1="830" x2="940" y2="830" stroke="#999"/>
  <line x1="40" y1="865" x2="940" y2="865" stroke="#999"/>
  <line x1="40" y1="900" x2="940" y2="900" stroke="#999"/>
  <line x1="40" y1="935" x2="940" y2="935" stroke="#999"/>
  <text x="65" y="820" class="blue" font-size="17">T-Verteilung</text><text x="280" y="820" class="small">= Wahrscheinlichkeitsverteilung der Mittelwerte unter H0.</text>
  <text x="65" y="855" class="blue" font-size="17">Standard Error</text><text x="280" y="855" class="small">= Standard Abweichung f&#252;r Mittelwerte.</text>
  <text x="65" y="890" class="red" font-size="17">Signifikanzniveau &#945;</text><text x="280" y="890" class="small">= 5% Gesamtfl&#228;che, je 2,5% links und rechts.</text>
  <text x="65" y="925" class="red" font-size="17">T kritisch</text><text x="280" y="925" class="small">= zwei R&#228;nder zwischen Annahmebereich und kritischen Bereichen.</text>
  <text x="65" y="960" class="green" font-size="17">T Wert / P-Wert</text><text x="280" y="960" class="small">= Messwert / beide Au&#223;enfl&#228;chen ab |T|.</text>

  <!-- Legend -->
  <rect x="1265" y="700" width="290" height="245" rx="8" fill="white" stroke="#000" stroke-width="1.5"/>
  <text x="1410" y="727" text-anchor="middle" class="text" font-weight="700">Legende</text>
  <line x1="1290" y1="755" x2="1320" y2="755" class="curve"/>
  <text x="1340" y="761" class="small">T-Verteilung</text>
  <rect x="1290" y="780" width="30" height="16" fill="#ff4b4b" opacity="0.35" stroke="#d60000"/>
  <text x="1340" y="795" class="small">&#945; = 5% gesamt</text>
  <rect x="1290" y="810" width="30" height="16" fill="#8e44ad" opacity="0.42" stroke="#6a1b9a"/>
  <text x="1340" y="825" class="small">P-Wert-Fl&#228;chen</text>
  <line x1="1290" y1="850" x2="1320" y2="850" class="dashRed"/>
  <text x="1340" y="855" class="small">&#177;t kritisch</text>
  <line x1="1290" y1="880" x2="1320" y2="880" class="dashGreen"/>
  <text x="1340" y="885" class="small">&#177;T Wert</text>
</svg>
