<svg xmlns="http://www.w3.org/2000/svg" width="980" height="580" viewBox="0 0 980 580" role="img" aria-label="Verbesserungspotenzial des direkten Aufrufs">
<rect width="100%" height="100%" fill="white"/>
<text x="490" y="34" text-anchor="middle" font-size="26" font-weight="700" fill="#0f172a">Verbesserungspotenzial des direkten Aufrufs</text>
<rect x="420" y="54" width="18" height="18" fill="#dc2626" opacity="0.82"/><text x="445" y="69" font-size="18" fill="#475569">Direkter Aufruf 100</text>
<rect x="590" y="54" width="18" height="18" fill="#f59e0b" opacity="0.82"/><text x="615" y="69" font-size="18" fill="#475569">Direkter Aufruf 75-99</text>
<rect x="770" y="54" width="18" height="18" fill="#16a34a" opacity="0.82"/><text x="795" y="69" font-size="18" fill="#475569">Direkter Aufruf &lt;75</text>
<text x="28" y="246.5" transform="rotate(-90 28 246.5)" text-anchor="middle" font-size="24" fill="#475569">Anzahl Paare</text>
<line x1="115" y1="405" x2="945" y2="405" stroke="#cbd5e1"/>
<line x1="115" y1="88" x2="115" y2="405" stroke="#cbd5e1"/>
<line x1="115" y1="405.0" x2="945" y2="405.0" stroke="#e2e8f0"/>
<text x="105" y="410.0" text-anchor="end" font-size="16" fill="#64748b">0</text>
<line x1="115" y1="325.8" x2="945" y2="325.8" stroke="#e2e8f0"/>
<text x="105" y="330.8" text-anchor="end" font-size="16" fill="#64748b">38</text>
<line x1="115" y1="246.5" x2="945" y2="246.5" stroke="#e2e8f0"/>
<text x="105" y="251.5" text-anchor="end" font-size="16" fill="#64748b">75</text>
<line x1="115" y1="167.3" x2="945" y2="167.3" stroke="#e2e8f0"/>
<text x="105" y="172.3" text-anchor="end" font-size="16" fill="#64748b">113</text>
<line x1="115" y1="88.0" x2="945" y2="88.0" stroke="#e2e8f0"/>
<text x="105" y="93.0" text-anchor="end" font-size="16" fill="#64748b">150</text>
<rect x="136.2" y="250.7" width="49.8" height="154.3" fill="#dc2626" opacity="0.82"/>
<rect x="136.2" y="113.4" width="49.8" height="137.4" fill="#f59e0b" opacity="0.82"/>
<rect x="136.2" y="88.0" width="49.8" height="25.4" fill="#16a34a" opacity="0.82"/>
<text x="161.1" y="81.0" text-anchor="middle" font-size="13" fill="#475569">150</text>
<rect x="228.4" y="375.4" width="49.8" height="29.6" fill="#dc2626" opacity="0.82"/>
<rect x="228.4" y="309.9" width="49.8" height="65.5" fill="#f59e0b" opacity="0.82"/>
<rect x="228.4" y="151.4" width="49.8" height="158.5" fill="#16a34a" opacity="0.82"/>
<text x="253.3" y="144.4" text-anchor="middle" font-size="13" fill="#475569">120</text>
<rect x="320.7" y="369.1" width="49.8" height="35.9" fill="#dc2626" opacity="0.82"/>
<rect x="320.7" y="259.2" width="49.8" height="109.9" fill="#f59e0b" opacity="0.82"/>
<rect x="320.7" y="88.0" width="49.8" height="171.2" fill="#16a34a" opacity="0.82"/>
<text x="345.6" y="81.0" text-anchor="middle" font-size="13" fill="#475569">150</text>
<rect x="412.9" y="341.6" width="49.8" height="63.4" fill="#dc2626" opacity="0.82"/>
<rect x="412.9" y="200.0" width="49.8" height="141.6" fill="#f59e0b" opacity="0.82"/>
<rect x="412.9" y="88.0" width="49.8" height="112.0" fill="#16a34a" opacity="0.82"/>
<text x="437.8" y="81.0" text-anchor="middle" font-size="13" fill="#475569">150</text>
<rect x="505.1" y="227.5" width="49.8" height="177.5" fill="#dc2626" opacity="0.82"/>
<rect x="505.1" y="123.9" width="49.8" height="103.6" fill="#f59e0b" opacity="0.82"/>
<rect x="505.1" y="88.0" width="49.8" height="35.9" fill="#16a34a" opacity="0.82"/>
<text x="530.0" y="81.0" text-anchor="middle" font-size="13" fill="#475569">150</text>
<rect x="597.3" y="276.1" width="49.8" height="128.9" fill="#dc2626" opacity="0.82"/>
<rect x="597.3" y="168.3" width="49.8" height="107.8" fill="#f59e0b" opacity="0.82"/>
<rect x="597.3" y="92.2" width="49.8" height="76.1" fill="#16a34a" opacity="0.82"/>
<text x="622.2" y="85.2" text-anchor="middle" font-size="13" fill="#475569">148</text>
<rect x="689.5" y="174.6" width="49.8" height="230.4" fill="#dc2626" opacity="0.82"/>
<rect x="689.5" y="147.2" width="49.8" height="27.5" fill="#f59e0b" opacity="0.82"/>
<rect x="689.5" y="88.0" width="49.8" height="59.2" fill="#16a34a" opacity="0.82"/>
<text x="714.4" y="81.0" text-anchor="middle" font-size="13" fill="#475569">150</text>
<rect x="781.8" y="295.1" width="49.8" height="109.9" fill="#dc2626" opacity="0.82"/>
<rect x="781.8" y="132.4" width="49.8" height="162.7" fill="#f59e0b" opacity="0.82"/>
<rect x="781.8" y="100.7" width="49.8" height="31.7" fill="#16a34a" opacity="0.82"/>
<text x="806.7" y="93.7" text-anchor="middle" font-size="13" fill="#475569">144</text>
<rect x="874.0" y="166.2" width="49.8" height="238.8" fill="#dc2626" opacity="0.82"/>
<rect x="874.0" y="88.0" width="49.8" height="78.2" fill="#f59e0b" opacity="0.82"/>

<text x="898.9" y="81.0" text-anchor="middle" font-size="13" fill="#475569">150</text>
<text x="161.1" y="429.0" transform="rotate(-45 161.1 429.0)" font-size="20" text-anchor="end" fill="#475569">Richtigkeit</text>
<text x="253.3" y="429.0" transform="rotate(-45 253.3 429.0)" font-size="20" text-anchor="end" fill="#475569">Rückfragefähigkeit</text>
<text x="345.6" y="429.0" transform="rotate(-45 345.6 429.0)" font-size="20" text-anchor="end" fill="#475569">Internet- / Quelle...</text>
<text x="437.8" y="429.0" transform="rotate(-45 437.8 429.0)" font-size="20" text-anchor="end" fill="#475569">Prüfung / Verifika...</text>
<text x="530.0" y="429.0" transform="rotate(-45 530.0 429.0)" font-size="20" text-anchor="end" fill="#475569">Unsicherheit offen...</text>
<text x="622.2" y="429.0" transform="rotate(-45 622.2 429.0)" font-size="20" text-anchor="end" fill="#475569">Vollständigkeit ge...</text>
<text x="714.4" y="429.0" transform="rotate(-45 714.4 429.0)" font-size="20" text-anchor="end" fill="#475569">Vollständigkeit ge...</text>
<text x="806.7" y="429.0" transform="rotate(-45 806.7 429.0)" font-size="20" text-anchor="end" fill="#475569">Klarheit / Verstän...</text>
<text x="898.9" y="429.0" transform="rotate(-45 898.9 429.0)" font-size="20" text-anchor="end" fill="#475569">Relevanz</text>
</svg>
