<svg xmlns="http://www.w3.org/2000/svg" width="980" height="560" viewBox="0 0 980 560" role="img" aria-label="Paarweise Differenzen Teil 2/2">
<rect width="100%" height="100%" fill="white"/>
<text x="490" y="34" text-anchor="middle" font-size="26" font-weight="700" fill="#0f172a">Paarweise Differenzen Teil 2/2</text>
<text x="28" y="265" transform="rotate(-90 28 265)" text-anchor="middle" font-size="24" fill="#475569">Workflow - Direkter Aufruf (Prozentpunkte)</text>
<text x="532.5" y="536" text-anchor="middle" font-size="24" fill="#475569">Antwortpaare 101-148 von 148</text>
<line x1="115" y1="299.5" x2="950" y2="299.5" stroke="#94a3b8" stroke-dasharray="4 4"/>
<line x1="115" y1="65" x2="115" y2="465" stroke="#cbd5e1"/>
<line x1="115" y1="465" x2="950" y2="465" stroke="#cbd5e1"/>
<line x1="115" y1="465.0" x2="950" y2="465.0" stroke="#e2e8f0"/>
<text x="105" y="470.0" text-anchor="end" font-size="16" fill="#64748b">-60</text>
<line x1="115" y1="365.0" x2="950" y2="365.0" stroke="#e2e8f0"/>
<text x="105" y="370.0" text-anchor="end" font-size="16" fill="#64748b">-24</text>
<line x1="115" y1="265.0" x2="950" y2="265.0" stroke="#e2e8f0"/>
<text x="105" y="270.0" text-anchor="end" font-size="16" fill="#64748b">13</text>
<line x1="115" y1="165.0" x2="950" y2="165.0" stroke="#e2e8f0"/>
<text x="105" y="170.0" text-anchor="end" font-size="16" fill="#64748b">49</text>
<line x1="115" y1="65.0" x2="950" y2="65.0" stroke="#e2e8f0"/>
<text x="105" y="70.0" text-anchor="end" font-size="16" fill="#64748b">85</text>
<rect x="117.4" y="299.5" width="12.5" height="69.0" fill="#dc2626" opacity="0.78"/>
<text x="123.7" y="386.4" text-anchor="middle" font-size="16" font-weight="700" fill="#0f172a">-25.0</text>
<rect x="134.8" y="299.5" width="12.5" height="1.0" fill="#15803d" opacity="0.78"/>
<text x="141.1" y="291.5" text-anchor="middle" font-size="16" font-weight="700" fill="#0f172a">0.0</text>
<rect x="152.2" y="299.5" width="12.5" height="137.9" fill="#dc2626" opacity="0.78"/>
<text x="158.5" y="455.4" text-anchor="middle" font-size="16" font-weight="700" fill="#0f172a">-50.0</text>
<rect x="169.6" y="299.5" width="12.5" height="1.0" fill="#15803d" opacity="0.78"/>
<text x="175.9" y="291.5" text-anchor="middle" font-size="16" font-weight="700" fill="#0f172a">0.0</text>
<rect x="187.0" y="299.5" width="12.5" height="69.0" fill="#dc2626" opacity="0.78"/>
<text x="193.3" y="386.4" text-anchor="middle" font-size="16" font-weight="700" fill="#0f172a">-25.0</text>
<rect x="204.4" y="161.6" width="12.5" height="137.9" fill="#15803d" opacity="0.78"/>
<text x="210.7" y="153.6" text-anchor="middle" font-size="16" font-weight="700" fill="#0f172a">50.0</text>
<rect x="221.8" y="161.6" width="12.5" height="137.9" fill="#15803d" opacity="0.78"/>
<text x="228.1" y="153.6" text-anchor="middle" font-size="16" font-weight="700" fill="#0f172a">50.0</text>
<rect x="239.2" y="299.5" width="12.5" height="69.0" fill="#dc2626" opacity="0.78"/>
<text x="245.5" y="386.4" text-anchor="middle" font-size="16" font-weight="700" fill="#0f172a">-25.0</text>
<rect x="256.6" y="299.5" width="12.5" height="1.0" fill="#15803d" opacity="0.78"/>
<text x="262.9" y="291.5" text-anchor="middle" font-size="16" font-weight="700" fill="#0f172a">0.0</text>
<rect x="274.0" y="299.5" width="12.5" height="69.0" fill="#dc2626" opacity="0.78"/>
<text x="280.3" y="386.4" text-anchor="middle" font-size="16" font-weight="700" fill="#0f172a">-25.0</text>
<rect x="291.4" y="299.5" width="12.5" height="1.0" fill="#15803d" opacity="0.78"/>
<text x="297.7" y="291.5" text-anchor="middle" font-size="16" font-weight="700" fill="#0f172a">0.0</text>
<rect x="308.8" y="299.5" width="12.5" height="1.0" fill="#15803d" opacity="0.78"/>
<text x="315.1" y="291.5" text-anchor="middle" font-size="16" font-weight="700" fill="#0f172a">0.0</text>
<rect x="326.2" y="299.5" width="12.5" height="1.0" fill="#15803d" opacity="0.78"/>
<text x="332.4" y="291.5" text-anchor="middle" font-size="16" font-weight="700" fill="#0f172a">0.0</text>
<rect x="343.6" y="299.5" width="12.5" height="1.0" fill="#15803d" opacity="0.78"/>
<text x="349.8" y="291.5" text-anchor="middle" font-size="16" font-weight="700" fill="#0f172a">0.0</text>
<rect x="361.0" y="299.5" width="12.5" height="1.0" fill="#15803d" opacity="0.78"/>
<text x="367.2" y="291.5" text-anchor="middle" font-size="16" font-weight="700" fill="#0f172a">0.0</text>
<rect x="378.4" y="299.5" width="12.5" height="1.0" fill="#15803d" opacity="0.78"/>
<text x="384.6" y="291.5" text-anchor="middle" font-size="16" font-weight="700" fill="#0f172a">0.0</text>
<rect x="395.8" y="299.5" width="12.5" height="1.0" fill="#15803d" opacity="0.78"/>
<text x="402.0" y="291.5" text-anchor="middle" font-size="16" font-weight="700" fill="#0f172a">0.0</text>
<rect x="413.2" y="299.5" width="12.5" height="1.0" fill="#15803d" opacity="0.78"/>
<text x="419.4" y="291.5" text-anchor="middle" font-size="16" font-weight="700" fill="#0f172a">0.0</text>
<rect x="430.6" y="299.5" width="12.5" height="1.0" fill="#15803d" opacity="0.78"/>
<text x="436.8" y="291.5" text-anchor="middle" font-size="16" font-weight="700" fill="#0f172a">0.0</text>
<rect x="448.0" y="299.5" width="12.5" height="1.0" fill="#15803d" opacity="0.78"/>
<text x="454.2" y="291.5" text-anchor="middle" font-size="16" font-weight="700" fill="#0f172a">0.0</text>
<rect x="465.4" y="299.5" width="12.5" height="1.0" fill="#15803d" opacity="0.78"/>
<text x="471.6" y="291.5" text-anchor="middle" font-size="16" font-weight="700" fill="#0f172a">0.0</text>
<rect x="482.7" y="299.5" width="12.5" height="1.0" fill="#15803d" opacity="0.78"/>
<text x="489.0" y="291.5" text-anchor="middle" font-size="16" font-weight="700" fill="#0f172a">0.0</text>
<rect x="500.1" y="230.5" width="12.5" height="69.0" fill="#15803d" opacity="0.78"/>
<text x="506.4" y="222.5" text-anchor="middle" font-size="16" font-weight="700" fill="#0f172a">25.0</text>
<rect x="517.5" y="230.5" width="12.5" height="69.0" fill="#15803d" opacity="0.78"/>
<text x="523.8" y="222.5" text-anchor="middle" font-size="16" font-weight="700" fill="#0f172a">25.0</text>
<rect x="534.9" y="299.5" width="12.5" height="1.0" fill="#15803d" opacity="0.78"/>
<text x="541.2" y="291.5" text-anchor="middle" font-size="16" font-weight="700" fill="#0f172a">0.0</text>
<rect x="552.3" y="299.5" width="12.5" height="1.0" fill="#15803d" opacity="0.78"/>
<text x="558.6" y="291.5" text-anchor="middle" font-size="16" font-weight="700" fill="#0f172a">0.0</text>
<rect x="569.7" y="299.5" width="12.5" height="1.0" fill="#15803d" opacity="0.78"/>
<text x="576.0" y="291.5" text-anchor="middle" font-size="16" font-weight="700" fill="#0f172a">0.0</text>
<rect x="587.1" y="299.5" width="12.5" height="69.0" fill="#dc2626" opacity="0.78"/>
<text x="593.4" y="386.4" text-anchor="middle" font-size="16" font-weight="700" fill="#0f172a">-25.0</text>
<rect x="604.5" y="299.5" width="12.5" height="1.0" fill="#15803d" opacity="0.78"/>
<text x="610.8" y="291.5" text-anchor="middle" font-size="16" font-weight="700" fill="#0f172a">0.0</text>
<rect x="621.9" y="299.5" width="12.5" height="1.0" fill="#15803d" opacity="0.78"/>
<text x="628.2" y="291.5" text-anchor="middle" font-size="16" font-weight="700" fill="#0f172a">0.0</text>
<rect x="639.3" y="299.5" width="12.5" height="1.0" fill="#15803d" opacity="0.78"/>
<text x="645.6" y="291.5" text-anchor="middle" font-size="16" font-weight="700" fill="#0f172a">0.0</text>
<rect x="656.7" y="299.5" width="12.5" height="1.0" fill="#15803d" opacity="0.78"/>
<text x="663.0" y="291.5" text-anchor="middle" font-size="16" font-weight="700" fill="#0f172a">0.0</text>
<rect x="674.1" y="230.5" width="12.5" height="69.0" fill="#15803d" opacity="0.78"/>
<text x="680.4" y="222.5" text-anchor="middle" font-size="16" font-weight="700" fill="#0f172a">25.0</text>
<rect x="691.5" y="299.5" width="12.5" height="1.0" fill="#15803d" opacity="0.78"/>
<text x="697.8" y="291.5" text-anchor="middle" font-size="16" font-weight="700" fill="#0f172a">0.0</text>
<rect x="708.9" y="299.5" width="12.5" height="69.0" fill="#dc2626" opacity="0.78"/>
<text x="715.2" y="386.4" text-anchor="middle" font-size="16" font-weight="700" fill="#0f172a">-25.0</text>
<rect x="726.3" y="299.5" width="12.5" height="1.0" fill="#15803d" opacity="0.78"/>
<text x="732.6" y="291.5" text-anchor="middle" font-size="16" font-weight="700" fill="#0f172a">0.0</text>
<rect x="743.7" y="299.5" width="12.5" height="1.0" fill="#15803d" opacity="0.78"/>
<text x="749.9" y="291.5" text-anchor="middle" font-size="16" font-weight="700" fill="#0f172a">0.0</text>
<rect x="761.1" y="230.5" width="12.5" height="69.0" fill="#15803d" opacity="0.78"/>
<text x="767.3" y="222.5" text-anchor="middle" font-size="16" font-weight="700" fill="#0f172a">25.0</text>
<rect x="778.5" y="299.5" width="12.5" height="1.0" fill="#15803d" opacity="0.78"/>
<text x="784.7" y="291.5" text-anchor="middle" font-size="16" font-weight="700" fill="#0f172a">0.0</text>
<rect x="795.9" y="92.6" width="12.5" height="206.9" fill="#15803d" opacity="0.78"/>
<text x="802.1" y="84.6" text-anchor="middle" font-size="16" font-weight="700" fill="#0f172a">75.0</text>
<rect x="813.3" y="299.5" width="12.5" height="1.0" fill="#15803d" opacity="0.78"/>
<text x="819.5" y="291.5" text-anchor="middle" font-size="16" font-weight="700" fill="#0f172a">0.0</text>
<rect x="830.7" y="230.5" width="12.5" height="69.0" fill="#15803d" opacity="0.78"/>
<text x="836.9" y="222.5" text-anchor="middle" font-size="16" font-weight="700" fill="#0f172a">25.0</text>
<rect x="848.1" y="299.5" width="12.5" height="1.0" fill="#15803d" opacity="0.78"/>
<text x="854.3" y="291.5" text-anchor="middle" font-size="16" font-weight="700" fill="#0f172a">0.0</text>
<rect x="865.5" y="299.5" width="12.5" height="1.0" fill="#15803d" opacity="0.78"/>
<text x="871.7" y="291.5" text-anchor="middle" font-size="16" font-weight="700" fill="#0f172a">0.0</text>
<rect x="882.9" y="299.5" width="12.5" height="69.0" fill="#dc2626" opacity="0.78"/>
<text x="889.1" y="386.4" text-anchor="middle" font-size="16" font-weight="700" fill="#0f172a">-25.0</text>
<rect x="900.2" y="230.5" width="12.5" height="69.0" fill="#15803d" opacity="0.78"/>
<text x="906.5" y="222.5" text-anchor="middle" font-size="16" font-weight="700" fill="#0f172a">25.0</text>
<rect x="917.6" y="299.5" width="12.5" height="69.0" fill="#dc2626" opacity="0.78"/>
<text x="923.9" y="386.4" text-anchor="middle" font-size="16" font-weight="700" fill="#0f172a">-25.0</text>
<rect x="935.0" y="299.5" width="12.5" height="69.0" fill="#dc2626" opacity="0.78"/>
<text x="941.3" y="386.4" text-anchor="middle" font-size="16" font-weight="700" fill="#0f172a">-25.0</text>

</svg>
