<svg xmlns="http://www.w3.org/2000/svg" width="980" height="560" viewBox="0 0 980 560" role="img" aria-label="Paarweise Differenzen (Sample)">
<rect width="100%" height="100%" fill="white"/>
<text x="490" y="34" text-anchor="middle" font-size="26" font-weight="700" fill="#0f172a">Paarweise Differenzen (Sample)</text>
<text x="28" y="265" transform="rotate(-90 28 265)" text-anchor="middle" font-size="24" fill="#475569">Workflow - Direkter Aufruf (Prozentpunkte)</text>
<text x="532.5" y="536" text-anchor="middle" font-size="24" fill="#475569">Erste 120 Antwortpaare, geordnet nach Frage/Run</text>
<line x1="115" y1="314.3" x2="950" y2="314.3" stroke="#94a3b8" stroke-dasharray="4 4"/>
<line x1="115" y1="65" x2="115" y2="465" stroke="#cbd5e1"/>
<line x1="115" y1="465" x2="950" y2="465" stroke="#cbd5e1"/>
<line x1="115" y1="465.0" x2="950" y2="465.0" stroke="#e2e8f0"/>
<text x="105" y="470.0" text-anchor="end" font-size="16" fill="#64748b">-68</text>
<line x1="115" y1="365.0" x2="950" y2="365.0" stroke="#e2e8f0"/>
<text x="105" y="370.0" text-anchor="end" font-size="16" fill="#64748b">-23</text>
<line x1="115" y1="265.0" x2="950" y2="265.0" stroke="#e2e8f0"/>
<text x="105" y="270.0" text-anchor="end" font-size="16" fill="#64748b">22</text>
<line x1="115" y1="165.0" x2="950" y2="165.0" stroke="#e2e8f0"/>
<text x="105" y="170.0" text-anchor="end" font-size="16" fill="#64748b">67</text>
<line x1="115" y1="65.0" x2="950" y2="65.0" stroke="#e2e8f0"/>
<text x="105" y="70.0" text-anchor="end" font-size="16" fill="#64748b">112</text>
<rect x="116.7" y="314.3" width="9.0" height="1.0" fill="#15803d" opacity="0.78"/>
<text x="121.2" y="306.3" text-anchor="middle" font-size="16" font-weight="700" fill="#0f172a">0.0</text>
<rect x="129.2" y="269.9" width="9.0" height="44.3" fill="#15803d" opacity="0.78"/>
<text x="133.7" y="261.9" text-anchor="middle" font-size="16" font-weight="700" fill="#0f172a">20.0</text>
<rect x="141.7" y="269.9" width="9.0" height="44.3" fill="#15803d" opacity="0.78"/>
<text x="146.2" y="261.9" text-anchor="middle" font-size="16" font-weight="700" fill="#0f172a">20.0</text>
<rect x="154.1" y="269.9" width="9.0" height="44.3" fill="#15803d" opacity="0.78"/>
<text x="158.6" y="261.9" text-anchor="middle" font-size="16" font-weight="700" fill="#0f172a">20.0</text>
<rect x="166.6" y="225.6" width="9.0" height="88.7" fill="#15803d" opacity="0.78"/>
<text x="171.1" y="217.6" text-anchor="middle" font-size="16" font-weight="700" fill="#0f172a">40.0</text>
<rect x="179.1" y="314.3" width="9.0" height="44.3" fill="#dc2626" opacity="0.78"/>
<text x="183.5" y="376.6" text-anchor="middle" font-size="16" font-weight="700" fill="#0f172a">-20.0</text>
<rect x="191.5" y="225.6" width="9.0" height="88.7" fill="#15803d" opacity="0.78"/>
<text x="196.0" y="217.6" text-anchor="middle" font-size="16" font-weight="700" fill="#0f172a">40.0</text>
<rect x="204.0" y="314.3" width="9.0" height="1.0" fill="#15803d" opacity="0.78"/>
<text x="208.5" y="306.3" text-anchor="middle" font-size="16" font-weight="700" fill="#0f172a">0.0</text>
<rect x="216.4" y="225.6" width="9.0" height="88.7" fill="#15803d" opacity="0.78"/>
<text x="220.9" y="217.6" text-anchor="middle" font-size="16" font-weight="700" fill="#0f172a">40.0</text>
<rect x="228.9" y="314.3" width="9.0" height="1.0" fill="#15803d" opacity="0.78"/>
<text x="233.4" y="306.3" text-anchor="middle" font-size="16" font-weight="700" fill="#0f172a">0.0</text>
<rect x="241.4" y="314.3" width="9.0" height="1.0" fill="#15803d" opacity="0.78"/>
<text x="245.9" y="306.3" text-anchor="middle" font-size="16" font-weight="700" fill="#0f172a">0.0</text>
<rect x="253.8" y="269.9" width="9.0" height="44.3" fill="#15803d" opacity="0.78"/>
<text x="258.3" y="261.9" text-anchor="middle" font-size="16" font-weight="700" fill="#0f172a">20.0</text>
<rect x="266.3" y="269.9" width="9.0" height="44.3" fill="#15803d" opacity="0.78"/>
<text x="270.8" y="261.9" text-anchor="middle" font-size="16" font-weight="700" fill="#0f172a">20.0</text>
<rect x="278.8" y="269.9" width="9.0" height="44.3" fill="#15803d" opacity="0.78"/>
<text x="283.2" y="261.9" text-anchor="middle" font-size="16" font-weight="700" fill="#0f172a">20.0</text>
<rect x="291.2" y="314.3" width="9.0" height="1.0" fill="#15803d" opacity="0.78"/>
<text x="295.7" y="306.3" text-anchor="middle" font-size="16" font-weight="700" fill="#0f172a">0.0</text>
<rect x="303.7" y="314.3" width="9.0" height="1.0" fill="#15803d" opacity="0.78"/>
<text x="308.2" y="306.3" text-anchor="middle" font-size="16" font-weight="700" fill="#0f172a">0.0</text>
<rect x="316.1" y="258.8" width="9.0" height="55.4" fill="#15803d" opacity="0.78"/>
<text x="320.6" y="250.8" text-anchor="middle" font-size="16" font-weight="700" fill="#0f172a">25.0</text>
<rect x="328.6" y="203.4" width="9.0" height="110.8" fill="#15803d" opacity="0.78"/>
<text x="333.1" y="195.4" text-anchor="middle" font-size="16" font-weight="700" fill="#0f172a">50.0</text>
<rect x="341.1" y="148.0" width="9.0" height="166.3" fill="#15803d" opacity="0.78"/>
<text x="345.6" y="140.0" text-anchor="middle" font-size="16" font-weight="700" fill="#0f172a">75.0</text>
<rect x="353.5" y="314.3" width="9.0" height="55.4" fill="#dc2626" opacity="0.78"/>
<text x="358.0" y="387.7" text-anchor="middle" font-size="16" font-weight="700" fill="#0f172a">-25.0</text>
<rect x="366.0" y="314.3" width="9.0" height="1.0" fill="#15803d" opacity="0.78"/>
<text x="370.5" y="306.3" text-anchor="middle" font-size="16" font-weight="700" fill="#0f172a">0.0</text>
<rect x="378.5" y="314.3" width="9.0" height="1.0" fill="#15803d" opacity="0.78"/>
<text x="382.9" y="306.3" text-anchor="middle" font-size="16" font-weight="700" fill="#0f172a">0.0</text>
<rect x="390.9" y="314.3" width="9.0" height="1.0" fill="#15803d" opacity="0.78"/>
<text x="395.4" y="306.3" text-anchor="middle" font-size="16" font-weight="700" fill="#0f172a">0.0</text>
<rect x="403.4" y="314.3" width="9.0" height="1.0" fill="#15803d" opacity="0.78"/>
<text x="407.9" y="306.3" text-anchor="middle" font-size="16" font-weight="700" fill="#0f172a">0.0</text>
<rect x="415.8" y="289.6" width="9.0" height="24.6" fill="#15803d" opacity="0.78"/>
<text x="420.3" y="281.6" text-anchor="middle" font-size="16" font-weight="700" fill="#0f172a">11.1</text>
<rect x="428.3" y="166.5" width="9.0" height="147.8" fill="#15803d" opacity="0.78"/>
<text x="432.8" y="158.5" text-anchor="middle" font-size="16" font-weight="700" fill="#0f172a">66.7</text>
<rect x="440.8" y="314.3" width="9.0" height="98.5" fill="#dc2626" opacity="0.78"/>
<text x="445.3" y="430.8" text-anchor="middle" font-size="16" font-weight="700" fill="#0f172a">-44.4</text>
<rect x="453.2" y="314.3" width="9.0" height="49.3" fill="#dc2626" opacity="0.78"/>
<text x="457.7" y="381.5" text-anchor="middle" font-size="16" font-weight="700" fill="#0f172a">-22.2</text>
<rect x="465.7" y="289.6" width="9.0" height="24.6" fill="#15803d" opacity="0.78"/>
<text x="470.2" y="281.6" text-anchor="middle" font-size="16" font-weight="700" fill="#0f172a">11.1</text>
<rect x="478.2" y="265.0" width="9.0" height="49.3" fill="#15803d" opacity="0.78"/>
<text x="482.6" y="257.0" text-anchor="middle" font-size="16" font-weight="700" fill="#0f172a">22.2</text>
<rect x="490.6" y="265.0" width="9.0" height="49.3" fill="#15803d" opacity="0.78"/>
<text x="495.1" y="257.0" text-anchor="middle" font-size="16" font-weight="700" fill="#0f172a">22.2</text>
<rect x="503.1" y="314.3" width="9.0" height="1.0" fill="#15803d" opacity="0.78"/>
<text x="507.6" y="306.3" text-anchor="middle" font-size="16" font-weight="700" fill="#0f172a">0.0</text>
<rect x="515.6" y="265.0" width="9.0" height="49.3" fill="#15803d" opacity="0.78"/>
<text x="520.0" y="257.0" text-anchor="middle" font-size="16" font-weight="700" fill="#0f172a">22.2</text>
<rect x="528.0" y="166.5" width="9.0" height="147.8" fill="#15803d" opacity="0.78"/>
<text x="532.5" y="158.5" text-anchor="middle" font-size="16" font-weight="700" fill="#0f172a">66.7</text>
<rect x="540.5" y="215.7" width="9.0" height="98.5" fill="#15803d" opacity="0.78"/>
<text x="545.0" y="207.7" text-anchor="middle" font-size="16" font-weight="700" fill="#0f172a">44.4</text>
<rect x="552.9" y="314.3" width="9.0" height="98.5" fill="#dc2626" opacity="0.78"/>
<text x="557.4" y="430.8" text-anchor="middle" font-size="16" font-weight="700" fill="#0f172a">-44.4</text>
<rect x="565.4" y="314.3" width="9.0" height="123.2" fill="#dc2626" opacity="0.78"/>
<text x="569.9" y="455.4" text-anchor="middle" font-size="16" font-weight="700" fill="#0f172a">-55.6</text>
<rect x="577.9" y="117.2" width="9.0" height="197.0" fill="#15803d" opacity="0.78"/>
<text x="582.4" y="109.2" text-anchor="middle" font-size="16" font-weight="700" fill="#0f172a">88.9</text>
<rect x="590.3" y="314.3" width="9.0" height="49.3" fill="#dc2626" opacity="0.78"/>
<text x="594.8" y="381.5" text-anchor="middle" font-size="16" font-weight="700" fill="#0f172a">-22.2</text>
<rect x="602.8" y="215.7" width="9.0" height="98.5" fill="#15803d" opacity="0.78"/>
<text x="607.3" y="207.7" text-anchor="middle" font-size="16" font-weight="700" fill="#0f172a">44.4</text>
<rect x="615.3" y="215.7" width="9.0" height="98.5" fill="#15803d" opacity="0.78"/>
<text x="619.7" y="207.7" text-anchor="middle" font-size="16" font-weight="700" fill="#0f172a">44.4</text>
<rect x="627.7" y="289.6" width="9.0" height="24.6" fill="#15803d" opacity="0.78"/>
<text x="632.2" y="281.6" text-anchor="middle" font-size="16" font-weight="700" fill="#0f172a">11.1</text>
<rect x="640.2" y="265.0" width="9.0" height="49.3" fill="#15803d" opacity="0.78"/>
<text x="644.7" y="257.0" text-anchor="middle" font-size="16" font-weight="700" fill="#0f172a">22.2</text>
<rect x="652.6" y="314.3" width="9.0" height="1.0" fill="#15803d" opacity="0.78"/>
<text x="657.1" y="306.3" text-anchor="middle" font-size="16" font-weight="700" fill="#0f172a">0.0</text>
<rect x="665.1" y="314.3" width="9.0" height="49.3" fill="#dc2626" opacity="0.78"/>
<text x="669.6" y="381.5" text-anchor="middle" font-size="16" font-weight="700" fill="#0f172a">-22.2</text>
<rect x="677.6" y="314.3" width="9.0" height="1.0" fill="#15803d" opacity="0.78"/>
<text x="682.1" y="306.3" text-anchor="middle" font-size="16" font-weight="700" fill="#0f172a">0.0</text>
<rect x="690.0" y="314.3" width="9.0" height="24.6" fill="#dc2626" opacity="0.78"/>
<text x="694.5" y="356.9" text-anchor="middle" font-size="16" font-weight="700" fill="#0f172a">-11.1</text>
<rect x="702.5" y="265.0" width="9.0" height="49.3" fill="#15803d" opacity="0.78"/>
<text x="707.0" y="257.0" text-anchor="middle" font-size="16" font-weight="700" fill="#0f172a">22.2</text>
<rect x="715.0" y="240.4" width="9.0" height="73.9" fill="#15803d" opacity="0.78"/>
<text x="719.4" y="232.4" text-anchor="middle" font-size="16" font-weight="700" fill="#0f172a">33.3</text>
<rect x="727.4" y="141.8" width="9.0" height="172.4" fill="#15803d" opacity="0.78"/>
<text x="731.9" y="133.8" text-anchor="middle" font-size="16" font-weight="700" fill="#0f172a">77.8</text>
<rect x="739.9" y="203.4" width="9.0" height="110.8" fill="#15803d" opacity="0.78"/>
<text x="744.4" y="195.4" text-anchor="middle" font-size="16" font-weight="700" fill="#0f172a">50.0</text>
<rect x="752.3" y="258.8" width="9.0" height="55.4" fill="#15803d" opacity="0.78"/>
<text x="756.8" y="250.8" text-anchor="middle" font-size="16" font-weight="700" fill="#0f172a">25.0</text>
<rect x="764.8" y="203.4" width="9.0" height="110.8" fill="#15803d" opacity="0.78"/>
<text x="769.3" y="195.4" text-anchor="middle" font-size="16" font-weight="700" fill="#0f172a">50.0</text>
<rect x="777.3" y="203.4" width="9.0" height="110.8" fill="#15803d" opacity="0.78"/>
<text x="781.8" y="195.4" text-anchor="middle" font-size="16" font-weight="700" fill="#0f172a">50.0</text>
<rect x="789.7" y="203.4" width="9.0" height="110.8" fill="#15803d" opacity="0.78"/>
<text x="794.2" y="195.4" text-anchor="middle" font-size="16" font-weight="700" fill="#0f172a">50.0</text>
<rect x="802.2" y="258.8" width="9.0" height="55.4" fill="#15803d" opacity="0.78"/>
<text x="806.7" y="250.8" text-anchor="middle" font-size="16" font-weight="700" fill="#0f172a">25.0</text>
<rect x="814.7" y="258.8" width="9.0" height="55.4" fill="#15803d" opacity="0.78"/>
<text x="819.1" y="250.8" text-anchor="middle" font-size="16" font-weight="700" fill="#0f172a">25.0</text>
<rect x="827.1" y="258.8" width="9.0" height="55.4" fill="#15803d" opacity="0.78"/>
<text x="831.6" y="250.8" text-anchor="middle" font-size="16" font-weight="700" fill="#0f172a">25.0</text>
<rect x="839.6" y="258.8" width="9.0" height="55.4" fill="#15803d" opacity="0.78"/>
<text x="844.1" y="250.8" text-anchor="middle" font-size="16" font-weight="700" fill="#0f172a">25.0</text>
<rect x="852.0" y="258.8" width="9.0" height="55.4" fill="#15803d" opacity="0.78"/>
<text x="856.5" y="250.8" text-anchor="middle" font-size="16" font-weight="700" fill="#0f172a">25.0</text>
<rect x="864.5" y="258.8" width="9.0" height="55.4" fill="#15803d" opacity="0.78"/>
<text x="869.0" y="250.8" text-anchor="middle" font-size="16" font-weight="700" fill="#0f172a">25.0</text>
<rect x="877.0" y="203.4" width="9.0" height="110.8" fill="#15803d" opacity="0.78"/>
<text x="881.5" y="195.4" text-anchor="middle" font-size="16" font-weight="700" fill="#0f172a">50.0</text>
<rect x="889.4" y="92.6" width="9.0" height="221.7" fill="#15803d" opacity="0.78"/>
<text x="893.9" y="84.6" text-anchor="middle" font-size="16" font-weight="700" fill="#0f172a">100.0</text>
<rect x="901.9" y="314.3" width="9.0" height="110.8" fill="#dc2626" opacity="0.78"/>
<text x="906.4" y="443.1" text-anchor="middle" font-size="16" font-weight="700" fill="#0f172a">-50.0</text>
<rect x="914.4" y="258.8" width="9.0" height="55.4" fill="#15803d" opacity="0.78"/>
<text x="918.8" y="250.8" text-anchor="middle" font-size="16" font-weight="700" fill="#0f172a">25.0</text>
<rect x="926.8" y="314.3" width="9.0" height="110.8" fill="#dc2626" opacity="0.78"/>
<text x="931.3" y="443.1" text-anchor="middle" font-size="16" font-weight="700" fill="#0f172a">-50.0</text>
<rect x="939.3" y="314.3" width="9.0" height="55.4" fill="#dc2626" opacity="0.78"/>
<text x="943.8" y="387.7" text-anchor="middle" font-size="16" font-weight="700" fill="#0f172a">-25.0</text>

</svg>
