<svg xmlns="http://www.w3.org/2000/svg" width="760" height="600" viewBox="0 0 760 600" role="img" aria-label="Scorevergleich Direkter Aufruf vs Workflow">
<rect width="100%" height="100%" fill="white"/>
<text x="380" y="34" text-anchor="middle" font-size="26" font-weight="700" fill="#0f172a">Scorevergleich Direkter Aufruf vs Workflow</text>
<line x1="100.0" y1="65" x2="100.0" y2="505.0" stroke="#e2e8f0"/>
<line x1="100" y1="505.0" x2="725.0" y2="505.0" stroke="#e2e8f0"/>
<text x="100.0" y="529.0" text-anchor="middle" font-size="16" fill="#64748b">0</text>
<text x="90.0" y="510.0" text-anchor="end" font-size="16" fill="#64748b">0</text>
<line x1="256.3" y1="65" x2="256.3" y2="505.0" stroke="#e2e8f0"/>
<line x1="100" y1="395.0" x2="725.0" y2="395.0" stroke="#e2e8f0"/>
<text x="256.3" y="529.0" text-anchor="middle" font-size="16" fill="#64748b">25</text>
<text x="90.0" y="400.0" text-anchor="end" font-size="16" fill="#64748b">25</text>
<line x1="412.5" y1="65" x2="412.5" y2="505.0" stroke="#e2e8f0"/>
<line x1="100" y1="285.0" x2="725.0" y2="285.0" stroke="#e2e8f0"/>
<text x="412.5" y="529.0" text-anchor="middle" font-size="16" fill="#64748b">50</text>
<text x="90.0" y="290.0" text-anchor="end" font-size="16" fill="#64748b">50</text>
<line x1="568.8" y1="65" x2="568.8" y2="505.0" stroke="#e2e8f0"/>
<line x1="100" y1="175.0" x2="725.0" y2="175.0" stroke="#e2e8f0"/>
<text x="568.8" y="529.0" text-anchor="middle" font-size="16" fill="#64748b">75</text>
<text x="90.0" y="180.0" text-anchor="end" font-size="16" fill="#64748b">75</text>
<line x1="725.0" y1="65" x2="725.0" y2="505.0" stroke="#e2e8f0"/>
<line x1="100" y1="65.0" x2="725.0" y2="65.0" stroke="#e2e8f0"/>
<text x="725.0" y="529.0" text-anchor="middle" font-size="16" fill="#64748b">100</text>
<text x="90.0" y="70.0" text-anchor="end" font-size="16" fill="#64748b">100</text>
<line x1="100" y1="505" x2="725" y2="505" stroke="#cbd5e1"/>
<line x1="100" y1="65" x2="100" y2="505" stroke="#cbd5e1"/>
<line x1="100" y1="505" x2="725" y2="65" stroke="#94a3b8" stroke-dasharray="5 5"/>
<circle cx="475.0" cy="417.0" r="3" fill="#2563eb" opacity="0.48"/>
<circle cx="473.2" cy="418.6" r="3" fill="#2563eb" opacity="0.48"/>
<circle cx="412.5" cy="285.0" r="3" fill="#2563eb" opacity="0.48"/>
<circle cx="410.7" cy="286.6" r="3" fill="#2563eb" opacity="0.48"/>
<circle cx="412.8" cy="281.6" r="3" fill="#2563eb" opacity="0.48"/>
<circle cx="415.0" cy="288.3" r="3" fill="#2563eb" opacity="0.48"/>
<circle cx="407.8" cy="284.2" r="3" fill="#2563eb" opacity="0.48"/>
<circle cx="417.0" cy="282.1" r="3" fill="#2563eb" opacity="0.48"/>
<circle cx="411.0" cy="290.7" r="3" fill="#2563eb" opacity="0.48"/>
<circle cx="409.6" cy="279.4" r="3" fill="#2563eb" opacity="0.48"/>
<circle cx="418.9" cy="287.3" r="3" fill="#2563eb" opacity="0.48"/>
<circle cx="405.8" cy="287.7" r="3" fill="#2563eb" opacity="0.48"/>
<circle cx="415.7" cy="278.1" r="3" fill="#2563eb" opacity="0.48"/>
<circle cx="414.9" cy="292.6" r="3" fill="#2563eb" opacity="0.48"/>
<circle cx="405.3" cy="280.8" r="3" fill="#2563eb" opacity="0.48"/>
<circle cx="421.0" cy="283.1" r="3" fill="#2563eb" opacity="0.48"/>
<circle cx="407.3" cy="292.3" r="3" fill="#2563eb" opacity="0.48"/>
<circle cx="411.3" cy="275.8" r="3" fill="#2563eb" opacity="0.48"/>
<circle cx="419.8" cy="291.2" r="3" fill="#2563eb" opacity="0.48"/>
<circle cx="402.6" cy="285.4" r="3" fill="#2563eb" opacity="0.48"/>
<circle cx="419.7" cy="277.8" r="3" fill="#2563eb" opacity="0.48"/>
<circle cx="412.0" cy="295.5" r="3" fill="#2563eb" opacity="0.48"/>
<circle cx="405.6" cy="276.8" r="3" fill="#2563eb" opacity="0.48"/>
<circle cx="423.4" cy="286.5" r="3" fill="#2563eb" opacity="0.48"/>
<circle cx="403.3" cy="291.4" r="3" fill="#2563eb" opacity="0.48"/>
<circle cx="415.0" cy="273.8" r="3" fill="#2563eb" opacity="0.48"/>
<circle cx="418.3" cy="295.2" r="3" fill="#2563eb" opacity="0.48"/>
<circle cx="401.1" cy="281.4" r="3" fill="#2563eb" opacity="0.48"/>
<circle cx="423.6" cy="279.9" r="3" fill="#2563eb" opacity="0.48"/>
<circle cx="407.7" cy="296.5" r="3" fill="#2563eb" opacity="0.48"/>
<circle cx="408.2" cy="273.0" r="3" fill="#2563eb" opacity="0.48"/>
<circle cx="423.9" cy="291.0" r="3" fill="#2563eb" opacity="0.48"/>
<circle cx="399.8" cy="288.4" r="3" fill="#2563eb" opacity="0.48"/>
<circle cx="419.7" cy="273.8" r="3" fill="#2563eb" opacity="0.48"/>
<circle cx="414.8" cy="298.4" r="3" fill="#2563eb" opacity="0.48"/>
<circle cx="401.6" cy="276.6" r="3" fill="#2563eb" opacity="0.48"/>
<circle cx="426.4" cy="283.8" r="3" fill="#2563eb" opacity="0.48"/>
<circle cx="402.9" cy="295.4" r="3" fill="#2563eb" opacity="0.48"/>
<circle cx="412.6" cy="270.6" r="3" fill="#2563eb" opacity="0.48"/>
<circle cx="422.3" cy="295.8" r="3" fill="#2563eb" opacity="0.48"/>
<circle cx="397.8" cy="283.6" r="3" fill="#2563eb" opacity="0.48"/>
<circle cx="424.4" cy="275.9" r="3" fill="#2563eb" opacity="0.48"/>
<circle cx="409.8" cy="299.9" r="3" fill="#2563eb" opacity="0.48"/>
<circle cx="404.3" cy="272.0" r="3" fill="#2563eb" opacity="0.48"/>
<circle cx="427.5" cy="289.1" r="3" fill="#2563eb" opacity="0.48"/>
<circle cx="398.5" cy="292.2" r="3" fill="#2563eb" opacity="0.48"/>
<circle cx="418.0" cy="270.1" r="3" fill="#2563eb" opacity="0.48"/>
<circle cx="418.6" cy="299.9" r="3" fill="#2563eb" opacity="0.48"/>
<circle cx="397.8" cy="278.0" r="3" fill="#2563eb" opacity="0.48"/>
<circle cx="428.2" cy="280.2" r="3" fill="#2563eb" opacity="0.48"/>
<circle cx="404.1" cy="299.3" r="3" fill="#2563eb" opacity="0.48"/>
<circle cx="409.0" cy="268.6" r="3" fill="#2563eb" opacity="0.48"/>
<circle cx="426.3" cy="294.8" r="3" fill="#2563eb" opacity="0.48"/>
<circle cx="256.3" cy="175.0" r="3" fill="#2563eb" opacity="0.48"/>
<circle cx="254.5" cy="176.6" r="3" fill="#2563eb" opacity="0.48"/>
<circle cx="256.5" cy="171.6" r="3" fill="#2563eb" opacity="0.48"/>
<circle cx="258.8" cy="178.3" r="3" fill="#2563eb" opacity="0.48"/>
<circle cx="251.5" cy="174.2" r="3" fill="#2563eb" opacity="0.48"/>
<circle cx="260.8" cy="172.1" r="3" fill="#2563eb" opacity="0.48"/>
<circle cx="254.7" cy="180.7" r="3" fill="#2563eb" opacity="0.48"/>
<circle cx="253.3" cy="169.4" r="3" fill="#2563eb" opacity="0.48"/>
<circle cx="262.6" cy="177.3" r="3" fill="#2563eb" opacity="0.48"/>
<circle cx="249.6" cy="177.7" r="3" fill="#2563eb" opacity="0.48"/>
<circle cx="259.5" cy="168.1" r="3" fill="#2563eb" opacity="0.48"/>
<circle cx="258.6" cy="182.6" r="3" fill="#2563eb" opacity="0.48"/>
<circle cx="249.1" cy="170.8" r="3" fill="#2563eb" opacity="0.48"/>
<circle cx="264.7" cy="173.1" r="3" fill="#2563eb" opacity="0.48"/>
<circle cx="251.1" cy="182.3" r="3" fill="#2563eb" opacity="0.48"/>
<circle cx="255.1" cy="165.8" r="3" fill="#2563eb" opacity="0.48"/>
<circle cx="263.6" cy="181.2" r="3" fill="#2563eb" opacity="0.48"/>
<circle cx="246.4" cy="175.4" r="3" fill="#2563eb" opacity="0.48"/>
<circle cx="263.5" cy="167.8" r="3" fill="#2563eb" opacity="0.48"/>
<circle cx="255.8" cy="185.5" r="3" fill="#2563eb" opacity="0.48"/>
<circle cx="249.4" cy="166.8" r="3" fill="#2563eb" opacity="0.48"/>
<circle cx="267.1" cy="176.5" r="3" fill="#2563eb" opacity="0.48"/>
<circle cx="247.0" cy="181.4" r="3" fill="#2563eb" opacity="0.48"/>
<circle cx="258.8" cy="163.8" r="3" fill="#2563eb" opacity="0.48"/>
<circle cx="262.1" cy="185.2" r="3" fill="#2563eb" opacity="0.48"/>
<circle cx="244.8" cy="171.4" r="3" fill="#2563eb" opacity="0.48"/>
<circle cx="267.4" cy="169.9" r="3" fill="#2563eb" opacity="0.48"/>
<circle cx="251.4" cy="186.5" r="3" fill="#2563eb" opacity="0.48"/>
<circle cx="252.0" cy="163.0" r="3" fill="#2563eb" opacity="0.48"/>
<circle cx="267.7" cy="181.0" r="3" fill="#2563eb" opacity="0.48"/>
<circle cx="243.5" cy="178.4" r="3" fill="#2563eb" opacity="0.48"/>
<circle cx="263.5" cy="163.8" r="3" fill="#2563eb" opacity="0.48"/>
<circle cx="258.5" cy="188.4" r="3" fill="#2563eb" opacity="0.48"/>
<circle cx="245.3" cy="166.6" r="3" fill="#2563eb" opacity="0.48"/>
<circle cx="270.2" cy="173.8" r="3" fill="#2563eb" opacity="0.48"/>
<circle cx="246.6" cy="185.4" r="3" fill="#2563eb" opacity="0.48"/>
<circle cx="256.3" cy="160.6" r="3" fill="#2563eb" opacity="0.48"/>
<circle cx="266.1" cy="185.8" r="3" fill="#2563eb" opacity="0.48"/>
<circle cx="568.8" cy="285.0" r="3" fill="#2563eb" opacity="0.48"/>
<circle cx="567.0" cy="286.6" r="3" fill="#2563eb" opacity="0.48"/>
<circle cx="569.0" cy="281.6" r="3" fill="#2563eb" opacity="0.48"/>
<circle cx="571.3" cy="288.3" r="3" fill="#2563eb" opacity="0.48"/>
<circle cx="564.0" cy="284.2" r="3" fill="#2563eb" opacity="0.48"/>
<circle cx="573.3" cy="282.1" r="3" fill="#2563eb" opacity="0.48"/>
<circle cx="567.2" cy="290.7" r="3" fill="#2563eb" opacity="0.48"/>
<circle cx="565.8" cy="279.4" r="3" fill="#2563eb" opacity="0.48"/>
<circle cx="575.1" cy="287.3" r="3" fill="#2563eb" opacity="0.48"/>
<circle cx="256.3" cy="285.0" r="3" fill="#2563eb" opacity="0.48"/>
<circle cx="254.5" cy="286.6" r="3" fill="#2563eb" opacity="0.48"/>
<circle cx="256.5" cy="281.6" r="3" fill="#2563eb" opacity="0.48"/>
<circle cx="258.8" cy="288.3" r="3" fill="#2563eb" opacity="0.48"/>
<circle cx="251.5" cy="284.2" r="3" fill="#2563eb" opacity="0.48"/>
<circle cx="260.8" cy="282.1" r="3" fill="#2563eb" opacity="0.48"/>
<circle cx="254.7" cy="290.7" r="3" fill="#2563eb" opacity="0.48"/>
<circle cx="253.3" cy="279.4" r="3" fill="#2563eb" opacity="0.48"/>
<circle cx="262.6" cy="287.3" r="3" fill="#2563eb" opacity="0.48"/>
<circle cx="249.6" cy="287.7" r="3" fill="#2563eb" opacity="0.48"/>
<circle cx="259.5" cy="278.1" r="3" fill="#2563eb" opacity="0.48"/>
<circle cx="258.6" cy="292.6" r="3" fill="#2563eb" opacity="0.48"/>
<circle cx="249.1" cy="280.8" r="3" fill="#2563eb" opacity="0.48"/>
<circle cx="264.7" cy="283.1" r="3" fill="#2563eb" opacity="0.48"/>
<circle cx="251.1" cy="292.3" r="3" fill="#2563eb" opacity="0.48"/>
<circle cx="255.1" cy="275.8" r="3" fill="#2563eb" opacity="0.48"/>
<circle cx="263.6" cy="291.2" r="3" fill="#2563eb" opacity="0.48"/>
<circle cx="246.4" cy="285.4" r="3" fill="#2563eb" opacity="0.48"/>
<circle cx="263.5" cy="277.8" r="3" fill="#2563eb" opacity="0.48"/>
<circle cx="255.8" cy="295.5" r="3" fill="#2563eb" opacity="0.48"/>
<circle cx="249.4" cy="276.8" r="3" fill="#2563eb" opacity="0.48"/>
<circle cx="267.1" cy="286.5" r="3" fill="#2563eb" opacity="0.48"/>
<circle cx="247.0" cy="291.4" r="3" fill="#2563eb" opacity="0.48"/>
<circle cx="258.8" cy="273.8" r="3" fill="#2563eb" opacity="0.48"/>
<circle cx="262.1" cy="295.2" r="3" fill="#2563eb" opacity="0.48"/>
<circle cx="244.8" cy="281.4" r="3" fill="#2563eb" opacity="0.48"/>
<circle cx="267.4" cy="279.9" r="3" fill="#2563eb" opacity="0.48"/>
<circle cx="251.4" cy="296.5" r="3" fill="#2563eb" opacity="0.48"/>
<circle cx="252.0" cy="273.0" r="3" fill="#2563eb" opacity="0.48"/>
<circle cx="267.7" cy="291.0" r="3" fill="#2563eb" opacity="0.48"/>
<circle cx="243.5" cy="288.4" r="3" fill="#2563eb" opacity="0.48"/>
<circle cx="263.5" cy="273.8" r="3" fill="#2563eb" opacity="0.48"/>
<circle cx="258.5" cy="298.4" r="3" fill="#2563eb" opacity="0.48"/>
<circle cx="245.3" cy="276.6" r="3" fill="#2563eb" opacity="0.48"/>
<circle cx="270.2" cy="283.8" r="3" fill="#2563eb" opacity="0.48"/>
<circle cx="246.6" cy="295.4" r="3" fill="#2563eb" opacity="0.48"/>
<circle cx="256.3" cy="270.6" r="3" fill="#2563eb" opacity="0.48"/>
<circle cx="266.1" cy="295.8" r="3" fill="#2563eb" opacity="0.48"/>
<circle cx="241.5" cy="283.6" r="3" fill="#2563eb" opacity="0.48"/>
<circle cx="268.2" cy="275.9" r="3" fill="#2563eb" opacity="0.48"/>
<circle cx="253.5" cy="299.9" r="3" fill="#2563eb" opacity="0.48"/>
<circle cx="248.1" cy="272.0" r="3" fill="#2563eb" opacity="0.48"/>
<circle cx="271.3" cy="289.1" r="3" fill="#2563eb" opacity="0.48"/>
<circle cx="242.2" cy="292.2" r="3" fill="#2563eb" opacity="0.48"/>
<circle cx="261.8" cy="270.1" r="3" fill="#2563eb" opacity="0.48"/>
<circle cx="262.3" cy="299.9" r="3" fill="#2563eb" opacity="0.48"/>
<circle cx="241.5" cy="278.0" r="3" fill="#2563eb" opacity="0.48"/>
<circle cx="272.0" cy="280.2" r="3" fill="#2563eb" opacity="0.48"/>
<circle cx="247.8" cy="299.3" r="3" fill="#2563eb" opacity="0.48"/>
<circle cx="252.7" cy="268.6" r="3" fill="#2563eb" opacity="0.48"/>
<circle cx="270.1" cy="294.8" r="3" fill="#2563eb" opacity="0.48"/>
<circle cx="239.2" cy="287.1" r="3" fill="#2563eb" opacity="0.48"/>
<circle cx="267.5" cy="271.8" r="3" fill="#2563eb" opacity="0.48"/>
<circle cx="256.9" cy="302.5" r="3" fill="#2563eb" opacity="0.48"/>
<circle cx="243.9" cy="272.4" r="3" fill="#2563eb" opacity="0.48"/>
<circle cx="274.0" cy="285.9" r="3" fill="#2563eb" opacity="0.48"/>
<circle cx="242.4" cy="296.4" r="3" fill="#2563eb" opacity="0.48"/>
<circle cx="258.8" cy="267.1" r="3" fill="#2563eb" opacity="0.48"/>
<circle cx="266.6" cy="300.1" r="3" fill="#2563eb" opacity="0.48"/>
<circle cx="238.3" cy="280.9" r="3" fill="#2563eb" opacity="0.48"/>
<circle cx="272.4" cy="275.8" r="3" fill="#2563eb" opacity="0.48"/>
<circle cx="250.5" cy="302.8" r="3" fill="#2563eb" opacity="0.48"/>
<circle cx="248.4" cy="267.8" r="3" fill="#2563eb" opacity="0.48"/>
<circle cx="273.8" cy="292.4" r="3" fill="#2563eb" opacity="0.48"/>
<circle cx="238.2" cy="291.4" r="3" fill="#2563eb" opacity="0.48"/>
<circle cx="265.3" cy="267.9" r="3" fill="#2563eb" opacity="0.48"/>
<circle cx="261.1" cy="303.9" r="3" fill="#2563eb" opacity="0.48"/>
<circle cx="239.8" cy="274.3" r="3" fill="#2563eb" opacity="0.48"/>
<circle cx="275.8" cy="281.7" r="3" fill="#2563eb" opacity="0.48"/>
<circle cx="244.0" cy="300.7" r="3" fill="#2563eb" opacity="0.48"/>
<circle cx="254.7" cy="265.0" r="3" fill="#2563eb" opacity="0.48"/>
<circle cx="271.0" cy="298.8" r="3" fill="#2563eb" opacity="0.48"/>
<circle cx="568.8" cy="69.0" r="3" fill="#2563eb" opacity="0.48"/>
<circle cx="567.0" cy="69.0" r="3" fill="#2563eb" opacity="0.48"/>
<circle cx="569.0" cy="69.0" r="3" fill="#2563eb" opacity="0.48"/>
<circle cx="571.3" cy="69.0" r="3" fill="#2563eb" opacity="0.48"/>
<circle cx="564.0" cy="69.0" r="3" fill="#2563eb" opacity="0.48"/>
<circle cx="573.3" cy="69.0" r="3" fill="#2563eb" opacity="0.48"/>
<circle cx="567.2" cy="70.7" r="3" fill="#2563eb" opacity="0.48"/>
<circle cx="565.8" cy="69.0" r="3" fill="#2563eb" opacity="0.48"/>
<circle cx="575.1" cy="69.0" r="3" fill="#2563eb" opacity="0.48"/>
<circle cx="562.1" cy="69.0" r="3" fill="#2563eb" opacity="0.48"/>
<circle cx="412.5" cy="175.0" r="3" fill="#2563eb" opacity="0.48"/>
<circle cx="410.7" cy="176.6" r="3" fill="#2563eb" opacity="0.48"/>
<circle cx="412.8" cy="171.6" r="3" fill="#2563eb" opacity="0.48"/>
<circle cx="415.0" cy="178.3" r="3" fill="#2563eb" opacity="0.48"/>
<circle cx="407.8" cy="174.2" r="3" fill="#2563eb" opacity="0.48"/>
<circle cx="417.0" cy="172.1" r="3" fill="#2563eb" opacity="0.48"/>
<circle cx="411.0" cy="180.7" r="3" fill="#2563eb" opacity="0.48"/>
<circle cx="409.6" cy="169.4" r="3" fill="#2563eb" opacity="0.48"/>
<circle cx="418.9" cy="177.3" r="3" fill="#2563eb" opacity="0.48"/>
<circle cx="405.8" cy="177.7" r="3" fill="#2563eb" opacity="0.48"/>
<circle cx="415.7" cy="168.1" r="3" fill="#2563eb" opacity="0.48"/>
<circle cx="414.9" cy="182.6" r="3" fill="#2563eb" opacity="0.48"/>
<circle cx="568.8" cy="175.0" r="3" fill="#2563eb" opacity="0.48"/>
<circle cx="567.0" cy="176.6" r="3" fill="#2563eb" opacity="0.48"/>
<circle cx="569.0" cy="171.6" r="3" fill="#2563eb" opacity="0.48"/>
<circle cx="571.3" cy="178.3" r="3" fill="#2563eb" opacity="0.48"/>
<circle cx="564.0" cy="174.2" r="3" fill="#2563eb" opacity="0.48"/>
<circle cx="573.3" cy="172.1" r="3" fill="#2563eb" opacity="0.48"/>
<circle cx="567.2" cy="180.7" r="3" fill="#2563eb" opacity="0.48"/>
<circle cx="256.3" cy="395.0" r="3" fill="#2563eb" opacity="0.48"/>
<circle cx="254.5" cy="396.6" r="3" fill="#2563eb" opacity="0.48"/>
<circle cx="256.5" cy="391.6" r="3" fill="#2563eb" opacity="0.48"/>
<circle cx="258.8" cy="398.3" r="3" fill="#2563eb" opacity="0.48"/>
<circle cx="251.5" cy="394.2" r="3" fill="#2563eb" opacity="0.48"/>
<circle cx="260.8" cy="392.1" r="3" fill="#2563eb" opacity="0.48"/>
<circle cx="254.7" cy="400.7" r="3" fill="#2563eb" opacity="0.48"/>
<circle cx="253.3" cy="389.4" r="3" fill="#2563eb" opacity="0.48"/>
<circle cx="262.6" cy="397.3" r="3" fill="#2563eb" opacity="0.48"/>
<circle cx="249.6" cy="397.7" r="3" fill="#2563eb" opacity="0.48"/>
<circle cx="259.5" cy="388.1" r="3" fill="#2563eb" opacity="0.48"/>
<circle cx="258.6" cy="402.6" r="3" fill="#2563eb" opacity="0.48"/>
<circle cx="249.1" cy="390.8" r="3" fill="#2563eb" opacity="0.48"/>
<circle cx="264.7" cy="393.1" r="3" fill="#2563eb" opacity="0.48"/>
<circle cx="251.1" cy="402.3" r="3" fill="#2563eb" opacity="0.48"/>
<circle cx="255.1" cy="385.8" r="3" fill="#2563eb" opacity="0.48"/>
<circle cx="263.6" cy="401.2" r="3" fill="#2563eb" opacity="0.48"/>
<circle cx="246.4" cy="395.4" r="3" fill="#2563eb" opacity="0.48"/>
<circle cx="263.5" cy="387.8" r="3" fill="#2563eb" opacity="0.48"/>
<circle cx="255.8" cy="405.5" r="3" fill="#2563eb" opacity="0.48"/>
<circle cx="249.4" cy="386.8" r="3" fill="#2563eb" opacity="0.48"/>
<circle cx="267.1" cy="396.5" r="3" fill="#2563eb" opacity="0.48"/>
<circle cx="247.0" cy="401.4" r="3" fill="#2563eb" opacity="0.48"/>
<circle cx="258.8" cy="383.8" r="3" fill="#2563eb" opacity="0.48"/>
<circle cx="262.1" cy="405.2" r="3" fill="#2563eb" opacity="0.48"/>
<circle cx="244.8" cy="391.4" r="3" fill="#2563eb" opacity="0.48"/>
<circle cx="267.4" cy="389.9" r="3" fill="#2563eb" opacity="0.48"/>
<circle cx="251.4" cy="406.5" r="3" fill="#2563eb" opacity="0.48"/>
<circle cx="252.0" cy="383.0" r="3" fill="#2563eb" opacity="0.48"/>
<circle cx="267.7" cy="401.0" r="3" fill="#2563eb" opacity="0.48"/>
<circle cx="243.5" cy="398.4" r="3" fill="#2563eb" opacity="0.48"/>
<circle cx="263.5" cy="383.8" r="3" fill="#2563eb" opacity="0.48"/>
<circle cx="258.5" cy="408.4" r="3" fill="#2563eb" opacity="0.48"/>
<circle cx="245.3" cy="386.6" r="3" fill="#2563eb" opacity="0.48"/>
<circle cx="270.2" cy="393.8" r="3" fill="#2563eb" opacity="0.48"/>
<circle cx="246.6" cy="405.4" r="3" fill="#2563eb" opacity="0.48"/>
<circle cx="256.3" cy="380.6" r="3" fill="#2563eb" opacity="0.48"/>
<circle cx="266.1" cy="405.8" r="3" fill="#2563eb" opacity="0.48"/>
<circle cx="241.5" cy="393.6" r="3" fill="#2563eb" opacity="0.48"/>
<circle cx="268.2" cy="385.9" r="3" fill="#2563eb" opacity="0.48"/>
<circle cx="253.5" cy="409.9" r="3" fill="#2563eb" opacity="0.48"/>
<circle cx="248.1" cy="382.0" r="3" fill="#2563eb" opacity="0.48"/>
<circle cx="271.3" cy="399.1" r="3" fill="#2563eb" opacity="0.48"/>
<circle cx="242.2" cy="402.2" r="3" fill="#2563eb" opacity="0.48"/>
<circle cx="261.8" cy="380.1" r="3" fill="#2563eb" opacity="0.48"/>
<circle cx="262.3" cy="409.9" r="3" fill="#2563eb" opacity="0.48"/>
<circle cx="241.5" cy="388.0" r="3" fill="#2563eb" opacity="0.48"/>
<circle cx="272.0" cy="390.2" r="3" fill="#2563eb" opacity="0.48"/>
<circle cx="247.8" cy="409.3" r="3" fill="#2563eb" opacity="0.48"/>
<circle cx="252.7" cy="378.6" r="3" fill="#2563eb" opacity="0.48"/>
<circle cx="270.1" cy="404.8" r="3" fill="#2563eb" opacity="0.48"/>
<circle cx="239.2" cy="397.1" r="3" fill="#2563eb" opacity="0.48"/>
<circle cx="267.5" cy="381.8" r="3" fill="#2563eb" opacity="0.48"/>
<circle cx="256.9" cy="412.5" r="3" fill="#2563eb" opacity="0.48"/>
<circle cx="243.9" cy="382.4" r="3" fill="#2563eb" opacity="0.48"/>
<circle cx="274.0" cy="395.9" r="3" fill="#2563eb" opacity="0.48"/>
<circle cx="242.4" cy="406.4" r="3" fill="#2563eb" opacity="0.48"/>
<circle cx="258.8" cy="377.1" r="3" fill="#2563eb" opacity="0.48"/>
<circle cx="266.6" cy="410.1" r="3" fill="#2563eb" opacity="0.48"/>
<circle cx="238.3" cy="390.9" r="3" fill="#2563eb" opacity="0.48"/>
<circle cx="272.4" cy="385.8" r="3" fill="#2563eb" opacity="0.48"/>
<circle cx="250.5" cy="412.8" r="3" fill="#2563eb" opacity="0.48"/>
<circle cx="248.4" cy="377.8" r="3" fill="#2563eb" opacity="0.48"/>
<circle cx="273.8" cy="402.4" r="3" fill="#2563eb" opacity="0.48"/>
<circle cx="238.2" cy="401.4" r="3" fill="#2563eb" opacity="0.48"/>
<circle cx="265.3" cy="377.9" r="3" fill="#2563eb" opacity="0.48"/>
<circle cx="261.1" cy="413.9" r="3" fill="#2563eb" opacity="0.48"/>
<circle cx="239.8" cy="384.3" r="3" fill="#2563eb" opacity="0.48"/>
<circle cx="275.8" cy="391.7" r="3" fill="#2563eb" opacity="0.48"/>
<circle cx="244.0" cy="410.7" r="3" fill="#2563eb" opacity="0.48"/>
<circle cx="254.7" cy="375.0" r="3" fill="#2563eb" opacity="0.48"/>
<circle cx="271.0" cy="408.8" r="3" fill="#2563eb" opacity="0.48"/>
<circle cx="235.9" cy="394.8" r="3" fill="#2563eb" opacity="0.48"/>
<circle cx="271.5" cy="381.3" r="3" fill="#2563eb" opacity="0.48"/>
<circle cx="254.2" cy="415.5" r="3" fill="#2563eb" opacity="0.48"/>
<circle cx="243.8" cy="378.4" r="3" fill="#2563eb" opacity="0.48"/>
<circle cx="276.8" cy="398.8" r="3" fill="#2563eb" opacity="0.48"/>
<circle cx="238.4" cy="406.1" r="3" fill="#2563eb" opacity="0.48"/>
<circle cx="262.0" cy="374.6" r="3" fill="#2563eb" opacity="0.48"/>
<circle cx="265.9" cy="414.0" r="3" fill="#2563eb" opacity="0.48"/>
<circle cx="236.2" cy="387.4" r="3" fill="#2563eb" opacity="0.48"/>
<circle cx="276.3" cy="387.0" r="3" fill="#2563eb" opacity="0.48"/>
<circle cx="246.8" cy="414.6" r="3" fill="#2563eb" opacity="0.48"/>
<circle cx="249.9" cy="374.1" r="3" fill="#2563eb" opacity="0.48"/>
<circle cx="412.5" cy="395.0" r="3" fill="#2563eb" opacity="0.48"/>
<circle cx="410.7" cy="396.6" r="3" fill="#2563eb" opacity="0.48"/>
<circle cx="412.8" cy="391.6" r="3" fill="#2563eb" opacity="0.48"/>
<circle cx="415.0" cy="398.3" r="3" fill="#2563eb" opacity="0.48"/>
<circle cx="407.8" cy="394.2" r="3" fill="#2563eb" opacity="0.48"/>
<circle cx="417.0" cy="392.1" r="3" fill="#2563eb" opacity="0.48"/>
<circle cx="411.0" cy="400.7" r="3" fill="#2563eb" opacity="0.48"/>
<circle cx="409.6" cy="389.4" r="3" fill="#2563eb" opacity="0.48"/>
<circle cx="418.9" cy="397.3" r="3" fill="#2563eb" opacity="0.48"/>
<circle cx="405.8" cy="397.7" r="3" fill="#2563eb" opacity="0.48"/>
<circle cx="415.7" cy="388.1" r="3" fill="#2563eb" opacity="0.48"/>
<circle cx="414.9" cy="402.6" r="3" fill="#2563eb" opacity="0.48"/>
<circle cx="405.3" cy="390.8" r="3" fill="#2563eb" opacity="0.48"/>
<circle cx="421.0" cy="393.1" r="3" fill="#2563eb" opacity="0.48"/>
<circle cx="407.3" cy="402.3" r="3" fill="#2563eb" opacity="0.48"/>
<circle cx="411.3" cy="385.8" r="3" fill="#2563eb" opacity="0.48"/>
<circle cx="225.0" cy="417.0" r="3" fill="#2563eb" opacity="0.48"/>
<circle cx="223.2" cy="418.6" r="3" fill="#2563eb" opacity="0.48"/>
<circle cx="225.3" cy="413.6" r="3" fill="#2563eb" opacity="0.48"/>
<circle cx="227.5" cy="420.3" r="3" fill="#2563eb" opacity="0.48"/>
<circle cx="350.0" cy="417.0" r="3" fill="#2563eb" opacity="0.48"/>
<circle cx="348.2" cy="418.6" r="3" fill="#2563eb" opacity="0.48"/>
<circle cx="350.3" cy="413.6" r="3" fill="#2563eb" opacity="0.48"/>
<circle cx="475.0" cy="241.0" r="3" fill="#2563eb" opacity="0.48"/>
<circle cx="473.2" cy="242.6" r="3" fill="#2563eb" opacity="0.48"/>
<circle cx="475.3" cy="237.6" r="3" fill="#2563eb" opacity="0.48"/>
<circle cx="350.0" cy="329.0" r="3" fill="#2563eb" opacity="0.48"/>
<circle cx="348.2" cy="330.6" r="3" fill="#2563eb" opacity="0.48"/>
<circle cx="350.3" cy="325.6" r="3" fill="#2563eb" opacity="0.48"/>
<circle cx="225.0" cy="329.0" r="3" fill="#2563eb" opacity="0.48"/>
<circle cx="223.2" cy="330.6" r="3" fill="#2563eb" opacity="0.48"/>
<circle cx="225.3" cy="325.6" r="3" fill="#2563eb" opacity="0.48"/>
<circle cx="227.5" cy="332.3" r="3" fill="#2563eb" opacity="0.48"/>
<circle cx="220.3" cy="328.2" r="3" fill="#2563eb" opacity="0.48"/>
<circle cx="229.5" cy="326.1" r="3" fill="#2563eb" opacity="0.48"/>
<circle cx="223.5" cy="334.7" r="3" fill="#2563eb" opacity="0.48"/>
<circle cx="222.1" cy="323.4" r="3" fill="#2563eb" opacity="0.48"/>
<circle cx="225.0" cy="241.0" r="3" fill="#2563eb" opacity="0.48"/>
<circle cx="223.2" cy="242.6" r="3" fill="#2563eb" opacity="0.48"/>
<circle cx="225.3" cy="237.6" r="3" fill="#2563eb" opacity="0.48"/>
<circle cx="350.0" cy="153.0" r="3" fill="#2563eb" opacity="0.48"/>
<circle cx="225.0" cy="501.0" r="3" fill="#2563eb" opacity="0.48"/>
<circle cx="223.2" cy="501.0" r="3" fill="#2563eb" opacity="0.48"/>
<circle cx="225.3" cy="501.0" r="3" fill="#2563eb" opacity="0.48"/>
<circle cx="227.5" cy="501.0" r="3" fill="#2563eb" opacity="0.48"/>
<circle cx="220.3" cy="501.0" r="3" fill="#2563eb" opacity="0.48"/>
<circle cx="350.0" cy="501.0" r="3" fill="#2563eb" opacity="0.48"/>
<circle cx="348.2" cy="501.0" r="3" fill="#2563eb" opacity="0.48"/>
<circle cx="350.0" cy="241.0" r="3" fill="#2563eb" opacity="0.48"/>
<circle cx="225.0" cy="153.0" r="3" fill="#2563eb" opacity="0.48"/>
<circle cx="223.2" cy="154.6" r="3" fill="#2563eb" opacity="0.48"/>
<circle cx="475.0" cy="153.0" r="3" fill="#2563eb" opacity="0.48"/>
<circle cx="104.0" cy="501.0" r="3" fill="#2563eb" opacity="0.48"/>
<circle cx="104.0" cy="501.0" r="3" fill="#2563eb" opacity="0.48"/>
<circle cx="104.0" cy="501.0" r="3" fill="#2563eb" opacity="0.48"/>
<circle cx="104.0" cy="501.0" r="3" fill="#2563eb" opacity="0.48"/>
<circle cx="104.0" cy="501.0" r="3" fill="#2563eb" opacity="0.48"/>
<circle cx="104.5" cy="501.0" r="3" fill="#2563eb" opacity="0.48"/>
<circle cx="104.0" cy="501.0" r="3" fill="#2563eb" opacity="0.48"/>
<circle cx="104.0" cy="499.4" r="3" fill="#2563eb" opacity="0.48"/>
<circle cx="106.4" cy="501.0" r="3" fill="#2563eb" opacity="0.48"/>
<circle cx="104.0" cy="501.0" r="3" fill="#2563eb" opacity="0.48"/>
<circle cx="104.0" cy="498.1" r="3" fill="#2563eb" opacity="0.48"/>
<circle cx="104.0" cy="501.0" r="3" fill="#2563eb" opacity="0.48"/>
<circle cx="104.0" cy="500.8" r="3" fill="#2563eb" opacity="0.48"/>
<circle cx="108.5" cy="501.0" r="3" fill="#2563eb" opacity="0.48"/>
<circle cx="104.0" cy="501.0" r="3" fill="#2563eb" opacity="0.48"/>
<circle cx="104.0" cy="495.8" r="3" fill="#2563eb" opacity="0.48"/>
<circle cx="107.3" cy="501.0" r="3" fill="#2563eb" opacity="0.48"/>
<circle cx="104.0" cy="501.0" r="3" fill="#2563eb" opacity="0.48"/>
<circle cx="107.2" cy="497.8" r="3" fill="#2563eb" opacity="0.48"/>
<circle cx="104.0" cy="501.0" r="3" fill="#2563eb" opacity="0.48"/>
<circle cx="104.0" cy="496.8" r="3" fill="#2563eb" opacity="0.48"/>
<circle cx="110.9" cy="501.0" r="3" fill="#2563eb" opacity="0.48"/>
<circle cx="104.0" cy="501.0" r="3" fill="#2563eb" opacity="0.48"/>
<circle cx="104.0" cy="493.8" r="3" fill="#2563eb" opacity="0.48"/>
<circle cx="105.8" cy="501.0" r="3" fill="#2563eb" opacity="0.48"/>
<circle cx="104.0" cy="501.0" r="3" fill="#2563eb" opacity="0.48"/>
<circle cx="111.1" cy="499.9" r="3" fill="#2563eb" opacity="0.48"/>
<circle cx="104.0" cy="501.0" r="3" fill="#2563eb" opacity="0.48"/>
<circle cx="104.0" cy="493.0" r="3" fill="#2563eb" opacity="0.48"/>
<circle cx="111.4" cy="501.0" r="3" fill="#2563eb" opacity="0.48"/>
<circle cx="104.0" cy="501.0" r="3" fill="#2563eb" opacity="0.48"/>
<circle cx="107.2" cy="493.8" r="3" fill="#2563eb" opacity="0.48"/>
<circle cx="104.0" cy="501.0" r="3" fill="#2563eb" opacity="0.48"/>
<circle cx="104.0" cy="496.6" r="3" fill="#2563eb" opacity="0.48"/>
<circle cx="113.9" cy="501.0" r="3" fill="#2563eb" opacity="0.48"/>
<circle cx="104.0" cy="501.0" r="3" fill="#2563eb" opacity="0.48"/>
<circle cx="104.0" cy="490.6" r="3" fill="#2563eb" opacity="0.48"/>
<circle cx="256.3" cy="69.0" r="3" fill="#2563eb" opacity="0.48"/>
<circle cx="254.5" cy="69.0" r="3" fill="#2563eb" opacity="0.48"/>
<circle cx="256.5" cy="69.0" r="3" fill="#2563eb" opacity="0.48"/>
<circle cx="258.8" cy="69.0" r="3" fill="#2563eb" opacity="0.48"/>
<circle cx="251.5" cy="69.0" r="3" fill="#2563eb" opacity="0.48"/>
<circle cx="260.8" cy="69.0" r="3" fill="#2563eb" opacity="0.48"/>
<circle cx="254.7" cy="70.7" r="3" fill="#2563eb" opacity="0.48"/>
<circle cx="253.3" cy="69.0" r="3" fill="#2563eb" opacity="0.48"/>
<circle cx="262.6" cy="69.0" r="3" fill="#2563eb" opacity="0.48"/>
<circle cx="249.6" cy="69.0" r="3" fill="#2563eb" opacity="0.48"/>
<circle cx="259.5" cy="69.0" r="3" fill="#2563eb" opacity="0.48"/>
<circle cx="258.6" cy="72.6" r="3" fill="#2563eb" opacity="0.48"/>
<circle cx="249.1" cy="69.0" r="3" fill="#2563eb" opacity="0.48"/>
<circle cx="264.7" cy="69.0" r="3" fill="#2563eb" opacity="0.48"/>
<circle cx="251.1" cy="72.3" r="3" fill="#2563eb" opacity="0.48"/>
<circle cx="255.1" cy="69.0" r="3" fill="#2563eb" opacity="0.48"/>
<circle cx="263.6" cy="71.2" r="3" fill="#2563eb" opacity="0.48"/>
<circle cx="246.4" cy="69.0" r="3" fill="#2563eb" opacity="0.48"/>
<circle cx="263.5" cy="69.0" r="3" fill="#2563eb" opacity="0.48"/>
<circle cx="255.8" cy="75.5" r="3" fill="#2563eb" opacity="0.48"/>
<circle cx="249.4" cy="69.0" r="3" fill="#2563eb" opacity="0.48"/>
<circle cx="267.1" cy="69.0" r="3" fill="#2563eb" opacity="0.48"/>
<circle cx="247.0" cy="71.4" r="3" fill="#2563eb" opacity="0.48"/>
<circle cx="258.8" cy="69.0" r="3" fill="#2563eb" opacity="0.48"/>
<circle cx="262.1" cy="75.2" r="3" fill="#2563eb" opacity="0.48"/>
<circle cx="244.8" cy="69.0" r="3" fill="#2563eb" opacity="0.48"/>
<circle cx="267.4" cy="69.0" r="3" fill="#2563eb" opacity="0.48"/>
<circle cx="251.4" cy="76.5" r="3" fill="#2563eb" opacity="0.48"/>
<circle cx="252.0" cy="69.0" r="3" fill="#2563eb" opacity="0.48"/>
<circle cx="267.7" cy="71.0" r="3" fill="#2563eb" opacity="0.48"/>
<circle cx="243.5" cy="69.0" r="3" fill="#2563eb" opacity="0.48"/>
<circle cx="263.5" cy="69.0" r="3" fill="#2563eb" opacity="0.48"/>
<circle cx="258.5" cy="78.4" r="3" fill="#2563eb" opacity="0.48"/>
<circle cx="245.3" cy="69.0" r="3" fill="#2563eb" opacity="0.48"/>
<circle cx="270.2" cy="69.0" r="3" fill="#2563eb" opacity="0.48"/>
<circle cx="246.6" cy="75.4" r="3" fill="#2563eb" opacity="0.48"/>
<circle cx="256.3" cy="69.0" r="3" fill="#2563eb" opacity="0.48"/>
<circle cx="256.3" cy="501.0" r="3" fill="#2563eb" opacity="0.48"/>
<circle cx="254.5" cy="501.0" r="3" fill="#2563eb" opacity="0.48"/>
<circle cx="256.5" cy="501.0" r="3" fill="#2563eb" opacity="0.48"/>
<circle cx="258.8" cy="501.0" r="3" fill="#2563eb" opacity="0.48"/>
<circle cx="251.5" cy="501.0" r="3" fill="#2563eb" opacity="0.48"/>
<circle cx="260.8" cy="501.0" r="3" fill="#2563eb" opacity="0.48"/>
<circle cx="254.7" cy="501.0" r="3" fill="#2563eb" opacity="0.48"/>
<circle cx="253.3" cy="499.4" r="3" fill="#2563eb" opacity="0.48"/>
<circle cx="262.6" cy="501.0" r="3" fill="#2563eb" opacity="0.48"/>
<circle cx="249.6" cy="501.0" r="3" fill="#2563eb" opacity="0.48"/>
<circle cx="259.5" cy="498.1" r="3" fill="#2563eb" opacity="0.48"/>
<circle cx="412.5" cy="501.0" r="3" fill="#2563eb" opacity="0.48"/>
<circle cx="104.0" cy="175.0" r="3" fill="#2563eb" opacity="0.48"/>
<circle cx="104.0" cy="176.6" r="3" fill="#2563eb" opacity="0.48"/>
<circle cx="104.0" cy="171.6" r="3" fill="#2563eb" opacity="0.48"/>
<circle cx="104.0" cy="178.3" r="3" fill="#2563eb" opacity="0.48"/>
<circle cx="104.0" cy="174.2" r="3" fill="#2563eb" opacity="0.48"/>
<circle cx="104.5" cy="172.1" r="3" fill="#2563eb" opacity="0.48"/>
<circle cx="104.0" cy="180.7" r="3" fill="#2563eb" opacity="0.48"/>
<circle cx="104.0" cy="169.4" r="3" fill="#2563eb" opacity="0.48"/>
<circle cx="106.4" cy="177.3" r="3" fill="#2563eb" opacity="0.48"/>
<circle cx="104.0" cy="177.7" r="3" fill="#2563eb" opacity="0.48"/>
<circle cx="104.0" cy="168.1" r="3" fill="#2563eb" opacity="0.48"/>
<circle cx="104.0" cy="182.6" r="3" fill="#2563eb" opacity="0.48"/>
<circle cx="104.0" cy="170.8" r="3" fill="#2563eb" opacity="0.48"/>
<circle cx="516.7" cy="162.8" r="3" fill="#2563eb" opacity="0.48"/>
<circle cx="514.9" cy="164.4" r="3" fill="#2563eb" opacity="0.48"/>
<circle cx="517.0" cy="159.4" r="3" fill="#2563eb" opacity="0.48"/>
<circle cx="519.2" cy="166.1" r="3" fill="#2563eb" opacity="0.48"/>
<circle cx="511.9" cy="161.9" r="3" fill="#2563eb" opacity="0.48"/>
<circle cx="521.2" cy="159.9" r="3" fill="#2563eb" opacity="0.48"/>
<circle cx="515.1" cy="168.5" r="3" fill="#2563eb" opacity="0.48"/>
<circle cx="377.8" cy="260.6" r="3" fill="#2563eb" opacity="0.48"/>
<circle cx="447.2" cy="162.8" r="3" fill="#2563eb" opacity="0.48"/>
<circle cx="445.5" cy="164.4" r="3" fill="#2563eb" opacity="0.48"/>
<circle cx="447.5" cy="159.4" r="3" fill="#2563eb" opacity="0.48"/>
<circle cx="516.7" cy="113.9" r="3" fill="#2563eb" opacity="0.48"/>
<circle cx="514.9" cy="115.5" r="3" fill="#2563eb" opacity="0.48"/>
<circle cx="308.3" cy="113.9" r="3" fill="#2563eb" opacity="0.48"/>
<circle cx="306.6" cy="115.5" r="3" fill="#2563eb" opacity="0.48"/>
<circle cx="516.7" cy="69.0" r="3" fill="#2563eb" opacity="0.48"/>
<circle cx="514.9" cy="69.0" r="3" fill="#2563eb" opacity="0.48"/>
<circle cx="517.0" cy="69.0" r="3" fill="#2563eb" opacity="0.48"/>
<circle cx="519.2" cy="69.0" r="3" fill="#2563eb" opacity="0.48"/>
<circle cx="516.7" cy="309.4" r="3" fill="#2563eb" opacity="0.48"/>
<circle cx="516.7" cy="211.7" r="3" fill="#2563eb" opacity="0.48"/>
<circle cx="514.9" cy="213.3" r="3" fill="#2563eb" opacity="0.48"/>
<circle cx="517.0" cy="208.3" r="3" fill="#2563eb" opacity="0.48"/>
<circle cx="519.2" cy="215.0" r="3" fill="#2563eb" opacity="0.48"/>
<circle cx="516.7" cy="260.6" r="3" fill="#2563eb" opacity="0.48"/>
<circle cx="377.8" cy="309.4" r="3" fill="#2563eb" opacity="0.48"/>
<circle cx="376.0" cy="311.1" r="3" fill="#2563eb" opacity="0.48"/>
<circle cx="378.1" cy="306.1" r="3" fill="#2563eb" opacity="0.48"/>
<circle cx="516.7" cy="358.3" r="3" fill="#2563eb" opacity="0.48"/>
<circle cx="377.8" cy="211.7" r="3" fill="#2563eb" opacity="0.48"/>
<circle cx="377.8" cy="69.0" r="3" fill="#2563eb" opacity="0.48"/>
<circle cx="447.2" cy="358.3" r="3" fill="#2563eb" opacity="0.48"/>
<circle cx="104.0" cy="69.0" r="3" fill="#2563eb" opacity="0.48"/>
<circle cx="104.0" cy="69.0" r="3" fill="#2563eb" opacity="0.48"/>
<circle cx="104.0" cy="69.0" r="3" fill="#2563eb" opacity="0.48"/>
<circle cx="104.0" cy="69.0" r="3" fill="#2563eb" opacity="0.48"/>
<circle cx="104.0" cy="69.0" r="3" fill="#2563eb" opacity="0.48"/>
<circle cx="104.5" cy="69.0" r="3" fill="#2563eb" opacity="0.48"/>
<circle cx="104.0" cy="70.7" r="3" fill="#2563eb" opacity="0.48"/>
<circle cx="104.0" cy="69.0" r="3" fill="#2563eb" opacity="0.48"/>
<circle cx="106.4" cy="69.0" r="3" fill="#2563eb" opacity="0.48"/>
<circle cx="104.0" cy="69.0" r="3" fill="#2563eb" opacity="0.48"/>
<circle cx="104.0" cy="69.0" r="3" fill="#2563eb" opacity="0.48"/>
<circle cx="104.0" cy="72.6" r="3" fill="#2563eb" opacity="0.48"/>
<circle cx="104.0" cy="69.0" r="3" fill="#2563eb" opacity="0.48"/>
<circle cx="108.5" cy="69.0" r="3" fill="#2563eb" opacity="0.48"/>
<circle cx="104.0" cy="72.3" r="3" fill="#2563eb" opacity="0.48"/>
<circle cx="104.0" cy="285.0" r="3" fill="#2563eb" opacity="0.48"/>
<circle cx="104.0" cy="286.6" r="3" fill="#2563eb" opacity="0.48"/>
<circle cx="104.0" cy="281.6" r="3" fill="#2563eb" opacity="0.48"/>
<circle cx="104.0" cy="288.3" r="3" fill="#2563eb" opacity="0.48"/>
<circle cx="104.0" cy="284.2" r="3" fill="#2563eb" opacity="0.48"/>
<circle cx="104.5" cy="282.1" r="3" fill="#2563eb" opacity="0.48"/>
<circle cx="104.0" cy="290.7" r="3" fill="#2563eb" opacity="0.48"/>
<circle cx="104.0" cy="279.4" r="3" fill="#2563eb" opacity="0.48"/>
<circle cx="106.4" cy="287.3" r="3" fill="#2563eb" opacity="0.48"/>
<circle cx="104.0" cy="287.7" r="3" fill="#2563eb" opacity="0.48"/>
<circle cx="104.0" cy="278.1" r="3" fill="#2563eb" opacity="0.48"/>
<circle cx="412.5" cy="69.0" r="3" fill="#2563eb" opacity="0.48"/>
<circle cx="410.7" cy="69.0" r="3" fill="#2563eb" opacity="0.48"/>
<circle cx="412.8" cy="69.0" r="3" fill="#2563eb" opacity="0.48"/>
<circle cx="415.0" cy="69.0" r="3" fill="#2563eb" opacity="0.48"/>
<circle cx="407.8" cy="69.0" r="3" fill="#2563eb" opacity="0.48"/>
<circle cx="417.0" cy="69.0" r="3" fill="#2563eb" opacity="0.48"/>
<circle cx="411.0" cy="70.7" r="3" fill="#2563eb" opacity="0.48"/>
<circle cx="409.6" cy="69.0" r="3" fill="#2563eb" opacity="0.48"/>
<circle cx="418.9" cy="69.0" r="3" fill="#2563eb" opacity="0.48"/>
<circle cx="104.0" cy="395.0" r="3" fill="#2563eb" opacity="0.48"/>
<circle cx="104.0" cy="396.6" r="3" fill="#2563eb" opacity="0.48"/>
<circle cx="104.0" cy="391.6" r="3" fill="#2563eb" opacity="0.48"/>
<circle cx="104.0" cy="398.3" r="3" fill="#2563eb" opacity="0.48"/>
<circle cx="104.0" cy="394.2" r="3" fill="#2563eb" opacity="0.48"/>
<circle cx="104.5" cy="392.1" r="3" fill="#2563eb" opacity="0.48"/>
<circle cx="104.0" cy="400.7" r="3" fill="#2563eb" opacity="0.48"/>
<circle cx="104.0" cy="389.4" r="3" fill="#2563eb" opacity="0.48"/>
<circle cx="106.4" cy="397.3" r="3" fill="#2563eb" opacity="0.48"/>
<circle cx="104.0" cy="397.7" r="3" fill="#2563eb" opacity="0.48"/>
<circle cx="104.0" cy="388.1" r="3" fill="#2563eb" opacity="0.48"/>
<circle cx="104.0" cy="402.6" r="3" fill="#2563eb" opacity="0.48"/>
<circle cx="104.0" cy="390.8" r="3" fill="#2563eb" opacity="0.48"/>
<circle cx="108.5" cy="393.1" r="3" fill="#2563eb" opacity="0.48"/>
<circle cx="104.0" cy="402.3" r="3" fill="#2563eb" opacity="0.48"/>
<circle cx="104.0" cy="385.8" r="3" fill="#2563eb" opacity="0.48"/>
<circle cx="107.3" cy="401.2" r="3" fill="#2563eb" opacity="0.48"/>
<circle cx="104.0" cy="395.4" r="3" fill="#2563eb" opacity="0.48"/>
<circle cx="107.2" cy="387.8" r="3" fill="#2563eb" opacity="0.48"/>
<circle cx="568.8" cy="395.0" r="3" fill="#2563eb" opacity="0.48"/>
<circle cx="567.0" cy="396.6" r="3" fill="#2563eb" opacity="0.48"/>
<circle cx="569.0" cy="391.6" r="3" fill="#2563eb" opacity="0.48"/>
<circle cx="571.3" cy="398.3" r="3" fill="#2563eb" opacity="0.48"/>
<circle cx="564.0" cy="394.2" r="3" fill="#2563eb" opacity="0.48"/>
<text x="475.0" y="407.0" text-anchor="middle" font-size="13" font-weight="700" fill="#0f172a">2</text>
<text x="412.5" y="275.0" text-anchor="middle" font-size="13" font-weight="700" fill="#0f172a">51</text>
<text x="256.3" y="165.0" text-anchor="middle" font-size="13" font-weight="700" fill="#0f172a">38</text>
<text x="568.8" y="275.0" text-anchor="middle" font-size="13" font-weight="700" fill="#0f172a">9</text>
<text x="256.3" y="275.0" text-anchor="middle" font-size="13" font-weight="700" fill="#0f172a">72</text>
<text x="568.8" y="79.0" text-anchor="middle" font-size="13" font-weight="700" fill="#0f172a">10</text>
<text x="412.5" y="165.0" text-anchor="middle" font-size="13" font-weight="700" fill="#0f172a">12</text>
<text x="568.8" y="165.0" text-anchor="middle" font-size="13" font-weight="700" fill="#0f172a">7</text>
<text x="256.3" y="385.0" text-anchor="middle" font-size="13" font-weight="700" fill="#0f172a">84</text>
<text x="412.5" y="385.0" text-anchor="middle" font-size="13" font-weight="700" fill="#0f172a">16</text>
<text x="225.0" y="407.0" text-anchor="middle" font-size="13" font-weight="700" fill="#0f172a">4</text>
<text x="350.0" y="407.0" text-anchor="middle" font-size="13" font-weight="700" fill="#0f172a">3</text>
<text x="475.0" y="231.0" text-anchor="middle" font-size="13" font-weight="700" fill="#0f172a">3</text>
<text x="350.0" y="319.0" text-anchor="middle" font-size="13" font-weight="700" fill="#0f172a">3</text>
<text x="225.0" y="319.0" text-anchor="middle" font-size="13" font-weight="700" fill="#0f172a">8</text>
<text x="225.0" y="231.0" text-anchor="middle" font-size="13" font-weight="700" fill="#0f172a">3</text>
<text x="225.0" y="491.0" text-anchor="middle" font-size="13" font-weight="700" fill="#0f172a">5</text>
<text x="350.0" y="491.0" text-anchor="middle" font-size="13" font-weight="700" fill="#0f172a">2</text>
<text x="225.0" y="143.0" text-anchor="middle" font-size="13" font-weight="700" fill="#0f172a">2</text>
<text x="114.0" y="491.0" text-anchor="middle" font-size="13" font-weight="700" fill="#0f172a">37</text>
<text x="256.3" y="79.0" text-anchor="middle" font-size="13" font-weight="700" fill="#0f172a">37</text>
<text x="256.3" y="491.0" text-anchor="middle" font-size="13" font-weight="700" fill="#0f172a">11</text>
<text x="114.0" y="165.0" text-anchor="middle" font-size="13" font-weight="700" fill="#0f172a">13</text>
<text x="516.7" y="152.8" text-anchor="middle" font-size="13" font-weight="700" fill="#0f172a">7</text>
<text x="447.2" y="152.8" text-anchor="middle" font-size="13" font-weight="700" fill="#0f172a">3</text>
<text x="516.7" y="103.9" text-anchor="middle" font-size="13" font-weight="700" fill="#0f172a">2</text>
<text x="308.3" y="103.9" text-anchor="middle" font-size="13" font-weight="700" fill="#0f172a">2</text>
<text x="516.7" y="79.0" text-anchor="middle" font-size="13" font-weight="700" fill="#0f172a">4</text>
<text x="516.7" y="201.7" text-anchor="middle" font-size="13" font-weight="700" fill="#0f172a">4</text>
<text x="377.8" y="299.4" text-anchor="middle" font-size="13" font-weight="700" fill="#0f172a">3</text>
<text x="114.0" y="79.0" text-anchor="middle" font-size="13" font-weight="700" fill="#0f172a">15</text>
<text x="114.0" y="275.0" text-anchor="middle" font-size="13" font-weight="700" fill="#0f172a">11</text>
<text x="412.5" y="79.0" text-anchor="middle" font-size="13" font-weight="700" fill="#0f172a">9</text>
<text x="114.0" y="385.0" text-anchor="middle" font-size="13" font-weight="700" fill="#0f172a">19</text>
<text x="568.8" y="385.0" text-anchor="middle" font-size="13" font-weight="700" fill="#0f172a">5</text>
<text x="725" y="47" text-anchor="end" font-size="15" fill="#64748b">n=527; gleiche Scores leicht versetzt</text>
<text x="412.5" y="574" text-anchor="middle" font-size="26" fill="#475569">Score des direkten Aufrufs (%)</text>
<text x="28" y="285" transform="rotate(-90 28 285)" text-anchor="middle" font-size="26" fill="#475569">Score Workflow (%)</text>
</svg>
