<svg xmlns="http://www.w3.org/2000/svg" width="980" height="560" viewBox="0 0 980 560" role="img" aria-label="Paarweise Differenzen (Sample)">
<rect width="100%" height="100%" fill="white"/>
<text x="490" y="34" text-anchor="middle" font-size="26" font-weight="700" fill="#0f172a">Paarweise Differenzen (Sample)</text>
<text x="28" y="265" transform="rotate(-90 28 265)" text-anchor="middle" font-size="24" fill="#475569">Workflow - Direkter Aufruf (Prozentpunkte)</text>
<text x="532.5" y="536" text-anchor="middle" font-size="24" fill="#475569">Erste 120 Antwortpaare, geordnet nach Frage/Run</text>
<line x1="115" y1="299.5" x2="950" y2="299.5" stroke="#94a3b8" stroke-dasharray="4 4"/>
<line x1="115" y1="65" x2="115" y2="465" stroke="#cbd5e1"/>
<line x1="115" y1="465" x2="950" y2="465" stroke="#cbd5e1"/>
<line x1="115" y1="465.0" x2="950" y2="465.0" stroke="#e2e8f0"/>
<text x="105" y="470.0" text-anchor="end" font-size="16" fill="#64748b">-60</text>
<line x1="115" y1="365.0" x2="950" y2="365.0" stroke="#e2e8f0"/>
<text x="105" y="370.0" text-anchor="end" font-size="16" fill="#64748b">-24</text>
<line x1="115" y1="265.0" x2="950" y2="265.0" stroke="#e2e8f0"/>
<text x="105" y="270.0" text-anchor="end" font-size="16" fill="#64748b">13</text>
<line x1="115" y1="165.0" x2="950" y2="165.0" stroke="#e2e8f0"/>
<text x="105" y="170.0" text-anchor="end" font-size="16" fill="#64748b">49</text>
<line x1="115" y1="65.0" x2="950" y2="65.0" stroke="#e2e8f0"/>
<text x="105" y="70.0" text-anchor="end" font-size="16" fill="#64748b">85</text>
<rect x="116.0" y="299.5" width="5.0" height="110.3" fill="#dc2626" opacity="0.78"/>
<text x="118.5" y="427.8" text-anchor="middle" font-size="16" font-weight="700" fill="#0f172a">-40.0</text>
<rect x="122.9" y="299.5" width="5.0" height="1.0" fill="#15803d" opacity="0.78"/>
<text x="125.4" y="291.5" text-anchor="middle" font-size="16" font-weight="700" fill="#0f172a">0.0</text>
<rect x="129.9" y="161.6" width="5.0" height="137.9" fill="#15803d" opacity="0.78"/>
<text x="132.4" y="153.6" text-anchor="middle" font-size="16" font-weight="700" fill="#0f172a">50.0</text>
<rect x="136.8" y="299.5" width="5.0" height="69.0" fill="#dc2626" opacity="0.78"/>
<text x="139.4" y="386.4" text-anchor="middle" font-size="16" font-weight="700" fill="#0f172a">-25.0</text>
<rect x="143.8" y="299.5" width="5.0" height="1.0" fill="#15803d" opacity="0.78"/>
<text x="146.3" y="291.5" text-anchor="middle" font-size="16" font-weight="700" fill="#0f172a">0.0</text>
<rect x="150.8" y="161.6" width="5.0" height="137.9" fill="#15803d" opacity="0.78"/>
<text x="153.3" y="153.6" text-anchor="middle" font-size="16" font-weight="700" fill="#0f172a">50.0</text>
<rect x="157.7" y="299.5" width="5.0" height="1.0" fill="#15803d" opacity="0.78"/>
<text x="160.2" y="291.5" text-anchor="middle" font-size="16" font-weight="700" fill="#0f172a">0.0</text>
<rect x="164.7" y="230.5" width="5.0" height="69.0" fill="#15803d" opacity="0.78"/>
<text x="167.2" y="222.5" text-anchor="middle" font-size="16" font-weight="700" fill="#0f172a">25.0</text>
<rect x="171.6" y="299.5" width="5.0" height="1.0" fill="#15803d" opacity="0.78"/>
<text x="174.1" y="291.5" text-anchor="middle" font-size="16" font-weight="700" fill="#0f172a">0.0</text>
<rect x="178.6" y="161.6" width="5.0" height="137.9" fill="#15803d" opacity="0.78"/>
<text x="181.1" y="153.6" text-anchor="middle" font-size="16" font-weight="700" fill="#0f172a">50.0</text>
<rect x="185.6" y="230.5" width="5.0" height="69.0" fill="#15803d" opacity="0.78"/>
<text x="188.1" y="222.5" text-anchor="middle" font-size="16" font-weight="700" fill="#0f172a">25.0</text>
<rect x="192.5" y="299.5" width="5.0" height="1.0" fill="#15803d" opacity="0.78"/>
<text x="195.0" y="291.5" text-anchor="middle" font-size="16" font-weight="700" fill="#0f172a">0.0</text>
<rect x="199.5" y="230.5" width="5.0" height="69.0" fill="#15803d" opacity="0.78"/>
<text x="202.0" y="222.5" text-anchor="middle" font-size="16" font-weight="700" fill="#0f172a">25.0</text>
<rect x="206.4" y="230.5" width="5.0" height="69.0" fill="#15803d" opacity="0.78"/>
<text x="208.9" y="222.5" text-anchor="middle" font-size="16" font-weight="700" fill="#0f172a">25.0</text>
<rect x="213.4" y="230.5" width="5.0" height="69.0" fill="#15803d" opacity="0.78"/>
<text x="215.9" y="222.5" text-anchor="middle" font-size="16" font-weight="700" fill="#0f172a">25.0</text>
<rect x="220.3" y="230.5" width="5.0" height="69.0" fill="#15803d" opacity="0.78"/>
<text x="222.9" y="222.5" text-anchor="middle" font-size="16" font-weight="700" fill="#0f172a">25.0</text>
<rect x="227.3" y="299.5" width="5.0" height="1.0" fill="#15803d" opacity="0.78"/>
<text x="229.8" y="291.5" text-anchor="middle" font-size="16" font-weight="700" fill="#0f172a">0.0</text>
<rect x="234.3" y="299.5" width="5.0" height="1.0" fill="#15803d" opacity="0.78"/>
<text x="236.8" y="291.5" text-anchor="middle" font-size="16" font-weight="700" fill="#0f172a">0.0</text>
<rect x="241.2" y="299.5" width="5.0" height="1.0" fill="#15803d" opacity="0.78"/>
<text x="243.7" y="291.5" text-anchor="middle" font-size="16" font-weight="700" fill="#0f172a">0.0</text>
<rect x="248.2" y="299.5" width="5.0" height="1.0" fill="#15803d" opacity="0.78"/>
<text x="250.7" y="291.5" text-anchor="middle" font-size="16" font-weight="700" fill="#0f172a">0.0</text>
<rect x="255.1" y="299.5" width="5.0" height="1.0" fill="#15803d" opacity="0.78"/>
<text x="257.6" y="291.5" text-anchor="middle" font-size="16" font-weight="700" fill="#0f172a">0.0</text>
<rect x="262.1" y="299.5" width="5.0" height="1.0" fill="#15803d" opacity="0.78"/>
<text x="264.6" y="291.5" text-anchor="middle" font-size="16" font-weight="700" fill="#0f172a">0.0</text>
<rect x="269.1" y="299.5" width="5.0" height="1.0" fill="#15803d" opacity="0.78"/>
<text x="271.6" y="291.5" text-anchor="middle" font-size="16" font-weight="700" fill="#0f172a">0.0</text>
<rect x="276.0" y="299.5" width="5.0" height="1.0" fill="#15803d" opacity="0.78"/>
<text x="278.5" y="291.5" text-anchor="middle" font-size="16" font-weight="700" fill="#0f172a">0.0</text>
<rect x="283.0" y="299.5" width="5.0" height="1.0" fill="#15803d" opacity="0.78"/>
<text x="285.5" y="291.5" text-anchor="middle" font-size="16" font-weight="700" fill="#0f172a">0.0</text>
<rect x="289.9" y="299.5" width="5.0" height="69.0" fill="#dc2626" opacity="0.78"/>
<text x="292.4" y="386.4" text-anchor="middle" font-size="16" font-weight="700" fill="#0f172a">-25.0</text>
<rect x="296.9" y="299.5" width="5.0" height="69.0" fill="#dc2626" opacity="0.78"/>
<text x="299.4" y="386.4" text-anchor="middle" font-size="16" font-weight="700" fill="#0f172a">-25.0</text>
<rect x="303.8" y="299.5" width="5.0" height="1.0" fill="#15803d" opacity="0.78"/>
<text x="306.4" y="291.5" text-anchor="middle" font-size="16" font-weight="700" fill="#0f172a">0.0</text>
<rect x="310.8" y="299.5" width="5.0" height="1.0" fill="#15803d" opacity="0.78"/>
<text x="313.3" y="291.5" text-anchor="middle" font-size="16" font-weight="700" fill="#0f172a">0.0</text>
<rect x="317.8" y="299.5" width="5.0" height="1.0" fill="#15803d" opacity="0.78"/>
<text x="320.3" y="291.5" text-anchor="middle" font-size="16" font-weight="700" fill="#0f172a">0.0</text>
<rect x="324.7" y="230.5" width="5.0" height="69.0" fill="#15803d" opacity="0.78"/>
<text x="327.2" y="222.5" text-anchor="middle" font-size="16" font-weight="700" fill="#0f172a">25.0</text>
<rect x="331.7" y="299.5" width="5.0" height="1.0" fill="#15803d" opacity="0.78"/>
<text x="334.2" y="291.5" text-anchor="middle" font-size="16" font-weight="700" fill="#0f172a">0.0</text>
<rect x="338.6" y="299.5" width="5.0" height="55.2" fill="#dc2626" opacity="0.78"/>
<text x="341.1" y="372.7" text-anchor="middle" font-size="16" font-weight="700" fill="#0f172a">-20.0</text>
<rect x="345.6" y="299.5" width="5.0" height="1.0" fill="#15803d" opacity="0.78"/>
<text x="348.1" y="291.5" text-anchor="middle" font-size="16" font-weight="700" fill="#0f172a">0.0</text>
<rect x="352.6" y="299.5" width="5.0" height="1.0" fill="#15803d" opacity="0.78"/>
<text x="355.1" y="291.5" text-anchor="middle" font-size="16" font-weight="700" fill="#0f172a">0.0</text>
<rect x="359.5" y="244.3" width="5.0" height="55.2" fill="#15803d" opacity="0.78"/>
<text x="362.0" y="236.3" text-anchor="middle" font-size="16" font-weight="700" fill="#0f172a">20.0</text>
<rect x="366.5" y="189.1" width="5.0" height="110.3" fill="#15803d" opacity="0.78"/>
<text x="369.0" y="181.1" text-anchor="middle" font-size="16" font-weight="700" fill="#0f172a">40.0</text>
<rect x="373.4" y="189.1" width="5.0" height="110.3" fill="#15803d" opacity="0.78"/>
<text x="375.9" y="181.1" text-anchor="middle" font-size="16" font-weight="700" fill="#0f172a">40.0</text>
<rect x="380.4" y="244.3" width="5.0" height="55.2" fill="#15803d" opacity="0.78"/>
<text x="382.9" y="236.3" text-anchor="middle" font-size="16" font-weight="700" fill="#0f172a">20.0</text>
<rect x="387.3" y="299.5" width="5.0" height="55.2" fill="#dc2626" opacity="0.78"/>
<text x="389.9" y="372.7" text-anchor="middle" font-size="16" font-weight="700" fill="#0f172a">-20.0</text>
<rect x="394.3" y="299.5" width="5.0" height="55.2" fill="#dc2626" opacity="0.78"/>
<text x="396.8" y="372.7" text-anchor="middle" font-size="16" font-weight="700" fill="#0f172a">-20.0</text>
<rect x="401.3" y="244.3" width="5.0" height="55.2" fill="#15803d" opacity="0.78"/>
<text x="403.8" y="236.3" text-anchor="middle" font-size="16" font-weight="700" fill="#0f172a">20.0</text>
<rect x="408.2" y="299.5" width="5.0" height="1.0" fill="#15803d" opacity="0.78"/>
<text x="410.7" y="291.5" text-anchor="middle" font-size="16" font-weight="700" fill="#0f172a">0.0</text>
<rect x="415.2" y="244.3" width="5.0" height="55.2" fill="#15803d" opacity="0.78"/>
<text x="417.7" y="236.3" text-anchor="middle" font-size="16" font-weight="700" fill="#0f172a">20.0</text>
<rect x="422.1" y="299.5" width="5.0" height="110.3" fill="#dc2626" opacity="0.78"/>
<text x="424.6" y="427.8" text-anchor="middle" font-size="16" font-weight="700" fill="#0f172a">-40.0</text>
<rect x="429.1" y="299.5" width="5.0" height="110.3" fill="#dc2626" opacity="0.78"/>
<text x="431.6" y="427.8" text-anchor="middle" font-size="16" font-weight="700" fill="#0f172a">-40.0</text>
<rect x="436.1" y="299.5" width="5.0" height="1.0" fill="#15803d" opacity="0.78"/>
<text x="438.6" y="291.5" text-anchor="middle" font-size="16" font-weight="700" fill="#0f172a">0.0</text>
<rect x="443.0" y="299.5" width="5.0" height="55.2" fill="#dc2626" opacity="0.78"/>
<text x="445.5" y="372.7" text-anchor="middle" font-size="16" font-weight="700" fill="#0f172a">-20.0</text>
<rect x="450.0" y="244.3" width="5.0" height="55.2" fill="#15803d" opacity="0.78"/>
<text x="452.5" y="236.3" text-anchor="middle" font-size="16" font-weight="700" fill="#0f172a">20.0</text>
<rect x="456.9" y="134.0" width="5.0" height="165.5" fill="#15803d" opacity="0.78"/>
<text x="459.4" y="126.0" text-anchor="middle" font-size="16" font-weight="700" fill="#0f172a">60.0</text>
<rect x="463.9" y="189.1" width="5.0" height="110.3" fill="#15803d" opacity="0.78"/>
<text x="466.4" y="181.1" text-anchor="middle" font-size="16" font-weight="700" fill="#0f172a">40.0</text>
<rect x="470.8" y="299.5" width="5.0" height="1.0" fill="#15803d" opacity="0.78"/>
<text x="473.4" y="291.5" text-anchor="middle" font-size="16" font-weight="700" fill="#0f172a">0.0</text>
<rect x="477.8" y="299.5" width="5.0" height="1.0" fill="#15803d" opacity="0.78"/>
<text x="480.3" y="291.5" text-anchor="middle" font-size="16" font-weight="700" fill="#0f172a">0.0</text>
<rect x="484.8" y="244.3" width="5.0" height="55.2" fill="#15803d" opacity="0.78"/>
<text x="487.3" y="236.3" text-anchor="middle" font-size="16" font-weight="700" fill="#0f172a">20.0</text>
<rect x="491.7" y="244.3" width="5.0" height="55.2" fill="#15803d" opacity="0.78"/>
<text x="494.2" y="236.3" text-anchor="middle" font-size="16" font-weight="700" fill="#0f172a">20.0</text>
<rect x="498.7" y="244.3" width="5.0" height="55.2" fill="#15803d" opacity="0.78"/>
<text x="501.2" y="236.3" text-anchor="middle" font-size="16" font-weight="700" fill="#0f172a">20.0</text>
<rect x="505.6" y="299.5" width="5.0" height="55.2" fill="#dc2626" opacity="0.78"/>
<text x="508.1" y="372.7" text-anchor="middle" font-size="16" font-weight="700" fill="#0f172a">-20.0</text>
<rect x="512.6" y="299.5" width="5.0" height="1.0" fill="#15803d" opacity="0.78"/>
<text x="515.1" y="291.5" text-anchor="middle" font-size="16" font-weight="700" fill="#0f172a">0.0</text>
<rect x="519.6" y="244.3" width="5.0" height="55.2" fill="#15803d" opacity="0.78"/>
<text x="522.1" y="236.3" text-anchor="middle" font-size="16" font-weight="700" fill="#0f172a">20.0</text>
<rect x="526.5" y="299.5" width="5.0" height="55.2" fill="#dc2626" opacity="0.78"/>
<text x="529.0" y="372.7" text-anchor="middle" font-size="16" font-weight="700" fill="#0f172a">-20.0</text>
<rect x="533.5" y="189.1" width="5.0" height="110.3" fill="#15803d" opacity="0.78"/>
<text x="536.0" y="181.1" text-anchor="middle" font-size="16" font-weight="700" fill="#0f172a">40.0</text>
<rect x="540.4" y="299.5" width="5.0" height="55.2" fill="#dc2626" opacity="0.78"/>
<text x="542.9" y="372.7" text-anchor="middle" font-size="16" font-weight="700" fill="#0f172a">-20.0</text>
<rect x="547.4" y="299.5" width="5.0" height="1.0" fill="#15803d" opacity="0.78"/>
<text x="549.9" y="291.5" text-anchor="middle" font-size="16" font-weight="700" fill="#0f172a">0.0</text>
<rect x="554.3" y="299.5" width="5.0" height="1.0" fill="#15803d" opacity="0.78"/>
<text x="556.9" y="291.5" text-anchor="middle" font-size="16" font-weight="700" fill="#0f172a">0.0</text>
<rect x="561.3" y="299.5" width="5.0" height="1.0" fill="#15803d" opacity="0.78"/>
<text x="563.8" y="291.5" text-anchor="middle" font-size="16" font-weight="700" fill="#0f172a">0.0</text>
<rect x="568.3" y="299.5" width="5.0" height="55.2" fill="#dc2626" opacity="0.78"/>
<text x="570.8" y="372.7" text-anchor="middle" font-size="16" font-weight="700" fill="#0f172a">-20.0</text>
<rect x="575.2" y="244.3" width="5.0" height="55.2" fill="#15803d" opacity="0.78"/>
<text x="577.7" y="236.3" text-anchor="middle" font-size="16" font-weight="700" fill="#0f172a">20.0</text>
<rect x="582.2" y="299.5" width="5.0" height="110.3" fill="#dc2626" opacity="0.78"/>
<text x="584.7" y="427.8" text-anchor="middle" font-size="16" font-weight="700" fill="#0f172a">-40.0</text>
<rect x="589.1" y="134.0" width="5.0" height="165.5" fill="#15803d" opacity="0.78"/>
<text x="591.6" y="126.0" text-anchor="middle" font-size="16" font-weight="700" fill="#0f172a">60.0</text>
<rect x="596.1" y="299.5" width="5.0" height="1.0" fill="#15803d" opacity="0.78"/>
<text x="598.6" y="291.5" text-anchor="middle" font-size="16" font-weight="700" fill="#0f172a">0.0</text>
<rect x="603.1" y="230.5" width="5.0" height="69.0" fill="#15803d" opacity="0.78"/>
<text x="605.6" y="222.5" text-anchor="middle" font-size="16" font-weight="700" fill="#0f172a">25.0</text>
<rect x="610.0" y="230.5" width="5.0" height="69.0" fill="#15803d" opacity="0.78"/>
<text x="612.5" y="222.5" text-anchor="middle" font-size="16" font-weight="700" fill="#0f172a">25.0</text>
<rect x="617.0" y="299.5" width="5.0" height="1.0" fill="#15803d" opacity="0.78"/>
<text x="619.5" y="291.5" text-anchor="middle" font-size="16" font-weight="700" fill="#0f172a">0.0</text>
<rect x="623.9" y="299.5" width="5.0" height="1.0" fill="#15803d" opacity="0.78"/>
<text x="626.4" y="291.5" text-anchor="middle" font-size="16" font-weight="700" fill="#0f172a">0.0</text>
<rect x="630.9" y="299.5" width="5.0" height="1.0" fill="#15803d" opacity="0.78"/>
<text x="633.4" y="291.5" text-anchor="middle" font-size="16" font-weight="700" fill="#0f172a">0.0</text>
<rect x="637.8" y="299.5" width="5.0" height="1.0" fill="#15803d" opacity="0.78"/>
<text x="640.4" y="291.5" text-anchor="middle" font-size="16" font-weight="700" fill="#0f172a">0.0</text>
<rect x="644.8" y="299.5" width="5.0" height="1.0" fill="#15803d" opacity="0.78"/>
<text x="647.3" y="291.5" text-anchor="middle" font-size="16" font-weight="700" fill="#0f172a">0.0</text>
<rect x="651.8" y="230.5" width="5.0" height="69.0" fill="#15803d" opacity="0.78"/>
<text x="654.3" y="222.5" text-anchor="middle" font-size="16" font-weight="700" fill="#0f172a">25.0</text>
<rect x="658.7" y="299.5" width="5.0" height="1.0" fill="#15803d" opacity="0.78"/>
<text x="661.2" y="291.5" text-anchor="middle" font-size="16" font-weight="700" fill="#0f172a">0.0</text>
<rect x="665.7" y="230.5" width="5.0" height="69.0" fill="#15803d" opacity="0.78"/>
<text x="668.2" y="222.5" text-anchor="middle" font-size="16" font-weight="700" fill="#0f172a">25.0</text>
<rect x="672.6" y="230.5" width="5.0" height="69.0" fill="#15803d" opacity="0.78"/>
<text x="675.1" y="222.5" text-anchor="middle" font-size="16" font-weight="700" fill="#0f172a">25.0</text>
<rect x="679.6" y="299.5" width="5.0" height="1.0" fill="#15803d" opacity="0.78"/>
<text x="682.1" y="291.5" text-anchor="middle" font-size="16" font-weight="700" fill="#0f172a">0.0</text>
<rect x="686.6" y="230.5" width="5.0" height="69.0" fill="#15803d" opacity="0.78"/>
<text x="689.1" y="222.5" text-anchor="middle" font-size="16" font-weight="700" fill="#0f172a">25.0</text>
<rect x="693.5" y="299.5" width="5.0" height="1.0" fill="#15803d" opacity="0.78"/>
<text x="696.0" y="291.5" text-anchor="middle" font-size="16" font-weight="700" fill="#0f172a">0.0</text>
<rect x="700.5" y="230.5" width="5.0" height="69.0" fill="#15803d" opacity="0.78"/>
<text x="703.0" y="222.5" text-anchor="middle" font-size="16" font-weight="700" fill="#0f172a">25.0</text>
<rect x="707.4" y="230.5" width="5.0" height="69.0" fill="#15803d" opacity="0.78"/>
<text x="709.9" y="222.5" text-anchor="middle" font-size="16" font-weight="700" fill="#0f172a">25.0</text>
<rect x="714.4" y="230.5" width="5.0" height="69.0" fill="#15803d" opacity="0.78"/>
<text x="716.9" y="222.5" text-anchor="middle" font-size="16" font-weight="700" fill="#0f172a">25.0</text>
<rect x="721.3" y="299.5" width="5.0" height="1.0" fill="#15803d" opacity="0.78"/>
<text x="723.9" y="291.5" text-anchor="middle" font-size="16" font-weight="700" fill="#0f172a">0.0</text>
<rect x="728.3" y="230.5" width="5.0" height="69.0" fill="#15803d" opacity="0.78"/>
<text x="730.8" y="222.5" text-anchor="middle" font-size="16" font-weight="700" fill="#0f172a">25.0</text>
<rect x="735.3" y="230.5" width="5.0" height="69.0" fill="#15803d" opacity="0.78"/>
<text x="737.8" y="222.5" text-anchor="middle" font-size="16" font-weight="700" fill="#0f172a">25.0</text>
<rect x="742.2" y="161.6" width="5.0" height="137.9" fill="#15803d" opacity="0.78"/>
<text x="744.7" y="153.6" text-anchor="middle" font-size="16" font-weight="700" fill="#0f172a">50.0</text>
<rect x="749.2" y="299.5" width="5.0" height="1.0" fill="#15803d" opacity="0.78"/>
<text x="751.7" y="291.5" text-anchor="middle" font-size="16" font-weight="700" fill="#0f172a">0.0</text>
<rect x="756.1" y="230.5" width="5.0" height="69.0" fill="#15803d" opacity="0.78"/>
<text x="758.6" y="222.5" text-anchor="middle" font-size="16" font-weight="700" fill="#0f172a">25.0</text>
<rect x="763.1" y="161.6" width="5.0" height="137.9" fill="#15803d" opacity="0.78"/>
<text x="765.6" y="153.6" text-anchor="middle" font-size="16" font-weight="700" fill="#0f172a">50.0</text>
<rect x="770.1" y="161.6" width="5.0" height="137.9" fill="#15803d" opacity="0.78"/>
<text x="772.6" y="153.6" text-anchor="middle" font-size="16" font-weight="700" fill="#0f172a">50.0</text>
<rect x="777.0" y="230.5" width="5.0" height="69.0" fill="#15803d" opacity="0.78"/>
<text x="779.5" y="222.5" text-anchor="middle" font-size="16" font-weight="700" fill="#0f172a">25.0</text>
<rect x="784.0" y="161.6" width="5.0" height="137.9" fill="#15803d" opacity="0.78"/>
<text x="786.5" y="153.6" text-anchor="middle" font-size="16" font-weight="700" fill="#0f172a">50.0</text>
<rect x="790.9" y="230.5" width="5.0" height="69.0" fill="#15803d" opacity="0.78"/>
<text x="793.4" y="222.5" text-anchor="middle" font-size="16" font-weight="700" fill="#0f172a">25.0</text>
<rect x="797.9" y="230.5" width="5.0" height="69.0" fill="#15803d" opacity="0.78"/>
<text x="800.4" y="222.5" text-anchor="middle" font-size="16" font-weight="700" fill="#0f172a">25.0</text>
<rect x="804.8" y="92.6" width="5.0" height="206.9" fill="#15803d" opacity="0.78"/>
<text x="807.4" y="84.6" text-anchor="middle" font-size="16" font-weight="700" fill="#0f172a">75.0</text>
<rect x="811.8" y="230.5" width="5.0" height="69.0" fill="#15803d" opacity="0.78"/>
<text x="814.3" y="222.5" text-anchor="middle" font-size="16" font-weight="700" fill="#0f172a">25.0</text>
<rect x="818.8" y="92.6" width="5.0" height="206.9" fill="#15803d" opacity="0.78"/>
<text x="821.3" y="84.6" text-anchor="middle" font-size="16" font-weight="700" fill="#0f172a">75.0</text>
<rect x="825.7" y="92.6" width="5.0" height="206.9" fill="#15803d" opacity="0.78"/>
<text x="828.2" y="84.6" text-anchor="middle" font-size="16" font-weight="700" fill="#0f172a">75.0</text>
<rect x="832.7" y="92.6" width="5.0" height="206.9" fill="#15803d" opacity="0.78"/>
<text x="835.2" y="84.6" text-anchor="middle" font-size="16" font-weight="700" fill="#0f172a">75.0</text>
<rect x="839.6" y="92.6" width="5.0" height="206.9" fill="#15803d" opacity="0.78"/>
<text x="842.1" y="84.6" text-anchor="middle" font-size="16" font-weight="700" fill="#0f172a">75.0</text>
<rect x="846.6" y="92.6" width="5.0" height="206.9" fill="#15803d" opacity="0.78"/>
<text x="849.1" y="84.6" text-anchor="middle" font-size="16" font-weight="700" fill="#0f172a">75.0</text>
<rect x="853.6" y="299.5" width="5.0" height="1.0" fill="#15803d" opacity="0.78"/>
<text x="856.1" y="291.5" text-anchor="middle" font-size="16" font-weight="700" fill="#0f172a">0.0</text>
<rect x="860.5" y="299.5" width="5.0" height="1.0" fill="#15803d" opacity="0.78"/>
<text x="863.0" y="291.5" text-anchor="middle" font-size="16" font-weight="700" fill="#0f172a">0.0</text>
<rect x="867.5" y="299.5" width="5.0" height="1.0" fill="#15803d" opacity="0.78"/>
<text x="870.0" y="291.5" text-anchor="middle" font-size="16" font-weight="700" fill="#0f172a">0.0</text>
<rect x="874.4" y="299.5" width="5.0" height="1.0" fill="#15803d" opacity="0.78"/>
<text x="876.9" y="291.5" text-anchor="middle" font-size="16" font-weight="700" fill="#0f172a">0.0</text>
<rect x="881.4" y="299.5" width="5.0" height="1.0" fill="#15803d" opacity="0.78"/>
<text x="883.9" y="291.5" text-anchor="middle" font-size="16" font-weight="700" fill="#0f172a">0.0</text>
<rect x="888.3" y="299.5" width="5.0" height="1.0" fill="#15803d" opacity="0.78"/>
<text x="890.9" y="291.5" text-anchor="middle" font-size="16" font-weight="700" fill="#0f172a">0.0</text>
<rect x="895.3" y="299.5" width="5.0" height="1.0" fill="#15803d" opacity="0.78"/>
<text x="897.8" y="291.5" text-anchor="middle" font-size="16" font-weight="700" fill="#0f172a">0.0</text>
<rect x="902.3" y="299.5" width="5.0" height="1.0" fill="#15803d" opacity="0.78"/>
<text x="904.8" y="291.5" text-anchor="middle" font-size="16" font-weight="700" fill="#0f172a">0.0</text>
<rect x="909.2" y="299.5" width="5.0" height="1.0" fill="#15803d" opacity="0.78"/>
<text x="911.7" y="291.5" text-anchor="middle" font-size="16" font-weight="700" fill="#0f172a">0.0</text>
<rect x="916.2" y="299.5" width="5.0" height="1.0" fill="#15803d" opacity="0.78"/>
<text x="918.7" y="291.5" text-anchor="middle" font-size="16" font-weight="700" fill="#0f172a">0.0</text>
<rect x="923.1" y="299.5" width="5.0" height="69.0" fill="#dc2626" opacity="0.78"/>
<text x="925.6" y="386.4" text-anchor="middle" font-size="16" font-weight="700" fill="#0f172a">-25.0</text>
<rect x="930.1" y="161.6" width="5.0" height="137.9" fill="#15803d" opacity="0.78"/>
<text x="932.6" y="153.6" text-anchor="middle" font-size="16" font-weight="700" fill="#0f172a">50.0</text>
<rect x="937.1" y="299.5" width="5.0" height="1.0" fill="#15803d" opacity="0.78"/>
<text x="939.6" y="291.5" text-anchor="middle" font-size="16" font-weight="700" fill="#0f172a">0.0</text>
<rect x="944.0" y="299.5" width="5.0" height="137.9" fill="#dc2626" opacity="0.78"/>
<text x="946.5" y="455.4" text-anchor="middle" font-size="16" font-weight="700" fill="#0f172a">-50.0</text>

</svg>
