<svg xmlns="http://www.w3.org/2000/svg" width="980" height="560" viewBox="0 0 980 560" role="img" aria-label="Paarweise Differenzen Teil 7/7">
<rect width="100%" height="100%" fill="white"/>
<text x="490" y="34" text-anchor="middle" font-size="26" font-weight="700" fill="#0f172a">Paarweise Differenzen Teil 7/7</text>
<text x="28" y="265" transform="rotate(-90 28 265)" text-anchor="middle" font-size="24" fill="#475569">Workflow - Direkter Aufruf (Prozentpunkte)</text>
<text x="532.5" y="536" text-anchor="middle" font-size="24" fill="#475569">Antwortpaare 601-693 von 693</text>
<line x1="115" y1="265.0" x2="950" y2="265.0" stroke="#94a3b8" stroke-dasharray="4 4"/>
<line x1="115" y1="65" x2="115" y2="465" stroke="#cbd5e1"/>
<line x1="115" y1="465" x2="950" y2="465" stroke="#cbd5e1"/>
<line x1="115" y1="465.0" x2="950" y2="465.0" stroke="#e2e8f0"/>
<text x="105" y="470.0" text-anchor="end" font-size="16" fill="#64748b">-87</text>
<line x1="115" y1="365.0" x2="950" y2="365.0" stroke="#e2e8f0"/>
<text x="105" y="370.0" text-anchor="end" font-size="16" fill="#64748b">-44</text>
<line x1="115" y1="265.0" x2="950" y2="265.0" stroke="#e2e8f0"/>
<text x="105" y="270.0" text-anchor="end" font-size="16" fill="#64748b">0</text>
<line x1="115" y1="165.0" x2="950" y2="165.0" stroke="#e2e8f0"/>
<text x="105" y="170.0" text-anchor="end" font-size="16" fill="#64748b">44</text>
<line x1="115" y1="65.0" x2="950" y2="65.0" stroke="#e2e8f0"/>
<text x="105" y="70.0" text-anchor="end" font-size="16" fill="#64748b">87</text>
<rect x="116.3" y="265.0" width="6.5" height="1.0" fill="#15803d" opacity="0.78"/>

<rect x="125.2" y="265.0" width="6.5" height="1.0" fill="#15803d" opacity="0.78"/>

<rect x="134.2" y="265.0" width="6.5" height="1.0" fill="#15803d" opacity="0.78"/>

<rect x="143.2" y="265.0" width="6.5" height="1.0" fill="#15803d" opacity="0.78"/>

<rect x="152.2" y="265.0" width="6.5" height="1.0" fill="#15803d" opacity="0.78"/>

<rect x="161.1" y="265.0" width="6.5" height="1.0" fill="#15803d" opacity="0.78"/>

<rect x="170.1" y="265.0" width="6.5" height="1.0" fill="#15803d" opacity="0.78"/>

<rect x="179.1" y="265.0" width="6.5" height="1.0" fill="#15803d" opacity="0.78"/>

<rect x="188.1" y="265.0" width="6.5" height="1.0" fill="#15803d" opacity="0.78"/>

<rect x="197.1" y="265.0" width="6.5" height="1.0" fill="#15803d" opacity="0.78"/>

<rect x="206.0" y="265.0" width="6.5" height="1.0" fill="#15803d" opacity="0.78"/>

<rect x="215.0" y="150.1" width="6.5" height="114.9" fill="#15803d" opacity="0.78"/>

<rect x="224.0" y="150.1" width="6.5" height="114.9" fill="#15803d" opacity="0.78"/>

<rect x="233.0" y="265.0" width="6.5" height="1.0" fill="#15803d" opacity="0.78"/>

<rect x="242.0" y="265.0" width="6.5" height="1.0" fill="#15803d" opacity="0.78"/>

<rect x="250.9" y="150.1" width="6.5" height="114.9" fill="#15803d" opacity="0.78"/>

<rect x="259.9" y="265.0" width="6.5" height="57.5" fill="#dc2626" opacity="0.78"/>

<rect x="268.9" y="265.0" width="6.5" height="114.9" fill="#dc2626" opacity="0.78"/>

<rect x="277.9" y="207.5" width="6.5" height="57.5" fill="#15803d" opacity="0.78"/>

<rect x="286.8" y="265.0" width="6.5" height="1.0" fill="#15803d" opacity="0.78"/>

<rect x="295.8" y="265.0" width="6.5" height="114.9" fill="#dc2626" opacity="0.78"/>

<rect x="304.8" y="207.5" width="6.5" height="57.5" fill="#15803d" opacity="0.78"/>

<rect x="313.8" y="265.0" width="6.5" height="1.0" fill="#15803d" opacity="0.78"/>

<rect x="322.8" y="265.0" width="6.5" height="1.0" fill="#15803d" opacity="0.78"/>

<rect x="331.7" y="207.5" width="6.5" height="57.5" fill="#15803d" opacity="0.78"/>

<rect x="340.7" y="207.5" width="6.5" height="57.5" fill="#15803d" opacity="0.78"/>

<rect x="349.7" y="150.1" width="6.5" height="114.9" fill="#15803d" opacity="0.78"/>

<rect x="358.7" y="150.1" width="6.5" height="114.9" fill="#15803d" opacity="0.78"/>

<rect x="367.7" y="150.1" width="6.5" height="114.9" fill="#15803d" opacity="0.78"/>

<rect x="376.6" y="207.5" width="6.5" height="57.5" fill="#15803d" opacity="0.78"/>

<rect x="385.6" y="92.6" width="6.5" height="172.4" fill="#15803d" opacity="0.78"/>

<rect x="394.6" y="265.0" width="6.5" height="57.5" fill="#dc2626" opacity="0.78"/>

<rect x="403.6" y="265.0" width="6.5" height="1.0" fill="#15803d" opacity="0.78"/>

<rect x="412.5" y="207.5" width="6.5" height="57.5" fill="#15803d" opacity="0.78"/>

<rect x="421.5" y="265.0" width="6.5" height="1.0" fill="#15803d" opacity="0.78"/>

<rect x="430.5" y="265.0" width="6.5" height="1.0" fill="#15803d" opacity="0.78"/>

<rect x="439.5" y="207.5" width="6.5" height="57.5" fill="#15803d" opacity="0.78"/>

<rect x="448.5" y="265.0" width="6.5" height="1.0" fill="#15803d" opacity="0.78"/>

<rect x="457.4" y="265.0" width="6.5" height="1.0" fill="#15803d" opacity="0.78"/>

<rect x="466.4" y="207.5" width="6.5" height="57.5" fill="#15803d" opacity="0.78"/>

<rect x="475.4" y="265.0" width="6.5" height="1.0" fill="#15803d" opacity="0.78"/>

<rect x="484.4" y="265.0" width="6.5" height="1.0" fill="#15803d" opacity="0.78"/>

<rect x="493.4" y="207.5" width="6.5" height="57.5" fill="#15803d" opacity="0.78"/>

<rect x="502.3" y="265.0" width="6.5" height="114.9" fill="#dc2626" opacity="0.78"/>

<rect x="511.3" y="207.5" width="6.5" height="57.5" fill="#15803d" opacity="0.78"/>

<rect x="520.3" y="265.0" width="6.5" height="1.0" fill="#15803d" opacity="0.78"/>

<rect x="529.3" y="265.0" width="6.5" height="1.0" fill="#15803d" opacity="0.78"/>

<rect x="538.2" y="265.0" width="6.5" height="1.0" fill="#15803d" opacity="0.78"/>

<rect x="547.2" y="265.0" width="6.5" height="1.0" fill="#15803d" opacity="0.78"/>

<rect x="556.2" y="265.0" width="6.5" height="1.0" fill="#15803d" opacity="0.78"/>

<rect x="565.2" y="265.0" width="6.5" height="1.0" fill="#15803d" opacity="0.78"/>

<rect x="574.2" y="265.0" width="6.5" height="57.5" fill="#dc2626" opacity="0.78"/>

<rect x="583.1" y="207.5" width="6.5" height="57.5" fill="#15803d" opacity="0.78"/>

<rect x="592.1" y="207.5" width="6.5" height="57.5" fill="#15803d" opacity="0.78"/>

<rect x="601.1" y="265.0" width="6.5" height="57.5" fill="#dc2626" opacity="0.78"/>

<rect x="610.1" y="265.0" width="6.5" height="1.0" fill="#15803d" opacity="0.78"/>

<rect x="619.1" y="265.0" width="6.5" height="1.0" fill="#15803d" opacity="0.78"/>

<rect x="628.0" y="265.0" width="6.5" height="172.4" fill="#dc2626" opacity="0.78"/>

<rect x="637.0" y="265.0" width="6.5" height="1.0" fill="#15803d" opacity="0.78"/>

<rect x="646.0" y="265.0" width="6.5" height="57.5" fill="#dc2626" opacity="0.78"/>

<rect x="655.0" y="265.0" width="6.5" height="1.0" fill="#15803d" opacity="0.78"/>

<rect x="663.9" y="207.5" width="6.5" height="57.5" fill="#15803d" opacity="0.78"/>

<rect x="672.9" y="265.0" width="6.5" height="1.0" fill="#15803d" opacity="0.78"/>

<rect x="681.9" y="265.0" width="6.5" height="1.0" fill="#15803d" opacity="0.78"/>

<rect x="690.9" y="265.0" width="6.5" height="1.0" fill="#15803d" opacity="0.78"/>

<rect x="699.9" y="207.5" width="6.5" height="57.5" fill="#15803d" opacity="0.78"/>

<rect x="708.8" y="265.0" width="6.5" height="1.0" fill="#15803d" opacity="0.78"/>

<rect x="717.8" y="265.0" width="6.5" height="1.0" fill="#15803d" opacity="0.78"/>

<rect x="726.8" y="265.0" width="6.5" height="1.0" fill="#15803d" opacity="0.78"/>

<rect x="735.8" y="265.0" width="6.5" height="172.4" fill="#dc2626" opacity="0.78"/>

<rect x="744.8" y="265.0" width="6.5" height="1.0" fill="#15803d" opacity="0.78"/>

<rect x="753.7" y="265.0" width="6.5" height="1.0" fill="#15803d" opacity="0.78"/>

<rect x="762.7" y="265.0" width="6.5" height="1.0" fill="#15803d" opacity="0.78"/>

<rect x="771.7" y="265.0" width="6.5" height="1.0" fill="#15803d" opacity="0.78"/>

<rect x="780.7" y="265.0" width="6.5" height="1.0" fill="#15803d" opacity="0.78"/>

<rect x="789.6" y="265.0" width="6.5" height="1.0" fill="#15803d" opacity="0.78"/>

<rect x="798.6" y="207.5" width="6.5" height="57.5" fill="#15803d" opacity="0.78"/>

<rect x="807.6" y="265.0" width="6.5" height="57.5" fill="#dc2626" opacity="0.78"/>

<rect x="816.6" y="265.0" width="6.5" height="1.0" fill="#15803d" opacity="0.78"/>

<rect x="825.6" y="265.0" width="6.5" height="1.0" fill="#15803d" opacity="0.78"/>

<rect x="834.5" y="265.0" width="6.5" height="1.0" fill="#15803d" opacity="0.78"/>

<rect x="843.5" y="265.0" width="6.5" height="57.5" fill="#dc2626" opacity="0.78"/>

<rect x="852.5" y="265.0" width="6.5" height="1.0" fill="#15803d" opacity="0.78"/>

<rect x="861.5" y="265.0" width="6.5" height="1.0" fill="#15803d" opacity="0.78"/>

<rect x="870.5" y="265.0" width="6.5" height="57.5" fill="#dc2626" opacity="0.78"/>

<rect x="879.4" y="207.5" width="6.5" height="57.5" fill="#15803d" opacity="0.78"/>

<rect x="888.4" y="207.5" width="6.5" height="57.5" fill="#15803d" opacity="0.78"/>

<rect x="897.4" y="150.1" width="6.5" height="114.9" fill="#15803d" opacity="0.78"/>

<rect x="906.4" y="265.0" width="6.5" height="1.0" fill="#15803d" opacity="0.78"/>

<rect x="915.3" y="265.0" width="6.5" height="114.9" fill="#dc2626" opacity="0.78"/>

<rect x="924.3" y="265.0" width="6.5" height="1.0" fill="#15803d" opacity="0.78"/>

<rect x="933.3" y="265.0" width="6.5" height="1.0" fill="#15803d" opacity="0.78"/>

<rect x="942.3" y="265.0" width="6.5" height="1.0" fill="#15803d" opacity="0.78"/>


</svg>
