<svg xmlns="http://www.w3.org/2000/svg" width="760" height="600" viewBox="0 0 760 600" role="img" aria-label="Scorevergleich Direkter Aufruf vs Workflow">
<rect width="100%" height="100%" fill="white"/>
<text x="380" y="34" text-anchor="middle" font-size="26" font-weight="700" fill="#0f172a">Scorevergleich Direkter Aufruf vs Workflow</text>
<line x1="100.0" y1="65" x2="100.0" y2="505.0" stroke="#e2e8f0"/>
<line x1="100" y1="505.0" x2="725.0" y2="505.0" stroke="#e2e8f0"/>
<text x="100.0" y="529.0" text-anchor="middle" font-size="16" fill="#64748b">0</text>
<text x="90.0" y="510.0" text-anchor="end" font-size="16" fill="#64748b">0</text>
<line x1="256.3" y1="65" x2="256.3" y2="505.0" stroke="#e2e8f0"/>
<line x1="100" y1="395.0" x2="725.0" y2="395.0" stroke="#e2e8f0"/>
<text x="256.3" y="529.0" text-anchor="middle" font-size="16" fill="#64748b">25</text>
<text x="90.0" y="400.0" text-anchor="end" font-size="16" fill="#64748b">25</text>
<line x1="412.5" y1="65" x2="412.5" y2="505.0" stroke="#e2e8f0"/>
<line x1="100" y1="285.0" x2="725.0" y2="285.0" stroke="#e2e8f0"/>
<text x="412.5" y="529.0" text-anchor="middle" font-size="16" fill="#64748b">50</text>
<text x="90.0" y="290.0" text-anchor="end" font-size="16" fill="#64748b">50</text>
<line x1="568.8" y1="65" x2="568.8" y2="505.0" stroke="#e2e8f0"/>
<line x1="100" y1="175.0" x2="725.0" y2="175.0" stroke="#e2e8f0"/>
<text x="568.8" y="529.0" text-anchor="middle" font-size="16" fill="#64748b">75</text>
<text x="90.0" y="180.0" text-anchor="end" font-size="16" fill="#64748b">75</text>
<line x1="725.0" y1="65" x2="725.0" y2="505.0" stroke="#e2e8f0"/>
<line x1="100" y1="65.0" x2="725.0" y2="65.0" stroke="#e2e8f0"/>
<text x="725.0" y="529.0" text-anchor="middle" font-size="16" fill="#64748b">100</text>
<text x="90.0" y="70.0" text-anchor="end" font-size="16" fill="#64748b">100</text>
<line x1="100" y1="505" x2="725" y2="505" stroke="#cbd5e1"/>
<line x1="100" y1="65" x2="100" y2="505" stroke="#cbd5e1"/>
<line x1="100" y1="505" x2="725" y2="65" stroke="#94a3b8" stroke-dasharray="5 5"/>
<circle cx="367.9" cy="316.4" r="3" fill="#2563eb" opacity="0.48"/>
<circle cx="546.4" cy="127.9" r="3" fill="#2563eb" opacity="0.48"/>
<circle cx="412.5" cy="175.0" r="3" fill="#2563eb" opacity="0.48"/>
<circle cx="410.7" cy="176.6" r="3" fill="#2563eb" opacity="0.48"/>
<circle cx="412.8" cy="171.6" r="3" fill="#2563eb" opacity="0.48"/>
<circle cx="415.0" cy="178.3" r="3" fill="#2563eb" opacity="0.48"/>
<circle cx="407.8" cy="174.2" r="3" fill="#2563eb" opacity="0.48"/>
<circle cx="417.0" cy="172.1" r="3" fill="#2563eb" opacity="0.48"/>
<circle cx="411.0" cy="180.7" r="3" fill="#2563eb" opacity="0.48"/>
<circle cx="409.6" cy="169.4" r="3" fill="#2563eb" opacity="0.48"/>
<circle cx="418.9" cy="177.3" r="3" fill="#2563eb" opacity="0.48"/>
<circle cx="405.8" cy="177.7" r="3" fill="#2563eb" opacity="0.48"/>
<circle cx="415.7" cy="168.1" r="3" fill="#2563eb" opacity="0.48"/>
<circle cx="414.9" cy="182.6" r="3" fill="#2563eb" opacity="0.48"/>
<circle cx="405.3" cy="170.8" r="3" fill="#2563eb" opacity="0.48"/>
<circle cx="421.0" cy="173.1" r="3" fill="#2563eb" opacity="0.48"/>
<circle cx="407.3" cy="182.3" r="3" fill="#2563eb" opacity="0.48"/>
<circle cx="411.3" cy="165.8" r="3" fill="#2563eb" opacity="0.48"/>
<circle cx="419.8" cy="181.2" r="3" fill="#2563eb" opacity="0.48"/>
<circle cx="402.6" cy="175.4" r="3" fill="#2563eb" opacity="0.48"/>
<circle cx="419.7" cy="167.8" r="3" fill="#2563eb" opacity="0.48"/>
<circle cx="412.0" cy="185.5" r="3" fill="#2563eb" opacity="0.48"/>
<circle cx="405.6" cy="166.8" r="3" fill="#2563eb" opacity="0.48"/>
<circle cx="423.4" cy="176.5" r="3" fill="#2563eb" opacity="0.48"/>
<circle cx="403.3" cy="181.4" r="3" fill="#2563eb" opacity="0.48"/>
<circle cx="415.0" cy="163.8" r="3" fill="#2563eb" opacity="0.48"/>
<circle cx="418.3" cy="185.2" r="3" fill="#2563eb" opacity="0.48"/>
<circle cx="401.1" cy="171.4" r="3" fill="#2563eb" opacity="0.48"/>
<circle cx="423.6" cy="169.9" r="3" fill="#2563eb" opacity="0.48"/>
<circle cx="407.7" cy="186.5" r="3" fill="#2563eb" opacity="0.48"/>
<circle cx="408.2" cy="163.0" r="3" fill="#2563eb" opacity="0.48"/>
<circle cx="350.0" cy="241.0" r="3" fill="#2563eb" opacity="0.48"/>
<circle cx="348.2" cy="242.6" r="3" fill="#2563eb" opacity="0.48"/>
<circle cx="350.3" cy="237.6" r="3" fill="#2563eb" opacity="0.48"/>
<circle cx="352.5" cy="244.3" r="3" fill="#2563eb" opacity="0.48"/>
<circle cx="475.0" cy="153.0" r="3" fill="#2563eb" opacity="0.48"/>
<circle cx="473.2" cy="154.6" r="3" fill="#2563eb" opacity="0.48"/>
<circle cx="475.3" cy="149.6" r="3" fill="#2563eb" opacity="0.48"/>
<circle cx="477.5" cy="156.3" r="3" fill="#2563eb" opacity="0.48"/>
<circle cx="470.3" cy="152.2" r="3" fill="#2563eb" opacity="0.48"/>
<circle cx="475.0" cy="241.0" r="3" fill="#2563eb" opacity="0.48"/>
<circle cx="350.0" cy="417.0" r="3" fill="#2563eb" opacity="0.48"/>
<circle cx="350.0" cy="329.0" r="3" fill="#2563eb" opacity="0.48"/>
<circle cx="348.2" cy="330.6" r="3" fill="#2563eb" opacity="0.48"/>
<circle cx="412.5" cy="285.0" r="3" fill="#2563eb" opacity="0.48"/>
<circle cx="410.7" cy="286.6" r="3" fill="#2563eb" opacity="0.48"/>
<circle cx="412.8" cy="281.6" r="3" fill="#2563eb" opacity="0.48"/>
<circle cx="415.0" cy="288.3" r="3" fill="#2563eb" opacity="0.48"/>
<circle cx="407.8" cy="284.2" r="3" fill="#2563eb" opacity="0.48"/>
<circle cx="417.0" cy="282.1" r="3" fill="#2563eb" opacity="0.48"/>
<circle cx="411.0" cy="290.7" r="3" fill="#2563eb" opacity="0.48"/>
<circle cx="409.6" cy="279.4" r="3" fill="#2563eb" opacity="0.48"/>
<circle cx="418.9" cy="287.3" r="3" fill="#2563eb" opacity="0.48"/>
<circle cx="405.8" cy="287.7" r="3" fill="#2563eb" opacity="0.48"/>
<circle cx="415.7" cy="278.1" r="3" fill="#2563eb" opacity="0.48"/>
<circle cx="414.9" cy="292.6" r="3" fill="#2563eb" opacity="0.48"/>
<circle cx="405.3" cy="280.8" r="3" fill="#2563eb" opacity="0.48"/>
<circle cx="421.0" cy="283.1" r="3" fill="#2563eb" opacity="0.48"/>
<circle cx="407.3" cy="292.3" r="3" fill="#2563eb" opacity="0.48"/>
<circle cx="411.3" cy="275.8" r="3" fill="#2563eb" opacity="0.48"/>
<circle cx="419.8" cy="291.2" r="3" fill="#2563eb" opacity="0.48"/>
<circle cx="402.6" cy="285.4" r="3" fill="#2563eb" opacity="0.48"/>
<circle cx="419.7" cy="277.8" r="3" fill="#2563eb" opacity="0.48"/>
<circle cx="412.0" cy="295.5" r="3" fill="#2563eb" opacity="0.48"/>
<circle cx="405.6" cy="276.8" r="3" fill="#2563eb" opacity="0.48"/>
<circle cx="423.4" cy="286.5" r="3" fill="#2563eb" opacity="0.48"/>
<circle cx="403.3" cy="291.4" r="3" fill="#2563eb" opacity="0.48"/>
<circle cx="415.0" cy="273.8" r="3" fill="#2563eb" opacity="0.48"/>
<circle cx="418.3" cy="295.2" r="3" fill="#2563eb" opacity="0.48"/>
<circle cx="401.1" cy="281.4" r="3" fill="#2563eb" opacity="0.48"/>
<circle cx="423.6" cy="279.9" r="3" fill="#2563eb" opacity="0.48"/>
<circle cx="407.7" cy="296.5" r="3" fill="#2563eb" opacity="0.48"/>
<circle cx="408.2" cy="273.0" r="3" fill="#2563eb" opacity="0.48"/>
<circle cx="423.9" cy="291.0" r="3" fill="#2563eb" opacity="0.48"/>
<circle cx="399.8" cy="288.4" r="3" fill="#2563eb" opacity="0.48"/>
<circle cx="419.7" cy="273.8" r="3" fill="#2563eb" opacity="0.48"/>
<circle cx="414.8" cy="298.4" r="3" fill="#2563eb" opacity="0.48"/>
<circle cx="401.6" cy="276.6" r="3" fill="#2563eb" opacity="0.48"/>
<circle cx="426.4" cy="283.8" r="3" fill="#2563eb" opacity="0.48"/>
<circle cx="402.9" cy="295.4" r="3" fill="#2563eb" opacity="0.48"/>
<circle cx="412.6" cy="270.6" r="3" fill="#2563eb" opacity="0.48"/>
<circle cx="422.3" cy="295.8" r="3" fill="#2563eb" opacity="0.48"/>
<circle cx="397.8" cy="283.6" r="3" fill="#2563eb" opacity="0.48"/>
<circle cx="424.4" cy="275.9" r="3" fill="#2563eb" opacity="0.48"/>
<circle cx="409.8" cy="299.9" r="3" fill="#2563eb" opacity="0.48"/>
<circle cx="404.3" cy="272.0" r="3" fill="#2563eb" opacity="0.48"/>
<circle cx="427.5" cy="289.1" r="3" fill="#2563eb" opacity="0.48"/>
<circle cx="398.5" cy="292.2" r="3" fill="#2563eb" opacity="0.48"/>
<circle cx="418.0" cy="270.1" r="3" fill="#2563eb" opacity="0.48"/>
<circle cx="418.6" cy="299.9" r="3" fill="#2563eb" opacity="0.48"/>
<circle cx="397.8" cy="278.0" r="3" fill="#2563eb" opacity="0.48"/>
<circle cx="428.2" cy="280.2" r="3" fill="#2563eb" opacity="0.48"/>
<circle cx="404.1" cy="299.3" r="3" fill="#2563eb" opacity="0.48"/>
<circle cx="409.0" cy="268.6" r="3" fill="#2563eb" opacity="0.48"/>
<circle cx="426.3" cy="294.8" r="3" fill="#2563eb" opacity="0.48"/>
<circle cx="395.5" cy="287.1" r="3" fill="#2563eb" opacity="0.48"/>
<circle cx="423.7" cy="271.8" r="3" fill="#2563eb" opacity="0.48"/>
<circle cx="413.1" cy="302.5" r="3" fill="#2563eb" opacity="0.48"/>
<circle cx="400.1" cy="272.4" r="3" fill="#2563eb" opacity="0.48"/>
<circle cx="430.3" cy="285.9" r="3" fill="#2563eb" opacity="0.48"/>
<circle cx="398.7" cy="296.4" r="3" fill="#2563eb" opacity="0.48"/>
<circle cx="415.0" cy="267.1" r="3" fill="#2563eb" opacity="0.48"/>
<circle cx="422.9" cy="300.1" r="3" fill="#2563eb" opacity="0.48"/>
<circle cx="394.5" cy="280.9" r="3" fill="#2563eb" opacity="0.48"/>
<circle cx="428.7" cy="275.8" r="3" fill="#2563eb" opacity="0.48"/>
<circle cx="406.7" cy="302.8" r="3" fill="#2563eb" opacity="0.48"/>
<circle cx="404.7" cy="267.8" r="3" fill="#2563eb" opacity="0.48"/>
<circle cx="430.0" cy="292.4" r="3" fill="#2563eb" opacity="0.48"/>
<circle cx="394.4" cy="291.4" r="3" fill="#2563eb" opacity="0.48"/>
<circle cx="516.7" cy="358.3" r="3" fill="#2563eb" opacity="0.48"/>
<circle cx="516.7" cy="260.6" r="3" fill="#2563eb" opacity="0.48"/>
<circle cx="514.9" cy="262.2" r="3" fill="#2563eb" opacity="0.48"/>
<circle cx="516.7" cy="211.7" r="3" fill="#2563eb" opacity="0.48"/>
<circle cx="514.9" cy="213.3" r="3" fill="#2563eb" opacity="0.48"/>
<circle cx="517.0" cy="208.3" r="3" fill="#2563eb" opacity="0.48"/>
<circle cx="516.7" cy="407.2" r="3" fill="#2563eb" opacity="0.48"/>
<circle cx="516.7" cy="456.1" r="3" fill="#2563eb" opacity="0.48"/>
<circle cx="514.9" cy="457.7" r="3" fill="#2563eb" opacity="0.48"/>
<circle cx="447.2" cy="69.0" r="3" fill="#2563eb" opacity="0.48"/>
<circle cx="516.7" cy="69.0" r="3" fill="#2563eb" opacity="0.48"/>
<circle cx="514.9" cy="69.0" r="3" fill="#2563eb" opacity="0.48"/>
<circle cx="517.0" cy="69.0" r="3" fill="#2563eb" opacity="0.48"/>
<circle cx="516.7" cy="162.8" r="3" fill="#2563eb" opacity="0.48"/>
<circle cx="169.4" cy="407.2" r="3" fill="#2563eb" opacity="0.48"/>
<circle cx="447.2" cy="358.3" r="3" fill="#2563eb" opacity="0.48"/>
<circle cx="447.2" cy="456.1" r="3" fill="#2563eb" opacity="0.48"/>
<circle cx="445.5" cy="457.7" r="3" fill="#2563eb" opacity="0.48"/>
<circle cx="447.5" cy="452.7" r="3" fill="#2563eb" opacity="0.48"/>
<circle cx="516.7" cy="501.0" r="3" fill="#2563eb" opacity="0.48"/>
<circle cx="514.9" cy="501.0" r="3" fill="#2563eb" opacity="0.48"/>
<circle cx="377.8" cy="501.0" r="3" fill="#2563eb" opacity="0.48"/>
<circle cx="376.0" cy="501.0" r="3" fill="#2563eb" opacity="0.48"/>
<circle cx="169.4" cy="69.0" r="3" fill="#2563eb" opacity="0.48"/>
<circle cx="167.7" cy="69.0" r="3" fill="#2563eb" opacity="0.48"/>
<circle cx="169.4" cy="309.4" r="3" fill="#2563eb" opacity="0.48"/>
<circle cx="238.9" cy="358.3" r="3" fill="#2563eb" opacity="0.48"/>
<circle cx="377.8" cy="407.2" r="3" fill="#2563eb" opacity="0.48"/>
<circle cx="377.8" cy="358.3" r="3" fill="#2563eb" opacity="0.48"/>
<circle cx="377.8" cy="113.9" r="3" fill="#2563eb" opacity="0.48"/>
<circle cx="169.4" cy="260.6" r="3" fill="#2563eb" opacity="0.48"/>
<circle cx="447.2" cy="260.6" r="3" fill="#2563eb" opacity="0.48"/>
<circle cx="447.2" cy="162.8" r="3" fill="#2563eb" opacity="0.48"/>
<circle cx="445.5" cy="164.4" r="3" fill="#2563eb" opacity="0.48"/>
<circle cx="308.3" cy="69.0" r="3" fill="#2563eb" opacity="0.48"/>
<circle cx="447.2" cy="211.7" r="3" fill="#2563eb" opacity="0.48"/>
<circle cx="445.5" cy="213.3" r="3" fill="#2563eb" opacity="0.48"/>
<circle cx="447.5" cy="208.3" r="3" fill="#2563eb" opacity="0.48"/>
<circle cx="412.5" cy="69.0" r="3" fill="#2563eb" opacity="0.48"/>
<circle cx="410.7" cy="69.0" r="3" fill="#2563eb" opacity="0.48"/>
<circle cx="412.8" cy="69.0" r="3" fill="#2563eb" opacity="0.48"/>
<circle cx="415.0" cy="69.0" r="3" fill="#2563eb" opacity="0.48"/>
<circle cx="407.8" cy="69.0" r="3" fill="#2563eb" opacity="0.48"/>
<circle cx="417.0" cy="69.0" r="3" fill="#2563eb" opacity="0.48"/>
<circle cx="411.0" cy="70.7" r="3" fill="#2563eb" opacity="0.48"/>
<circle cx="409.6" cy="69.0" r="3" fill="#2563eb" opacity="0.48"/>
<circle cx="418.9" cy="69.0" r="3" fill="#2563eb" opacity="0.48"/>
<circle cx="405.8" cy="69.0" r="3" fill="#2563eb" opacity="0.48"/>
<circle cx="415.7" cy="69.0" r="3" fill="#2563eb" opacity="0.48"/>
<circle cx="414.9" cy="72.6" r="3" fill="#2563eb" opacity="0.48"/>
<circle cx="405.3" cy="69.0" r="3" fill="#2563eb" opacity="0.48"/>
<circle cx="421.0" cy="69.0" r="3" fill="#2563eb" opacity="0.48"/>
<circle cx="407.3" cy="72.3" r="3" fill="#2563eb" opacity="0.48"/>
<circle cx="411.3" cy="69.0" r="3" fill="#2563eb" opacity="0.48"/>
<circle cx="419.8" cy="71.2" r="3" fill="#2563eb" opacity="0.48"/>
<circle cx="402.6" cy="69.0" r="3" fill="#2563eb" opacity="0.48"/>
<circle cx="419.7" cy="69.0" r="3" fill="#2563eb" opacity="0.48"/>
<circle cx="412.0" cy="75.5" r="3" fill="#2563eb" opacity="0.48"/>
<circle cx="405.6" cy="69.0" r="3" fill="#2563eb" opacity="0.48"/>
<circle cx="412.5" cy="395.0" r="3" fill="#2563eb" opacity="0.48"/>
<circle cx="412.5" cy="501.0" r="3" fill="#2563eb" opacity="0.48"/>
<circle cx="104.0" cy="501.0" r="3" fill="#2563eb" opacity="0.48"/>
<circle cx="256.3" cy="175.0" r="3" fill="#2563eb" opacity="0.48"/>
<circle cx="254.5" cy="176.6" r="3" fill="#2563eb" opacity="0.48"/>
<circle cx="256.5" cy="171.6" r="3" fill="#2563eb" opacity="0.48"/>
<circle cx="258.8" cy="178.3" r="3" fill="#2563eb" opacity="0.48"/>
<circle cx="256.3" cy="395.0" r="3" fill="#2563eb" opacity="0.48"/>
<circle cx="254.5" cy="396.6" r="3" fill="#2563eb" opacity="0.48"/>
<circle cx="256.3" cy="285.0" r="3" fill="#2563eb" opacity="0.48"/>
<circle cx="256.3" cy="69.0" r="3" fill="#2563eb" opacity="0.48"/>
<circle cx="254.5" cy="69.0" r="3" fill="#2563eb" opacity="0.48"/>
<circle cx="104.0" cy="69.0" r="3" fill="#2563eb" opacity="0.48"/>
<circle cx="104.0" cy="69.0" r="3" fill="#2563eb" opacity="0.48"/>
<circle cx="104.0" cy="69.0" r="3" fill="#2563eb" opacity="0.48"/>
<circle cx="104.0" cy="175.0" r="3" fill="#2563eb" opacity="0.48"/>
<circle cx="104.0" cy="176.6" r="3" fill="#2563eb" opacity="0.48"/>
<circle cx="104.0" cy="171.6" r="3" fill="#2563eb" opacity="0.48"/>
<text x="412.5" y="165.0" text-anchor="middle" font-size="13" font-weight="700" fill="#0f172a">29</text>
<text x="350.0" y="231.0" text-anchor="middle" font-size="13" font-weight="700" fill="#0f172a">4</text>
<text x="475.0" y="143.0" text-anchor="middle" font-size="13" font-weight="700" fill="#0f172a">5</text>
<text x="350.0" y="319.0" text-anchor="middle" font-size="13" font-weight="700" fill="#0f172a">2</text>
<text x="412.5" y="275.0" text-anchor="middle" font-size="13" font-weight="700" fill="#0f172a">65</text>
<text x="516.7" y="250.6" text-anchor="middle" font-size="13" font-weight="700" fill="#0f172a">2</text>
<text x="516.7" y="201.7" text-anchor="middle" font-size="13" font-weight="700" fill="#0f172a">3</text>
<text x="516.7" y="446.1" text-anchor="middle" font-size="13" font-weight="700" fill="#0f172a">2</text>
<text x="516.7" y="79.0" text-anchor="middle" font-size="13" font-weight="700" fill="#0f172a">3</text>
<text x="447.2" y="446.1" text-anchor="middle" font-size="13" font-weight="700" fill="#0f172a">3</text>
<text x="516.7" y="491.0" text-anchor="middle" font-size="13" font-weight="700" fill="#0f172a">2</text>
<text x="377.8" y="491.0" text-anchor="middle" font-size="13" font-weight="700" fill="#0f172a">2</text>
<text x="169.4" y="79.0" text-anchor="middle" font-size="13" font-weight="700" fill="#0f172a">2</text>
<text x="447.2" y="152.8" text-anchor="middle" font-size="13" font-weight="700" fill="#0f172a">2</text>
<text x="447.2" y="201.7" text-anchor="middle" font-size="13" font-weight="700" fill="#0f172a">3</text>
<text x="412.5" y="79.0" text-anchor="middle" font-size="13" font-weight="700" fill="#0f172a">21</text>
<text x="256.3" y="165.0" text-anchor="middle" font-size="13" font-weight="700" fill="#0f172a">4</text>
<text x="256.3" y="385.0" text-anchor="middle" font-size="13" font-weight="700" fill="#0f172a">2</text>
<text x="256.3" y="79.0" text-anchor="middle" font-size="13" font-weight="700" fill="#0f172a">2</text>
<text x="114.0" y="79.0" text-anchor="middle" font-size="13" font-weight="700" fill="#0f172a">3</text>
<text x="114.0" y="165.0" text-anchor="middle" font-size="13" font-weight="700" fill="#0f172a">3</text>
<text x="725" y="47" text-anchor="end" font-size="15" fill="#64748b">n=186; gleiche Scores leicht versetzt</text>
<text x="412.5" y="574" text-anchor="middle" font-size="26" fill="#475569">Score des direkten Aufrufs (%)</text>
<text x="28" y="285" transform="rotate(-90 28 285)" text-anchor="middle" font-size="26" fill="#475569">Score Workflow (%)</text>
</svg>
