<svg xmlns="http://www.w3.org/2000/svg" width="980" height="560" viewBox="0 0 980 560" role="img" aria-label="Paarweise Differenzen Teil 3/3">
<rect width="100%" height="100%" fill="white"/>
<text x="490" y="34" text-anchor="middle" font-size="26" font-weight="700" fill="#0f172a">Paarweise Differenzen Teil 3/3</text>
<text x="28" y="265" transform="rotate(-90 28 265)" text-anchor="middle" font-size="24" fill="#475569">Workflow - Direkter Aufruf (Prozentpunkte)</text>
<text x="532.5" y="536" text-anchor="middle" font-size="24" fill="#475569">Antwortpaare 201-258 von 258</text>
<line x1="115" y1="421.0" x2="950" y2="421.0" stroke="#94a3b8" stroke-dasharray="4 4"/>
<line x1="115" y1="65" x2="115" y2="465" stroke="#cbd5e1"/>
<line x1="115" y1="465" x2="950" y2="465" stroke="#cbd5e1"/>
<line x1="115" y1="465.0" x2="950" y2="465.0" stroke="#e2e8f0"/>
<text x="105" y="470.0" text-anchor="end" font-size="16" fill="#64748b">-13</text>
<line x1="115" y1="365.0" x2="950" y2="365.0" stroke="#e2e8f0"/>
<text x="105" y="370.0" text-anchor="end" font-size="16" fill="#64748b">17</text>
<line x1="115" y1="265.0" x2="950" y2="265.0" stroke="#e2e8f0"/>
<text x="105" y="270.0" text-anchor="end" font-size="16" fill="#64748b">48</text>
<line x1="115" y1="165.0" x2="950" y2="165.0" stroke="#e2e8f0"/>
<text x="105" y="170.0" text-anchor="end" font-size="16" fill="#64748b">78</text>
<line x1="115" y1="65.0" x2="950" y2="65.0" stroke="#e2e8f0"/>
<text x="105" y="70.0" text-anchor="end" font-size="16" fill="#64748b">108</text>
<rect x="117.0" y="421.0" width="10.4" height="1.0" fill="#15803d" opacity="0.78"/>
<text x="122.2" y="413.0" text-anchor="middle" font-size="16" font-weight="700" fill="#0f172a">0.0</text>
<rect x="131.4" y="338.9" width="10.4" height="82.1" fill="#15803d" opacity="0.78"/>
<text x="136.6" y="330.9" text-anchor="middle" font-size="16" font-weight="700" fill="#0f172a">25.0</text>
<rect x="145.8" y="338.9" width="10.4" height="82.1" fill="#15803d" opacity="0.78"/>
<text x="151.0" y="330.9" text-anchor="middle" font-size="16" font-weight="700" fill="#0f172a">25.0</text>
<rect x="160.2" y="421.0" width="10.4" height="1.0" fill="#15803d" opacity="0.78"/>
<text x="165.4" y="413.0" text-anchor="middle" font-size="16" font-weight="700" fill="#0f172a">0.0</text>
<rect x="174.6" y="338.9" width="10.4" height="82.1" fill="#15803d" opacity="0.78"/>
<text x="179.8" y="330.9" text-anchor="middle" font-size="16" font-weight="700" fill="#0f172a">25.0</text>
<rect x="189.0" y="421.0" width="10.4" height="1.0" fill="#15803d" opacity="0.78"/>
<text x="194.2" y="413.0" text-anchor="middle" font-size="16" font-weight="700" fill="#0f172a">0.0</text>
<rect x="203.4" y="256.8" width="10.4" height="164.2" fill="#15803d" opacity="0.78"/>
<text x="208.6" y="248.8" text-anchor="middle" font-size="16" font-weight="700" fill="#0f172a">50.0</text>
<rect x="217.8" y="256.8" width="10.4" height="164.2" fill="#15803d" opacity="0.78"/>
<text x="223.0" y="248.8" text-anchor="middle" font-size="16" font-weight="700" fill="#0f172a">50.0</text>
<rect x="232.2" y="338.9" width="10.4" height="82.1" fill="#15803d" opacity="0.78"/>
<text x="237.4" y="330.9" text-anchor="middle" font-size="16" font-weight="700" fill="#0f172a">25.0</text>
<rect x="246.6" y="421.0" width="10.4" height="1.0" fill="#15803d" opacity="0.78"/>
<text x="251.8" y="413.0" text-anchor="middle" font-size="16" font-weight="700" fill="#0f172a">0.0</text>
<rect x="261.0" y="421.0" width="10.4" height="1.0" fill="#15803d" opacity="0.78"/>
<text x="266.2" y="413.0" text-anchor="middle" font-size="16" font-weight="700" fill="#0f172a">0.0</text>
<rect x="275.4" y="256.8" width="10.4" height="164.2" fill="#15803d" opacity="0.78"/>
<text x="280.6" y="248.8" text-anchor="middle" font-size="16" font-weight="700" fill="#0f172a">50.0</text>
<rect x="289.8" y="421.0" width="10.4" height="1.0" fill="#15803d" opacity="0.78"/>
<text x="295.0" y="413.0" text-anchor="middle" font-size="16" font-weight="700" fill="#0f172a">0.0</text>
<rect x="304.2" y="338.9" width="10.4" height="82.1" fill="#15803d" opacity="0.78"/>
<text x="309.4" y="330.9" text-anchor="middle" font-size="16" font-weight="700" fill="#0f172a">25.0</text>
<rect x="318.6" y="338.9" width="10.4" height="82.1" fill="#15803d" opacity="0.78"/>
<text x="323.8" y="330.9" text-anchor="middle" font-size="16" font-weight="700" fill="#0f172a">25.0</text>
<rect x="333.0" y="421.0" width="10.4" height="1.0" fill="#15803d" opacity="0.78"/>
<text x="338.1" y="413.0" text-anchor="middle" font-size="16" font-weight="700" fill="#0f172a">0.0</text>
<rect x="347.4" y="256.8" width="10.4" height="164.2" fill="#15803d" opacity="0.78"/>
<text x="352.5" y="248.8" text-anchor="middle" font-size="16" font-weight="700" fill="#0f172a">50.0</text>
<rect x="361.8" y="256.8" width="10.4" height="164.2" fill="#15803d" opacity="0.78"/>
<text x="366.9" y="248.8" text-anchor="middle" font-size="16" font-weight="700" fill="#0f172a">50.0</text>
<rect x="376.2" y="338.9" width="10.4" height="82.1" fill="#15803d" opacity="0.78"/>
<text x="381.3" y="330.9" text-anchor="middle" font-size="16" font-weight="700" fill="#0f172a">25.0</text>
<rect x="390.6" y="338.9" width="10.4" height="82.1" fill="#15803d" opacity="0.78"/>
<text x="395.7" y="330.9" text-anchor="middle" font-size="16" font-weight="700" fill="#0f172a">25.0</text>
<rect x="404.9" y="421.0" width="10.4" height="1.0" fill="#15803d" opacity="0.78"/>
<text x="410.1" y="413.0" text-anchor="middle" font-size="16" font-weight="700" fill="#0f172a">0.0</text>
<rect x="419.3" y="338.9" width="10.4" height="82.1" fill="#15803d" opacity="0.78"/>
<text x="424.5" y="330.9" text-anchor="middle" font-size="16" font-weight="700" fill="#0f172a">25.0</text>
<rect x="433.7" y="174.7" width="10.4" height="246.3" fill="#15803d" opacity="0.78"/>
<text x="438.9" y="166.7" text-anchor="middle" font-size="16" font-weight="700" fill="#0f172a">75.0</text>
<rect x="448.1" y="92.6" width="10.4" height="328.4" fill="#15803d" opacity="0.78"/>
<text x="453.3" y="84.6" text-anchor="middle" font-size="16" font-weight="700" fill="#0f172a">100.0</text>
<rect x="462.5" y="174.7" width="10.4" height="246.3" fill="#15803d" opacity="0.78"/>
<text x="467.7" y="166.7" text-anchor="middle" font-size="16" font-weight="700" fill="#0f172a">75.0</text>
<rect x="476.9" y="174.7" width="10.4" height="246.3" fill="#15803d" opacity="0.78"/>
<text x="482.1" y="166.7" text-anchor="middle" font-size="16" font-weight="700" fill="#0f172a">75.0</text>
<rect x="491.3" y="256.8" width="10.4" height="164.2" fill="#15803d" opacity="0.78"/>
<text x="496.5" y="248.8" text-anchor="middle" font-size="16" font-weight="700" fill="#0f172a">50.0</text>
<rect x="505.7" y="174.7" width="10.4" height="246.3" fill="#15803d" opacity="0.78"/>
<text x="510.9" y="166.7" text-anchor="middle" font-size="16" font-weight="700" fill="#0f172a">75.0</text>
<rect x="520.1" y="421.0" width="10.4" height="1.0" fill="#15803d" opacity="0.78"/>
<text x="525.3" y="413.0" text-anchor="middle" font-size="16" font-weight="700" fill="#0f172a">0.0</text>
<rect x="534.5" y="338.9" width="10.4" height="82.1" fill="#15803d" opacity="0.78"/>
<text x="539.7" y="330.9" text-anchor="middle" font-size="16" font-weight="700" fill="#0f172a">25.0</text>
<rect x="548.9" y="338.9" width="10.4" height="82.1" fill="#15803d" opacity="0.78"/>
<text x="554.1" y="330.9" text-anchor="middle" font-size="16" font-weight="700" fill="#0f172a">25.0</text>
<rect x="563.3" y="421.0" width="10.4" height="1.0" fill="#15803d" opacity="0.78"/>
<text x="568.5" y="413.0" text-anchor="middle" font-size="16" font-weight="700" fill="#0f172a">0.0</text>
<rect x="577.7" y="256.8" width="10.4" height="164.2" fill="#15803d" opacity="0.78"/>
<text x="582.9" y="248.8" text-anchor="middle" font-size="16" font-weight="700" fill="#0f172a">50.0</text>
<rect x="592.1" y="421.0" width="10.4" height="1.0" fill="#15803d" opacity="0.78"/>
<text x="597.3" y="413.0" text-anchor="middle" font-size="16" font-weight="700" fill="#0f172a">0.0</text>
<rect x="606.5" y="256.8" width="10.4" height="164.2" fill="#15803d" opacity="0.78"/>
<text x="611.7" y="248.8" text-anchor="middle" font-size="16" font-weight="700" fill="#0f172a">50.0</text>
<rect x="620.9" y="256.8" width="10.4" height="164.2" fill="#15803d" opacity="0.78"/>
<text x="626.1" y="248.8" text-anchor="middle" font-size="16" font-weight="700" fill="#0f172a">50.0</text>
<rect x="635.3" y="256.8" width="10.4" height="164.2" fill="#15803d" opacity="0.78"/>
<text x="640.5" y="248.8" text-anchor="middle" font-size="16" font-weight="700" fill="#0f172a">50.0</text>
<rect x="649.7" y="338.9" width="10.4" height="82.1" fill="#15803d" opacity="0.78"/>
<text x="654.9" y="330.9" text-anchor="middle" font-size="16" font-weight="700" fill="#0f172a">25.0</text>
<rect x="664.1" y="256.8" width="10.4" height="164.2" fill="#15803d" opacity="0.78"/>
<text x="669.3" y="248.8" text-anchor="middle" font-size="16" font-weight="700" fill="#0f172a">50.0</text>
<rect x="678.5" y="338.9" width="10.4" height="82.1" fill="#15803d" opacity="0.78"/>
<text x="683.7" y="330.9" text-anchor="middle" font-size="16" font-weight="700" fill="#0f172a">25.0</text>
<rect x="692.9" y="256.8" width="10.4" height="164.2" fill="#15803d" opacity="0.78"/>
<text x="698.1" y="248.8" text-anchor="middle" font-size="16" font-weight="700" fill="#0f172a">50.0</text>
<rect x="707.3" y="256.8" width="10.4" height="164.2" fill="#15803d" opacity="0.78"/>
<text x="712.5" y="248.8" text-anchor="middle" font-size="16" font-weight="700" fill="#0f172a">50.0</text>
<rect x="721.7" y="174.7" width="10.4" height="246.3" fill="#15803d" opacity="0.78"/>
<text x="726.9" y="166.7" text-anchor="middle" font-size="16" font-weight="700" fill="#0f172a">75.0</text>
<rect x="736.1" y="174.7" width="10.4" height="246.3" fill="#15803d" opacity="0.78"/>
<text x="741.3" y="166.7" text-anchor="middle" font-size="16" font-weight="700" fill="#0f172a">75.0</text>
<rect x="750.5" y="256.8" width="10.4" height="164.2" fill="#15803d" opacity="0.78"/>
<text x="755.6" y="248.8" text-anchor="middle" font-size="16" font-weight="700" fill="#0f172a">50.0</text>
<rect x="764.9" y="256.8" width="10.4" height="164.2" fill="#15803d" opacity="0.78"/>
<text x="770.0" y="248.8" text-anchor="middle" font-size="16" font-weight="700" fill="#0f172a">50.0</text>
<rect x="779.3" y="256.8" width="10.4" height="164.2" fill="#15803d" opacity="0.78"/>
<text x="784.4" y="248.8" text-anchor="middle" font-size="16" font-weight="700" fill="#0f172a">50.0</text>
<rect x="793.7" y="256.8" width="10.4" height="164.2" fill="#15803d" opacity="0.78"/>
<text x="798.8" y="248.8" text-anchor="middle" font-size="16" font-weight="700" fill="#0f172a">50.0</text>
<rect x="808.0" y="256.8" width="10.4" height="164.2" fill="#15803d" opacity="0.78"/>
<text x="813.2" y="248.8" text-anchor="middle" font-size="16" font-weight="700" fill="#0f172a">50.0</text>
<rect x="822.4" y="338.9" width="10.4" height="82.1" fill="#15803d" opacity="0.78"/>
<text x="827.6" y="330.9" text-anchor="middle" font-size="16" font-weight="700" fill="#0f172a">25.0</text>
<rect x="836.8" y="338.9" width="10.4" height="82.1" fill="#15803d" opacity="0.78"/>
<text x="842.0" y="330.9" text-anchor="middle" font-size="16" font-weight="700" fill="#0f172a">25.0</text>
<rect x="851.2" y="338.9" width="10.4" height="82.1" fill="#15803d" opacity="0.78"/>
<text x="856.4" y="330.9" text-anchor="middle" font-size="16" font-weight="700" fill="#0f172a">25.0</text>
<rect x="865.6" y="421.0" width="10.4" height="1.0" fill="#15803d" opacity="0.78"/>
<text x="870.8" y="413.0" text-anchor="middle" font-size="16" font-weight="700" fill="#0f172a">0.0</text>
<rect x="880.0" y="256.8" width="10.4" height="164.2" fill="#15803d" opacity="0.78"/>
<text x="885.2" y="248.8" text-anchor="middle" font-size="16" font-weight="700" fill="#0f172a">50.0</text>
<rect x="894.4" y="421.0" width="10.4" height="1.0" fill="#15803d" opacity="0.78"/>
<text x="899.6" y="413.0" text-anchor="middle" font-size="16" font-weight="700" fill="#0f172a">0.0</text>
<rect x="908.8" y="256.8" width="10.4" height="164.2" fill="#15803d" opacity="0.78"/>
<text x="914.0" y="248.8" text-anchor="middle" font-size="16" font-weight="700" fill="#0f172a">50.0</text>
<rect x="923.2" y="421.0" width="10.4" height="1.0" fill="#15803d" opacity="0.78"/>
<text x="928.4" y="413.0" text-anchor="middle" font-size="16" font-weight="700" fill="#0f172a">0.0</text>
<rect x="937.6" y="338.9" width="10.4" height="82.1" fill="#15803d" opacity="0.78"/>
<text x="942.8" y="330.9" text-anchor="middle" font-size="16" font-weight="700" fill="#0f172a">25.0</text>

</svg>
