<svg xmlns="http://www.w3.org/2000/svg" width="1951" height="560" viewBox="0 0 1951 560" role="img" aria-label="Paarweise Differenzen">
<rect width="100%" height="100%" fill="white"/>
<text x="975.5" y="34" text-anchor="middle" font-size="26" font-weight="700" fill="#0f172a">Paarweise Differenzen</text>
<text x="28" y="265" transform="rotate(-90 28 265)" text-anchor="middle" font-size="24" fill="#475569">Workflow - Direkter Aufruf (Prozentpunkte)</text>
<text x="1018" y="536" text-anchor="middle" font-size="24" fill="#475569">Antwortpaare, geordnet nach Frage/Run</text>
<line x1="115" y1="314.3" x2="1921" y2="314.3" stroke="#94a3b8" stroke-dasharray="4 4"/>
<line x1="115" y1="65" x2="115" y2="465" stroke="#cbd5e1"/>
<line x1="115" y1="465" x2="1921" y2="465" stroke="#cbd5e1"/>
<line x1="115" y1="465.0" x2="1921" y2="465.0" stroke="#e2e8f0"/>
<text x="105" y="470.0" text-anchor="end" font-size="16" fill="#64748b">-68</text>
<line x1="115" y1="365.0" x2="1921" y2="365.0" stroke="#e2e8f0"/>
<text x="105" y="370.0" text-anchor="end" font-size="16" fill="#64748b">-23</text>
<line x1="115" y1="265.0" x2="1921" y2="265.0" stroke="#e2e8f0"/>
<text x="105" y="270.0" text-anchor="end" font-size="16" fill="#64748b">22</text>
<line x1="115" y1="165.0" x2="1921" y2="165.0" stroke="#e2e8f0"/>
<text x="105" y="170.0" text-anchor="end" font-size="16" fill="#64748b">67</text>
<line x1="115" y1="65.0" x2="1921" y2="65.0" stroke="#e2e8f0"/>
<text x="105" y="70.0" text-anchor="end" font-size="16" fill="#64748b">112</text>
<rect x="116.0" y="314.3" width="5.0" height="44.3" fill="#dc2626" opacity="0.78"/>

<rect x="123.0" y="269.9" width="5.0" height="44.3" fill="#15803d" opacity="0.78"/>

<rect x="130.0" y="269.9" width="5.0" height="44.3" fill="#15803d" opacity="0.78"/>

<rect x="137.0" y="314.3" width="5.0" height="88.7" fill="#dc2626" opacity="0.78"/>

<rect x="144.0" y="136.9" width="5.0" height="177.3" fill="#15803d" opacity="0.78"/>

<rect x="151.0" y="314.3" width="5.0" height="1.0" fill="#15803d" opacity="0.78"/>

<rect x="158.0" y="225.6" width="5.0" height="88.7" fill="#15803d" opacity="0.78"/>

<rect x="165.0" y="314.3" width="5.0" height="44.3" fill="#dc2626" opacity="0.78"/>

<rect x="172.0" y="314.3" width="5.0" height="1.0" fill="#15803d" opacity="0.78"/>

<rect x="179.0" y="269.9" width="5.0" height="44.3" fill="#15803d" opacity="0.78"/>

<rect x="186.0" y="314.3" width="5.0" height="44.3" fill="#dc2626" opacity="0.78"/>

<rect x="193.0" y="314.3" width="5.0" height="1.0" fill="#15803d" opacity="0.78"/>

<rect x="200.0" y="314.3" width="5.0" height="1.0" fill="#15803d" opacity="0.78"/>

<rect x="207.0" y="225.6" width="5.0" height="88.7" fill="#15803d" opacity="0.78"/>

<rect x="214.0" y="225.6" width="5.0" height="88.7" fill="#15803d" opacity="0.78"/>

<rect x="221.0" y="314.3" width="5.0" height="1.0" fill="#15803d" opacity="0.78"/>

<rect x="228.0" y="314.3" width="5.0" height="1.0" fill="#15803d" opacity="0.78"/>

<rect x="235.0" y="314.3" width="5.0" height="1.0" fill="#15803d" opacity="0.78"/>

<rect x="242.0" y="136.9" width="5.0" height="177.3" fill="#15803d" opacity="0.78"/>

<rect x="249.0" y="314.3" width="5.0" height="1.0" fill="#15803d" opacity="0.78"/>

<rect x="256.0" y="314.3" width="5.0" height="44.3" fill="#dc2626" opacity="0.78"/>

<rect x="263.0" y="314.3" width="5.0" height="1.0" fill="#15803d" opacity="0.78"/>

<rect x="270.0" y="314.3" width="5.0" height="1.0" fill="#15803d" opacity="0.78"/>

<rect x="277.0" y="314.3" width="5.0" height="1.0" fill="#15803d" opacity="0.78"/>

<rect x="284.0" y="225.6" width="5.0" height="88.7" fill="#15803d" opacity="0.78"/>

<rect x="291.0" y="314.3" width="5.0" height="1.0" fill="#15803d" opacity="0.78"/>

<rect x="298.0" y="269.9" width="5.0" height="44.3" fill="#15803d" opacity="0.78"/>

<rect x="305.0" y="314.3" width="5.0" height="88.7" fill="#dc2626" opacity="0.78"/>

<rect x="312.0" y="136.9" width="5.0" height="177.3" fill="#15803d" opacity="0.78"/>

<rect x="319.0" y="225.6" width="5.0" height="88.7" fill="#15803d" opacity="0.78"/>

<rect x="326.0" y="314.3" width="5.0" height="1.0" fill="#15803d" opacity="0.78"/>

<rect x="333.0" y="136.9" width="5.0" height="177.3" fill="#15803d" opacity="0.78"/>

<rect x="340.0" y="269.9" width="5.0" height="44.3" fill="#15803d" opacity="0.78"/>

<rect x="347.0" y="314.3" width="5.0" height="1.0" fill="#15803d" opacity="0.78"/>

<rect x="354.0" y="314.3" width="5.0" height="1.0" fill="#15803d" opacity="0.78"/>

<rect x="361.0" y="148.0" width="5.0" height="166.3" fill="#15803d" opacity="0.78"/>

<rect x="368.0" y="314.3" width="5.0" height="1.0" fill="#15803d" opacity="0.78"/>

<rect x="375.0" y="203.4" width="5.0" height="110.8" fill="#15803d" opacity="0.78"/>

<rect x="382.0" y="203.4" width="5.0" height="110.8" fill="#15803d" opacity="0.78"/>

<rect x="389.0" y="314.3" width="5.0" height="1.0" fill="#15803d" opacity="0.78"/>

<rect x="396.0" y="314.3" width="5.0" height="1.0" fill="#15803d" opacity="0.78"/>

<rect x="403.0" y="314.3" width="5.0" height="1.0" fill="#15803d" opacity="0.78"/>

<rect x="410.0" y="314.3" width="5.0" height="1.0" fill="#15803d" opacity="0.78"/>

<rect x="417.0" y="314.3" width="5.0" height="1.0" fill="#15803d" opacity="0.78"/>

<rect x="424.0" y="314.3" width="5.0" height="1.0" fill="#15803d" opacity="0.78"/>

<rect x="431.0" y="314.3" width="5.0" height="1.0" fill="#15803d" opacity="0.78"/>

<rect x="438.0" y="314.3" width="5.0" height="1.0" fill="#15803d" opacity="0.78"/>

<rect x="445.0" y="314.3" width="5.0" height="1.0" fill="#15803d" opacity="0.78"/>

<rect x="452.0" y="314.3" width="5.0" height="1.0" fill="#15803d" opacity="0.78"/>

<rect x="459.0" y="314.3" width="5.0" height="1.0" fill="#15803d" opacity="0.78"/>

<rect x="466.0" y="314.3" width="5.0" height="1.0" fill="#15803d" opacity="0.78"/>

<rect x="473.0" y="314.3" width="5.0" height="110.8" fill="#dc2626" opacity="0.78"/>

<rect x="480.0" y="258.8" width="5.0" height="55.4" fill="#15803d" opacity="0.78"/>

<rect x="487.0" y="203.4" width="5.0" height="110.8" fill="#15803d" opacity="0.78"/>

<rect x="494.0" y="92.6" width="5.0" height="221.7" fill="#15803d" opacity="0.78"/>

<rect x="501.0" y="92.6" width="5.0" height="221.7" fill="#15803d" opacity="0.78"/>

<rect x="508.0" y="203.4" width="5.0" height="110.8" fill="#15803d" opacity="0.78"/>

<rect x="515.0" y="92.6" width="5.0" height="221.7" fill="#15803d" opacity="0.78"/>

<rect x="522.0" y="203.4" width="5.0" height="110.8" fill="#15803d" opacity="0.78"/>

<rect x="529.0" y="148.0" width="5.0" height="166.3" fill="#15803d" opacity="0.78"/>

<rect x="536.0" y="258.8" width="5.0" height="55.4" fill="#15803d" opacity="0.78"/>

<rect x="543.0" y="258.8" width="5.0" height="55.4" fill="#15803d" opacity="0.78"/>

<rect x="550.0" y="258.8" width="5.0" height="55.4" fill="#15803d" opacity="0.78"/>

<rect x="557.0" y="314.3" width="5.0" height="1.0" fill="#15803d" opacity="0.78"/>

<rect x="564.0" y="258.8" width="5.0" height="55.4" fill="#15803d" opacity="0.78"/>

<rect x="571.0" y="258.8" width="5.0" height="55.4" fill="#15803d" opacity="0.78"/>

<rect x="578.0" y="314.3" width="5.0" height="1.0" fill="#15803d" opacity="0.78"/>

<rect x="585.0" y="314.3" width="5.0" height="1.0" fill="#15803d" opacity="0.78"/>

<rect x="592.0" y="258.8" width="5.0" height="55.4" fill="#15803d" opacity="0.78"/>

<rect x="599.0" y="258.8" width="5.0" height="55.4" fill="#15803d" opacity="0.78"/>

<rect x="606.0" y="314.3" width="5.0" height="1.0" fill="#15803d" opacity="0.78"/>

<rect x="613.0" y="314.3" width="5.0" height="55.4" fill="#dc2626" opacity="0.78"/>

<rect x="620.0" y="314.3" width="5.0" height="1.0" fill="#15803d" opacity="0.78"/>

<rect x="627.0" y="314.3" width="5.0" height="73.9" fill="#dc2626" opacity="0.78"/>

<rect x="634.0" y="314.3" width="5.0" height="98.5" fill="#dc2626" opacity="0.78"/>

<rect x="641.0" y="314.3" width="5.0" height="98.5" fill="#dc2626" opacity="0.78"/>

<rect x="648.0" y="289.6" width="5.0" height="24.6" fill="#15803d" opacity="0.78"/>

<rect x="655.0" y="240.4" width="5.0" height="73.9" fill="#15803d" opacity="0.78"/>

<rect x="662.0" y="265.0" width="5.0" height="49.3" fill="#15803d" opacity="0.78"/>

<rect x="669.0" y="166.5" width="5.0" height="147.8" fill="#15803d" opacity="0.78"/>

<rect x="676.0" y="191.1" width="5.0" height="123.2" fill="#15803d" opacity="0.78"/>

<rect x="683.0" y="314.3" width="5.0" height="123.2" fill="#dc2626" opacity="0.78"/>

<rect x="690.0" y="314.3" width="5.0" height="49.3" fill="#dc2626" opacity="0.78"/>

<rect x="697.0" y="215.7" width="5.0" height="98.5" fill="#15803d" opacity="0.78"/>

<rect x="704.0" y="314.3" width="5.0" height="98.5" fill="#dc2626" opacity="0.78"/>

<rect x="711.0" y="314.3" width="5.0" height="98.5" fill="#dc2626" opacity="0.78"/>

<rect x="718.0" y="314.3" width="5.0" height="1.0" fill="#15803d" opacity="0.78"/>

<rect x="725.0" y="265.0" width="5.0" height="49.3" fill="#15803d" opacity="0.78"/>

<rect x="732.0" y="314.3" width="5.0" height="73.9" fill="#dc2626" opacity="0.78"/>

<rect x="739.0" y="314.3" width="5.0" height="123.2" fill="#dc2626" opacity="0.78"/>

<rect x="746.0" y="314.3" width="5.0" height="98.5" fill="#dc2626" opacity="0.78"/>

<rect x="753.0" y="289.6" width="5.0" height="24.6" fill="#15803d" opacity="0.78"/>

<rect x="760.0" y="289.6" width="5.0" height="24.6" fill="#15803d" opacity="0.78"/>

<rect x="767.0" y="314.3" width="5.0" height="49.3" fill="#dc2626" opacity="0.78"/>

<rect x="774.0" y="314.3" width="5.0" height="123.2" fill="#dc2626" opacity="0.78"/>

<rect x="781.0" y="314.3" width="5.0" height="73.9" fill="#dc2626" opacity="0.78"/>

<rect x="788.0" y="314.3" width="5.0" height="24.6" fill="#dc2626" opacity="0.78"/>

<rect x="795.0" y="314.3" width="5.0" height="24.6" fill="#dc2626" opacity="0.78"/>

<rect x="802.0" y="265.0" width="5.0" height="49.3" fill="#15803d" opacity="0.78"/>

<rect x="809.0" y="240.4" width="5.0" height="73.9" fill="#15803d" opacity="0.78"/>

<rect x="816.0" y="240.4" width="5.0" height="73.9" fill="#15803d" opacity="0.78"/>

<rect x="823.0" y="240.4" width="5.0" height="73.9" fill="#15803d" opacity="0.78"/>

<rect x="830.0" y="265.0" width="5.0" height="49.3" fill="#15803d" opacity="0.78"/>

<rect x="837.0" y="314.3" width="5.0" height="98.5" fill="#dc2626" opacity="0.78"/>

<rect x="844.0" y="314.3" width="5.0" height="24.6" fill="#dc2626" opacity="0.78"/>

<rect x="851.0" y="314.3" width="5.0" height="110.8" fill="#dc2626" opacity="0.78"/>

<rect x="858.0" y="314.3" width="5.0" height="55.4" fill="#dc2626" opacity="0.78"/>

<rect x="865.0" y="258.8" width="5.0" height="55.4" fill="#15803d" opacity="0.78"/>

<rect x="872.0" y="314.3" width="5.0" height="1.0" fill="#15803d" opacity="0.78"/>

<rect x="879.0" y="314.3" width="5.0" height="1.0" fill="#15803d" opacity="0.78"/>

<rect x="886.0" y="258.8" width="5.0" height="55.4" fill="#15803d" opacity="0.78"/>

<rect x="893.0" y="314.3" width="5.0" height="1.0" fill="#15803d" opacity="0.78"/>

<rect x="900.0" y="258.8" width="5.0" height="55.4" fill="#15803d" opacity="0.78"/>

<rect x="907.0" y="92.6" width="5.0" height="221.7" fill="#15803d" opacity="0.78"/>

<rect x="914.0" y="258.8" width="5.0" height="55.4" fill="#15803d" opacity="0.78"/>

<rect x="921.0" y="314.3" width="5.0" height="1.0" fill="#15803d" opacity="0.78"/>

<rect x="928.0" y="314.3" width="5.0" height="1.0" fill="#15803d" opacity="0.78"/>

<rect x="935.0" y="314.3" width="5.0" height="1.0" fill="#15803d" opacity="0.78"/>

<rect x="942.0" y="148.0" width="5.0" height="166.3" fill="#15803d" opacity="0.78"/>

<rect x="949.0" y="314.3" width="5.0" height="1.0" fill="#15803d" opacity="0.78"/>

<rect x="956.0" y="314.3" width="5.0" height="1.0" fill="#15803d" opacity="0.78"/>

<rect x="963.0" y="314.3" width="5.0" height="1.0" fill="#15803d" opacity="0.78"/>

<rect x="970.0" y="314.3" width="5.0" height="1.0" fill="#15803d" opacity="0.78"/>

<rect x="977.0" y="314.3" width="5.0" height="1.0" fill="#15803d" opacity="0.78"/>

<rect x="984.0" y="314.3" width="5.0" height="1.0" fill="#15803d" opacity="0.78"/>

<rect x="991.0" y="314.3" width="5.0" height="1.0" fill="#15803d" opacity="0.78"/>

<rect x="998.0" y="314.3" width="5.0" height="1.0" fill="#15803d" opacity="0.78"/>

<rect x="1005.0" y="314.3" width="5.0" height="1.0" fill="#15803d" opacity="0.78"/>

<rect x="1012.0" y="258.8" width="5.0" height="55.4" fill="#15803d" opacity="0.78"/>

<rect x="1019.0" y="203.4" width="5.0" height="110.8" fill="#15803d" opacity="0.78"/>

<rect x="1026.0" y="314.3" width="5.0" height="1.0" fill="#15803d" opacity="0.78"/>

<rect x="1033.0" y="258.8" width="5.0" height="55.4" fill="#15803d" opacity="0.78"/>

<rect x="1040.0" y="258.8" width="5.0" height="55.4" fill="#15803d" opacity="0.78"/>

<rect x="1047.0" y="203.4" width="5.0" height="110.8" fill="#15803d" opacity="0.78"/>

<rect x="1054.0" y="314.3" width="5.0" height="55.4" fill="#dc2626" opacity="0.78"/>

<rect x="1061.0" y="258.8" width="5.0" height="55.4" fill="#15803d" opacity="0.78"/>

<rect x="1068.0" y="148.0" width="5.0" height="166.3" fill="#15803d" opacity="0.78"/>

<rect x="1075.0" y="314.3" width="5.0" height="1.0" fill="#15803d" opacity="0.78"/>

<rect x="1082.0" y="148.0" width="5.0" height="166.3" fill="#15803d" opacity="0.78"/>

<rect x="1089.0" y="148.0" width="5.0" height="166.3" fill="#15803d" opacity="0.78"/>

<rect x="1096.0" y="258.8" width="5.0" height="55.4" fill="#15803d" opacity="0.78"/>

<rect x="1103.0" y="258.8" width="5.0" height="55.4" fill="#15803d" opacity="0.78"/>

<rect x="1110.0" y="314.3" width="5.0" height="1.0" fill="#15803d" opacity="0.78"/>

<rect x="1117.0" y="258.8" width="5.0" height="55.4" fill="#15803d" opacity="0.78"/>

<rect x="1124.0" y="314.3" width="5.0" height="1.0" fill="#15803d" opacity="0.78"/>

<rect x="1131.0" y="314.3" width="5.0" height="1.0" fill="#15803d" opacity="0.78"/>

<rect x="1138.0" y="203.4" width="5.0" height="110.8" fill="#15803d" opacity="0.78"/>

<rect x="1145.0" y="148.0" width="5.0" height="166.3" fill="#15803d" opacity="0.78"/>

<rect x="1152.0" y="314.3" width="5.0" height="1.0" fill="#15803d" opacity="0.78"/>

<rect x="1159.0" y="314.3" width="5.0" height="1.0" fill="#15803d" opacity="0.78"/>

<rect x="1166.0" y="314.3" width="5.0" height="1.0" fill="#15803d" opacity="0.78"/>

<rect x="1173.0" y="314.3" width="5.0" height="1.0" fill="#15803d" opacity="0.78"/>

<rect x="1180.0" y="314.3" width="5.0" height="1.0" fill="#15803d" opacity="0.78"/>

<rect x="1187.0" y="258.8" width="5.0" height="55.4" fill="#15803d" opacity="0.78"/>

<rect x="1194.0" y="258.8" width="5.0" height="55.4" fill="#15803d" opacity="0.78"/>

<rect x="1201.0" y="203.4" width="5.0" height="110.8" fill="#15803d" opacity="0.78"/>

<rect x="1208.0" y="203.4" width="5.0" height="110.8" fill="#15803d" opacity="0.78"/>

<rect x="1215.0" y="203.4" width="5.0" height="110.8" fill="#15803d" opacity="0.78"/>

<rect x="1222.0" y="148.0" width="5.0" height="166.3" fill="#15803d" opacity="0.78"/>

<rect x="1229.0" y="203.4" width="5.0" height="110.8" fill="#15803d" opacity="0.78"/>

<rect x="1236.0" y="148.0" width="5.0" height="166.3" fill="#15803d" opacity="0.78"/>

<rect x="1243.0" y="258.8" width="5.0" height="55.4" fill="#15803d" opacity="0.78"/>

<rect x="1250.0" y="258.8" width="5.0" height="55.4" fill="#15803d" opacity="0.78"/>

<rect x="1257.0" y="203.4" width="5.0" height="110.8" fill="#15803d" opacity="0.78"/>

<rect x="1264.0" y="203.4" width="5.0" height="110.8" fill="#15803d" opacity="0.78"/>

<rect x="1271.0" y="203.4" width="5.0" height="110.8" fill="#15803d" opacity="0.78"/>

<rect x="1278.0" y="203.4" width="5.0" height="110.8" fill="#15803d" opacity="0.78"/>

<rect x="1285.0" y="314.3" width="5.0" height="1.0" fill="#15803d" opacity="0.78"/>

<rect x="1292.0" y="148.0" width="5.0" height="166.3" fill="#15803d" opacity="0.78"/>

<rect x="1299.0" y="148.0" width="5.0" height="166.3" fill="#15803d" opacity="0.78"/>

<rect x="1306.0" y="148.0" width="5.0" height="166.3" fill="#15803d" opacity="0.78"/>

<rect x="1313.0" y="148.0" width="5.0" height="166.3" fill="#15803d" opacity="0.78"/>

<rect x="1320.0" y="148.0" width="5.0" height="166.3" fill="#15803d" opacity="0.78"/>

<rect x="1327.0" y="203.4" width="5.0" height="110.8" fill="#15803d" opacity="0.78"/>

<rect x="1334.0" y="203.4" width="5.0" height="110.8" fill="#15803d" opacity="0.78"/>

<rect x="1341.0" y="314.3" width="5.0" height="1.0" fill="#15803d" opacity="0.78"/>

<rect x="1348.0" y="203.4" width="5.0" height="110.8" fill="#15803d" opacity="0.78"/>

<rect x="1355.0" y="258.8" width="5.0" height="55.4" fill="#15803d" opacity="0.78"/>

<rect x="1362.0" y="314.3" width="5.0" height="1.0" fill="#15803d" opacity="0.78"/>

<rect x="1369.0" y="314.3" width="5.0" height="1.0" fill="#15803d" opacity="0.78"/>

<rect x="1376.0" y="314.3" width="5.0" height="1.0" fill="#15803d" opacity="0.78"/>

<rect x="1383.0" y="314.3" width="5.0" height="1.0" fill="#15803d" opacity="0.78"/>

<rect x="1390.0" y="314.3" width="5.0" height="1.0" fill="#15803d" opacity="0.78"/>

<rect x="1397.0" y="314.3" width="5.0" height="1.0" fill="#15803d" opacity="0.78"/>

<rect x="1404.0" y="314.3" width="5.0" height="1.0" fill="#15803d" opacity="0.78"/>

<rect x="1411.0" y="314.3" width="5.0" height="1.0" fill="#15803d" opacity="0.78"/>

<rect x="1418.0" y="314.3" width="5.0" height="1.0" fill="#15803d" opacity="0.78"/>

<rect x="1425.0" y="314.3" width="5.0" height="1.0" fill="#15803d" opacity="0.78"/>

<rect x="1432.0" y="314.3" width="5.0" height="1.0" fill="#15803d" opacity="0.78"/>

<rect x="1439.0" y="92.6" width="5.0" height="221.7" fill="#15803d" opacity="0.78"/>

<rect x="1446.0" y="203.4" width="5.0" height="110.8" fill="#15803d" opacity="0.78"/>

<rect x="1453.0" y="314.3" width="5.0" height="1.0" fill="#15803d" opacity="0.78"/>

<rect x="1460.0" y="314.3" width="5.0" height="55.4" fill="#dc2626" opacity="0.78"/>

<rect x="1467.0" y="314.3" width="5.0" height="1.0" fill="#15803d" opacity="0.78"/>

<rect x="1474.0" y="314.3" width="5.0" height="1.0" fill="#15803d" opacity="0.78"/>

<rect x="1481.0" y="314.3" width="5.0" height="1.0" fill="#15803d" opacity="0.78"/>

<rect x="1488.0" y="314.3" width="5.0" height="1.0" fill="#15803d" opacity="0.78"/>

<rect x="1495.0" y="314.3" width="5.0" height="55.4" fill="#dc2626" opacity="0.78"/>

<rect x="1502.0" y="314.3" width="5.0" height="1.0" fill="#15803d" opacity="0.78"/>

<rect x="1509.0" y="314.3" width="5.0" height="55.4" fill="#dc2626" opacity="0.78"/>

<rect x="1516.0" y="314.3" width="5.0" height="1.0" fill="#15803d" opacity="0.78"/>

<rect x="1523.0" y="258.8" width="5.0" height="55.4" fill="#15803d" opacity="0.78"/>

<rect x="1530.0" y="258.8" width="5.0" height="55.4" fill="#15803d" opacity="0.78"/>

<rect x="1537.0" y="314.3" width="5.0" height="1.0" fill="#15803d" opacity="0.78"/>

<rect x="1544.0" y="258.8" width="5.0" height="55.4" fill="#15803d" opacity="0.78"/>

<rect x="1551.0" y="314.3" width="5.0" height="1.0" fill="#15803d" opacity="0.78"/>

<rect x="1558.0" y="203.4" width="5.0" height="110.8" fill="#15803d" opacity="0.78"/>

<rect x="1565.0" y="203.4" width="5.0" height="110.8" fill="#15803d" opacity="0.78"/>

<rect x="1572.0" y="258.8" width="5.0" height="55.4" fill="#15803d" opacity="0.78"/>

<rect x="1579.0" y="314.3" width="5.0" height="1.0" fill="#15803d" opacity="0.78"/>

<rect x="1586.0" y="314.3" width="5.0" height="1.0" fill="#15803d" opacity="0.78"/>

<rect x="1593.0" y="203.4" width="5.0" height="110.8" fill="#15803d" opacity="0.78"/>

<rect x="1600.0" y="314.3" width="5.0" height="1.0" fill="#15803d" opacity="0.78"/>

<rect x="1607.0" y="258.8" width="5.0" height="55.4" fill="#15803d" opacity="0.78"/>

<rect x="1614.0" y="258.8" width="5.0" height="55.4" fill="#15803d" opacity="0.78"/>

<rect x="1621.0" y="314.3" width="5.0" height="1.0" fill="#15803d" opacity="0.78"/>

<rect x="1628.0" y="203.4" width="5.0" height="110.8" fill="#15803d" opacity="0.78"/>

<rect x="1635.0" y="203.4" width="5.0" height="110.8" fill="#15803d" opacity="0.78"/>

<rect x="1642.0" y="258.8" width="5.0" height="55.4" fill="#15803d" opacity="0.78"/>

<rect x="1649.0" y="258.8" width="5.0" height="55.4" fill="#15803d" opacity="0.78"/>

<rect x="1656.0" y="314.3" width="5.0" height="1.0" fill="#15803d" opacity="0.78"/>

<rect x="1663.0" y="258.8" width="5.0" height="55.4" fill="#15803d" opacity="0.78"/>

<rect x="1670.0" y="148.0" width="5.0" height="166.3" fill="#15803d" opacity="0.78"/>

<rect x="1677.0" y="92.6" width="5.0" height="221.7" fill="#15803d" opacity="0.78"/>

<rect x="1684.0" y="148.0" width="5.0" height="166.3" fill="#15803d" opacity="0.78"/>

<rect x="1691.0" y="148.0" width="5.0" height="166.3" fill="#15803d" opacity="0.78"/>

<rect x="1698.0" y="203.4" width="5.0" height="110.8" fill="#15803d" opacity="0.78"/>

<rect x="1705.0" y="148.0" width="5.0" height="166.3" fill="#15803d" opacity="0.78"/>

<rect x="1712.0" y="314.3" width="5.0" height="1.0" fill="#15803d" opacity="0.78"/>

<rect x="1719.0" y="258.8" width="5.0" height="55.4" fill="#15803d" opacity="0.78"/>

<rect x="1726.0" y="258.8" width="5.0" height="55.4" fill="#15803d" opacity="0.78"/>

<rect x="1733.0" y="314.3" width="5.0" height="1.0" fill="#15803d" opacity="0.78"/>

<rect x="1740.0" y="203.4" width="5.0" height="110.8" fill="#15803d" opacity="0.78"/>

<rect x="1747.0" y="314.3" width="5.0" height="1.0" fill="#15803d" opacity="0.78"/>

<rect x="1754.0" y="203.4" width="5.0" height="110.8" fill="#15803d" opacity="0.78"/>

<rect x="1761.0" y="203.4" width="5.0" height="110.8" fill="#15803d" opacity="0.78"/>

<rect x="1768.0" y="203.4" width="5.0" height="110.8" fill="#15803d" opacity="0.78"/>

<rect x="1775.0" y="258.8" width="5.0" height="55.4" fill="#15803d" opacity="0.78"/>

<rect x="1782.0" y="203.4" width="5.0" height="110.8" fill="#15803d" opacity="0.78"/>

<rect x="1789.0" y="258.8" width="5.0" height="55.4" fill="#15803d" opacity="0.78"/>

<rect x="1796.0" y="203.4" width="5.0" height="110.8" fill="#15803d" opacity="0.78"/>

<rect x="1803.0" y="203.4" width="5.0" height="110.8" fill="#15803d" opacity="0.78"/>

<rect x="1810.0" y="148.0" width="5.0" height="166.3" fill="#15803d" opacity="0.78"/>

<rect x="1817.0" y="148.0" width="5.0" height="166.3" fill="#15803d" opacity="0.78"/>

<rect x="1824.0" y="203.4" width="5.0" height="110.8" fill="#15803d" opacity="0.78"/>

<rect x="1831.0" y="203.4" width="5.0" height="110.8" fill="#15803d" opacity="0.78"/>

<rect x="1838.0" y="203.4" width="5.0" height="110.8" fill="#15803d" opacity="0.78"/>

<rect x="1845.0" y="203.4" width="5.0" height="110.8" fill="#15803d" opacity="0.78"/>

<rect x="1852.0" y="203.4" width="5.0" height="110.8" fill="#15803d" opacity="0.78"/>

<rect x="1859.0" y="258.8" width="5.0" height="55.4" fill="#15803d" opacity="0.78"/>

<rect x="1866.0" y="258.8" width="5.0" height="55.4" fill="#15803d" opacity="0.78"/>

<rect x="1873.0" y="258.8" width="5.0" height="55.4" fill="#15803d" opacity="0.78"/>

<rect x="1880.0" y="314.3" width="5.0" height="1.0" fill="#15803d" opacity="0.78"/>

<rect x="1887.0" y="203.4" width="5.0" height="110.8" fill="#15803d" opacity="0.78"/>

<rect x="1894.0" y="314.3" width="5.0" height="1.0" fill="#15803d" opacity="0.78"/>

<rect x="1901.0" y="203.4" width="5.0" height="110.8" fill="#15803d" opacity="0.78"/>

<rect x="1908.0" y="314.3" width="5.0" height="1.0" fill="#15803d" opacity="0.78"/>

<rect x="1915.0" y="258.8" width="5.0" height="55.4" fill="#15803d" opacity="0.78"/>


</svg>
