<svg xmlns="http://www.w3.org/2000/svg" width="980" height="560" viewBox="0 0 980 560" role="img" aria-label="Paarweise Differenzen Teil 4/4">
<rect width="100%" height="100%" fill="white"/>
<text x="490" y="34" text-anchor="middle" font-size="26" font-weight="700" fill="#0f172a">Paarweise Differenzen Teil 4/4</text>
<text x="28" y="265" transform="rotate(-90 28 265)" text-anchor="middle" font-size="24" fill="#475569">Workflow - Direkter Aufruf (Prozentpunkte)</text>
<text x="532.5" y="536" text-anchor="middle" font-size="24" fill="#475569">Antwortpaare 301-364 von 364</text>
<line x1="115" y1="207.5" x2="950" y2="207.5" stroke="#94a3b8" stroke-dasharray="4 4"/>
<line x1="115" y1="65" x2="115" y2="465" stroke="#cbd5e1"/>
<line x1="115" y1="465" x2="950" y2="465" stroke="#cbd5e1"/>
<line x1="115" y1="465.0" x2="950" y2="465.0" stroke="#e2e8f0"/>
<text x="105" y="470.0" text-anchor="end" font-size="16" fill="#64748b">-112</text>
<line x1="115" y1="365.0" x2="950" y2="365.0" stroke="#e2e8f0"/>
<text x="105" y="370.0" text-anchor="end" font-size="16" fill="#64748b">-69</text>
<line x1="115" y1="265.0" x2="950" y2="265.0" stroke="#e2e8f0"/>
<text x="105" y="270.0" text-anchor="end" font-size="16" fill="#64748b">-25</text>
<line x1="115" y1="165.0" x2="950" y2="165.0" stroke="#e2e8f0"/>
<text x="105" y="170.0" text-anchor="end" font-size="16" fill="#64748b">19</text>
<line x1="115" y1="65.0" x2="950" y2="65.0" stroke="#e2e8f0"/>
<text x="105" y="70.0" text-anchor="end" font-size="16" fill="#64748b">62</text>
<rect x="116.8" y="207.5" width="9.4" height="1.0" fill="#15803d" opacity="0.78"/>

<rect x="129.9" y="207.5" width="9.4" height="1.0" fill="#15803d" opacity="0.78"/>

<rect x="142.9" y="207.5" width="9.4" height="1.0" fill="#15803d" opacity="0.78"/>

<rect x="156.0" y="150.1" width="9.4" height="57.5" fill="#15803d" opacity="0.78"/>

<rect x="169.0" y="207.5" width="9.4" height="1.0" fill="#15803d" opacity="0.78"/>

<rect x="182.1" y="207.5" width="9.4" height="1.0" fill="#15803d" opacity="0.78"/>

<rect x="195.1" y="207.5" width="9.4" height="1.0" fill="#15803d" opacity="0.78"/>

<rect x="208.2" y="207.5" width="9.4" height="1.0" fill="#15803d" opacity="0.78"/>

<rect x="221.2" y="207.5" width="9.4" height="1.0" fill="#15803d" opacity="0.78"/>

<rect x="234.2" y="207.5" width="9.4" height="1.0" fill="#15803d" opacity="0.78"/>

<rect x="247.3" y="207.5" width="9.4" height="229.9" fill="#dc2626" opacity="0.78"/>

<rect x="260.3" y="207.5" width="9.4" height="114.9" fill="#dc2626" opacity="0.78"/>

<rect x="273.4" y="207.5" width="9.4" height="57.5" fill="#dc2626" opacity="0.78"/>

<rect x="286.4" y="207.5" width="9.4" height="57.5" fill="#dc2626" opacity="0.78"/>

<rect x="299.5" y="207.5" width="9.4" height="114.9" fill="#dc2626" opacity="0.78"/>

<rect x="312.5" y="207.5" width="9.4" height="114.9" fill="#dc2626" opacity="0.78"/>

<rect x="325.6" y="207.5" width="9.4" height="114.9" fill="#dc2626" opacity="0.78"/>

<rect x="338.6" y="150.1" width="9.4" height="57.5" fill="#15803d" opacity="0.78"/>

<rect x="351.7" y="207.5" width="9.4" height="1.0" fill="#15803d" opacity="0.78"/>

<rect x="364.7" y="207.5" width="9.4" height="1.0" fill="#15803d" opacity="0.78"/>

<rect x="377.8" y="207.5" width="9.4" height="1.0" fill="#15803d" opacity="0.78"/>

<rect x="390.8" y="92.6" width="9.4" height="114.9" fill="#15803d" opacity="0.78"/>

<rect x="403.9" y="207.5" width="9.4" height="1.0" fill="#15803d" opacity="0.78"/>

<rect x="416.9" y="150.1" width="9.4" height="57.5" fill="#15803d" opacity="0.78"/>

<rect x="430.0" y="207.5" width="9.4" height="1.0" fill="#15803d" opacity="0.78"/>

<rect x="443.0" y="150.1" width="9.4" height="57.5" fill="#15803d" opacity="0.78"/>

<rect x="456.0" y="207.5" width="9.4" height="1.0" fill="#15803d" opacity="0.78"/>

<rect x="469.1" y="207.5" width="9.4" height="1.0" fill="#15803d" opacity="0.78"/>

<rect x="482.1" y="150.1" width="9.4" height="57.5" fill="#15803d" opacity="0.78"/>

<rect x="495.2" y="207.5" width="9.4" height="1.0" fill="#15803d" opacity="0.78"/>

<rect x="508.2" y="207.5" width="9.4" height="1.0" fill="#15803d" opacity="0.78"/>

<rect x="521.3" y="150.1" width="9.4" height="57.5" fill="#15803d" opacity="0.78"/>

<rect x="534.3" y="150.1" width="9.4" height="57.5" fill="#15803d" opacity="0.78"/>

<rect x="547.4" y="207.5" width="9.4" height="57.5" fill="#dc2626" opacity="0.78"/>

<rect x="560.4" y="92.6" width="9.4" height="114.9" fill="#15803d" opacity="0.78"/>

<rect x="573.5" y="207.5" width="9.4" height="1.0" fill="#15803d" opacity="0.78"/>

<rect x="586.5" y="150.1" width="9.4" height="57.5" fill="#15803d" opacity="0.78"/>

<rect x="599.6" y="207.5" width="9.4" height="114.9" fill="#dc2626" opacity="0.78"/>

<rect x="612.6" y="207.5" width="9.4" height="1.0" fill="#15803d" opacity="0.78"/>

<rect x="625.7" y="150.1" width="9.4" height="57.5" fill="#15803d" opacity="0.78"/>

<rect x="638.7" y="207.5" width="9.4" height="1.0" fill="#15803d" opacity="0.78"/>

<rect x="651.7" y="207.5" width="9.4" height="114.9" fill="#dc2626" opacity="0.78"/>

<rect x="664.8" y="207.5" width="9.4" height="1.0" fill="#15803d" opacity="0.78"/>

<rect x="677.8" y="207.5" width="9.4" height="57.5" fill="#dc2626" opacity="0.78"/>

<rect x="690.9" y="92.6" width="9.4" height="114.9" fill="#15803d" opacity="0.78"/>

<rect x="703.9" y="207.5" width="9.4" height="1.0" fill="#15803d" opacity="0.78"/>

<rect x="717.0" y="150.1" width="9.4" height="57.5" fill="#15803d" opacity="0.78"/>

<rect x="730.0" y="150.1" width="9.4" height="57.5" fill="#15803d" opacity="0.78"/>

<rect x="743.1" y="207.5" width="9.4" height="1.0" fill="#15803d" opacity="0.78"/>

<rect x="756.1" y="207.5" width="9.4" height="1.0" fill="#15803d" opacity="0.78"/>

<rect x="769.2" y="207.5" width="9.4" height="1.0" fill="#15803d" opacity="0.78"/>

<rect x="782.2" y="92.6" width="9.4" height="114.9" fill="#15803d" opacity="0.78"/>

<rect x="795.3" y="150.1" width="9.4" height="57.5" fill="#15803d" opacity="0.78"/>

<rect x="808.3" y="150.1" width="9.4" height="57.5" fill="#15803d" opacity="0.78"/>

<rect x="821.4" y="207.5" width="9.4" height="114.9" fill="#dc2626" opacity="0.78"/>

<rect x="834.4" y="150.1" width="9.4" height="57.5" fill="#15803d" opacity="0.78"/>

<rect x="847.5" y="207.5" width="9.4" height="1.0" fill="#15803d" opacity="0.78"/>

<rect x="860.5" y="150.1" width="9.4" height="57.5" fill="#15803d" opacity="0.78"/>

<rect x="873.5" y="150.1" width="9.4" height="57.5" fill="#15803d" opacity="0.78"/>

<rect x="886.6" y="150.1" width="9.4" height="57.5" fill="#15803d" opacity="0.78"/>

<rect x="899.6" y="207.5" width="9.4" height="1.0" fill="#15803d" opacity="0.78"/>

<rect x="912.7" y="207.5" width="9.4" height="1.0" fill="#15803d" opacity="0.78"/>

<rect x="925.7" y="150.1" width="9.4" height="57.5" fill="#15803d" opacity="0.78"/>

<rect x="938.8" y="207.5" width="9.4" height="57.5" fill="#dc2626" opacity="0.78"/>


</svg>
