<svg xmlns="http://www.w3.org/2000/svg" width="980" height="580" viewBox="0 0 980 580" role="img" aria-label="Verbesserungspotenzial des direkten Aufrufs">
<rect width="100%" height="100%" fill="white"/>
<text x="490" y="34" text-anchor="middle" font-size="26" font-weight="700" fill="#0f172a">Verbesserungspotenzial des direkten Aufrufs</text>
<rect x="420" y="54" width="18" height="18" fill="#dc2626" opacity="0.82"/><text x="445" y="69" font-size="18" fill="#475569">Direkter Aufruf 100</text>
<rect x="590" y="54" width="18" height="18" fill="#f59e0b" opacity="0.82"/><text x="615" y="69" font-size="18" fill="#475569">Direkter Aufruf 75-99</text>
<rect x="770" y="54" width="18" height="18" fill="#16a34a" opacity="0.82"/><text x="795" y="69" font-size="18" fill="#475569">Direkter Aufruf &lt;75</text>
<text x="28" y="246.5" transform="rotate(-90 28 246.5)" text-anchor="middle" font-size="24" fill="#475569">Anzahl Paare</text>
<line x1="115" y1="405" x2="945" y2="405" stroke="#cbd5e1"/>
<line x1="115" y1="88" x2="115" y2="405" stroke="#cbd5e1"/>
<line x1="115" y1="405.0" x2="945" y2="405.0" stroke="#e2e8f0"/>
<text x="105" y="410.0" text-anchor="end" font-size="16" fill="#64748b">0</text>
<line x1="115" y1="325.8" x2="945" y2="325.8" stroke="#e2e8f0"/>
<text x="105" y="330.8" text-anchor="end" font-size="16" fill="#64748b">50</text>
<line x1="115" y1="246.5" x2="945" y2="246.5" stroke="#e2e8f0"/>
<text x="105" y="251.5" text-anchor="end" font-size="16" fill="#64748b">100</text>
<line x1="115" y1="167.3" x2="945" y2="167.3" stroke="#e2e8f0"/>
<text x="105" y="172.3" text-anchor="end" font-size="16" fill="#64748b">150</text>
<line x1="115" y1="88.0" x2="945" y2="88.0" stroke="#e2e8f0"/>
<text x="105" y="93.0" text-anchor="end" font-size="16" fill="#64748b">200</text>
<rect x="136.2" y="233.8" width="49.8" height="171.2" fill="#dc2626" opacity="0.82"/>
<rect x="136.2" y="110.2" width="49.8" height="123.6" fill="#f59e0b" opacity="0.82"/>
<rect x="136.2" y="88.0" width="49.8" height="22.2" fill="#16a34a" opacity="0.82"/>
<text x="161.1" y="81.0" text-anchor="middle" font-size="13" fill="#475569">200</text>
<rect x="228.4" y="397.1" width="49.8" height="7.9" fill="#dc2626" opacity="0.82"/>
<rect x="228.4" y="349.5" width="49.8" height="47.5" fill="#f59e0b" opacity="0.82"/>
<rect x="228.4" y="126.0" width="49.8" height="223.5" fill="#16a34a" opacity="0.82"/>
<text x="253.3" y="119.0" text-anchor="middle" font-size="13" fill="#475569">176</text>
<rect x="320.7" y="384.4" width="49.8" height="20.6" fill="#dc2626" opacity="0.82"/>
<rect x="320.7" y="292.5" width="49.8" height="91.9" fill="#f59e0b" opacity="0.82"/>
<rect x="320.7" y="97.5" width="49.8" height="195.0" fill="#16a34a" opacity="0.82"/>
<text x="345.6" y="90.5" text-anchor="middle" font-size="13" fill="#475569">194</text>
<rect x="412.9" y="357.4" width="49.8" height="47.5" fill="#dc2626" opacity="0.82"/>
<rect x="412.9" y="208.5" width="49.8" height="149.0" fill="#f59e0b" opacity="0.82"/>
<rect x="412.9" y="89.6" width="49.8" height="118.9" fill="#16a34a" opacity="0.82"/>
<text x="437.8" y="82.6" text-anchor="middle" font-size="13" fill="#475569">199</text>
<rect x="505.1" y="219.6" width="49.8" height="185.4" fill="#dc2626" opacity="0.82"/>
<rect x="505.1" y="121.3" width="49.8" height="98.3" fill="#f59e0b" opacity="0.82"/>
<rect x="505.1" y="88.0" width="49.8" height="33.3" fill="#16a34a" opacity="0.82"/>
<text x="530.0" y="81.0" text-anchor="middle" font-size="13" fill="#475569">200</text>
<rect x="597.3" y="300.4" width="49.8" height="104.6" fill="#dc2626" opacity="0.82"/>
<rect x="597.3" y="191.0" width="49.8" height="109.4" fill="#f59e0b" opacity="0.82"/>
<rect x="597.3" y="94.3" width="49.8" height="96.7" fill="#16a34a" opacity="0.82"/>
<text x="622.2" y="87.3" text-anchor="middle" font-size="13" fill="#475569">196</text>
<rect x="689.5" y="157.7" width="49.8" height="247.3" fill="#dc2626" opacity="0.82"/>
<rect x="689.5" y="130.8" width="49.8" height="26.9" fill="#f59e0b" opacity="0.82"/>
<rect x="689.5" y="89.6" width="49.8" height="41.2" fill="#16a34a" opacity="0.82"/>
<text x="714.4" y="82.6" text-anchor="middle" font-size="13" fill="#475569">199</text>
<rect x="781.8" y="321.0" width="49.8" height="84.0" fill="#dc2626" opacity="0.82"/>
<rect x="781.8" y="151.4" width="49.8" height="169.6" fill="#f59e0b" opacity="0.82"/>
<rect x="781.8" y="103.9" width="49.8" height="47.5" fill="#16a34a" opacity="0.82"/>
<text x="806.7" y="96.8" text-anchor="middle" font-size="13" fill="#475569">190</text>
<rect x="874.0" y="153.0" width="49.8" height="252.0" fill="#dc2626" opacity="0.82"/>
<rect x="874.0" y="97.5" width="49.8" height="55.5" fill="#f59e0b" opacity="0.82"/>
<rect x="874.0" y="88.0" width="49.8" height="9.5" fill="#16a34a" opacity="0.82"/>
<text x="898.9" y="81.0" text-anchor="middle" font-size="13" fill="#475569">200</text>
<text x="161.1" y="429.0" transform="rotate(-45 161.1 429.0)" font-size="20" text-anchor="end" fill="#475569">Richtigkeit</text>
<text x="253.3" y="429.0" transform="rotate(-45 253.3 429.0)" font-size="20" text-anchor="end" fill="#475569">Rückfragefähigkeit</text>
<text x="345.6" y="429.0" transform="rotate(-45 345.6 429.0)" font-size="20" text-anchor="end" fill="#475569">Internet- / Quelle...</text>
<text x="437.8" y="429.0" transform="rotate(-45 437.8 429.0)" font-size="20" text-anchor="end" fill="#475569">Prüfung / Verifika...</text>
<text x="530.0" y="429.0" transform="rotate(-45 530.0 429.0)" font-size="20" text-anchor="end" fill="#475569">Unsicherheit offen...</text>
<text x="622.2" y="429.0" transform="rotate(-45 622.2 429.0)" font-size="20" text-anchor="end" fill="#475569">Vollständigkeit ge...</text>
<text x="714.4" y="429.0" transform="rotate(-45 714.4 429.0)" font-size="20" text-anchor="end" fill="#475569">Vollständigkeit ge...</text>
<text x="806.7" y="429.0" transform="rotate(-45 806.7 429.0)" font-size="20" text-anchor="end" fill="#475569">Klarheit / Verstän...</text>
<text x="898.9" y="429.0" transform="rotate(-45 898.9 429.0)" font-size="20" text-anchor="end" fill="#475569">Relevanz</text>
</svg>
