<svg xmlns="http://www.w3.org/2000/svg" width="980" height="560" viewBox="0 0 980 560" role="img" aria-label="Paarweise Differenzen Teil 6/6">
<rect width="100%" height="100%" fill="white"/>
<text x="490" y="34" text-anchor="middle" font-size="26" font-weight="700" fill="#0f172a">Paarweise Differenzen Teil 6/6</text>
<text x="28" y="265" transform="rotate(-90 28 265)" text-anchor="middle" font-size="24" fill="#475569">Workflow - Direkter Aufruf (Prozentpunkte)</text>
<text x="532.5" y="536" text-anchor="middle" font-size="24" fill="#475569">Antwortpaare 501-581 von 581</text>
<line x1="115" y1="265.0" x2="950" y2="265.0" stroke="#94a3b8" stroke-dasharray="4 4"/>
<line x1="115" y1="65" x2="115" y2="465" stroke="#cbd5e1"/>
<line x1="115" y1="465" x2="950" y2="465" stroke="#cbd5e1"/>
<line x1="115" y1="465.0" x2="950" y2="465.0" stroke="#e2e8f0"/>
<text x="105" y="470.0" text-anchor="end" font-size="16" fill="#64748b">-58</text>
<line x1="115" y1="365.0" x2="950" y2="365.0" stroke="#e2e8f0"/>
<text x="105" y="370.0" text-anchor="end" font-size="16" fill="#64748b">-29</text>
<line x1="115" y1="265.0" x2="950" y2="265.0" stroke="#e2e8f0"/>
<text x="105" y="270.0" text-anchor="end" font-size="16" fill="#64748b">0</text>
<line x1="115" y1="165.0" x2="950" y2="165.0" stroke="#e2e8f0"/>
<text x="105" y="170.0" text-anchor="end" font-size="16" fill="#64748b">29</text>
<line x1="115" y1="65.0" x2="950" y2="65.0" stroke="#e2e8f0"/>
<text x="105" y="70.0" text-anchor="end" font-size="16" fill="#64748b">58</text>
<rect x="116.4" y="92.6" width="7.4" height="172.4" fill="#15803d" opacity="0.78"/>

<rect x="126.8" y="178.8" width="7.4" height="86.2" fill="#15803d" opacity="0.78"/>

<rect x="137.1" y="178.8" width="7.4" height="86.2" fill="#15803d" opacity="0.78"/>

<rect x="147.4" y="178.8" width="7.4" height="86.2" fill="#15803d" opacity="0.78"/>

<rect x="157.7" y="265.0" width="7.4" height="172.4" fill="#dc2626" opacity="0.78"/>

<rect x="168.0" y="178.8" width="7.4" height="86.2" fill="#15803d" opacity="0.78"/>

<rect x="178.3" y="265.0" width="7.4" height="1.0" fill="#15803d" opacity="0.78"/>

<rect x="188.6" y="265.0" width="7.4" height="1.0" fill="#15803d" opacity="0.78"/>

<rect x="198.9" y="265.0" width="7.4" height="86.2" fill="#dc2626" opacity="0.78"/>

<rect x="209.2" y="265.0" width="7.4" height="86.2" fill="#dc2626" opacity="0.78"/>

<rect x="219.5" y="265.0" width="7.4" height="1.0" fill="#15803d" opacity="0.78"/>

<rect x="229.8" y="265.0" width="7.4" height="1.0" fill="#15803d" opacity="0.78"/>

<rect x="240.1" y="265.0" width="7.4" height="1.0" fill="#15803d" opacity="0.78"/>

<rect x="250.5" y="265.0" width="7.4" height="1.0" fill="#15803d" opacity="0.78"/>

<rect x="260.8" y="265.0" width="7.4" height="86.2" fill="#dc2626" opacity="0.78"/>

<rect x="271.1" y="265.0" width="7.4" height="1.0" fill="#15803d" opacity="0.78"/>

<rect x="281.4" y="265.0" width="7.4" height="1.0" fill="#15803d" opacity="0.78"/>

<rect x="291.7" y="265.0" width="7.4" height="1.0" fill="#15803d" opacity="0.78"/>

<rect x="302.0" y="92.6" width="7.4" height="172.4" fill="#15803d" opacity="0.78"/>

<rect x="312.3" y="178.8" width="7.4" height="86.2" fill="#15803d" opacity="0.78"/>

<rect x="322.6" y="92.6" width="7.4" height="172.4" fill="#15803d" opacity="0.78"/>

<rect x="332.9" y="178.8" width="7.4" height="86.2" fill="#15803d" opacity="0.78"/>

<rect x="343.2" y="265.0" width="7.4" height="1.0" fill="#15803d" opacity="0.78"/>

<rect x="353.5" y="265.0" width="7.4" height="172.4" fill="#dc2626" opacity="0.78"/>

<rect x="363.9" y="265.0" width="7.4" height="86.2" fill="#dc2626" opacity="0.78"/>

<rect x="374.2" y="265.0" width="7.4" height="86.2" fill="#dc2626" opacity="0.78"/>

<rect x="384.5" y="265.0" width="7.4" height="86.2" fill="#dc2626" opacity="0.78"/>

<rect x="394.8" y="265.0" width="7.4" height="1.0" fill="#15803d" opacity="0.78"/>

<rect x="405.1" y="265.0" width="7.4" height="1.0" fill="#15803d" opacity="0.78"/>

<rect x="415.4" y="178.8" width="7.4" height="86.2" fill="#15803d" opacity="0.78"/>

<rect x="425.7" y="265.0" width="7.4" height="1.0" fill="#15803d" opacity="0.78"/>

<rect x="436.0" y="265.0" width="7.4" height="86.2" fill="#dc2626" opacity="0.78"/>

<rect x="446.3" y="265.0" width="7.4" height="1.0" fill="#15803d" opacity="0.78"/>

<rect x="456.6" y="178.8" width="7.4" height="86.2" fill="#15803d" opacity="0.78"/>

<rect x="466.9" y="265.0" width="7.4" height="1.0" fill="#15803d" opacity="0.78"/>

<rect x="477.2" y="265.0" width="7.4" height="1.0" fill="#15803d" opacity="0.78"/>

<rect x="487.6" y="265.0" width="7.4" height="86.2" fill="#dc2626" opacity="0.78"/>

<rect x="497.9" y="265.0" width="7.4" height="1.0" fill="#15803d" opacity="0.78"/>

<rect x="508.2" y="265.0" width="7.4" height="1.0" fill="#15803d" opacity="0.78"/>

<rect x="518.5" y="265.0" width="7.4" height="1.0" fill="#15803d" opacity="0.78"/>

<rect x="528.8" y="178.8" width="7.4" height="86.2" fill="#15803d" opacity="0.78"/>

<rect x="539.1" y="265.0" width="7.4" height="1.0" fill="#15803d" opacity="0.78"/>

<rect x="549.4" y="265.0" width="7.4" height="1.0" fill="#15803d" opacity="0.78"/>

<rect x="559.7" y="265.0" width="7.4" height="1.0" fill="#15803d" opacity="0.78"/>

<rect x="570.0" y="92.6" width="7.4" height="172.4" fill="#15803d" opacity="0.78"/>

<rect x="580.3" y="265.0" width="7.4" height="1.0" fill="#15803d" opacity="0.78"/>

<rect x="590.6" y="178.8" width="7.4" height="86.2" fill="#15803d" opacity="0.78"/>

<rect x="600.9" y="178.8" width="7.4" height="86.2" fill="#15803d" opacity="0.78"/>

<rect x="611.3" y="265.0" width="7.4" height="1.0" fill="#15803d" opacity="0.78"/>

<rect x="621.6" y="178.8" width="7.4" height="86.2" fill="#15803d" opacity="0.78"/>

<rect x="631.9" y="265.0" width="7.4" height="1.0" fill="#15803d" opacity="0.78"/>

<rect x="642.2" y="265.0" width="7.4" height="1.0" fill="#15803d" opacity="0.78"/>

<rect x="652.5" y="178.8" width="7.4" height="86.2" fill="#15803d" opacity="0.78"/>

<rect x="662.8" y="178.8" width="7.4" height="86.2" fill="#15803d" opacity="0.78"/>

<rect x="673.1" y="265.0" width="7.4" height="86.2" fill="#dc2626" opacity="0.78"/>

<rect x="683.4" y="92.6" width="7.4" height="172.4" fill="#15803d" opacity="0.78"/>

<rect x="693.7" y="265.0" width="7.4" height="1.0" fill="#15803d" opacity="0.78"/>

<rect x="704.0" y="178.8" width="7.4" height="86.2" fill="#15803d" opacity="0.78"/>

<rect x="714.3" y="265.0" width="7.4" height="1.0" fill="#15803d" opacity="0.78"/>

<rect x="724.7" y="178.8" width="7.4" height="86.2" fill="#15803d" opacity="0.78"/>

<rect x="735.0" y="265.0" width="7.4" height="1.0" fill="#15803d" opacity="0.78"/>

<rect x="745.3" y="265.0" width="7.4" height="1.0" fill="#15803d" opacity="0.78"/>

<rect x="755.6" y="265.0" width="7.4" height="86.2" fill="#dc2626" opacity="0.78"/>

<rect x="765.9" y="92.6" width="7.4" height="172.4" fill="#15803d" opacity="0.78"/>

<rect x="776.2" y="178.8" width="7.4" height="86.2" fill="#15803d" opacity="0.78"/>

<rect x="786.5" y="178.8" width="7.4" height="86.2" fill="#15803d" opacity="0.78"/>

<rect x="796.8" y="265.0" width="7.4" height="1.0" fill="#15803d" opacity="0.78"/>

<rect x="807.1" y="265.0" width="7.4" height="1.0" fill="#15803d" opacity="0.78"/>

<rect x="817.4" y="265.0" width="7.4" height="1.0" fill="#15803d" opacity="0.78"/>

<rect x="827.7" y="92.6" width="7.4" height="172.4" fill="#15803d" opacity="0.78"/>

<rect x="838.0" y="178.8" width="7.4" height="86.2" fill="#15803d" opacity="0.78"/>

<rect x="848.4" y="178.8" width="7.4" height="86.2" fill="#15803d" opacity="0.78"/>

<rect x="858.7" y="265.0" width="7.4" height="172.4" fill="#dc2626" opacity="0.78"/>

<rect x="869.0" y="178.8" width="7.4" height="86.2" fill="#15803d" opacity="0.78"/>

<rect x="879.3" y="265.0" width="7.4" height="1.0" fill="#15803d" opacity="0.78"/>

<rect x="889.6" y="178.8" width="7.4" height="86.2" fill="#15803d" opacity="0.78"/>

<rect x="899.9" y="178.8" width="7.4" height="86.2" fill="#15803d" opacity="0.78"/>

<rect x="910.2" y="178.8" width="7.4" height="86.2" fill="#15803d" opacity="0.78"/>

<rect x="920.5" y="265.0" width="7.4" height="1.0" fill="#15803d" opacity="0.78"/>

<rect x="930.8" y="265.0" width="7.4" height="1.0" fill="#15803d" opacity="0.78"/>

<rect x="941.1" y="178.8" width="7.4" height="86.2" fill="#15803d" opacity="0.78"/>


</svg>
