<svg xmlns="http://www.w3.org/2000/svg" width="980" height="560" viewBox="0 0 980 560" role="img" aria-label="Paarweise Differenzen Teil 5/5">
<rect width="100%" height="100%" fill="white"/>
<text x="490" y="34" text-anchor="middle" font-size="26" font-weight="700" fill="#0f172a">Paarweise Differenzen Teil 5/5</text>
<text x="28" y="265" transform="rotate(-90 28 265)" text-anchor="middle" font-size="24" fill="#475569">Workflow - Direkter Aufruf (Prozentpunkte)</text>
<text x="532.5" y="536" text-anchor="middle" font-size="24" fill="#475569">Antwortpaare 401-423 von 423</text>
<line x1="115" y1="322.5" x2="950" y2="322.5" stroke="#94a3b8" stroke-dasharray="4 4"/>
<line x1="115" y1="65" x2="115" y2="465" stroke="#cbd5e1"/>
<line x1="115" y1="465" x2="950" y2="465" stroke="#cbd5e1"/>
<line x1="115" y1="465.0" x2="950" y2="465.0" stroke="#e2e8f0"/>
<text x="105" y="470.0" text-anchor="end" font-size="16" fill="#64748b">-31</text>
<line x1="115" y1="365.0" x2="950" y2="365.0" stroke="#e2e8f0"/>
<text x="105" y="370.0" text-anchor="end" font-size="16" fill="#64748b">-9</text>
<line x1="115" y1="265.0" x2="950" y2="265.0" stroke="#e2e8f0"/>
<text x="105" y="270.0" text-anchor="end" font-size="16" fill="#64748b">13</text>
<line x1="115" y1="165.0" x2="950" y2="165.0" stroke="#e2e8f0"/>
<text x="105" y="170.0" text-anchor="end" font-size="16" fill="#64748b">34</text>
<line x1="115" y1="65.0" x2="950" y2="65.0" stroke="#e2e8f0"/>
<text x="105" y="70.0" text-anchor="end" font-size="16" fill="#64748b">56</text>
<rect x="120.1" y="322.5" width="26.1" height="1.0" fill="#15803d" opacity="0.78"/>
<text x="133.2" y="314.5" text-anchor="middle" font-size="16" font-weight="700" fill="#0f172a">0.0</text>
<rect x="156.4" y="322.5" width="26.1" height="1.0" fill="#15803d" opacity="0.78"/>
<text x="169.5" y="314.5" text-anchor="middle" font-size="16" font-weight="700" fill="#0f172a">0.0</text>
<rect x="192.7" y="322.5" width="26.1" height="1.0" fill="#15803d" opacity="0.78"/>
<text x="205.8" y="314.5" text-anchor="middle" font-size="16" font-weight="700" fill="#0f172a">0.0</text>
<rect x="229.0" y="207.5" width="26.1" height="114.9" fill="#15803d" opacity="0.78"/>
<text x="242.1" y="199.5" text-anchor="middle" font-size="16" font-weight="700" fill="#0f172a">25.0</text>
<rect x="265.3" y="322.5" width="26.1" height="1.0" fill="#15803d" opacity="0.78"/>
<text x="278.4" y="314.5" text-anchor="middle" font-size="16" font-weight="700" fill="#0f172a">0.0</text>
<rect x="301.6" y="92.6" width="26.1" height="229.9" fill="#15803d" opacity="0.78"/>
<text x="314.7" y="84.6" text-anchor="middle" font-size="16" font-weight="700" fill="#0f172a">50.0</text>
<rect x="337.9" y="322.5" width="26.1" height="1.0" fill="#15803d" opacity="0.78"/>
<text x="351.0" y="314.5" text-anchor="middle" font-size="16" font-weight="700" fill="#0f172a">0.0</text>
<rect x="374.2" y="207.5" width="26.1" height="114.9" fill="#15803d" opacity="0.78"/>
<text x="387.3" y="199.5" text-anchor="middle" font-size="16" font-weight="700" fill="#0f172a">25.0</text>
<rect x="410.5" y="322.5" width="26.1" height="1.0" fill="#15803d" opacity="0.78"/>
<text x="423.6" y="314.5" text-anchor="middle" font-size="16" font-weight="700" fill="#0f172a">0.0</text>
<rect x="446.8" y="207.5" width="26.1" height="114.9" fill="#15803d" opacity="0.78"/>
<text x="459.9" y="199.5" text-anchor="middle" font-size="16" font-weight="700" fill="#0f172a">25.0</text>
<rect x="483.1" y="207.5" width="26.1" height="114.9" fill="#15803d" opacity="0.78"/>
<text x="496.2" y="199.5" text-anchor="middle" font-size="16" font-weight="700" fill="#0f172a">25.0</text>
<rect x="519.4" y="92.6" width="26.1" height="229.9" fill="#15803d" opacity="0.78"/>
<text x="532.5" y="84.6" text-anchor="middle" font-size="16" font-weight="700" fill="#0f172a">50.0</text>
<rect x="555.7" y="322.5" width="26.1" height="1.0" fill="#15803d" opacity="0.78"/>
<text x="568.8" y="314.5" text-anchor="middle" font-size="16" font-weight="700" fill="#0f172a">0.0</text>
<rect x="592.0" y="207.5" width="26.1" height="114.9" fill="#15803d" opacity="0.78"/>
<text x="605.1" y="199.5" text-anchor="middle" font-size="16" font-weight="700" fill="#0f172a">25.0</text>
<rect x="628.3" y="322.5" width="26.1" height="114.9" fill="#dc2626" opacity="0.78"/>
<text x="641.4" y="455.4" text-anchor="middle" font-size="16" font-weight="700" fill="#0f172a">-25.0</text>
<rect x="664.6" y="92.6" width="26.1" height="229.9" fill="#15803d" opacity="0.78"/>
<text x="677.7" y="84.6" text-anchor="middle" font-size="16" font-weight="700" fill="#0f172a">50.0</text>
<rect x="701.0" y="92.6" width="26.1" height="229.9" fill="#15803d" opacity="0.78"/>
<text x="714.0" y="84.6" text-anchor="middle" font-size="16" font-weight="700" fill="#0f172a">50.0</text>
<rect x="737.3" y="207.5" width="26.1" height="114.9" fill="#15803d" opacity="0.78"/>
<text x="750.3" y="199.5" text-anchor="middle" font-size="16" font-weight="700" fill="#0f172a">25.0</text>
<rect x="773.6" y="207.5" width="26.1" height="114.9" fill="#15803d" opacity="0.78"/>
<text x="786.6" y="199.5" text-anchor="middle" font-size="16" font-weight="700" fill="#0f172a">25.0</text>
<rect x="809.9" y="322.5" width="26.1" height="1.0" fill="#15803d" opacity="0.78"/>
<text x="822.9" y="314.5" text-anchor="middle" font-size="16" font-weight="700" fill="#0f172a">0.0</text>
<rect x="846.2" y="207.5" width="26.1" height="114.9" fill="#15803d" opacity="0.78"/>
<text x="859.2" y="199.5" text-anchor="middle" font-size="16" font-weight="700" fill="#0f172a">25.0</text>
<rect x="882.5" y="207.5" width="26.1" height="114.9" fill="#15803d" opacity="0.78"/>
<text x="895.5" y="199.5" text-anchor="middle" font-size="16" font-weight="700" fill="#0f172a">25.0</text>
<rect x="918.8" y="207.5" width="26.1" height="114.9" fill="#15803d" opacity="0.78"/>
<text x="931.8" y="199.5" text-anchor="middle" font-size="16" font-weight="700" fill="#0f172a">25.0</text>

</svg>
