<svg xmlns="http://www.w3.org/2000/svg" width="980" height="560" viewBox="0 0 980 560" role="img" aria-label="Paarweise Differenzen Teil 1/5">
<rect width="100%" height="100%" fill="white"/>
<text x="490" y="34" text-anchor="middle" font-size="26" font-weight="700" fill="#0f172a">Paarweise Differenzen Teil 1/5</text>
<text x="28" y="265" transform="rotate(-90 28 265)" text-anchor="middle" font-size="24" fill="#475569">Workflow - Direkter Aufruf (Prozentpunkte)</text>
<text x="532.5" y="536" text-anchor="middle" font-size="24" fill="#475569">Antwortpaare 1-100 von 423</text>
<line x1="115" y1="299.5" x2="950" y2="299.5" stroke="#94a3b8" stroke-dasharray="4 4"/>
<line x1="115" y1="65" x2="115" y2="465" stroke="#cbd5e1"/>
<line x1="115" y1="465" x2="950" y2="465" stroke="#cbd5e1"/>
<line x1="115" y1="465.0" x2="950" y2="465.0" stroke="#e2e8f0"/>
<text x="105" y="470.0" text-anchor="end" font-size="16" fill="#64748b">-60</text>
<line x1="115" y1="365.0" x2="950" y2="365.0" stroke="#e2e8f0"/>
<text x="105" y="370.0" text-anchor="end" font-size="16" fill="#64748b">-24</text>
<line x1="115" y1="265.0" x2="950" y2="265.0" stroke="#e2e8f0"/>
<text x="105" y="270.0" text-anchor="end" font-size="16" fill="#64748b">13</text>
<line x1="115" y1="165.0" x2="950" y2="165.0" stroke="#e2e8f0"/>
<text x="105" y="170.0" text-anchor="end" font-size="16" fill="#64748b">49</text>
<line x1="115" y1="65.0" x2="950" y2="65.0" stroke="#e2e8f0"/>
<text x="105" y="70.0" text-anchor="end" font-size="16" fill="#64748b">85</text>
<rect x="116.2" y="299.5" width="6.0" height="55.2" fill="#dc2626" opacity="0.78"/>

<rect x="124.5" y="299.5" width="6.0" height="1.0" fill="#15803d" opacity="0.78"/>

<rect x="132.9" y="299.5" width="6.0" height="1.0" fill="#15803d" opacity="0.78"/>

<rect x="141.2" y="299.5" width="6.0" height="1.0" fill="#15803d" opacity="0.78"/>

<rect x="149.6" y="299.5" width="6.0" height="1.0" fill="#15803d" opacity="0.78"/>

<rect x="157.9" y="299.5" width="6.0" height="1.0" fill="#15803d" opacity="0.78"/>

<rect x="166.3" y="299.5" width="6.0" height="1.0" fill="#15803d" opacity="0.78"/>

<rect x="174.6" y="230.5" width="6.0" height="69.0" fill="#15803d" opacity="0.78"/>

<rect x="183.0" y="230.5" width="6.0" height="69.0" fill="#15803d" opacity="0.78"/>

<rect x="191.3" y="299.5" width="6.0" height="1.0" fill="#15803d" opacity="0.78"/>

<rect x="199.7" y="299.5" width="6.0" height="1.0" fill="#15803d" opacity="0.78"/>

<rect x="208.0" y="299.5" width="6.0" height="1.0" fill="#15803d" opacity="0.78"/>

<rect x="216.4" y="299.5" width="6.0" height="1.0" fill="#15803d" opacity="0.78"/>

<rect x="224.7" y="299.5" width="6.0" height="1.0" fill="#15803d" opacity="0.78"/>

<rect x="233.1" y="299.5" width="6.0" height="1.0" fill="#15803d" opacity="0.78"/>

<rect x="241.4" y="299.5" width="6.0" height="1.0" fill="#15803d" opacity="0.78"/>

<rect x="249.8" y="299.5" width="6.0" height="1.0" fill="#15803d" opacity="0.78"/>

<rect x="258.1" y="299.5" width="6.0" height="1.0" fill="#15803d" opacity="0.78"/>

<rect x="266.5" y="189.1" width="6.0" height="110.3" fill="#15803d" opacity="0.78"/>

<rect x="274.8" y="299.5" width="6.0" height="1.0" fill="#15803d" opacity="0.78"/>

<rect x="283.2" y="244.3" width="6.0" height="55.2" fill="#15803d" opacity="0.78"/>

<rect x="291.5" y="299.5" width="6.0" height="55.2" fill="#dc2626" opacity="0.78"/>

<rect x="299.9" y="299.5" width="6.0" height="1.0" fill="#15803d" opacity="0.78"/>

<rect x="308.2" y="299.5" width="6.0" height="110.3" fill="#dc2626" opacity="0.78"/>

<rect x="316.6" y="299.5" width="6.0" height="1.0" fill="#15803d" opacity="0.78"/>

<rect x="324.9" y="299.5" width="6.0" height="1.0" fill="#15803d" opacity="0.78"/>

<rect x="333.3" y="189.1" width="6.0" height="110.3" fill="#15803d" opacity="0.78"/>

<rect x="341.6" y="189.1" width="6.0" height="110.3" fill="#15803d" opacity="0.78"/>

<rect x="350.0" y="189.1" width="6.0" height="110.3" fill="#15803d" opacity="0.78"/>

<rect x="358.3" y="299.5" width="6.0" height="1.0" fill="#15803d" opacity="0.78"/>

<rect x="366.7" y="244.3" width="6.0" height="55.2" fill="#15803d" opacity="0.78"/>

<rect x="375.0" y="299.5" width="6.0" height="1.0" fill="#15803d" opacity="0.78"/>

<rect x="383.4" y="299.5" width="6.0" height="1.0" fill="#15803d" opacity="0.78"/>

<rect x="391.7" y="299.5" width="6.0" height="55.2" fill="#dc2626" opacity="0.78"/>

<rect x="400.1" y="134.0" width="6.0" height="165.5" fill="#15803d" opacity="0.78"/>

<rect x="408.4" y="299.5" width="6.0" height="55.2" fill="#dc2626" opacity="0.78"/>

<rect x="416.8" y="244.3" width="6.0" height="55.2" fill="#15803d" opacity="0.78"/>

<rect x="425.1" y="299.5" width="6.0" height="110.3" fill="#dc2626" opacity="0.78"/>

<rect x="433.5" y="299.5" width="6.0" height="55.2" fill="#dc2626" opacity="0.78"/>

<rect x="441.8" y="299.5" width="6.0" height="1.0" fill="#15803d" opacity="0.78"/>

<rect x="450.2" y="299.5" width="6.0" height="55.2" fill="#dc2626" opacity="0.78"/>

<rect x="458.5" y="299.5" width="6.0" height="1.0" fill="#15803d" opacity="0.78"/>

<rect x="466.9" y="299.5" width="6.0" height="1.0" fill="#15803d" opacity="0.78"/>

<rect x="475.2" y="299.5" width="6.0" height="55.2" fill="#dc2626" opacity="0.78"/>

<rect x="483.6" y="299.5" width="6.0" height="1.0" fill="#15803d" opacity="0.78"/>

<rect x="491.9" y="299.5" width="6.0" height="55.2" fill="#dc2626" opacity="0.78"/>

<rect x="500.3" y="244.3" width="6.0" height="55.2" fill="#15803d" opacity="0.78"/>

<rect x="508.6" y="299.5" width="6.0" height="1.0" fill="#15803d" opacity="0.78"/>

<rect x="517.0" y="299.5" width="6.0" height="1.0" fill="#15803d" opacity="0.78"/>

<rect x="525.3" y="299.5" width="6.0" height="1.0" fill="#15803d" opacity="0.78"/>

<rect x="533.7" y="299.5" width="6.0" height="1.0" fill="#15803d" opacity="0.78"/>

<rect x="542.0" y="244.3" width="6.0" height="55.2" fill="#15803d" opacity="0.78"/>

<rect x="550.4" y="299.5" width="6.0" height="1.0" fill="#15803d" opacity="0.78"/>

<rect x="558.7" y="299.5" width="6.0" height="1.0" fill="#15803d" opacity="0.78"/>

<rect x="567.1" y="299.5" width="6.0" height="55.2" fill="#dc2626" opacity="0.78"/>

<rect x="575.4" y="244.3" width="6.0" height="55.2" fill="#15803d" opacity="0.78"/>

<rect x="583.8" y="299.5" width="6.0" height="1.0" fill="#15803d" opacity="0.78"/>

<rect x="592.1" y="230.5" width="6.0" height="69.0" fill="#15803d" opacity="0.78"/>

<rect x="600.5" y="161.6" width="6.0" height="137.9" fill="#15803d" opacity="0.78"/>

<rect x="608.8" y="299.5" width="6.0" height="1.0" fill="#15803d" opacity="0.78"/>

<rect x="617.2" y="230.5" width="6.0" height="69.0" fill="#15803d" opacity="0.78"/>

<rect x="625.5" y="299.5" width="6.0" height="1.0" fill="#15803d" opacity="0.78"/>

<rect x="633.9" y="230.5" width="6.0" height="69.0" fill="#15803d" opacity="0.78"/>

<rect x="642.2" y="161.6" width="6.0" height="137.9" fill="#15803d" opacity="0.78"/>

<rect x="650.6" y="299.5" width="6.0" height="1.0" fill="#15803d" opacity="0.78"/>

<rect x="658.9" y="299.5" width="6.0" height="69.0" fill="#dc2626" opacity="0.78"/>

<rect x="667.3" y="299.5" width="6.0" height="69.0" fill="#dc2626" opacity="0.78"/>

<rect x="675.6" y="230.5" width="6.0" height="69.0" fill="#15803d" opacity="0.78"/>

<rect x="684.0" y="299.5" width="6.0" height="1.0" fill="#15803d" opacity="0.78"/>

<rect x="692.3" y="299.5" width="6.0" height="1.0" fill="#15803d" opacity="0.78"/>

<rect x="700.7" y="299.5" width="6.0" height="1.0" fill="#15803d" opacity="0.78"/>

<rect x="709.0" y="299.5" width="6.0" height="1.0" fill="#15803d" opacity="0.78"/>

<rect x="717.4" y="299.5" width="6.0" height="1.0" fill="#15803d" opacity="0.78"/>

<rect x="725.7" y="230.5" width="6.0" height="69.0" fill="#15803d" opacity="0.78"/>

<rect x="734.1" y="230.5" width="6.0" height="69.0" fill="#15803d" opacity="0.78"/>

<rect x="742.4" y="299.5" width="6.0" height="137.9" fill="#dc2626" opacity="0.78"/>

<rect x="750.8" y="299.5" width="6.0" height="69.0" fill="#dc2626" opacity="0.78"/>

<rect x="759.1" y="299.5" width="6.0" height="69.0" fill="#dc2626" opacity="0.78"/>

<rect x="767.5" y="299.5" width="6.0" height="1.0" fill="#15803d" opacity="0.78"/>

<rect x="775.8" y="230.5" width="6.0" height="69.0" fill="#15803d" opacity="0.78"/>

<rect x="784.2" y="161.6" width="6.0" height="137.9" fill="#15803d" opacity="0.78"/>

<rect x="792.5" y="299.5" width="6.0" height="1.0" fill="#15803d" opacity="0.78"/>

<rect x="800.9" y="299.5" width="6.0" height="1.0" fill="#15803d" opacity="0.78"/>

<rect x="809.2" y="299.5" width="6.0" height="69.0" fill="#dc2626" opacity="0.78"/>

<rect x="817.6" y="299.5" width="6.0" height="69.0" fill="#dc2626" opacity="0.78"/>

<rect x="825.9" y="299.5" width="6.0" height="1.0" fill="#15803d" opacity="0.78"/>

<rect x="834.3" y="299.5" width="6.0" height="137.9" fill="#dc2626" opacity="0.78"/>

<rect x="842.6" y="299.5" width="6.0" height="69.0" fill="#dc2626" opacity="0.78"/>

<rect x="851.0" y="299.5" width="6.0" height="1.0" fill="#15803d" opacity="0.78"/>

<rect x="859.3" y="299.5" width="6.0" height="1.0" fill="#15803d" opacity="0.78"/>

<rect x="867.7" y="299.5" width="6.0" height="1.0" fill="#15803d" opacity="0.78"/>

<rect x="876.0" y="161.6" width="6.0" height="137.9" fill="#15803d" opacity="0.78"/>

<rect x="884.4" y="299.5" width="6.0" height="1.0" fill="#15803d" opacity="0.78"/>

<rect x="892.7" y="299.5" width="6.0" height="1.0" fill="#15803d" opacity="0.78"/>

<rect x="901.1" y="299.5" width="6.0" height="1.0" fill="#15803d" opacity="0.78"/>

<rect x="909.4" y="230.5" width="6.0" height="69.0" fill="#15803d" opacity="0.78"/>

<rect x="917.8" y="230.5" width="6.0" height="69.0" fill="#15803d" opacity="0.78"/>

<rect x="926.1" y="92.6" width="6.0" height="206.9" fill="#15803d" opacity="0.78"/>

<rect x="934.5" y="161.6" width="6.0" height="137.9" fill="#15803d" opacity="0.78"/>

<rect x="942.8" y="161.6" width="6.0" height="137.9" fill="#15803d" opacity="0.78"/>


</svg>
