<svg xmlns="http://www.w3.org/2000/svg" width="980" height="560" viewBox="0 0 980 560" role="img" aria-label="Paarweise Differenzen Teil 4/4">
<rect width="100%" height="100%" fill="white"/>
<text x="490" y="34" text-anchor="middle" font-size="26" font-weight="700" fill="#0f172a">Paarweise Differenzen Teil 4/4</text>
<text x="28" y="265" transform="rotate(-90 28 265)" text-anchor="middle" font-size="24" fill="#475569">Workflow - Direkter Aufruf (Prozentpunkte)</text>
<text x="532.5" y="536" text-anchor="middle" font-size="24" fill="#475569">Antwortpaare 301-343 von 343</text>
<line x1="115" y1="230.5" x2="950" y2="230.5" stroke="#94a3b8" stroke-dasharray="4 4"/>
<line x1="115" y1="65" x2="115" y2="465" stroke="#cbd5e1"/>
<line x1="115" y1="465" x2="950" y2="465" stroke="#cbd5e1"/>
<line x1="115" y1="465.0" x2="950" y2="465.0" stroke="#e2e8f0"/>
<text x="105" y="470.0" text-anchor="end" font-size="16" fill="#64748b">-85</text>
<line x1="115" y1="365.0" x2="950" y2="365.0" stroke="#e2e8f0"/>
<text x="105" y="370.0" text-anchor="end" font-size="16" fill="#64748b">-49</text>
<line x1="115" y1="265.0" x2="950" y2="265.0" stroke="#e2e8f0"/>
<text x="105" y="270.0" text-anchor="end" font-size="16" fill="#64748b">-13</text>
<line x1="115" y1="165.0" x2="950" y2="165.0" stroke="#e2e8f0"/>
<text x="105" y="170.0" text-anchor="end" font-size="16" fill="#64748b">24</text>
<line x1="115" y1="65.0" x2="950" y2="65.0" stroke="#e2e8f0"/>
<text x="105" y="70.0" text-anchor="end" font-size="16" fill="#64748b">60</text>
<rect x="117.7" y="230.5" width="14.0" height="1.0" fill="#15803d" opacity="0.78"/>
<text x="124.7" y="222.5" text-anchor="middle" font-size="16" font-weight="700" fill="#0f172a">0.0</text>
<rect x="137.1" y="230.5" width="14.0" height="69.0" fill="#dc2626" opacity="0.78"/>
<text x="144.1" y="317.5" text-anchor="middle" font-size="16" font-weight="700" fill="#0f172a">-25.0</text>
<rect x="156.6" y="161.6" width="14.0" height="69.0" fill="#15803d" opacity="0.78"/>
<text x="163.5" y="153.6" text-anchor="middle" font-size="16" font-weight="700" fill="#0f172a">25.0</text>
<rect x="176.0" y="161.6" width="14.0" height="69.0" fill="#15803d" opacity="0.78"/>
<text x="183.0" y="153.6" text-anchor="middle" font-size="16" font-weight="700" fill="#0f172a">25.0</text>
<rect x="195.4" y="230.5" width="14.0" height="69.0" fill="#dc2626" opacity="0.78"/>
<text x="202.4" y="317.5" text-anchor="middle" font-size="16" font-weight="700" fill="#0f172a">-25.0</text>
<rect x="214.8" y="230.5" width="14.0" height="1.0" fill="#15803d" opacity="0.78"/>
<text x="221.8" y="222.5" text-anchor="middle" font-size="16" font-weight="700" fill="#0f172a">0.0</text>
<rect x="234.2" y="230.5" width="14.0" height="1.0" fill="#15803d" opacity="0.78"/>
<text x="241.2" y="222.5" text-anchor="middle" font-size="16" font-weight="700" fill="#0f172a">0.0</text>
<rect x="253.6" y="230.5" width="14.0" height="206.9" fill="#dc2626" opacity="0.78"/>
<text x="260.6" y="455.4" text-anchor="middle" font-size="16" font-weight="700" fill="#0f172a">-75.0</text>
<rect x="273.1" y="230.5" width="14.0" height="1.0" fill="#15803d" opacity="0.78"/>
<text x="280.1" y="222.5" text-anchor="middle" font-size="16" font-weight="700" fill="#0f172a">0.0</text>
<rect x="292.5" y="230.5" width="14.0" height="69.0" fill="#dc2626" opacity="0.78"/>
<text x="299.5" y="317.5" text-anchor="middle" font-size="16" font-weight="700" fill="#0f172a">-25.0</text>
<rect x="311.9" y="230.5" width="14.0" height="1.0" fill="#15803d" opacity="0.78"/>
<text x="318.9" y="222.5" text-anchor="middle" font-size="16" font-weight="700" fill="#0f172a">0.0</text>
<rect x="331.3" y="161.6" width="14.0" height="69.0" fill="#15803d" opacity="0.78"/>
<text x="338.3" y="153.6" text-anchor="middle" font-size="16" font-weight="700" fill="#0f172a">25.0</text>
<rect x="350.7" y="230.5" width="14.0" height="1.0" fill="#15803d" opacity="0.78"/>
<text x="357.7" y="222.5" text-anchor="middle" font-size="16" font-weight="700" fill="#0f172a">0.0</text>
<rect x="370.2" y="230.5" width="14.0" height="1.0" fill="#15803d" opacity="0.78"/>
<text x="377.2" y="222.5" text-anchor="middle" font-size="16" font-weight="700" fill="#0f172a">0.0</text>
<rect x="389.6" y="230.5" width="14.0" height="1.0" fill="#15803d" opacity="0.78"/>
<text x="396.6" y="222.5" text-anchor="middle" font-size="16" font-weight="700" fill="#0f172a">0.0</text>
<rect x="409.0" y="161.6" width="14.0" height="69.0" fill="#15803d" opacity="0.78"/>
<text x="416.0" y="153.6" text-anchor="middle" font-size="16" font-weight="700" fill="#0f172a">25.0</text>
<rect x="428.4" y="230.5" width="14.0" height="1.0" fill="#15803d" opacity="0.78"/>
<text x="435.4" y="222.5" text-anchor="middle" font-size="16" font-weight="700" fill="#0f172a">0.0</text>
<rect x="447.8" y="230.5" width="14.0" height="1.0" fill="#15803d" opacity="0.78"/>
<text x="454.8" y="222.5" text-anchor="middle" font-size="16" font-weight="700" fill="#0f172a">0.0</text>
<rect x="467.3" y="230.5" width="14.0" height="1.0" fill="#15803d" opacity="0.78"/>
<text x="474.2" y="222.5" text-anchor="middle" font-size="16" font-weight="700" fill="#0f172a">0.0</text>
<rect x="486.7" y="230.5" width="14.0" height="206.9" fill="#dc2626" opacity="0.78"/>
<text x="493.7" y="455.4" text-anchor="middle" font-size="16" font-weight="700" fill="#0f172a">-75.0</text>
<rect x="506.1" y="230.5" width="14.0" height="1.0" fill="#15803d" opacity="0.78"/>
<text x="513.1" y="222.5" text-anchor="middle" font-size="16" font-weight="700" fill="#0f172a">0.0</text>
<rect x="525.5" y="230.5" width="14.0" height="1.0" fill="#15803d" opacity="0.78"/>
<text x="532.5" y="222.5" text-anchor="middle" font-size="16" font-weight="700" fill="#0f172a">0.0</text>
<rect x="544.9" y="230.5" width="14.0" height="1.0" fill="#15803d" opacity="0.78"/>
<text x="551.9" y="222.5" text-anchor="middle" font-size="16" font-weight="700" fill="#0f172a">0.0</text>
<rect x="564.3" y="230.5" width="14.0" height="1.0" fill="#15803d" opacity="0.78"/>
<text x="571.3" y="222.5" text-anchor="middle" font-size="16" font-weight="700" fill="#0f172a">0.0</text>
<rect x="583.8" y="230.5" width="14.0" height="1.0" fill="#15803d" opacity="0.78"/>
<text x="590.8" y="222.5" text-anchor="middle" font-size="16" font-weight="700" fill="#0f172a">0.0</text>
<rect x="603.2" y="230.5" width="14.0" height="1.0" fill="#15803d" opacity="0.78"/>
<text x="610.2" y="222.5" text-anchor="middle" font-size="16" font-weight="700" fill="#0f172a">0.0</text>
<rect x="622.6" y="161.6" width="14.0" height="69.0" fill="#15803d" opacity="0.78"/>
<text x="629.6" y="153.6" text-anchor="middle" font-size="16" font-weight="700" fill="#0f172a">25.0</text>
<rect x="642.0" y="230.5" width="14.0" height="69.0" fill="#dc2626" opacity="0.78"/>
<text x="649.0" y="317.5" text-anchor="middle" font-size="16" font-weight="700" fill="#0f172a">-25.0</text>
<rect x="661.4" y="230.5" width="14.0" height="1.0" fill="#15803d" opacity="0.78"/>
<text x="668.4" y="222.5" text-anchor="middle" font-size="16" font-weight="700" fill="#0f172a">0.0</text>
<rect x="680.9" y="230.5" width="14.0" height="1.0" fill="#15803d" opacity="0.78"/>
<text x="687.8" y="222.5" text-anchor="middle" font-size="16" font-weight="700" fill="#0f172a">0.0</text>
<rect x="700.3" y="230.5" width="14.0" height="1.0" fill="#15803d" opacity="0.78"/>
<text x="707.3" y="222.5" text-anchor="middle" font-size="16" font-weight="700" fill="#0f172a">0.0</text>
<rect x="719.7" y="230.5" width="14.0" height="69.0" fill="#dc2626" opacity="0.78"/>
<text x="726.7" y="317.5" text-anchor="middle" font-size="16" font-weight="700" fill="#0f172a">-25.0</text>
<rect x="739.1" y="230.5" width="14.0" height="1.0" fill="#15803d" opacity="0.78"/>
<text x="746.1" y="222.5" text-anchor="middle" font-size="16" font-weight="700" fill="#0f172a">0.0</text>
<rect x="758.5" y="230.5" width="14.0" height="1.0" fill="#15803d" opacity="0.78"/>
<text x="765.5" y="222.5" text-anchor="middle" font-size="16" font-weight="700" fill="#0f172a">0.0</text>
<rect x="778.0" y="230.5" width="14.0" height="69.0" fill="#dc2626" opacity="0.78"/>
<text x="784.9" y="317.5" text-anchor="middle" font-size="16" font-weight="700" fill="#0f172a">-25.0</text>
<rect x="797.4" y="161.6" width="14.0" height="69.0" fill="#15803d" opacity="0.78"/>
<text x="804.4" y="153.6" text-anchor="middle" font-size="16" font-weight="700" fill="#0f172a">25.0</text>
<rect x="816.8" y="161.6" width="14.0" height="69.0" fill="#15803d" opacity="0.78"/>
<text x="823.8" y="153.6" text-anchor="middle" font-size="16" font-weight="700" fill="#0f172a">25.0</text>
<rect x="836.2" y="92.6" width="14.0" height="137.9" fill="#15803d" opacity="0.78"/>
<text x="843.2" y="84.6" text-anchor="middle" font-size="16" font-weight="700" fill="#0f172a">50.0</text>
<rect x="855.6" y="230.5" width="14.0" height="1.0" fill="#15803d" opacity="0.78"/>
<text x="862.6" y="222.5" text-anchor="middle" font-size="16" font-weight="700" fill="#0f172a">0.0</text>
<rect x="875.0" y="230.5" width="14.0" height="137.9" fill="#dc2626" opacity="0.78"/>
<text x="882.0" y="386.4" text-anchor="middle" font-size="16" font-weight="700" fill="#0f172a">-50.0</text>
<rect x="894.5" y="230.5" width="14.0" height="1.0" fill="#15803d" opacity="0.78"/>
<text x="901.5" y="222.5" text-anchor="middle" font-size="16" font-weight="700" fill="#0f172a">0.0</text>
<rect x="913.9" y="230.5" width="14.0" height="1.0" fill="#15803d" opacity="0.78"/>
<text x="920.9" y="222.5" text-anchor="middle" font-size="16" font-weight="700" fill="#0f172a">0.0</text>
<rect x="933.3" y="230.5" width="14.0" height="1.0" fill="#15803d" opacity="0.78"/>
<text x="940.3" y="222.5" text-anchor="middle" font-size="16" font-weight="700" fill="#0f172a">0.0</text>

</svg>
