<svg xmlns="http://www.w3.org/2000/svg" width="980" height="560" viewBox="0 0 980 560" role="img" aria-label="Paarweise Differenzen Teil 2/2">
<rect width="100%" height="100%" fill="white"/>
<text x="490" y="34" text-anchor="middle" font-size="26" font-weight="700" fill="#0f172a">Paarweise Differenzen Teil 2/2</text>
<text x="28" y="265" transform="rotate(-90 28 265)" text-anchor="middle" font-size="24" fill="#475569">Workflow - Direkter Aufruf (Prozentpunkte)</text>
<text x="532.5" y="536" text-anchor="middle" font-size="24" fill="#475569">Antwortpaare 101-120 von 120</text>
<line x1="115" y1="265.0" x2="950" y2="265.0" stroke="#94a3b8" stroke-dasharray="4 4"/>
<line x1="115" y1="65" x2="115" y2="465" stroke="#cbd5e1"/>
<line x1="115" y1="465" x2="950" y2="465" stroke="#cbd5e1"/>
<line x1="115" y1="465.0" x2="950" y2="465.0" stroke="#e2e8f0"/>
<text x="105" y="470.0" text-anchor="end" font-size="16" fill="#64748b">-29</text>
<line x1="115" y1="365.0" x2="950" y2="365.0" stroke="#e2e8f0"/>
<text x="105" y="370.0" text-anchor="end" font-size="16" fill="#64748b">-15</text>
<line x1="115" y1="265.0" x2="950" y2="265.0" stroke="#e2e8f0"/>
<text x="105" y="270.0" text-anchor="end" font-size="16" fill="#64748b">0</text>
<line x1="115" y1="165.0" x2="950" y2="165.0" stroke="#e2e8f0"/>
<text x="105" y="170.0" text-anchor="end" font-size="16" fill="#64748b">15</text>
<line x1="115" y1="65.0" x2="950" y2="65.0" stroke="#e2e8f0"/>
<text x="105" y="70.0" text-anchor="end" font-size="16" fill="#64748b">29</text>
<rect x="120.8" y="265.0" width="30.1" height="172.4" fill="#dc2626" opacity="0.78"/>
<text x="135.9" y="455.4" text-anchor="middle" font-size="16" font-weight="700" fill="#0f172a">-25.0</text>
<rect x="162.6" y="265.0" width="30.1" height="1.0" fill="#15803d" opacity="0.78"/>
<text x="177.6" y="257.0" text-anchor="middle" font-size="16" font-weight="700" fill="#0f172a">0.0</text>
<rect x="204.3" y="92.6" width="30.1" height="172.4" fill="#15803d" opacity="0.78"/>
<text x="219.4" y="84.6" text-anchor="middle" font-size="16" font-weight="700" fill="#0f172a">25.0</text>
<rect x="246.1" y="265.0" width="30.1" height="1.0" fill="#15803d" opacity="0.78"/>
<text x="261.1" y="257.0" text-anchor="middle" font-size="16" font-weight="700" fill="#0f172a">0.0</text>
<rect x="287.8" y="265.0" width="30.1" height="172.4" fill="#dc2626" opacity="0.78"/>
<text x="302.9" y="455.4" text-anchor="middle" font-size="16" font-weight="700" fill="#0f172a">-25.0</text>
<rect x="329.6" y="265.0" width="30.1" height="1.0" fill="#15803d" opacity="0.78"/>
<text x="344.6" y="257.0" text-anchor="middle" font-size="16" font-weight="700" fill="#0f172a">0.0</text>
<rect x="371.3" y="92.6" width="30.1" height="172.4" fill="#15803d" opacity="0.78"/>
<text x="386.4" y="84.6" text-anchor="middle" font-size="16" font-weight="700" fill="#0f172a">25.0</text>
<rect x="413.1" y="265.0" width="30.1" height="1.0" fill="#15803d" opacity="0.78"/>
<text x="428.1" y="257.0" text-anchor="middle" font-size="16" font-weight="700" fill="#0f172a">0.0</text>
<rect x="454.8" y="265.0" width="30.1" height="1.0" fill="#15803d" opacity="0.78"/>
<text x="469.9" y="257.0" text-anchor="middle" font-size="16" font-weight="700" fill="#0f172a">0.0</text>
<rect x="496.6" y="92.6" width="30.1" height="172.4" fill="#15803d" opacity="0.78"/>
<text x="511.6" y="84.6" text-anchor="middle" font-size="16" font-weight="700" fill="#0f172a">25.0</text>
<rect x="538.3" y="265.0" width="30.1" height="172.4" fill="#dc2626" opacity="0.78"/>
<text x="553.4" y="455.4" text-anchor="middle" font-size="16" font-weight="700" fill="#0f172a">-25.0</text>
<rect x="580.1" y="92.6" width="30.1" height="172.4" fill="#15803d" opacity="0.78"/>
<text x="595.1" y="84.6" text-anchor="middle" font-size="16" font-weight="700" fill="#0f172a">25.0</text>
<rect x="621.8" y="92.6" width="30.1" height="172.4" fill="#15803d" opacity="0.78"/>
<text x="636.9" y="84.6" text-anchor="middle" font-size="16" font-weight="700" fill="#0f172a">25.0</text>
<rect x="663.6" y="265.0" width="30.1" height="1.0" fill="#15803d" opacity="0.78"/>
<text x="678.6" y="257.0" text-anchor="middle" font-size="16" font-weight="700" fill="#0f172a">0.0</text>
<rect x="705.3" y="265.0" width="30.1" height="1.0" fill="#15803d" opacity="0.78"/>
<text x="720.4" y="257.0" text-anchor="middle" font-size="16" font-weight="700" fill="#0f172a">0.0</text>
<rect x="747.1" y="265.0" width="30.1" height="1.0" fill="#15803d" opacity="0.78"/>
<text x="762.1" y="257.0" text-anchor="middle" font-size="16" font-weight="700" fill="#0f172a">0.0</text>
<rect x="788.8" y="92.6" width="30.1" height="172.4" fill="#15803d" opacity="0.78"/>
<text x="803.9" y="84.6" text-anchor="middle" font-size="16" font-weight="700" fill="#0f172a">25.0</text>
<rect x="830.6" y="265.0" width="30.1" height="172.4" fill="#dc2626" opacity="0.78"/>
<text x="845.6" y="455.4" text-anchor="middle" font-size="16" font-weight="700" fill="#0f172a">-25.0</text>
<rect x="872.3" y="265.0" width="30.1" height="1.0" fill="#15803d" opacity="0.78"/>
<text x="887.4" y="257.0" text-anchor="middle" font-size="16" font-weight="700" fill="#0f172a">0.0</text>
<rect x="914.1" y="265.0" width="30.1" height="1.0" fill="#15803d" opacity="0.78"/>
<text x="929.1" y="257.0" text-anchor="middle" font-size="16" font-weight="700" fill="#0f172a">0.0</text>

</svg>
