<svg xmlns="http://www.w3.org/2000/svg" width="980" height="560" viewBox="0 0 980 560" role="img" aria-label="Paarweise Differenzen Teil 8/8">
<rect width="100%" height="100%" fill="white"/>
<text x="490" y="34" text-anchor="middle" font-size="26" font-weight="700" fill="#0f172a">Paarweise Differenzen Teil 8/8</text>
<text x="28" y="265" transform="rotate(-90 28 265)" text-anchor="middle" font-size="24" fill="#475569">Workflow - Direkter Aufruf (Prozentpunkte)</text>
<text x="532.5" y="536" text-anchor="middle" font-size="24" fill="#475569">Antwortpaare 701-708 von 708</text>
<line x1="115" y1="265.0" x2="950" y2="265.0" stroke="#94a3b8" stroke-dasharray="4 4"/>
<line x1="115" y1="65" x2="115" y2="465" stroke="#cbd5e1"/>
<line x1="115" y1="465" x2="950" y2="465" stroke="#cbd5e1"/>
<line x1="115" y1="465.0" x2="950" y2="465.0" stroke="#e2e8f0"/>
<text x="105" y="470.0" text-anchor="end" font-size="16" fill="#64748b">-29</text>
<line x1="115" y1="365.0" x2="950" y2="365.0" stroke="#e2e8f0"/>
<text x="105" y="370.0" text-anchor="end" font-size="16" fill="#64748b">-15</text>
<line x1="115" y1="265.0" x2="950" y2="265.0" stroke="#e2e8f0"/>
<text x="105" y="270.0" text-anchor="end" font-size="16" fill="#64748b">0</text>
<line x1="115" y1="165.0" x2="950" y2="165.0" stroke="#e2e8f0"/>
<text x="105" y="170.0" text-anchor="end" font-size="16" fill="#64748b">15</text>
<line x1="115" y1="65.0" x2="950" y2="65.0" stroke="#e2e8f0"/>
<text x="105" y="70.0" text-anchor="end" font-size="16" fill="#64748b">29</text>
<rect x="129.6" y="265.0" width="75.1" height="1.0" fill="#15803d" opacity="0.78"/>
<text x="167.2" y="257.0" text-anchor="middle" font-size="16" font-weight="700" fill="#0f172a">0.0</text>
<rect x="234.0" y="92.6" width="75.1" height="172.4" fill="#15803d" opacity="0.78"/>
<text x="271.6" y="84.6" text-anchor="middle" font-size="16" font-weight="700" fill="#0f172a">25.0</text>
<rect x="338.4" y="92.6" width="75.1" height="172.4" fill="#15803d" opacity="0.78"/>
<text x="375.9" y="84.6" text-anchor="middle" font-size="16" font-weight="700" fill="#0f172a">25.0</text>
<rect x="442.7" y="92.6" width="75.1" height="172.4" fill="#15803d" opacity="0.78"/>
<text x="480.3" y="84.6" text-anchor="middle" font-size="16" font-weight="700" fill="#0f172a">25.0</text>
<rect x="547.1" y="265.0" width="75.1" height="1.0" fill="#15803d" opacity="0.78"/>
<text x="584.7" y="257.0" text-anchor="middle" font-size="16" font-weight="700" fill="#0f172a">0.0</text>
<rect x="651.5" y="265.0" width="75.1" height="1.0" fill="#15803d" opacity="0.78"/>
<text x="689.1" y="257.0" text-anchor="middle" font-size="16" font-weight="700" fill="#0f172a">0.0</text>
<rect x="755.9" y="92.6" width="75.1" height="172.4" fill="#15803d" opacity="0.78"/>
<text x="793.4" y="84.6" text-anchor="middle" font-size="16" font-weight="700" fill="#0f172a">25.0</text>
<rect x="860.2" y="265.0" width="75.1" height="172.4" fill="#dc2626" opacity="0.78"/>
<text x="897.8" y="455.4" text-anchor="middle" font-size="16" font-weight="700" fill="#0f172a">-25.0</text>

</svg>
