<svg xmlns="http://www.w3.org/2000/svg" width="980" height="560" viewBox="0 0 980 560" role="img" aria-label="Paarweise Differenzen Teil 4/4">
<rect width="100%" height="100%" fill="white"/>
<text x="490" y="34" text-anchor="middle" font-size="26" font-weight="700" fill="#0f172a">Paarweise Differenzen Teil 4/4</text>
<text x="28" y="265" transform="rotate(-90 28 265)" text-anchor="middle" font-size="24" fill="#475569">Workflow - Direkter Aufruf (Prozentpunkte)</text>
<text x="532.5" y="536" text-anchor="middle" font-size="24" fill="#475569">Antwortpaare 301-363 von 363</text>
<line x1="115" y1="265.0" x2="950" y2="265.0" stroke="#94a3b8" stroke-dasharray="4 4"/>
<line x1="115" y1="65" x2="115" y2="465" stroke="#cbd5e1"/>
<line x1="115" y1="465" x2="950" y2="465" stroke="#cbd5e1"/>
<line x1="115" y1="465.0" x2="950" y2="465.0" stroke="#e2e8f0"/>
<text x="105" y="470.0" text-anchor="end" font-size="16" fill="#64748b">-29</text>
<line x1="115" y1="365.0" x2="950" y2="365.0" stroke="#e2e8f0"/>
<text x="105" y="370.0" text-anchor="end" font-size="16" fill="#64748b">-15</text>
<line x1="115" y1="265.0" x2="950" y2="265.0" stroke="#e2e8f0"/>
<text x="105" y="270.0" text-anchor="end" font-size="16" fill="#64748b">0</text>
<line x1="115" y1="165.0" x2="950" y2="165.0" stroke="#e2e8f0"/>
<text x="105" y="170.0" text-anchor="end" font-size="16" fill="#64748b">15</text>
<line x1="115" y1="65.0" x2="950" y2="65.0" stroke="#e2e8f0"/>
<text x="105" y="70.0" text-anchor="end" font-size="16" fill="#64748b">29</text>
<rect x="116.9" y="265.0" width="9.5" height="1.0" fill="#15803d" opacity="0.78"/>

<rect x="130.1" y="265.0" width="9.5" height="1.0" fill="#15803d" opacity="0.78"/>

<rect x="143.4" y="92.6" width="9.5" height="172.4" fill="#15803d" opacity="0.78"/>

<rect x="156.6" y="265.0" width="9.5" height="1.0" fill="#15803d" opacity="0.78"/>

<rect x="169.9" y="265.0" width="9.5" height="1.0" fill="#15803d" opacity="0.78"/>

<rect x="183.1" y="265.0" width="9.5" height="1.0" fill="#15803d" opacity="0.78"/>

<rect x="196.4" y="265.0" width="9.5" height="1.0" fill="#15803d" opacity="0.78"/>

<rect x="209.6" y="265.0" width="9.5" height="1.0" fill="#15803d" opacity="0.78"/>

<rect x="222.9" y="265.0" width="9.5" height="1.0" fill="#15803d" opacity="0.78"/>

<rect x="236.1" y="265.0" width="9.5" height="172.4" fill="#dc2626" opacity="0.78"/>

<rect x="249.4" y="265.0" width="9.5" height="1.0" fill="#15803d" opacity="0.78"/>

<rect x="262.6" y="265.0" width="9.5" height="1.0" fill="#15803d" opacity="0.78"/>

<rect x="275.9" y="265.0" width="9.5" height="1.0" fill="#15803d" opacity="0.78"/>

<rect x="289.2" y="265.0" width="9.5" height="1.0" fill="#15803d" opacity="0.78"/>

<rect x="302.4" y="265.0" width="9.5" height="1.0" fill="#15803d" opacity="0.78"/>

<rect x="315.7" y="265.0" width="9.5" height="172.4" fill="#dc2626" opacity="0.78"/>

<rect x="328.9" y="265.0" width="9.5" height="1.0" fill="#15803d" opacity="0.78"/>

<rect x="342.2" y="265.0" width="9.5" height="1.0" fill="#15803d" opacity="0.78"/>

<rect x="355.4" y="265.0" width="9.5" height="1.0" fill="#15803d" opacity="0.78"/>

<rect x="368.7" y="265.0" width="9.5" height="1.0" fill="#15803d" opacity="0.78"/>

<rect x="381.9" y="265.0" width="9.5" height="1.0" fill="#15803d" opacity="0.78"/>

<rect x="395.2" y="265.0" width="9.5" height="1.0" fill="#15803d" opacity="0.78"/>

<rect x="408.4" y="265.0" width="9.5" height="1.0" fill="#15803d" opacity="0.78"/>

<rect x="421.7" y="265.0" width="9.5" height="1.0" fill="#15803d" opacity="0.78"/>

<rect x="435.0" y="265.0" width="9.5" height="1.0" fill="#15803d" opacity="0.78"/>

<rect x="448.2" y="265.0" width="9.5" height="1.0" fill="#15803d" opacity="0.78"/>

<rect x="461.5" y="265.0" width="9.5" height="1.0" fill="#15803d" opacity="0.78"/>

<rect x="474.7" y="265.0" width="9.5" height="1.0" fill="#15803d" opacity="0.78"/>

<rect x="488.0" y="265.0" width="9.5" height="1.0" fill="#15803d" opacity="0.78"/>

<rect x="501.2" y="265.0" width="9.5" height="1.0" fill="#15803d" opacity="0.78"/>

<rect x="514.5" y="265.0" width="9.5" height="1.0" fill="#15803d" opacity="0.78"/>

<rect x="527.7" y="265.0" width="9.5" height="1.0" fill="#15803d" opacity="0.78"/>

<rect x="541.0" y="265.0" width="9.5" height="1.0" fill="#15803d" opacity="0.78"/>

<rect x="554.2" y="265.0" width="9.5" height="1.0" fill="#15803d" opacity="0.78"/>

<rect x="567.5" y="265.0" width="9.5" height="1.0" fill="#15803d" opacity="0.78"/>

<rect x="580.7" y="92.6" width="9.5" height="172.4" fill="#15803d" opacity="0.78"/>

<rect x="594.0" y="265.0" width="9.5" height="1.0" fill="#15803d" opacity="0.78"/>

<rect x="607.3" y="92.6" width="9.5" height="172.4" fill="#15803d" opacity="0.78"/>

<rect x="620.5" y="265.0" width="9.5" height="1.0" fill="#15803d" opacity="0.78"/>

<rect x="633.8" y="92.6" width="9.5" height="172.4" fill="#15803d" opacity="0.78"/>

<rect x="647.0" y="265.0" width="9.5" height="1.0" fill="#15803d" opacity="0.78"/>

<rect x="660.3" y="265.0" width="9.5" height="172.4" fill="#dc2626" opacity="0.78"/>

<rect x="673.5" y="265.0" width="9.5" height="1.0" fill="#15803d" opacity="0.78"/>

<rect x="686.8" y="265.0" width="9.5" height="1.0" fill="#15803d" opacity="0.78"/>

<rect x="700.0" y="265.0" width="9.5" height="1.0" fill="#15803d" opacity="0.78"/>

<rect x="713.3" y="265.0" width="9.5" height="1.0" fill="#15803d" opacity="0.78"/>

<rect x="726.5" y="265.0" width="9.5" height="1.0" fill="#15803d" opacity="0.78"/>

<rect x="739.8" y="265.0" width="9.5" height="1.0" fill="#15803d" opacity="0.78"/>

<rect x="753.0" y="265.0" width="9.5" height="1.0" fill="#15803d" opacity="0.78"/>

<rect x="766.3" y="265.0" width="9.5" height="1.0" fill="#15803d" opacity="0.78"/>

<rect x="779.6" y="265.0" width="9.5" height="1.0" fill="#15803d" opacity="0.78"/>

<rect x="792.8" y="265.0" width="9.5" height="1.0" fill="#15803d" opacity="0.78"/>

<rect x="806.1" y="265.0" width="9.5" height="1.0" fill="#15803d" opacity="0.78"/>

<rect x="819.3" y="265.0" width="9.5" height="1.0" fill="#15803d" opacity="0.78"/>

<rect x="832.6" y="265.0" width="9.5" height="1.0" fill="#15803d" opacity="0.78"/>

<rect x="845.8" y="265.0" width="9.5" height="1.0" fill="#15803d" opacity="0.78"/>

<rect x="859.1" y="265.0" width="9.5" height="1.0" fill="#15803d" opacity="0.78"/>

<rect x="872.3" y="265.0" width="9.5" height="1.0" fill="#15803d" opacity="0.78"/>

<rect x="885.6" y="265.0" width="9.5" height="1.0" fill="#15803d" opacity="0.78"/>

<rect x="898.8" y="265.0" width="9.5" height="1.0" fill="#15803d" opacity="0.78"/>

<rect x="912.1" y="265.0" width="9.5" height="1.0" fill="#15803d" opacity="0.78"/>

<rect x="925.3" y="92.6" width="9.5" height="172.4" fill="#15803d" opacity="0.78"/>

<rect x="938.6" y="92.6" width="9.5" height="172.4" fill="#15803d" opacity="0.78"/>


</svg>
