<svg xmlns="http://www.w3.org/2000/svg" width="980" height="560" viewBox="0 0 980 560" role="img" aria-label="Paarweise Differenzen Teil 4/4">
<rect width="100%" height="100%" fill="white"/>
<text x="490" y="34" text-anchor="middle" font-size="26" font-weight="700" fill="#0f172a">Paarweise Differenzen Teil 4/4</text>
<text x="28" y="265" transform="rotate(-90 28 265)" text-anchor="middle" font-size="24" fill="#475569">Workflow - Direkter Aufruf (Prozentpunkte)</text>
<text x="532.5" y="536" text-anchor="middle" font-size="24" fill="#475569">Antwortpaare 301-383 von 383</text>
<line x1="115" y1="299.5" x2="950" y2="299.5" stroke="#94a3b8" stroke-dasharray="4 4"/>
<line x1="115" y1="65" x2="115" y2="465" stroke="#cbd5e1"/>
<line x1="115" y1="465" x2="950" y2="465" stroke="#cbd5e1"/>
<line x1="115" y1="465.0" x2="950" y2="465.0" stroke="#e2e8f0"/>
<text x="105" y="470.0" text-anchor="end" font-size="16" fill="#64748b">-60</text>
<line x1="115" y1="365.0" x2="950" y2="365.0" stroke="#e2e8f0"/>
<text x="105" y="370.0" text-anchor="end" font-size="16" fill="#64748b">-24</text>
<line x1="115" y1="265.0" x2="950" y2="265.0" stroke="#e2e8f0"/>
<text x="105" y="270.0" text-anchor="end" font-size="16" fill="#64748b">13</text>
<line x1="115" y1="165.0" x2="950" y2="165.0" stroke="#e2e8f0"/>
<text x="105" y="170.0" text-anchor="end" font-size="16" fill="#64748b">49</text>
<line x1="115" y1="65.0" x2="950" y2="65.0" stroke="#e2e8f0"/>
<text x="105" y="70.0" text-anchor="end" font-size="16" fill="#64748b">85</text>
<rect x="116.4" y="230.5" width="7.2" height="69.0" fill="#15803d" opacity="0.78"/>

<rect x="126.5" y="299.5" width="7.2" height="1.0" fill="#15803d" opacity="0.78"/>

<rect x="136.5" y="299.5" width="7.2" height="1.0" fill="#15803d" opacity="0.78"/>

<rect x="146.6" y="299.5" width="7.2" height="1.0" fill="#15803d" opacity="0.78"/>

<rect x="156.6" y="230.5" width="7.2" height="69.0" fill="#15803d" opacity="0.78"/>

<rect x="166.7" y="161.6" width="7.2" height="137.9" fill="#15803d" opacity="0.78"/>

<rect x="176.8" y="161.6" width="7.2" height="137.9" fill="#15803d" opacity="0.78"/>

<rect x="186.8" y="161.6" width="7.2" height="137.9" fill="#15803d" opacity="0.78"/>

<rect x="196.9" y="92.6" width="7.2" height="206.9" fill="#15803d" opacity="0.78"/>

<rect x="207.0" y="299.5" width="7.2" height="69.0" fill="#dc2626" opacity="0.78"/>

<rect x="217.0" y="161.6" width="7.2" height="137.9" fill="#15803d" opacity="0.78"/>

<rect x="227.1" y="299.5" width="7.2" height="1.0" fill="#15803d" opacity="0.78"/>

<rect x="237.1" y="299.5" width="7.2" height="1.0" fill="#15803d" opacity="0.78"/>

<rect x="247.2" y="92.6" width="7.2" height="206.9" fill="#15803d" opacity="0.78"/>

<rect x="257.3" y="299.5" width="7.2" height="1.0" fill="#15803d" opacity="0.78"/>

<rect x="267.3" y="299.5" width="7.2" height="1.0" fill="#15803d" opacity="0.78"/>

<rect x="277.4" y="299.5" width="7.2" height="69.0" fill="#dc2626" opacity="0.78"/>

<rect x="287.4" y="299.5" width="7.2" height="1.0" fill="#15803d" opacity="0.78"/>

<rect x="297.5" y="299.5" width="7.2" height="69.0" fill="#dc2626" opacity="0.78"/>

<rect x="307.6" y="299.5" width="7.2" height="1.0" fill="#15803d" opacity="0.78"/>

<rect x="317.6" y="299.5" width="7.2" height="1.0" fill="#15803d" opacity="0.78"/>

<rect x="327.7" y="299.5" width="7.2" height="1.0" fill="#15803d" opacity="0.78"/>

<rect x="337.7" y="299.5" width="7.2" height="69.0" fill="#dc2626" opacity="0.78"/>

<rect x="347.8" y="299.5" width="7.2" height="69.0" fill="#dc2626" opacity="0.78"/>

<rect x="357.9" y="299.5" width="7.2" height="1.0" fill="#15803d" opacity="0.78"/>

<rect x="367.9" y="299.5" width="7.2" height="1.0" fill="#15803d" opacity="0.78"/>

<rect x="378.0" y="299.5" width="7.2" height="69.0" fill="#dc2626" opacity="0.78"/>

<rect x="388.0" y="299.5" width="7.2" height="69.0" fill="#dc2626" opacity="0.78"/>

<rect x="398.1" y="299.5" width="7.2" height="69.0" fill="#dc2626" opacity="0.78"/>

<rect x="408.2" y="299.5" width="7.2" height="69.0" fill="#dc2626" opacity="0.78"/>

<rect x="418.2" y="299.5" width="7.2" height="69.0" fill="#dc2626" opacity="0.78"/>

<rect x="428.3" y="299.5" width="7.2" height="69.0" fill="#dc2626" opacity="0.78"/>

<rect x="438.3" y="299.5" width="7.2" height="1.0" fill="#15803d" opacity="0.78"/>

<rect x="448.4" y="299.5" width="7.2" height="69.0" fill="#dc2626" opacity="0.78"/>

<rect x="458.5" y="299.5" width="7.2" height="1.0" fill="#15803d" opacity="0.78"/>

<rect x="468.5" y="299.5" width="7.2" height="137.9" fill="#dc2626" opacity="0.78"/>

<rect x="478.6" y="299.5" width="7.2" height="1.0" fill="#15803d" opacity="0.78"/>

<rect x="488.6" y="299.5" width="7.2" height="69.0" fill="#dc2626" opacity="0.78"/>

<rect x="498.7" y="299.5" width="7.2" height="1.0" fill="#15803d" opacity="0.78"/>

<rect x="508.8" y="299.5" width="7.2" height="69.0" fill="#dc2626" opacity="0.78"/>

<rect x="518.8" y="299.5" width="7.2" height="1.0" fill="#15803d" opacity="0.78"/>

<rect x="528.9" y="299.5" width="7.2" height="1.0" fill="#15803d" opacity="0.78"/>

<rect x="538.9" y="299.5" width="7.2" height="1.0" fill="#15803d" opacity="0.78"/>

<rect x="549.0" y="299.5" width="7.2" height="1.0" fill="#15803d" opacity="0.78"/>

<rect x="559.1" y="299.5" width="7.2" height="1.0" fill="#15803d" opacity="0.78"/>

<rect x="569.1" y="299.5" width="7.2" height="1.0" fill="#15803d" opacity="0.78"/>

<rect x="579.2" y="299.5" width="7.2" height="1.0" fill="#15803d" opacity="0.78"/>

<rect x="589.2" y="299.5" width="7.2" height="1.0" fill="#15803d" opacity="0.78"/>

<rect x="599.3" y="299.5" width="7.2" height="1.0" fill="#15803d" opacity="0.78"/>

<rect x="609.4" y="299.5" width="7.2" height="69.0" fill="#dc2626" opacity="0.78"/>

<rect x="619.4" y="299.5" width="7.2" height="1.0" fill="#15803d" opacity="0.78"/>

<rect x="629.5" y="299.5" width="7.2" height="1.0" fill="#15803d" opacity="0.78"/>

<rect x="639.5" y="299.5" width="7.2" height="137.9" fill="#dc2626" opacity="0.78"/>

<rect x="649.6" y="299.5" width="7.2" height="1.0" fill="#15803d" opacity="0.78"/>

<rect x="659.7" y="299.5" width="7.2" height="1.0" fill="#15803d" opacity="0.78"/>

<rect x="669.7" y="299.5" width="7.2" height="1.0" fill="#15803d" opacity="0.78"/>

<rect x="679.8" y="299.5" width="7.2" height="1.0" fill="#15803d" opacity="0.78"/>

<rect x="689.8" y="299.5" width="7.2" height="1.0" fill="#15803d" opacity="0.78"/>

<rect x="699.9" y="299.5" width="7.2" height="1.0" fill="#15803d" opacity="0.78"/>

<rect x="710.0" y="299.5" width="7.2" height="1.0" fill="#15803d" opacity="0.78"/>

<rect x="720.0" y="299.5" width="7.2" height="69.0" fill="#dc2626" opacity="0.78"/>

<rect x="730.1" y="299.5" width="7.2" height="1.0" fill="#15803d" opacity="0.78"/>

<rect x="740.1" y="299.5" width="7.2" height="1.0" fill="#15803d" opacity="0.78"/>

<rect x="750.2" y="299.5" width="7.2" height="1.0" fill="#15803d" opacity="0.78"/>

<rect x="760.3" y="299.5" width="7.2" height="1.0" fill="#15803d" opacity="0.78"/>

<rect x="770.3" y="299.5" width="7.2" height="1.0" fill="#15803d" opacity="0.78"/>

<rect x="780.4" y="299.5" width="7.2" height="1.0" fill="#15803d" opacity="0.78"/>

<rect x="790.4" y="299.5" width="7.2" height="1.0" fill="#15803d" opacity="0.78"/>

<rect x="800.5" y="299.5" width="7.2" height="1.0" fill="#15803d" opacity="0.78"/>

<rect x="810.6" y="299.5" width="7.2" height="1.0" fill="#15803d" opacity="0.78"/>

<rect x="820.6" y="299.5" width="7.2" height="1.0" fill="#15803d" opacity="0.78"/>

<rect x="830.7" y="299.5" width="7.2" height="1.0" fill="#15803d" opacity="0.78"/>

<rect x="840.7" y="299.5" width="7.2" height="1.0" fill="#15803d" opacity="0.78"/>

<rect x="850.8" y="299.5" width="7.2" height="69.0" fill="#dc2626" opacity="0.78"/>

<rect x="860.9" y="230.5" width="7.2" height="69.0" fill="#15803d" opacity="0.78"/>

<rect x="870.9" y="299.5" width="7.2" height="1.0" fill="#15803d" opacity="0.78"/>

<rect x="881.0" y="299.5" width="7.2" height="1.0" fill="#15803d" opacity="0.78"/>

<rect x="891.0" y="230.5" width="7.2" height="69.0" fill="#15803d" opacity="0.78"/>

<rect x="901.1" y="299.5" width="7.2" height="1.0" fill="#15803d" opacity="0.78"/>

<rect x="911.2" y="299.5" width="7.2" height="137.9" fill="#dc2626" opacity="0.78"/>

<rect x="921.2" y="299.5" width="7.2" height="69.0" fill="#dc2626" opacity="0.78"/>

<rect x="931.3" y="299.5" width="7.2" height="1.0" fill="#15803d" opacity="0.78"/>

<rect x="941.3" y="299.5" width="7.2" height="1.0" fill="#15803d" opacity="0.78"/>


</svg>
