<svg xmlns="http://www.w3.org/2000/svg" width="980" height="560" viewBox="0 0 980 560" role="img" aria-label="Paarweise Differenzen Teil 2/2">
<rect width="100%" height="100%" fill="white"/>
<text x="490" y="34" text-anchor="middle" font-size="26" font-weight="700" fill="#0f172a">Paarweise Differenzen Teil 2/2</text>
<text x="28" y="265" transform="rotate(-90 28 265)" text-anchor="middle" font-size="24" fill="#475569">Workflow - Direkter Aufruf (Prozentpunkte)</text>
<text x="532.5" y="536" text-anchor="middle" font-size="24" fill="#475569">Antwortpaare 101-186 von 186</text>
<line x1="115" y1="421.0" x2="950" y2="421.0" stroke="#94a3b8" stroke-dasharray="4 4"/>
<line x1="115" y1="65" x2="115" y2="465" stroke="#cbd5e1"/>
<line x1="115" y1="465" x2="950" y2="465" stroke="#cbd5e1"/>
<line x1="115" y1="465.0" x2="950" y2="465.0" stroke="#e2e8f0"/>
<text x="105" y="470.0" text-anchor="end" font-size="16" fill="#64748b">-13</text>
<line x1="115" y1="365.0" x2="950" y2="365.0" stroke="#e2e8f0"/>
<text x="105" y="370.0" text-anchor="end" font-size="16" fill="#64748b">17</text>
<line x1="115" y1="265.0" x2="950" y2="265.0" stroke="#e2e8f0"/>
<text x="105" y="270.0" text-anchor="end" font-size="16" fill="#64748b">48</text>
<line x1="115" y1="165.0" x2="950" y2="165.0" stroke="#e2e8f0"/>
<text x="105" y="170.0" text-anchor="end" font-size="16" fill="#64748b">78</text>
<line x1="115" y1="65.0" x2="950" y2="65.0" stroke="#e2e8f0"/>
<text x="105" y="70.0" text-anchor="end" font-size="16" fill="#64748b">108</text>
<rect x="116.4" y="338.9" width="7.0" height="82.1" fill="#15803d" opacity="0.78"/>

<rect x="126.1" y="338.9" width="7.0" height="82.1" fill="#15803d" opacity="0.78"/>

<rect x="135.8" y="338.9" width="7.0" height="82.1" fill="#15803d" opacity="0.78"/>

<rect x="145.5" y="338.9" width="7.0" height="82.1" fill="#15803d" opacity="0.78"/>

<rect x="155.2" y="338.9" width="7.0" height="82.1" fill="#15803d" opacity="0.78"/>

<rect x="164.9" y="256.8" width="7.0" height="164.2" fill="#15803d" opacity="0.78"/>

<rect x="174.6" y="256.8" width="7.0" height="164.2" fill="#15803d" opacity="0.78"/>

<rect x="184.3" y="338.9" width="7.0" height="82.1" fill="#15803d" opacity="0.78"/>

<rect x="194.0" y="256.8" width="7.0" height="164.2" fill="#15803d" opacity="0.78"/>

<rect x="203.7" y="421.0" width="7.0" height="1.0" fill="#15803d" opacity="0.78"/>

<rect x="213.5" y="256.8" width="7.0" height="164.2" fill="#15803d" opacity="0.78"/>

<rect x="223.2" y="338.9" width="7.0" height="82.1" fill="#15803d" opacity="0.78"/>

<rect x="232.9" y="256.8" width="7.0" height="164.2" fill="#15803d" opacity="0.78"/>

<rect x="242.6" y="256.8" width="7.0" height="164.2" fill="#15803d" opacity="0.78"/>

<rect x="252.3" y="338.9" width="7.0" height="82.1" fill="#15803d" opacity="0.78"/>

<rect x="262.0" y="256.8" width="7.0" height="164.2" fill="#15803d" opacity="0.78"/>

<rect x="271.7" y="338.9" width="7.0" height="82.1" fill="#15803d" opacity="0.78"/>

<rect x="281.4" y="421.0" width="7.0" height="1.0" fill="#15803d" opacity="0.78"/>

<rect x="291.1" y="421.0" width="7.0" height="1.0" fill="#15803d" opacity="0.78"/>

<rect x="300.8" y="338.9" width="7.0" height="82.1" fill="#15803d" opacity="0.78"/>

<rect x="310.5" y="421.0" width="7.0" height="1.0" fill="#15803d" opacity="0.78"/>

<rect x="320.3" y="338.9" width="7.0" height="82.1" fill="#15803d" opacity="0.78"/>

<rect x="330.0" y="256.8" width="7.0" height="164.2" fill="#15803d" opacity="0.78"/>

<rect x="339.7" y="256.8" width="7.0" height="164.2" fill="#15803d" opacity="0.78"/>

<rect x="349.4" y="256.8" width="7.0" height="164.2" fill="#15803d" opacity="0.78"/>

<rect x="359.1" y="174.7" width="7.0" height="246.3" fill="#15803d" opacity="0.78"/>

<rect x="368.8" y="421.0" width="7.0" height="1.0" fill="#15803d" opacity="0.78"/>

<rect x="378.5" y="421.0" width="7.0" height="1.0" fill="#15803d" opacity="0.78"/>

<rect x="388.2" y="256.8" width="7.0" height="164.2" fill="#15803d" opacity="0.78"/>

<rect x="397.9" y="256.8" width="7.0" height="164.2" fill="#15803d" opacity="0.78"/>

<rect x="407.6" y="421.0" width="7.0" height="1.0" fill="#15803d" opacity="0.78"/>

<rect x="417.3" y="421.0" width="7.0" height="1.0" fill="#15803d" opacity="0.78"/>

<rect x="427.1" y="421.0" width="7.0" height="1.0" fill="#15803d" opacity="0.78"/>

<rect x="436.8" y="421.0" width="7.0" height="1.0" fill="#15803d" opacity="0.78"/>

<rect x="446.5" y="421.0" width="7.0" height="1.0" fill="#15803d" opacity="0.78"/>

<rect x="456.2" y="421.0" width="7.0" height="1.0" fill="#15803d" opacity="0.78"/>

<rect x="465.9" y="421.0" width="7.0" height="1.0" fill="#15803d" opacity="0.78"/>

<rect x="475.6" y="421.0" width="7.0" height="1.0" fill="#15803d" opacity="0.78"/>

<rect x="485.3" y="421.0" width="7.0" height="1.0" fill="#15803d" opacity="0.78"/>

<rect x="495.0" y="421.0" width="7.0" height="1.0" fill="#15803d" opacity="0.78"/>

<rect x="504.7" y="421.0" width="7.0" height="1.0" fill="#15803d" opacity="0.78"/>

<rect x="514.4" y="421.0" width="7.0" height="1.0" fill="#15803d" opacity="0.78"/>

<rect x="524.2" y="338.9" width="7.0" height="82.1" fill="#15803d" opacity="0.78"/>

<rect x="533.9" y="338.9" width="7.0" height="82.1" fill="#15803d" opacity="0.78"/>

<rect x="543.6" y="421.0" width="7.0" height="1.0" fill="#15803d" opacity="0.78"/>

<rect x="553.3" y="174.7" width="7.0" height="246.3" fill="#15803d" opacity="0.78"/>

<rect x="563.0" y="421.0" width="7.0" height="1.0" fill="#15803d" opacity="0.78"/>

<rect x="572.7" y="256.8" width="7.0" height="164.2" fill="#15803d" opacity="0.78"/>

<rect x="582.4" y="338.9" width="7.0" height="82.1" fill="#15803d" opacity="0.78"/>

<rect x="592.1" y="338.9" width="7.0" height="82.1" fill="#15803d" opacity="0.78"/>

<rect x="601.8" y="421.0" width="7.0" height="1.0" fill="#15803d" opacity="0.78"/>

<rect x="611.5" y="338.9" width="7.0" height="82.1" fill="#15803d" opacity="0.78"/>

<rect x="621.2" y="421.0" width="7.0" height="1.0" fill="#15803d" opacity="0.78"/>

<rect x="631.0" y="421.0" width="7.0" height="1.0" fill="#15803d" opacity="0.78"/>

<rect x="640.7" y="256.8" width="7.0" height="164.2" fill="#15803d" opacity="0.78"/>

<rect x="650.4" y="256.8" width="7.0" height="164.2" fill="#15803d" opacity="0.78"/>

<rect x="660.1" y="256.8" width="7.0" height="164.2" fill="#15803d" opacity="0.78"/>

<rect x="669.8" y="256.8" width="7.0" height="164.2" fill="#15803d" opacity="0.78"/>

<rect x="679.5" y="338.9" width="7.0" height="82.1" fill="#15803d" opacity="0.78"/>

<rect x="689.2" y="338.9" width="7.0" height="82.1" fill="#15803d" opacity="0.78"/>

<rect x="698.9" y="256.8" width="7.0" height="164.2" fill="#15803d" opacity="0.78"/>

<rect x="708.6" y="338.9" width="7.0" height="82.1" fill="#15803d" opacity="0.78"/>

<rect x="718.3" y="421.0" width="7.0" height="1.0" fill="#15803d" opacity="0.78"/>

<rect x="728.0" y="421.0" width="7.0" height="1.0" fill="#15803d" opacity="0.78"/>

<rect x="737.8" y="338.9" width="7.0" height="82.1" fill="#15803d" opacity="0.78"/>

<rect x="747.5" y="421.0" width="7.0" height="1.0" fill="#15803d" opacity="0.78"/>

<rect x="757.2" y="421.0" width="7.0" height="1.0" fill="#15803d" opacity="0.78"/>

<rect x="766.9" y="92.6" width="7.0" height="328.4" fill="#15803d" opacity="0.78"/>

<rect x="776.6" y="256.8" width="7.0" height="164.2" fill="#15803d" opacity="0.78"/>

<rect x="786.3" y="421.0" width="7.0" height="1.0" fill="#15803d" opacity="0.78"/>

<rect x="796.0" y="421.0" width="7.0" height="1.0" fill="#15803d" opacity="0.78"/>

<rect x="805.7" y="256.8" width="7.0" height="164.2" fill="#15803d" opacity="0.78"/>

<rect x="815.4" y="338.9" width="7.0" height="82.1" fill="#15803d" opacity="0.78"/>

<rect x="825.1" y="421.0" width="7.0" height="1.0" fill="#15803d" opacity="0.78"/>

<rect x="834.8" y="174.7" width="7.0" height="246.3" fill="#15803d" opacity="0.78"/>

<rect x="844.6" y="92.6" width="7.0" height="328.4" fill="#15803d" opacity="0.78"/>

<rect x="854.3" y="174.7" width="7.0" height="246.3" fill="#15803d" opacity="0.78"/>

<rect x="864.0" y="256.8" width="7.0" height="164.2" fill="#15803d" opacity="0.78"/>

<rect x="873.7" y="338.9" width="7.0" height="82.1" fill="#15803d" opacity="0.78"/>

<rect x="883.4" y="421.0" width="7.0" height="1.0" fill="#15803d" opacity="0.78"/>

<rect x="893.1" y="421.0" width="7.0" height="1.0" fill="#15803d" opacity="0.78"/>

<rect x="902.8" y="256.8" width="7.0" height="164.2" fill="#15803d" opacity="0.78"/>

<rect x="912.5" y="421.0" width="7.0" height="1.0" fill="#15803d" opacity="0.78"/>

<rect x="922.2" y="421.0" width="7.0" height="1.0" fill="#15803d" opacity="0.78"/>

<rect x="931.9" y="174.7" width="7.0" height="246.3" fill="#15803d" opacity="0.78"/>

<rect x="941.7" y="92.6" width="7.0" height="328.4" fill="#15803d" opacity="0.78"/>


</svg>
