<svg xmlns="http://www.w3.org/2000/svg" width="980" height="560" viewBox="0 0 980 560" role="img" aria-label="Paarweise Differenzen Teil 4/4">
<rect width="100%" height="100%" fill="white"/>
<text x="490" y="34" text-anchor="middle" font-size="26" font-weight="700" fill="#0f172a">Paarweise Differenzen Teil 4/4</text>
<text x="28" y="265" transform="rotate(-90 28 265)" text-anchor="middle" font-size="24" fill="#475569">Workflow - Direkter Aufruf (Prozentpunkte)</text>
<text x="532.5" y="536" text-anchor="middle" font-size="24" fill="#475569">Antwortpaare 301-397 von 397</text>
<line x1="115" y1="322.5" x2="950" y2="322.5" stroke="#94a3b8" stroke-dasharray="4 4"/>
<line x1="115" y1="65" x2="115" y2="465" stroke="#cbd5e1"/>
<line x1="115" y1="465" x2="950" y2="465" stroke="#cbd5e1"/>
<line x1="115" y1="465.0" x2="950" y2="465.0" stroke="#e2e8f0"/>
<text x="105" y="470.0" text-anchor="end" font-size="16" fill="#64748b">-62</text>
<line x1="115" y1="365.0" x2="950" y2="365.0" stroke="#e2e8f0"/>
<text x="105" y="370.0" text-anchor="end" font-size="16" fill="#64748b">-19</text>
<line x1="115" y1="265.0" x2="950" y2="265.0" stroke="#e2e8f0"/>
<text x="105" y="270.0" text-anchor="end" font-size="16" fill="#64748b">25</text>
<line x1="115" y1="165.0" x2="950" y2="165.0" stroke="#e2e8f0"/>
<text x="105" y="170.0" text-anchor="end" font-size="16" fill="#64748b">69</text>
<line x1="115" y1="65.0" x2="950" y2="65.0" stroke="#e2e8f0"/>
<text x="105" y="70.0" text-anchor="end" font-size="16" fill="#64748b">112</text>
<rect x="116.2" y="265.0" width="6.2" height="57.5" fill="#15803d" opacity="0.78"/>

<rect x="124.8" y="265.0" width="6.2" height="57.5" fill="#15803d" opacity="0.78"/>

<rect x="133.4" y="265.0" width="6.2" height="57.5" fill="#15803d" opacity="0.78"/>

<rect x="142.0" y="322.5" width="6.2" height="1.0" fill="#15803d" opacity="0.78"/>

<rect x="150.6" y="322.5" width="6.2" height="1.0" fill="#15803d" opacity="0.78"/>

<rect x="159.2" y="322.5" width="6.2" height="1.0" fill="#15803d" opacity="0.78"/>

<rect x="167.9" y="265.0" width="6.2" height="57.5" fill="#15803d" opacity="0.78"/>

<rect x="176.5" y="265.0" width="6.2" height="57.5" fill="#15803d" opacity="0.78"/>

<rect x="185.1" y="265.0" width="6.2" height="57.5" fill="#15803d" opacity="0.78"/>

<rect x="193.7" y="322.5" width="6.2" height="1.0" fill="#15803d" opacity="0.78"/>

<rect x="202.3" y="265.0" width="6.2" height="57.5" fill="#15803d" opacity="0.78"/>

<rect x="210.9" y="322.5" width="6.2" height="1.0" fill="#15803d" opacity="0.78"/>

<rect x="219.5" y="207.5" width="6.2" height="114.9" fill="#15803d" opacity="0.78"/>

<rect x="228.1" y="322.5" width="6.2" height="1.0" fill="#15803d" opacity="0.78"/>

<rect x="236.7" y="265.0" width="6.2" height="57.5" fill="#15803d" opacity="0.78"/>

<rect x="245.3" y="265.0" width="6.2" height="57.5" fill="#15803d" opacity="0.78"/>

<rect x="253.9" y="265.0" width="6.2" height="57.5" fill="#15803d" opacity="0.78"/>

<rect x="262.5" y="265.0" width="6.2" height="57.5" fill="#15803d" opacity="0.78"/>

<rect x="271.2" y="322.5" width="6.2" height="1.0" fill="#15803d" opacity="0.78"/>

<rect x="279.8" y="265.0" width="6.2" height="57.5" fill="#15803d" opacity="0.78"/>

<rect x="288.4" y="322.5" width="6.2" height="1.0" fill="#15803d" opacity="0.78"/>

<rect x="297.0" y="322.5" width="6.2" height="1.0" fill="#15803d" opacity="0.78"/>

<rect x="305.6" y="265.0" width="6.2" height="57.5" fill="#15803d" opacity="0.78"/>

<rect x="314.2" y="265.0" width="6.2" height="57.5" fill="#15803d" opacity="0.78"/>

<rect x="322.8" y="265.0" width="6.2" height="57.5" fill="#15803d" opacity="0.78"/>

<rect x="331.4" y="322.5" width="6.2" height="1.0" fill="#15803d" opacity="0.78"/>

<rect x="340.0" y="322.5" width="6.2" height="1.0" fill="#15803d" opacity="0.78"/>

<rect x="348.6" y="322.5" width="6.2" height="1.0" fill="#15803d" opacity="0.78"/>

<rect x="357.2" y="207.5" width="6.2" height="114.9" fill="#15803d" opacity="0.78"/>

<rect x="365.8" y="207.5" width="6.2" height="114.9" fill="#15803d" opacity="0.78"/>

<rect x="374.5" y="322.5" width="6.2" height="1.0" fill="#15803d" opacity="0.78"/>

<rect x="383.1" y="322.5" width="6.2" height="1.0" fill="#15803d" opacity="0.78"/>

<rect x="391.7" y="322.5" width="6.2" height="57.5" fill="#dc2626" opacity="0.78"/>

<rect x="400.3" y="207.5" width="6.2" height="114.9" fill="#15803d" opacity="0.78"/>

<rect x="408.9" y="322.5" width="6.2" height="57.5" fill="#dc2626" opacity="0.78"/>

<rect x="417.5" y="207.5" width="6.2" height="114.9" fill="#15803d" opacity="0.78"/>

<rect x="426.1" y="265.0" width="6.2" height="57.5" fill="#15803d" opacity="0.78"/>

<rect x="434.7" y="265.0" width="6.2" height="57.5" fill="#15803d" opacity="0.78"/>

<rect x="443.3" y="322.5" width="6.2" height="1.0" fill="#15803d" opacity="0.78"/>

<rect x="451.9" y="322.5" width="6.2" height="1.0" fill="#15803d" opacity="0.78"/>

<rect x="460.5" y="322.5" width="6.2" height="1.0" fill="#15803d" opacity="0.78"/>

<rect x="469.1" y="265.0" width="6.2" height="57.5" fill="#15803d" opacity="0.78"/>

<rect x="477.8" y="265.0" width="6.2" height="57.5" fill="#15803d" opacity="0.78"/>

<rect x="486.4" y="265.0" width="6.2" height="57.5" fill="#15803d" opacity="0.78"/>

<rect x="495.0" y="265.0" width="6.2" height="57.5" fill="#15803d" opacity="0.78"/>

<rect x="503.6" y="207.5" width="6.2" height="114.9" fill="#15803d" opacity="0.78"/>

<rect x="512.2" y="265.0" width="6.2" height="57.5" fill="#15803d" opacity="0.78"/>

<rect x="520.8" y="265.0" width="6.2" height="57.5" fill="#15803d" opacity="0.78"/>

<rect x="529.4" y="322.5" width="6.2" height="1.0" fill="#15803d" opacity="0.78"/>

<rect x="538.0" y="322.5" width="6.2" height="1.0" fill="#15803d" opacity="0.78"/>

<rect x="546.6" y="265.0" width="6.2" height="57.5" fill="#15803d" opacity="0.78"/>

<rect x="555.2" y="322.5" width="6.2" height="1.0" fill="#15803d" opacity="0.78"/>

<rect x="563.8" y="322.5" width="6.2" height="1.0" fill="#15803d" opacity="0.78"/>

<rect x="572.4" y="265.0" width="6.2" height="57.5" fill="#15803d" opacity="0.78"/>

<rect x="581.1" y="265.0" width="6.2" height="57.5" fill="#15803d" opacity="0.78"/>

<rect x="589.7" y="322.5" width="6.2" height="1.0" fill="#15803d" opacity="0.78"/>

<rect x="598.3" y="322.5" width="6.2" height="1.0" fill="#15803d" opacity="0.78"/>

<rect x="606.9" y="265.0" width="6.2" height="57.5" fill="#15803d" opacity="0.78"/>

<rect x="615.5" y="92.6" width="6.2" height="229.9" fill="#15803d" opacity="0.78"/>

<rect x="624.1" y="322.5" width="6.2" height="1.0" fill="#15803d" opacity="0.78"/>

<rect x="632.7" y="207.5" width="6.2" height="114.9" fill="#15803d" opacity="0.78"/>

<rect x="641.3" y="322.5" width="6.2" height="1.0" fill="#15803d" opacity="0.78"/>

<rect x="649.9" y="322.5" width="6.2" height="1.0" fill="#15803d" opacity="0.78"/>

<rect x="658.5" y="207.5" width="6.2" height="114.9" fill="#15803d" opacity="0.78"/>

<rect x="667.1" y="322.5" width="6.2" height="57.5" fill="#dc2626" opacity="0.78"/>

<rect x="675.7" y="265.0" width="6.2" height="57.5" fill="#15803d" opacity="0.78"/>

<rect x="684.3" y="322.5" width="6.2" height="114.9" fill="#dc2626" opacity="0.78"/>

<rect x="693.0" y="322.5" width="6.2" height="1.0" fill="#15803d" opacity="0.78"/>

<rect x="701.6" y="322.5" width="6.2" height="57.5" fill="#dc2626" opacity="0.78"/>

<rect x="710.2" y="322.5" width="6.2" height="57.5" fill="#dc2626" opacity="0.78"/>

<rect x="718.8" y="265.0" width="6.2" height="57.5" fill="#15803d" opacity="0.78"/>

<rect x="727.4" y="265.0" width="6.2" height="57.5" fill="#15803d" opacity="0.78"/>

<rect x="736.0" y="322.5" width="6.2" height="1.0" fill="#15803d" opacity="0.78"/>

<rect x="744.6" y="322.5" width="6.2" height="1.0" fill="#15803d" opacity="0.78"/>

<rect x="753.2" y="322.5" width="6.2" height="1.0" fill="#15803d" opacity="0.78"/>

<rect x="761.8" y="150.1" width="6.2" height="172.4" fill="#15803d" opacity="0.78"/>

<rect x="770.4" y="92.6" width="6.2" height="229.9" fill="#15803d" opacity="0.78"/>

<rect x="779.0" y="150.1" width="6.2" height="172.4" fill="#15803d" opacity="0.78"/>

<rect x="787.6" y="322.5" width="6.2" height="1.0" fill="#15803d" opacity="0.78"/>

<rect x="796.3" y="322.5" width="6.2" height="57.5" fill="#dc2626" opacity="0.78"/>

<rect x="804.9" y="207.5" width="6.2" height="114.9" fill="#15803d" opacity="0.78"/>

<rect x="813.5" y="265.0" width="6.2" height="57.5" fill="#15803d" opacity="0.78"/>

<rect x="822.1" y="322.5" width="6.2" height="1.0" fill="#15803d" opacity="0.78"/>

<rect x="830.7" y="322.5" width="6.2" height="1.0" fill="#15803d" opacity="0.78"/>

<rect x="839.3" y="322.5" width="6.2" height="57.5" fill="#dc2626" opacity="0.78"/>

<rect x="847.9" y="207.5" width="6.2" height="114.9" fill="#15803d" opacity="0.78"/>

<rect x="856.5" y="322.5" width="6.2" height="1.0" fill="#15803d" opacity="0.78"/>

<rect x="865.1" y="322.5" width="6.2" height="1.0" fill="#15803d" opacity="0.78"/>

<rect x="873.7" y="322.5" width="6.2" height="1.0" fill="#15803d" opacity="0.78"/>

<rect x="882.3" y="265.0" width="6.2" height="57.5" fill="#15803d" opacity="0.78"/>

<rect x="890.9" y="322.5" width="6.2" height="1.0" fill="#15803d" opacity="0.78"/>

<rect x="899.6" y="322.5" width="6.2" height="1.0" fill="#15803d" opacity="0.78"/>

<rect x="908.2" y="265.0" width="6.2" height="57.5" fill="#15803d" opacity="0.78"/>

<rect x="916.8" y="265.0" width="6.2" height="57.5" fill="#15803d" opacity="0.78"/>

<rect x="925.4" y="265.0" width="6.2" height="57.5" fill="#15803d" opacity="0.78"/>

<rect x="934.0" y="150.1" width="6.2" height="172.4" fill="#15803d" opacity="0.78"/>

<rect x="942.6" y="92.6" width="6.2" height="229.9" fill="#15803d" opacity="0.78"/>


</svg>
