<svg xmlns="http://www.w3.org/2000/svg" width="980" height="560" viewBox="0 0 980 560" role="img" aria-label="Paarweise Differenzen (Sample)">
<rect width="100%" height="100%" fill="white"/>
<text x="490" y="34" text-anchor="middle" font-size="26" font-weight="700" fill="#0f172a">Paarweise Differenzen (Sample)</text>
<text x="28" y="265" transform="rotate(-90 28 265)" text-anchor="middle" font-size="24" fill="#475569">Workflow - Direkter Aufruf (Prozentpunkte)</text>
<text x="532.5" y="536" text-anchor="middle" font-size="24" fill="#475569">Erste 120 Antwortpaare, geordnet nach Frage/Run</text>
<line x1="115" y1="299.5" x2="950" y2="299.5" stroke="#94a3b8" stroke-dasharray="4 4"/>
<line x1="115" y1="65" x2="115" y2="465" stroke="#cbd5e1"/>
<line x1="115" y1="465" x2="950" y2="465" stroke="#cbd5e1"/>
<line x1="115" y1="465.0" x2="950" y2="465.0" stroke="#e2e8f0"/>
<text x="105" y="470.0" text-anchor="end" font-size="16" fill="#64748b">-80</text>
<line x1="115" y1="365.0" x2="950" y2="365.0" stroke="#e2e8f0"/>
<text x="105" y="370.0" text-anchor="end" font-size="16" fill="#64748b">-32</text>
<line x1="115" y1="265.0" x2="950" y2="265.0" stroke="#e2e8f0"/>
<text x="105" y="270.0" text-anchor="end" font-size="16" fill="#64748b">17</text>
<line x1="115" y1="165.0" x2="950" y2="165.0" stroke="#e2e8f0"/>
<text x="105" y="170.0" text-anchor="end" font-size="16" fill="#64748b">65</text>
<line x1="115" y1="65.0" x2="950" y2="65.0" stroke="#e2e8f0"/>
<text x="105" y="70.0" text-anchor="end" font-size="16" fill="#64748b">113</text>
<rect x="116.8" y="299.5" width="9.1" height="1.0" fill="#15803d" opacity="0.78"/>
<text x="121.3" y="291.5" text-anchor="middle" font-size="16" font-weight="700" fill="#0f172a">0.0</text>
<rect x="129.4" y="299.5" width="9.1" height="1.0" fill="#15803d" opacity="0.78"/>
<text x="134.0" y="291.5" text-anchor="middle" font-size="16" font-weight="700" fill="#0f172a">0.0</text>
<rect x="142.1" y="299.5" width="9.1" height="1.0" fill="#15803d" opacity="0.78"/>
<text x="146.6" y="291.5" text-anchor="middle" font-size="16" font-weight="700" fill="#0f172a">0.0</text>
<rect x="154.7" y="247.8" width="9.1" height="51.7" fill="#15803d" opacity="0.78"/>
<text x="159.3" y="239.8" text-anchor="middle" font-size="16" font-weight="700" fill="#0f172a">25.0</text>
<rect x="167.4" y="247.8" width="9.1" height="51.7" fill="#15803d" opacity="0.78"/>
<text x="171.9" y="239.8" text-anchor="middle" font-size="16" font-weight="700" fill="#0f172a">25.0</text>
<rect x="180.0" y="92.6" width="9.1" height="206.9" fill="#15803d" opacity="0.78"/>
<text x="184.6" y="84.6" text-anchor="middle" font-size="16" font-weight="700" fill="#0f172a">100.0</text>
<rect x="192.7" y="144.3" width="9.1" height="155.2" fill="#15803d" opacity="0.78"/>
<text x="197.2" y="136.3" text-anchor="middle" font-size="16" font-weight="700" fill="#0f172a">75.0</text>
<rect x="205.3" y="299.5" width="9.1" height="1.0" fill="#15803d" opacity="0.78"/>
<text x="209.9" y="291.5" text-anchor="middle" font-size="16" font-weight="700" fill="#0f172a">0.0</text>
<rect x="218.0" y="299.5" width="9.1" height="69.0" fill="#dc2626" opacity="0.78"/>
<text x="222.5" y="386.4" text-anchor="middle" font-size="16" font-weight="700" fill="#0f172a">-33.3</text>
<rect x="230.6" y="299.5" width="9.1" height="1.0" fill="#15803d" opacity="0.78"/>
<text x="235.2" y="291.5" text-anchor="middle" font-size="16" font-weight="700" fill="#0f172a">0.0</text>
<rect x="243.3" y="230.5" width="9.1" height="69.0" fill="#15803d" opacity="0.78"/>
<text x="247.8" y="222.5" text-anchor="middle" font-size="16" font-weight="700" fill="#0f172a">33.3</text>
<rect x="255.9" y="230.5" width="9.1" height="69.0" fill="#15803d" opacity="0.78"/>
<text x="260.5" y="222.5" text-anchor="middle" font-size="16" font-weight="700" fill="#0f172a">33.3</text>
<rect x="268.6" y="253.5" width="9.1" height="46.0" fill="#15803d" opacity="0.78"/>
<text x="273.1" y="245.5" text-anchor="middle" font-size="16" font-weight="700" fill="#0f172a">22.2</text>
<rect x="281.2" y="299.5" width="9.1" height="92.0" fill="#dc2626" opacity="0.78"/>
<text x="285.8" y="409.4" text-anchor="middle" font-size="16" font-weight="700" fill="#0f172a">-44.4</text>
<rect x="293.9" y="299.5" width="9.1" height="69.0" fill="#dc2626" opacity="0.78"/>
<text x="298.4" y="386.4" text-anchor="middle" font-size="16" font-weight="700" fill="#0f172a">-33.3</text>
<rect x="306.5" y="299.5" width="9.1" height="46.0" fill="#dc2626" opacity="0.78"/>
<text x="311.1" y="363.5" text-anchor="middle" font-size="16" font-weight="700" fill="#0f172a">-22.2</text>
<rect x="319.2" y="230.5" width="9.1" height="69.0" fill="#15803d" opacity="0.78"/>
<text x="323.8" y="222.5" text-anchor="middle" font-size="16" font-weight="700" fill="#0f172a">33.3</text>
<rect x="331.8" y="253.5" width="9.1" height="46.0" fill="#15803d" opacity="0.78"/>
<text x="336.4" y="245.5" text-anchor="middle" font-size="16" font-weight="700" fill="#0f172a">22.2</text>
<rect x="344.5" y="299.5" width="9.1" height="23.0" fill="#dc2626" opacity="0.78"/>
<text x="349.1" y="340.5" text-anchor="middle" font-size="16" font-weight="700" fill="#0f172a">-11.1</text>
<rect x="357.1" y="299.5" width="9.1" height="1.0" fill="#15803d" opacity="0.78"/>
<text x="361.7" y="291.5" text-anchor="middle" font-size="16" font-weight="700" fill="#0f172a">0.0</text>
<rect x="369.8" y="230.5" width="9.1" height="69.0" fill="#15803d" opacity="0.78"/>
<text x="374.4" y="222.5" text-anchor="middle" font-size="16" font-weight="700" fill="#0f172a">33.3</text>
<rect x="382.5" y="253.5" width="9.1" height="46.0" fill="#15803d" opacity="0.78"/>
<text x="387.0" y="245.5" text-anchor="middle" font-size="16" font-weight="700" fill="#0f172a">22.2</text>
<rect x="395.1" y="299.5" width="9.1" height="92.0" fill="#dc2626" opacity="0.78"/>
<text x="399.7" y="409.4" text-anchor="middle" font-size="16" font-weight="700" fill="#0f172a">-44.4</text>
<rect x="407.8" y="207.5" width="9.1" height="92.0" fill="#15803d" opacity="0.78"/>
<text x="412.3" y="199.5" text-anchor="middle" font-size="16" font-weight="700" fill="#0f172a">44.4</text>
<rect x="420.4" y="299.5" width="9.1" height="23.0" fill="#dc2626" opacity="0.78"/>
<text x="425.0" y="340.5" text-anchor="middle" font-size="16" font-weight="700" fill="#0f172a">-11.1</text>
<rect x="433.1" y="299.5" width="9.1" height="23.0" fill="#dc2626" opacity="0.78"/>
<text x="437.6" y="340.5" text-anchor="middle" font-size="16" font-weight="700" fill="#0f172a">-11.1</text>
<rect x="445.7" y="299.5" width="9.1" height="137.9" fill="#dc2626" opacity="0.78"/>
<text x="450.3" y="455.4" text-anchor="middle" font-size="16" font-weight="700" fill="#0f172a">-66.7</text>
<rect x="458.4" y="299.5" width="9.1" height="46.0" fill="#dc2626" opacity="0.78"/>
<text x="462.9" y="363.5" text-anchor="middle" font-size="16" font-weight="700" fill="#0f172a">-22.2</text>
<rect x="471.0" y="253.5" width="9.1" height="46.0" fill="#15803d" opacity="0.78"/>
<text x="475.6" y="245.5" text-anchor="middle" font-size="16" font-weight="700" fill="#0f172a">22.2</text>
<rect x="483.7" y="299.5" width="9.1" height="46.0" fill="#dc2626" opacity="0.78"/>
<text x="488.2" y="363.5" text-anchor="middle" font-size="16" font-weight="700" fill="#0f172a">-22.2</text>
<rect x="496.3" y="253.5" width="9.1" height="46.0" fill="#15803d" opacity="0.78"/>
<text x="500.9" y="245.5" text-anchor="middle" font-size="16" font-weight="700" fill="#0f172a">22.2</text>
<rect x="509.0" y="299.5" width="9.1" height="46.0" fill="#dc2626" opacity="0.78"/>
<text x="513.5" y="363.5" text-anchor="middle" font-size="16" font-weight="700" fill="#0f172a">-22.2</text>
<rect x="521.6" y="276.5" width="9.1" height="23.0" fill="#15803d" opacity="0.78"/>
<text x="526.2" y="268.5" text-anchor="middle" font-size="16" font-weight="700" fill="#0f172a">11.1</text>
<rect x="534.3" y="299.5" width="9.1" height="69.0" fill="#dc2626" opacity="0.78"/>
<text x="538.8" y="386.4" text-anchor="middle" font-size="16" font-weight="700" fill="#0f172a">-33.3</text>
<rect x="546.9" y="299.5" width="9.1" height="1.0" fill="#15803d" opacity="0.78"/>
<text x="551.5" y="291.5" text-anchor="middle" font-size="16" font-weight="700" fill="#0f172a">0.0</text>
<rect x="559.6" y="207.5" width="9.1" height="92.0" fill="#15803d" opacity="0.78"/>
<text x="564.1" y="199.5" text-anchor="middle" font-size="16" font-weight="700" fill="#0f172a">44.4</text>
<rect x="572.2" y="207.5" width="9.1" height="92.0" fill="#15803d" opacity="0.78"/>
<text x="576.8" y="199.5" text-anchor="middle" font-size="16" font-weight="700" fill="#0f172a">44.4</text>
<rect x="584.9" y="138.6" width="9.1" height="160.9" fill="#15803d" opacity="0.78"/>
<text x="589.4" y="130.6" text-anchor="middle" font-size="16" font-weight="700" fill="#0f172a">77.8</text>
<rect x="597.5" y="253.5" width="9.1" height="46.0" fill="#15803d" opacity="0.78"/>
<text x="602.1" y="245.5" text-anchor="middle" font-size="16" font-weight="700" fill="#0f172a">22.2</text>
<rect x="610.2" y="207.5" width="9.1" height="92.0" fill="#15803d" opacity="0.78"/>
<text x="614.7" y="199.5" text-anchor="middle" font-size="16" font-weight="700" fill="#0f172a">44.4</text>
<rect x="622.8" y="299.5" width="9.1" height="1.0" fill="#15803d" opacity="0.78"/>
<text x="627.4" y="291.5" text-anchor="middle" font-size="16" font-weight="700" fill="#0f172a">0.0</text>
<rect x="635.5" y="253.5" width="9.1" height="46.0" fill="#15803d" opacity="0.78"/>
<text x="640.0" y="245.5" text-anchor="middle" font-size="16" font-weight="700" fill="#0f172a">22.2</text>
<rect x="648.1" y="299.5" width="9.1" height="1.0" fill="#15803d" opacity="0.78"/>
<text x="652.7" y="291.5" text-anchor="middle" font-size="16" font-weight="700" fill="#0f172a">0.0</text>
<rect x="660.8" y="276.5" width="9.1" height="23.0" fill="#15803d" opacity="0.78"/>
<text x="665.3" y="268.5" text-anchor="middle" font-size="16" font-weight="700" fill="#0f172a">11.1</text>
<rect x="673.4" y="253.5" width="9.1" height="46.0" fill="#15803d" opacity="0.78"/>
<text x="678.0" y="245.5" text-anchor="middle" font-size="16" font-weight="700" fill="#0f172a">22.2</text>
<rect x="686.1" y="276.5" width="9.1" height="23.0" fill="#15803d" opacity="0.78"/>
<text x="690.6" y="268.5" text-anchor="middle" font-size="16" font-weight="700" fill="#0f172a">11.1</text>
<rect x="698.7" y="299.5" width="9.1" height="1.0" fill="#15803d" opacity="0.78"/>
<text x="703.3" y="291.5" text-anchor="middle" font-size="16" font-weight="700" fill="#0f172a">0.0</text>
<rect x="711.4" y="253.5" width="9.1" height="46.0" fill="#15803d" opacity="0.78"/>
<text x="715.9" y="245.5" text-anchor="middle" font-size="16" font-weight="700" fill="#0f172a">22.2</text>
<rect x="724.0" y="299.5" width="9.1" height="1.0" fill="#15803d" opacity="0.78"/>
<text x="728.6" y="291.5" text-anchor="middle" font-size="16" font-weight="700" fill="#0f172a">0.0</text>
<rect x="736.7" y="161.6" width="9.1" height="137.9" fill="#15803d" opacity="0.78"/>
<text x="741.3" y="153.6" text-anchor="middle" font-size="16" font-weight="700" fill="#0f172a">66.7</text>
<rect x="749.3" y="253.5" width="9.1" height="46.0" fill="#15803d" opacity="0.78"/>
<text x="753.9" y="245.5" text-anchor="middle" font-size="16" font-weight="700" fill="#0f172a">22.2</text>
<rect x="762.0" y="299.5" width="9.1" height="1.0" fill="#15803d" opacity="0.78"/>
<text x="766.6" y="291.5" text-anchor="middle" font-size="16" font-weight="700" fill="#0f172a">0.0</text>
<rect x="774.6" y="299.5" width="9.1" height="1.0" fill="#15803d" opacity="0.78"/>
<text x="779.2" y="291.5" text-anchor="middle" font-size="16" font-weight="700" fill="#0f172a">0.0</text>
<rect x="787.3" y="230.5" width="9.1" height="69.0" fill="#15803d" opacity="0.78"/>
<text x="791.9" y="222.5" text-anchor="middle" font-size="16" font-weight="700" fill="#0f172a">33.3</text>
<rect x="800.0" y="276.5" width="9.1" height="23.0" fill="#15803d" opacity="0.78"/>
<text x="804.5" y="268.5" text-anchor="middle" font-size="16" font-weight="700" fill="#0f172a">11.1</text>
<rect x="812.6" y="299.5" width="9.1" height="46.0" fill="#dc2626" opacity="0.78"/>
<text x="817.2" y="363.5" text-anchor="middle" font-size="16" font-weight="700" fill="#0f172a">-22.2</text>
<rect x="825.3" y="299.5" width="9.1" height="1.0" fill="#15803d" opacity="0.78"/>
<text x="829.8" y="291.5" text-anchor="middle" font-size="16" font-weight="700" fill="#0f172a">0.0</text>
<rect x="837.9" y="299.5" width="9.1" height="114.9" fill="#dc2626" opacity="0.78"/>
<text x="842.5" y="432.4" text-anchor="middle" font-size="16" font-weight="700" fill="#0f172a">-55.6</text>
<rect x="850.6" y="276.5" width="9.1" height="23.0" fill="#15803d" opacity="0.78"/>
<text x="855.1" y="268.5" text-anchor="middle" font-size="16" font-weight="700" fill="#0f172a">11.1</text>
<rect x="863.2" y="161.6" width="9.1" height="137.9" fill="#15803d" opacity="0.78"/>
<text x="867.8" y="153.6" text-anchor="middle" font-size="16" font-weight="700" fill="#0f172a">66.7</text>
<rect x="875.9" y="299.5" width="9.1" height="1.0" fill="#15803d" opacity="0.78"/>
<text x="880.4" y="291.5" text-anchor="middle" font-size="16" font-weight="700" fill="#0f172a">0.0</text>
<rect x="888.5" y="230.5" width="9.1" height="69.0" fill="#15803d" opacity="0.78"/>
<text x="893.1" y="222.5" text-anchor="middle" font-size="16" font-weight="700" fill="#0f172a">33.3</text>
<rect x="901.2" y="299.5" width="9.1" height="1.0" fill="#15803d" opacity="0.78"/>
<text x="905.7" y="291.5" text-anchor="middle" font-size="16" font-weight="700" fill="#0f172a">0.0</text>
<rect x="913.8" y="299.5" width="9.1" height="1.0" fill="#15803d" opacity="0.78"/>
<text x="918.4" y="291.5" text-anchor="middle" font-size="16" font-weight="700" fill="#0f172a">0.0</text>
<rect x="926.5" y="299.5" width="9.1" height="1.0" fill="#15803d" opacity="0.78"/>
<text x="931.0" y="291.5" text-anchor="middle" font-size="16" font-weight="700" fill="#0f172a">0.0</text>
<rect x="939.1" y="299.5" width="9.1" height="1.0" fill="#15803d" opacity="0.78"/>
<text x="943.7" y="291.5" text-anchor="middle" font-size="16" font-weight="700" fill="#0f172a">0.0</text>

</svg>
