<svg xmlns="http://www.w3.org/2000/svg" width="760" height="600" viewBox="0 0 760 600" role="img" aria-label="Scorevergleich Direkter Aufruf vs Workflow">
<rect width="100%" height="100%" fill="white"/>
<text x="380" y="34" text-anchor="middle" font-size="26" font-weight="700" fill="#0f172a">Scorevergleich Direkter Aufruf vs Workflow</text>
<line x1="100.0" y1="65" x2="100.0" y2="505.0" stroke="#e2e8f0"/>
<line x1="100" y1="505.0" x2="725.0" y2="505.0" stroke="#e2e8f0"/>
<text x="100.0" y="529.0" text-anchor="middle" font-size="16" fill="#64748b">0</text>
<text x="90.0" y="510.0" text-anchor="end" font-size="16" fill="#64748b">0</text>
<line x1="256.3" y1="65" x2="256.3" y2="505.0" stroke="#e2e8f0"/>
<line x1="100" y1="395.0" x2="725.0" y2="395.0" stroke="#e2e8f0"/>
<text x="256.3" y="529.0" text-anchor="middle" font-size="16" fill="#64748b">25</text>
<text x="90.0" y="400.0" text-anchor="end" font-size="16" fill="#64748b">25</text>
<line x1="412.5" y1="65" x2="412.5" y2="505.0" stroke="#e2e8f0"/>
<line x1="100" y1="285.0" x2="725.0" y2="285.0" stroke="#e2e8f0"/>
<text x="412.5" y="529.0" text-anchor="middle" font-size="16" fill="#64748b">50</text>
<text x="90.0" y="290.0" text-anchor="end" font-size="16" fill="#64748b">50</text>
<line x1="568.8" y1="65" x2="568.8" y2="505.0" stroke="#e2e8f0"/>
<line x1="100" y1="175.0" x2="725.0" y2="175.0" stroke="#e2e8f0"/>
<text x="568.8" y="529.0" text-anchor="middle" font-size="16" fill="#64748b">75</text>
<text x="90.0" y="180.0" text-anchor="end" font-size="16" fill="#64748b">75</text>
<line x1="725.0" y1="65" x2="725.0" y2="505.0" stroke="#e2e8f0"/>
<line x1="100" y1="65.0" x2="725.0" y2="65.0" stroke="#e2e8f0"/>
<text x="725.0" y="529.0" text-anchor="middle" font-size="16" fill="#64748b">100</text>
<text x="90.0" y="70.0" text-anchor="end" font-size="16" fill="#64748b">100</text>
<line x1="100" y1="505" x2="725" y2="505" stroke="#cbd5e1"/>
<line x1="100" y1="65" x2="100" y2="505" stroke="#cbd5e1"/>
<line x1="100" y1="505" x2="725" y2="65" stroke="#94a3b8" stroke-dasharray="5 5"/>
<circle cx="475.0" cy="153.0" r="3" fill="#2563eb" opacity="0.48"/>
<circle cx="475.0" cy="241.0" r="3" fill="#2563eb" opacity="0.48"/>
<circle cx="473.2" cy="242.6" r="3" fill="#2563eb" opacity="0.48"/>
<circle cx="475.3" cy="237.6" r="3" fill="#2563eb" opacity="0.48"/>
<circle cx="477.5" cy="244.3" r="3" fill="#2563eb" opacity="0.48"/>
<circle cx="470.3" cy="240.2" r="3" fill="#2563eb" opacity="0.48"/>
<circle cx="350.0" cy="241.0" r="3" fill="#2563eb" opacity="0.48"/>
<circle cx="348.2" cy="242.6" r="3" fill="#2563eb" opacity="0.48"/>
<circle cx="350.3" cy="237.6" r="3" fill="#2563eb" opacity="0.48"/>
<circle cx="352.5" cy="244.3" r="3" fill="#2563eb" opacity="0.48"/>
<circle cx="475.0" cy="417.0" r="3" fill="#2563eb" opacity="0.48"/>
<circle cx="350.0" cy="329.0" r="3" fill="#2563eb" opacity="0.48"/>
<circle cx="256.3" cy="69.0" r="3" fill="#2563eb" opacity="0.48"/>
<circle cx="254.5" cy="69.0" r="3" fill="#2563eb" opacity="0.48"/>
<circle cx="256.5" cy="69.0" r="3" fill="#2563eb" opacity="0.48"/>
<circle cx="258.8" cy="69.0" r="3" fill="#2563eb" opacity="0.48"/>
<circle cx="251.5" cy="69.0" r="3" fill="#2563eb" opacity="0.48"/>
<circle cx="256.3" cy="175.0" r="3" fill="#2563eb" opacity="0.48"/>
<circle cx="256.3" cy="395.0" r="3" fill="#2563eb" opacity="0.48"/>
<circle cx="412.5" cy="395.0" r="3" fill="#2563eb" opacity="0.48"/>
<circle cx="412.5" cy="175.0" r="3" fill="#2563eb" opacity="0.48"/>
<circle cx="516.7" cy="113.9" r="3" fill="#2563eb" opacity="0.48"/>
<circle cx="516.7" cy="162.8" r="3" fill="#2563eb" opacity="0.48"/>
<circle cx="377.8" cy="358.3" r="3" fill="#2563eb" opacity="0.48"/>
<circle cx="516.7" cy="211.7" r="3" fill="#2563eb" opacity="0.48"/>
<circle cx="516.7" cy="69.0" r="3" fill="#2563eb" opacity="0.48"/>
<circle cx="412.5" cy="69.0" r="3" fill="#2563eb" opacity="0.48"/>
<text x="475.0" y="231.0" text-anchor="middle" font-size="13" font-weight="700" fill="#0f172a">5</text>
<text x="350.0" y="231.0" text-anchor="middle" font-size="13" font-weight="700" fill="#0f172a">4</text>
<text x="256.3" y="79.0" text-anchor="middle" font-size="13" font-weight="700" fill="#0f172a">5</text>
<text x="725" y="47" text-anchor="end" font-size="15" fill="#64748b">n=27; gleiche Scores leicht versetzt</text>
<text x="412.5" y="574" text-anchor="middle" font-size="26" fill="#475569">Score des direkten Aufrufs (%)</text>
<text x="28" y="285" transform="rotate(-90 28 285)" text-anchor="middle" font-size="26" fill="#475569">Score Workflow (%)</text>
</svg>
