<svg xmlns="http://www.w3.org/2000/svg" width="980" height="560" viewBox="0 0 980 560" role="img" aria-label="Paarweise Differenzen Teil 1/1">
<rect width="100%" height="100%" fill="white"/>
<text x="490" y="34" text-anchor="middle" font-size="26" font-weight="700" fill="#0f172a">Paarweise Differenzen Teil 1/1</text>
<text x="28" y="265" transform="rotate(-90 28 265)" text-anchor="middle" font-size="24" fill="#475569">Workflow - Direkter Aufruf (Prozentpunkte)</text>
<text x="532.5" y="536" text-anchor="middle" font-size="24" fill="#475569">Antwortpaare 1-27 von 27</text>
<line x1="115" y1="317.5" x2="950" y2="317.5" stroke="#94a3b8" stroke-dasharray="4 4"/>
<line x1="115" y1="65" x2="115" y2="465" stroke="#cbd5e1"/>
<line x1="115" y1="465" x2="950" y2="465" stroke="#cbd5e1"/>
<line x1="115" y1="465.0" x2="950" y2="465.0" stroke="#e2e8f0"/>
<text x="105" y="470.0" text-anchor="end" font-size="16" fill="#64748b">-49</text>
<line x1="115" y1="365.0" x2="950" y2="365.0" stroke="#e2e8f0"/>
<text x="105" y="370.0" text-anchor="end" font-size="16" fill="#64748b">-16</text>
<line x1="115" y1="265.0" x2="950" y2="265.0" stroke="#e2e8f0"/>
<text x="105" y="270.0" text-anchor="end" font-size="16" fill="#64748b">18</text>
<line x1="115" y1="165.0" x2="950" y2="165.0" stroke="#e2e8f0"/>
<text x="105" y="170.0" text-anchor="end" font-size="16" fill="#64748b">51</text>
<line x1="115" y1="65.0" x2="950" y2="65.0" stroke="#e2e8f0"/>
<text x="105" y="70.0" text-anchor="end" font-size="16" fill="#64748b">84</text>
<rect x="119.3" y="257.5" width="22.3" height="60.0" fill="#15803d" opacity="0.78"/>
<text x="130.5" y="249.5" text-anchor="middle" font-size="16" font-weight="700" fill="#0f172a">20.0</text>
<rect x="150.3" y="317.5" width="22.3" height="1.0" fill="#15803d" opacity="0.78"/>
<text x="161.4" y="309.5" text-anchor="middle" font-size="16" font-weight="700" fill="#0f172a">0.0</text>
<rect x="181.2" y="317.5" width="22.3" height="1.0" fill="#15803d" opacity="0.78"/>
<text x="192.3" y="309.5" text-anchor="middle" font-size="16" font-weight="700" fill="#0f172a">0.0</text>
<rect x="212.1" y="257.5" width="22.3" height="60.0" fill="#15803d" opacity="0.78"/>
<text x="223.2" y="249.5" text-anchor="middle" font-size="16" font-weight="700" fill="#0f172a">20.0</text>
<rect x="243.0" y="317.5" width="22.3" height="1.0" fill="#15803d" opacity="0.78"/>
<text x="254.2" y="309.5" text-anchor="middle" font-size="16" font-weight="700" fill="#0f172a">0.0</text>
<rect x="274.0" y="257.5" width="22.3" height="60.0" fill="#15803d" opacity="0.78"/>
<text x="285.1" y="249.5" text-anchor="middle" font-size="16" font-weight="700" fill="#0f172a">20.0</text>
<rect x="304.9" y="317.5" width="22.3" height="1.0" fill="#15803d" opacity="0.78"/>
<text x="316.0" y="309.5" text-anchor="middle" font-size="16" font-weight="700" fill="#0f172a">0.0</text>
<rect x="335.8" y="317.5" width="22.3" height="119.9" fill="#dc2626" opacity="0.78"/>
<text x="346.9" y="455.4" text-anchor="middle" font-size="16" font-weight="700" fill="#0f172a">-40.0</text>
<rect x="366.7" y="257.5" width="22.3" height="60.0" fill="#15803d" opacity="0.78"/>
<text x="377.9" y="249.5" text-anchor="middle" font-size="16" font-weight="700" fill="#0f172a">20.0</text>
<rect x="397.7" y="257.5" width="22.3" height="60.0" fill="#15803d" opacity="0.78"/>
<text x="408.8" y="249.5" text-anchor="middle" font-size="16" font-weight="700" fill="#0f172a">20.0</text>
<rect x="428.6" y="317.5" width="22.3" height="1.0" fill="#15803d" opacity="0.78"/>
<text x="439.7" y="309.5" text-anchor="middle" font-size="16" font-weight="700" fill="#0f172a">0.0</text>
<rect x="459.5" y="317.5" width="22.3" height="1.0" fill="#15803d" opacity="0.78"/>
<text x="470.6" y="309.5" text-anchor="middle" font-size="16" font-weight="700" fill="#0f172a">0.0</text>
<rect x="490.4" y="92.6" width="22.3" height="224.9" fill="#15803d" opacity="0.78"/>
<text x="501.6" y="84.6" text-anchor="middle" font-size="16" font-weight="700" fill="#0f172a">75.0</text>
<rect x="521.4" y="167.5" width="22.3" height="149.9" fill="#15803d" opacity="0.78"/>
<text x="532.5" y="159.5" text-anchor="middle" font-size="16" font-weight="700" fill="#0f172a">50.0</text>
<rect x="552.3" y="317.5" width="22.3" height="1.0" fill="#15803d" opacity="0.78"/>
<text x="563.4" y="309.5" text-anchor="middle" font-size="16" font-weight="700" fill="#0f172a">0.0</text>
<rect x="583.2" y="92.6" width="22.3" height="224.9" fill="#15803d" opacity="0.78"/>
<text x="594.4" y="84.6" text-anchor="middle" font-size="16" font-weight="700" fill="#0f172a">75.0</text>
<rect x="614.1" y="92.6" width="22.3" height="224.9" fill="#15803d" opacity="0.78"/>
<text x="625.3" y="84.6" text-anchor="middle" font-size="16" font-weight="700" fill="#0f172a">75.0</text>
<rect x="645.1" y="92.6" width="22.3" height="224.9" fill="#15803d" opacity="0.78"/>
<text x="656.2" y="84.6" text-anchor="middle" font-size="16" font-weight="700" fill="#0f172a">75.0</text>
<rect x="676.0" y="317.5" width="22.3" height="75.0" fill="#dc2626" opacity="0.78"/>
<text x="687.1" y="410.4" text-anchor="middle" font-size="16" font-weight="700" fill="#0f172a">-25.0</text>
<rect x="706.9" y="92.6" width="22.3" height="224.9" fill="#15803d" opacity="0.78"/>
<text x="718.1" y="84.6" text-anchor="middle" font-size="16" font-weight="700" fill="#0f172a">75.0</text>
<rect x="737.8" y="242.5" width="22.3" height="75.0" fill="#15803d" opacity="0.78"/>
<text x="749.0" y="234.5" text-anchor="middle" font-size="16" font-weight="700" fill="#0f172a">25.0</text>
<rect x="768.8" y="250.8" width="22.3" height="66.6" fill="#15803d" opacity="0.78"/>
<text x="779.9" y="242.8" text-anchor="middle" font-size="16" font-weight="700" fill="#0f172a">22.2</text>
<rect x="799.7" y="284.2" width="22.3" height="33.3" fill="#15803d" opacity="0.78"/>
<text x="810.8" y="276.2" text-anchor="middle" font-size="16" font-weight="700" fill="#0f172a">11.1</text>
<rect x="830.6" y="317.5" width="22.3" height="33.3" fill="#dc2626" opacity="0.78"/>
<text x="841.8" y="368.8" text-anchor="middle" font-size="16" font-weight="700" fill="#0f172a">-11.1</text>
<rect x="861.6" y="317.5" width="22.3" height="1.0" fill="#15803d" opacity="0.78"/>
<text x="872.7" y="309.5" text-anchor="middle" font-size="16" font-weight="700" fill="#0f172a">0.0</text>
<rect x="892.5" y="217.5" width="22.3" height="100.0" fill="#15803d" opacity="0.78"/>
<text x="903.6" y="209.5" text-anchor="middle" font-size="16" font-weight="700" fill="#0f172a">33.3</text>
<rect x="923.4" y="167.5" width="22.3" height="149.9" fill="#15803d" opacity="0.78"/>
<text x="934.5" y="159.5" text-anchor="middle" font-size="16" font-weight="700" fill="#0f172a">50.0</text>

</svg>
