<svg xmlns="http://www.w3.org/2000/svg" width="980" height="560" viewBox="0 0 980 560" role="img" aria-label="Paarweise Differenzen Teil 7/7">
<rect width="100%" height="100%" fill="white"/>
<text x="490" y="34" text-anchor="middle" font-size="26" font-weight="700" fill="#0f172a">Paarweise Differenzen Teil 7/7</text>
<text x="28" y="265" transform="rotate(-90 28 265)" text-anchor="middle" font-size="24" fill="#475569">Workflow - Direkter Aufruf (Prozentpunkte)</text>
<text x="532.5" y="536" text-anchor="middle" font-size="24" fill="#475569">Antwortpaare 601-636 von 636</text>
<line x1="115" y1="289.6" x2="950" y2="289.6" stroke="#94a3b8" stroke-dasharray="4 4"/>
<line x1="115" y1="65" x2="115" y2="465" stroke="#cbd5e1"/>
<line x1="115" y1="465" x2="950" y2="465" stroke="#cbd5e1"/>
<line x1="115" y1="465.0" x2="950" y2="465.0" stroke="#e2e8f0"/>
<text x="105" y="470.0" text-anchor="end" font-size="16" fill="#64748b">-89</text>
<line x1="115" y1="365.0" x2="950" y2="365.0" stroke="#e2e8f0"/>
<text x="105" y="370.0" text-anchor="end" font-size="16" fill="#64748b">-38</text>
<line x1="115" y1="265.0" x2="950" y2="265.0" stroke="#e2e8f0"/>
<text x="105" y="270.0" text-anchor="end" font-size="16" fill="#64748b">13</text>
<line x1="115" y1="165.0" x2="950" y2="165.0" stroke="#e2e8f0"/>
<text x="105" y="170.0" text-anchor="end" font-size="16" fill="#64748b">63</text>
<line x1="115" y1="65.0" x2="950" y2="65.0" stroke="#e2e8f0"/>
<text x="105" y="70.0" text-anchor="end" font-size="16" fill="#64748b">114</text>
<rect x="118.2" y="240.4" width="16.7" height="49.3" fill="#15803d" opacity="0.78"/>
<text x="126.6" y="232.4" text-anchor="middle" font-size="16" font-weight="700" fill="#0f172a">25.0</text>
<rect x="141.4" y="289.6" width="16.7" height="1.0" fill="#15803d" opacity="0.78"/>
<text x="149.8" y="281.6" text-anchor="middle" font-size="16" font-weight="700" fill="#0f172a">0.0</text>
<rect x="164.6" y="289.6" width="16.7" height="1.0" fill="#15803d" opacity="0.78"/>
<text x="173.0" y="281.6" text-anchor="middle" font-size="16" font-weight="700" fill="#0f172a">0.0</text>
<rect x="187.8" y="289.6" width="16.7" height="1.0" fill="#15803d" opacity="0.78"/>
<text x="196.2" y="281.6" text-anchor="middle" font-size="16" font-weight="700" fill="#0f172a">0.0</text>
<rect x="211.0" y="240.4" width="16.7" height="49.3" fill="#15803d" opacity="0.78"/>
<text x="219.4" y="232.4" text-anchor="middle" font-size="16" font-weight="700" fill="#0f172a">25.0</text>
<rect x="234.2" y="191.1" width="16.7" height="98.5" fill="#15803d" opacity="0.78"/>
<text x="242.6" y="183.1" text-anchor="middle" font-size="16" font-weight="700" fill="#0f172a">50.0</text>
<rect x="257.4" y="141.8" width="16.7" height="147.8" fill="#15803d" opacity="0.78"/>
<text x="265.8" y="133.8" text-anchor="middle" font-size="16" font-weight="700" fill="#0f172a">75.0</text>
<rect x="280.6" y="92.6" width="16.7" height="197.0" fill="#15803d" opacity="0.78"/>
<text x="289.0" y="84.6" text-anchor="middle" font-size="16" font-weight="700" fill="#0f172a">100.0</text>
<rect x="303.8" y="240.4" width="16.7" height="49.3" fill="#15803d" opacity="0.78"/>
<text x="312.2" y="232.4" text-anchor="middle" font-size="16" font-weight="700" fill="#0f172a">25.0</text>
<rect x="327.0" y="289.6" width="16.7" height="1.0" fill="#15803d" opacity="0.78"/>
<text x="335.3" y="281.6" text-anchor="middle" font-size="16" font-weight="700" fill="#0f172a">0.0</text>
<rect x="350.2" y="141.8" width="16.7" height="147.8" fill="#15803d" opacity="0.78"/>
<text x="358.5" y="133.8" text-anchor="middle" font-size="16" font-weight="700" fill="#0f172a">75.0</text>
<rect x="373.4" y="289.6" width="16.7" height="1.0" fill="#15803d" opacity="0.78"/>
<text x="381.7" y="281.6" text-anchor="middle" font-size="16" font-weight="700" fill="#0f172a">0.0</text>
<rect x="396.6" y="289.6" width="16.7" height="1.0" fill="#15803d" opacity="0.78"/>
<text x="404.9" y="281.6" text-anchor="middle" font-size="16" font-weight="700" fill="#0f172a">0.0</text>
<rect x="419.8" y="141.8" width="16.7" height="147.8" fill="#15803d" opacity="0.78"/>
<text x="428.1" y="133.8" text-anchor="middle" font-size="16" font-weight="700" fill="#0f172a">75.0</text>
<rect x="443.0" y="191.1" width="16.7" height="98.5" fill="#15803d" opacity="0.78"/>
<text x="451.3" y="183.1" text-anchor="middle" font-size="16" font-weight="700" fill="#0f172a">50.0</text>
<rect x="466.2" y="289.6" width="16.7" height="147.8" fill="#dc2626" opacity="0.78"/>
<text x="474.5" y="455.4" text-anchor="middle" font-size="16" font-weight="700" fill="#0f172a">-75.0</text>
<rect x="489.4" y="289.6" width="16.7" height="1.0" fill="#15803d" opacity="0.78"/>
<text x="497.7" y="281.6" text-anchor="middle" font-size="16" font-weight="700" fill="#0f172a">0.0</text>
<rect x="512.6" y="289.6" width="16.7" height="1.0" fill="#15803d" opacity="0.78"/>
<text x="520.9" y="281.6" text-anchor="middle" font-size="16" font-weight="700" fill="#0f172a">0.0</text>
<rect x="535.7" y="289.6" width="16.7" height="1.0" fill="#15803d" opacity="0.78"/>
<text x="544.1" y="281.6" text-anchor="middle" font-size="16" font-weight="700" fill="#0f172a">0.0</text>
<rect x="558.9" y="289.6" width="16.7" height="1.0" fill="#15803d" opacity="0.78"/>
<text x="567.3" y="281.6" text-anchor="middle" font-size="16" font-weight="700" fill="#0f172a">0.0</text>
<rect x="582.1" y="289.6" width="16.7" height="1.0" fill="#15803d" opacity="0.78"/>
<text x="590.5" y="281.6" text-anchor="middle" font-size="16" font-weight="700" fill="#0f172a">0.0</text>
<rect x="605.3" y="289.6" width="16.7" height="1.0" fill="#15803d" opacity="0.78"/>
<text x="613.7" y="281.6" text-anchor="middle" font-size="16" font-weight="700" fill="#0f172a">0.0</text>
<rect x="628.5" y="289.6" width="16.7" height="1.0" fill="#15803d" opacity="0.78"/>
<text x="636.9" y="281.6" text-anchor="middle" font-size="16" font-weight="700" fill="#0f172a">0.0</text>
<rect x="651.7" y="289.6" width="16.7" height="1.0" fill="#15803d" opacity="0.78"/>
<text x="660.1" y="281.6" text-anchor="middle" font-size="16" font-weight="700" fill="#0f172a">0.0</text>
<rect x="674.9" y="289.6" width="16.7" height="49.3" fill="#dc2626" opacity="0.78"/>
<text x="683.3" y="356.9" text-anchor="middle" font-size="16" font-weight="700" fill="#0f172a">-25.0</text>
<rect x="698.1" y="191.1" width="16.7" height="98.5" fill="#15803d" opacity="0.78"/>
<text x="706.5" y="183.1" text-anchor="middle" font-size="16" font-weight="700" fill="#0f172a">50.0</text>
<rect x="721.3" y="191.1" width="16.7" height="98.5" fill="#15803d" opacity="0.78"/>
<text x="729.7" y="183.1" text-anchor="middle" font-size="16" font-weight="700" fill="#0f172a">50.0</text>
<rect x="744.5" y="92.6" width="16.7" height="197.0" fill="#15803d" opacity="0.78"/>
<text x="752.8" y="84.6" text-anchor="middle" font-size="16" font-weight="700" fill="#0f172a">100.0</text>
<rect x="767.7" y="289.6" width="16.7" height="49.3" fill="#dc2626" opacity="0.78"/>
<text x="776.0" y="356.9" text-anchor="middle" font-size="16" font-weight="700" fill="#0f172a">-25.0</text>
<rect x="790.9" y="289.6" width="16.7" height="49.3" fill="#dc2626" opacity="0.78"/>
<text x="799.2" y="356.9" text-anchor="middle" font-size="16" font-weight="700" fill="#0f172a">-25.0</text>
<rect x="814.1" y="191.1" width="16.7" height="98.5" fill="#15803d" opacity="0.78"/>
<text x="822.4" y="183.1" text-anchor="middle" font-size="16" font-weight="700" fill="#0f172a">50.0</text>
<rect x="837.3" y="289.6" width="16.7" height="1.0" fill="#15803d" opacity="0.78"/>
<text x="845.6" y="281.6" text-anchor="middle" font-size="16" font-weight="700" fill="#0f172a">0.0</text>
<rect x="860.5" y="289.6" width="16.7" height="1.0" fill="#15803d" opacity="0.78"/>
<text x="868.8" y="281.6" text-anchor="middle" font-size="16" font-weight="700" fill="#0f172a">0.0</text>
<rect x="883.7" y="289.6" width="16.7" height="1.0" fill="#15803d" opacity="0.78"/>
<text x="892.0" y="281.6" text-anchor="middle" font-size="16" font-weight="700" fill="#0f172a">0.0</text>
<rect x="906.9" y="289.6" width="16.7" height="98.5" fill="#dc2626" opacity="0.78"/>
<text x="915.2" y="406.2" text-anchor="middle" font-size="16" font-weight="700" fill="#0f172a">-50.0</text>
<rect x="930.1" y="240.4" width="16.7" height="49.3" fill="#15803d" opacity="0.78"/>
<text x="938.4" y="232.4" text-anchor="middle" font-size="16" font-weight="700" fill="#0f172a">25.0</text>

</svg>
