<svg xmlns="http://www.w3.org/2000/svg" width="980" height="560" viewBox="0 0 980 560" role="img" aria-label="Paarweise Differenzen Teil 2/2">
<rect width="100%" height="100%" fill="white"/>
<text x="490" y="34" text-anchor="middle" font-size="26" font-weight="700" fill="#0f172a">Paarweise Differenzen Teil 2/2</text>
<text x="28" y="265" transform="rotate(-90 28 265)" text-anchor="middle" font-size="24" fill="#475569">Workflow - Direkter Aufruf (Prozentpunkte)</text>
<text x="532.5" y="536" text-anchor="middle" font-size="24" fill="#475569">Antwortpaare 101-190 von 190</text>
<line x1="115" y1="207.5" x2="950" y2="207.5" stroke="#94a3b8" stroke-dasharray="4 4"/>
<line x1="115" y1="65" x2="115" y2="465" stroke="#cbd5e1"/>
<line x1="115" y1="465" x2="950" y2="465" stroke="#cbd5e1"/>
<line x1="115" y1="465.0" x2="950" y2="465.0" stroke="#e2e8f0"/>
<text x="105" y="470.0" text-anchor="end" font-size="16" fill="#64748b">-56</text>
<line x1="115" y1="365.0" x2="950" y2="365.0" stroke="#e2e8f0"/>
<text x="105" y="370.0" text-anchor="end" font-size="16" fill="#64748b">-34</text>
<line x1="115" y1="265.0" x2="950" y2="265.0" stroke="#e2e8f0"/>
<text x="105" y="270.0" text-anchor="end" font-size="16" fill="#64748b">-13</text>
<line x1="115" y1="165.0" x2="950" y2="165.0" stroke="#e2e8f0"/>
<text x="105" y="170.0" text-anchor="end" font-size="16" fill="#64748b">9</text>
<line x1="115" y1="65.0" x2="950" y2="65.0" stroke="#e2e8f0"/>
<text x="105" y="70.0" text-anchor="end" font-size="16" fill="#64748b">31</text>
<rect x="116.3" y="207.5" width="6.7" height="1.0" fill="#15803d" opacity="0.78"/>

<rect x="125.6" y="207.5" width="6.7" height="1.0" fill="#15803d" opacity="0.78"/>

<rect x="134.9" y="207.5" width="6.7" height="1.0" fill="#15803d" opacity="0.78"/>

<rect x="144.1" y="207.5" width="6.7" height="1.0" fill="#15803d" opacity="0.78"/>

<rect x="153.4" y="92.6" width="6.7" height="114.9" fill="#15803d" opacity="0.78"/>

<rect x="162.7" y="207.5" width="6.7" height="1.0" fill="#15803d" opacity="0.78"/>

<rect x="172.0" y="207.5" width="6.7" height="1.0" fill="#15803d" opacity="0.78"/>

<rect x="181.2" y="207.5" width="6.7" height="1.0" fill="#15803d" opacity="0.78"/>

<rect x="190.5" y="207.5" width="6.7" height="1.0" fill="#15803d" opacity="0.78"/>

<rect x="199.8" y="207.5" width="6.7" height="1.0" fill="#15803d" opacity="0.78"/>

<rect x="209.1" y="207.5" width="6.7" height="1.0" fill="#15803d" opacity="0.78"/>

<rect x="218.4" y="207.5" width="6.7" height="1.0" fill="#15803d" opacity="0.78"/>

<rect x="227.6" y="207.5" width="6.7" height="1.0" fill="#15803d" opacity="0.78"/>

<rect x="236.9" y="207.5" width="6.7" height="1.0" fill="#15803d" opacity="0.78"/>

<rect x="246.2" y="207.5" width="6.7" height="1.0" fill="#15803d" opacity="0.78"/>

<rect x="255.5" y="207.5" width="6.7" height="1.0" fill="#15803d" opacity="0.78"/>

<rect x="264.7" y="92.6" width="6.7" height="114.9" fill="#15803d" opacity="0.78"/>

<rect x="274.0" y="207.5" width="6.7" height="114.9" fill="#dc2626" opacity="0.78"/>

<rect x="283.3" y="207.5" width="6.7" height="114.9" fill="#dc2626" opacity="0.78"/>

<rect x="292.6" y="207.5" width="6.7" height="1.0" fill="#15803d" opacity="0.78"/>

<rect x="301.9" y="207.5" width="6.7" height="114.9" fill="#dc2626" opacity="0.78"/>

<rect x="311.1" y="207.5" width="6.7" height="114.9" fill="#dc2626" opacity="0.78"/>

<rect x="320.4" y="92.6" width="6.7" height="114.9" fill="#15803d" opacity="0.78"/>

<rect x="329.7" y="207.5" width="6.7" height="1.0" fill="#15803d" opacity="0.78"/>

<rect x="339.0" y="207.5" width="6.7" height="1.0" fill="#15803d" opacity="0.78"/>

<rect x="348.2" y="207.5" width="6.7" height="1.0" fill="#15803d" opacity="0.78"/>

<rect x="357.5" y="207.5" width="6.7" height="1.0" fill="#15803d" opacity="0.78"/>

<rect x="366.8" y="207.5" width="6.7" height="1.0" fill="#15803d" opacity="0.78"/>

<rect x="376.1" y="207.5" width="6.7" height="1.0" fill="#15803d" opacity="0.78"/>

<rect x="385.4" y="207.5" width="6.7" height="1.0" fill="#15803d" opacity="0.78"/>

<rect x="394.6" y="207.5" width="6.7" height="114.9" fill="#dc2626" opacity="0.78"/>

<rect x="403.9" y="207.5" width="6.7" height="114.9" fill="#dc2626" opacity="0.78"/>

<rect x="413.2" y="207.5" width="6.7" height="1.0" fill="#15803d" opacity="0.78"/>

<rect x="422.5" y="207.5" width="6.7" height="114.9" fill="#dc2626" opacity="0.78"/>

<rect x="431.7" y="207.5" width="6.7" height="1.0" fill="#15803d" opacity="0.78"/>

<rect x="441.0" y="207.5" width="6.7" height="1.0" fill="#15803d" opacity="0.78"/>

<rect x="450.3" y="207.5" width="6.7" height="1.0" fill="#15803d" opacity="0.78"/>

<rect x="459.6" y="92.6" width="6.7" height="114.9" fill="#15803d" opacity="0.78"/>

<rect x="468.9" y="207.5" width="6.7" height="1.0" fill="#15803d" opacity="0.78"/>

<rect x="478.1" y="207.5" width="6.7" height="1.0" fill="#15803d" opacity="0.78"/>

<rect x="487.4" y="92.6" width="6.7" height="114.9" fill="#15803d" opacity="0.78"/>

<rect x="496.7" y="207.5" width="6.7" height="1.0" fill="#15803d" opacity="0.78"/>

<rect x="506.0" y="207.5" width="6.7" height="1.0" fill="#15803d" opacity="0.78"/>

<rect x="515.2" y="207.5" width="6.7" height="1.0" fill="#15803d" opacity="0.78"/>

<rect x="524.5" y="207.5" width="6.7" height="114.9" fill="#dc2626" opacity="0.78"/>

<rect x="533.8" y="207.5" width="6.7" height="114.9" fill="#dc2626" opacity="0.78"/>

<rect x="543.1" y="92.6" width="6.7" height="114.9" fill="#15803d" opacity="0.78"/>

<rect x="552.4" y="207.5" width="6.7" height="1.0" fill="#15803d" opacity="0.78"/>

<rect x="561.6" y="207.5" width="6.7" height="1.0" fill="#15803d" opacity="0.78"/>

<rect x="570.9" y="207.5" width="6.7" height="1.0" fill="#15803d" opacity="0.78"/>

<rect x="580.2" y="92.6" width="6.7" height="114.9" fill="#15803d" opacity="0.78"/>

<rect x="589.5" y="207.5" width="6.7" height="114.9" fill="#dc2626" opacity="0.78"/>

<rect x="598.7" y="207.5" width="6.7" height="114.9" fill="#dc2626" opacity="0.78"/>

<rect x="608.0" y="207.5" width="6.7" height="114.9" fill="#dc2626" opacity="0.78"/>

<rect x="617.3" y="207.5" width="6.7" height="1.0" fill="#15803d" opacity="0.78"/>

<rect x="626.6" y="92.6" width="6.7" height="114.9" fill="#15803d" opacity="0.78"/>

<rect x="635.9" y="207.5" width="6.7" height="1.0" fill="#15803d" opacity="0.78"/>

<rect x="645.1" y="207.5" width="6.7" height="1.0" fill="#15803d" opacity="0.78"/>

<rect x="654.4" y="92.6" width="6.7" height="114.9" fill="#15803d" opacity="0.78"/>

<rect x="663.7" y="207.5" width="6.7" height="1.0" fill="#15803d" opacity="0.78"/>

<rect x="673.0" y="92.6" width="6.7" height="114.9" fill="#15803d" opacity="0.78"/>

<rect x="682.2" y="207.5" width="6.7" height="1.0" fill="#15803d" opacity="0.78"/>

<rect x="691.5" y="207.5" width="6.7" height="114.9" fill="#dc2626" opacity="0.78"/>

<rect x="700.8" y="207.5" width="6.7" height="114.9" fill="#dc2626" opacity="0.78"/>

<rect x="710.1" y="207.5" width="6.7" height="1.0" fill="#15803d" opacity="0.78"/>

<rect x="719.4" y="207.5" width="6.7" height="229.9" fill="#dc2626" opacity="0.78"/>

<rect x="728.6" y="92.6" width="6.7" height="114.9" fill="#15803d" opacity="0.78"/>

<rect x="737.9" y="207.5" width="6.7" height="1.0" fill="#15803d" opacity="0.78"/>

<rect x="747.2" y="92.6" width="6.7" height="114.9" fill="#15803d" opacity="0.78"/>

<rect x="756.5" y="92.6" width="6.7" height="114.9" fill="#15803d" opacity="0.78"/>

<rect x="765.7" y="207.5" width="6.7" height="1.0" fill="#15803d" opacity="0.78"/>

<rect x="775.0" y="207.5" width="6.7" height="1.0" fill="#15803d" opacity="0.78"/>

<rect x="784.3" y="207.5" width="6.7" height="114.9" fill="#dc2626" opacity="0.78"/>

<rect x="793.6" y="207.5" width="6.7" height="1.0" fill="#15803d" opacity="0.78"/>

<rect x="802.9" y="207.5" width="6.7" height="1.0" fill="#15803d" opacity="0.78"/>

<rect x="812.1" y="207.5" width="6.7" height="1.0" fill="#15803d" opacity="0.78"/>

<rect x="821.4" y="207.5" width="6.7" height="1.0" fill="#15803d" opacity="0.78"/>

<rect x="830.7" y="207.5" width="6.7" height="114.9" fill="#dc2626" opacity="0.78"/>

<rect x="840.0" y="207.5" width="6.7" height="1.0" fill="#15803d" opacity="0.78"/>

<rect x="849.2" y="207.5" width="6.7" height="114.9" fill="#dc2626" opacity="0.78"/>

<rect x="858.5" y="207.5" width="6.7" height="1.0" fill="#15803d" opacity="0.78"/>

<rect x="867.8" y="207.5" width="6.7" height="1.0" fill="#15803d" opacity="0.78"/>

<rect x="877.1" y="207.5" width="6.7" height="1.0" fill="#15803d" opacity="0.78"/>

<rect x="886.4" y="92.6" width="6.7" height="114.9" fill="#15803d" opacity="0.78"/>

<rect x="895.6" y="207.5" width="6.7" height="1.0" fill="#15803d" opacity="0.78"/>

<rect x="904.9" y="207.5" width="6.7" height="1.0" fill="#15803d" opacity="0.78"/>

<rect x="914.2" y="92.6" width="6.7" height="114.9" fill="#15803d" opacity="0.78"/>

<rect x="923.5" y="92.6" width="6.7" height="114.9" fill="#15803d" opacity="0.78"/>

<rect x="932.7" y="207.5" width="6.7" height="1.0" fill="#15803d" opacity="0.78"/>

<rect x="942.0" y="207.5" width="6.7" height="1.0" fill="#15803d" opacity="0.78"/>


</svg>
