<svg xmlns="http://www.w3.org/2000/svg" width="980" height="560" viewBox="0 0 980 560" role="img" aria-label="Paarweise Differenzen Teil 8/8">
<rect width="100%" height="100%" fill="white"/>
<text x="490" y="34" text-anchor="middle" font-size="26" font-weight="700" fill="#0f172a">Paarweise Differenzen Teil 8/8</text>
<text x="28" y="265" transform="rotate(-90 28 265)" text-anchor="middle" font-size="24" fill="#475569">Workflow - Direkter Aufruf (Prozentpunkte)</text>
<text x="532.5" y="536" text-anchor="middle" font-size="24" fill="#475569">Antwortpaare 701-732 von 732</text>
<line x1="115" y1="207.5" x2="950" y2="207.5" stroke="#94a3b8" stroke-dasharray="4 4"/>
<line x1="115" y1="65" x2="115" y2="465" stroke="#cbd5e1"/>
<line x1="115" y1="465" x2="950" y2="465" stroke="#cbd5e1"/>
<line x1="115" y1="465.0" x2="950" y2="465.0" stroke="#e2e8f0"/>
<text x="105" y="470.0" text-anchor="end" font-size="16" fill="#64748b">-56</text>
<line x1="115" y1="365.0" x2="950" y2="365.0" stroke="#e2e8f0"/>
<text x="105" y="370.0" text-anchor="end" font-size="16" fill="#64748b">-34</text>
<line x1="115" y1="265.0" x2="950" y2="265.0" stroke="#e2e8f0"/>
<text x="105" y="270.0" text-anchor="end" font-size="16" fill="#64748b">-13</text>
<line x1="115" y1="165.0" x2="950" y2="165.0" stroke="#e2e8f0"/>
<text x="105" y="170.0" text-anchor="end" font-size="16" fill="#64748b">9</text>
<line x1="115" y1="65.0" x2="950" y2="65.0" stroke="#e2e8f0"/>
<text x="105" y="70.0" text-anchor="end" font-size="16" fill="#64748b">31</text>
<rect x="118.7" y="207.5" width="18.8" height="1.0" fill="#15803d" opacity="0.78"/>
<text x="128.0" y="199.5" text-anchor="middle" font-size="16" font-weight="700" fill="#0f172a">0.0</text>
<rect x="144.7" y="207.5" width="18.8" height="229.9" fill="#dc2626" opacity="0.78"/>
<text x="154.1" y="455.4" text-anchor="middle" font-size="16" font-weight="700" fill="#0f172a">-50.0</text>
<rect x="170.8" y="207.5" width="18.8" height="1.0" fill="#15803d" opacity="0.78"/>
<text x="180.2" y="199.5" text-anchor="middle" font-size="16" font-weight="700" fill="#0f172a">0.0</text>
<rect x="196.9" y="207.5" width="18.8" height="1.0" fill="#15803d" opacity="0.78"/>
<text x="206.3" y="199.5" text-anchor="middle" font-size="16" font-weight="700" fill="#0f172a">0.0</text>
<rect x="223.0" y="207.5" width="18.8" height="1.0" fill="#15803d" opacity="0.78"/>
<text x="232.4" y="199.5" text-anchor="middle" font-size="16" font-weight="700" fill="#0f172a">0.0</text>
<rect x="249.1" y="207.5" width="18.8" height="1.0" fill="#15803d" opacity="0.78"/>
<text x="258.5" y="199.5" text-anchor="middle" font-size="16" font-weight="700" fill="#0f172a">0.0</text>
<rect x="275.2" y="207.5" width="18.8" height="1.0" fill="#15803d" opacity="0.78"/>
<text x="284.6" y="199.5" text-anchor="middle" font-size="16" font-weight="700" fill="#0f172a">0.0</text>
<rect x="301.3" y="207.5" width="18.8" height="1.0" fill="#15803d" opacity="0.78"/>
<text x="310.7" y="199.5" text-anchor="middle" font-size="16" font-weight="700" fill="#0f172a">0.0</text>
<rect x="327.4" y="207.5" width="18.8" height="1.0" fill="#15803d" opacity="0.78"/>
<text x="336.8" y="199.5" text-anchor="middle" font-size="16" font-weight="700" fill="#0f172a">0.0</text>
<rect x="353.5" y="207.5" width="18.8" height="114.9" fill="#dc2626" opacity="0.78"/>
<text x="362.9" y="340.5" text-anchor="middle" font-size="16" font-weight="700" fill="#0f172a">-25.0</text>
<rect x="379.6" y="207.5" width="18.8" height="1.0" fill="#15803d" opacity="0.78"/>
<text x="389.0" y="199.5" text-anchor="middle" font-size="16" font-weight="700" fill="#0f172a">0.0</text>
<rect x="405.7" y="207.5" width="18.8" height="1.0" fill="#15803d" opacity="0.78"/>
<text x="415.1" y="199.5" text-anchor="middle" font-size="16" font-weight="700" fill="#0f172a">0.0</text>
<rect x="431.8" y="207.5" width="18.8" height="1.0" fill="#15803d" opacity="0.78"/>
<text x="441.2" y="199.5" text-anchor="middle" font-size="16" font-weight="700" fill="#0f172a">0.0</text>
<rect x="457.9" y="207.5" width="18.8" height="1.0" fill="#15803d" opacity="0.78"/>
<text x="467.3" y="199.5" text-anchor="middle" font-size="16" font-weight="700" fill="#0f172a">0.0</text>
<rect x="484.0" y="207.5" width="18.8" height="1.0" fill="#15803d" opacity="0.78"/>
<text x="493.4" y="199.5" text-anchor="middle" font-size="16" font-weight="700" fill="#0f172a">0.0</text>
<rect x="510.1" y="207.5" width="18.8" height="1.0" fill="#15803d" opacity="0.78"/>
<text x="519.5" y="199.5" text-anchor="middle" font-size="16" font-weight="700" fill="#0f172a">0.0</text>
<rect x="536.2" y="207.5" width="18.8" height="1.0" fill="#15803d" opacity="0.78"/>
<text x="545.5" y="199.5" text-anchor="middle" font-size="16" font-weight="700" fill="#0f172a">0.0</text>
<rect x="562.2" y="207.5" width="18.8" height="1.0" fill="#15803d" opacity="0.78"/>
<text x="571.6" y="199.5" text-anchor="middle" font-size="16" font-weight="700" fill="#0f172a">0.0</text>
<rect x="588.3" y="207.5" width="18.8" height="1.0" fill="#15803d" opacity="0.78"/>
<text x="597.7" y="199.5" text-anchor="middle" font-size="16" font-weight="700" fill="#0f172a">0.0</text>
<rect x="614.4" y="207.5" width="18.8" height="1.0" fill="#15803d" opacity="0.78"/>
<text x="623.8" y="199.5" text-anchor="middle" font-size="16" font-weight="700" fill="#0f172a">0.0</text>
<rect x="640.5" y="207.5" width="18.8" height="1.0" fill="#15803d" opacity="0.78"/>
<text x="649.9" y="199.5" text-anchor="middle" font-size="16" font-weight="700" fill="#0f172a">0.0</text>
<rect x="666.6" y="207.5" width="18.8" height="1.0" fill="#15803d" opacity="0.78"/>
<text x="676.0" y="199.5" text-anchor="middle" font-size="16" font-weight="700" fill="#0f172a">0.0</text>
<rect x="692.7" y="207.5" width="18.8" height="114.9" fill="#dc2626" opacity="0.78"/>
<text x="702.1" y="340.5" text-anchor="middle" font-size="16" font-weight="700" fill="#0f172a">-25.0</text>
<rect x="718.8" y="92.6" width="18.8" height="114.9" fill="#15803d" opacity="0.78"/>
<text x="728.2" y="84.6" text-anchor="middle" font-size="16" font-weight="700" fill="#0f172a">25.0</text>
<rect x="744.9" y="207.5" width="18.8" height="1.0" fill="#15803d" opacity="0.78"/>
<text x="754.3" y="199.5" text-anchor="middle" font-size="16" font-weight="700" fill="#0f172a">0.0</text>
<rect x="771.0" y="207.5" width="18.8" height="1.0" fill="#15803d" opacity="0.78"/>
<text x="780.4" y="199.5" text-anchor="middle" font-size="16" font-weight="700" fill="#0f172a">0.0</text>
<rect x="797.1" y="92.6" width="18.8" height="114.9" fill="#15803d" opacity="0.78"/>
<text x="806.5" y="84.6" text-anchor="middle" font-size="16" font-weight="700" fill="#0f172a">25.0</text>
<rect x="823.2" y="207.5" width="18.8" height="1.0" fill="#15803d" opacity="0.78"/>
<text x="832.6" y="199.5" text-anchor="middle" font-size="16" font-weight="700" fill="#0f172a">0.0</text>
<rect x="849.3" y="207.5" width="18.8" height="229.9" fill="#dc2626" opacity="0.78"/>
<text x="858.7" y="455.4" text-anchor="middle" font-size="16" font-weight="700" fill="#0f172a">-50.0</text>
<rect x="875.4" y="207.5" width="18.8" height="114.9" fill="#dc2626" opacity="0.78"/>
<text x="884.8" y="340.5" text-anchor="middle" font-size="16" font-weight="700" fill="#0f172a">-25.0</text>
<rect x="901.5" y="207.5" width="18.8" height="1.0" fill="#15803d" opacity="0.78"/>
<text x="910.9" y="199.5" text-anchor="middle" font-size="16" font-weight="700" fill="#0f172a">0.0</text>
<rect x="927.6" y="207.5" width="18.8" height="1.0" fill="#15803d" opacity="0.78"/>
<text x="937.0" y="199.5" text-anchor="middle" font-size="16" font-weight="700" fill="#0f172a">0.0</text>

</svg>
