<svg xmlns="http://www.w3.org/2000/svg" width="760" height="600" viewBox="0 0 760 600" role="img" aria-label="Scorevergleich Direkter Aufruf vs Workflow">
<rect width="100%" height="100%" fill="white"/>
<text x="380" y="34" text-anchor="middle" font-size="26" font-weight="700" fill="#0f172a">Scorevergleich Direkter Aufruf vs Workflow</text>
<line x1="100.0" y1="65" x2="100.0" y2="505.0" stroke="#e2e8f0"/>
<line x1="100" y1="505.0" x2="725.0" y2="505.0" stroke="#e2e8f0"/>
<text x="100.0" y="529.0" text-anchor="middle" font-size="16" fill="#64748b">0</text>
<text x="90.0" y="510.0" text-anchor="end" font-size="16" fill="#64748b">0</text>
<line x1="256.3" y1="65" x2="256.3" y2="505.0" stroke="#e2e8f0"/>
<line x1="100" y1="395.0" x2="725.0" y2="395.0" stroke="#e2e8f0"/>
<text x="256.3" y="529.0" text-anchor="middle" font-size="16" fill="#64748b">25</text>
<text x="90.0" y="400.0" text-anchor="end" font-size="16" fill="#64748b">25</text>
<line x1="412.5" y1="65" x2="412.5" y2="505.0" stroke="#e2e8f0"/>
<line x1="100" y1="285.0" x2="725.0" y2="285.0" stroke="#e2e8f0"/>
<text x="412.5" y="529.0" text-anchor="middle" font-size="16" fill="#64748b">50</text>
<text x="90.0" y="290.0" text-anchor="end" font-size="16" fill="#64748b">50</text>
<line x1="568.8" y1="65" x2="568.8" y2="505.0" stroke="#e2e8f0"/>
<line x1="100" y1="175.0" x2="725.0" y2="175.0" stroke="#e2e8f0"/>
<text x="568.8" y="529.0" text-anchor="middle" font-size="16" fill="#64748b">75</text>
<text x="90.0" y="180.0" text-anchor="end" font-size="16" fill="#64748b">75</text>
<line x1="725.0" y1="65" x2="725.0" y2="505.0" stroke="#e2e8f0"/>
<line x1="100" y1="65.0" x2="725.0" y2="65.0" stroke="#e2e8f0"/>
<text x="725.0" y="529.0" text-anchor="middle" font-size="16" fill="#64748b">100</text>
<text x="90.0" y="70.0" text-anchor="end" font-size="16" fill="#64748b">100</text>
<line x1="100" y1="505" x2="725" y2="505" stroke="#cbd5e1"/>
<line x1="100" y1="65" x2="100" y2="505" stroke="#cbd5e1"/>
<line x1="100" y1="505" x2="725" y2="65" stroke="#94a3b8" stroke-dasharray="5 5"/>
<circle cx="655.6" cy="113.9" r="3" fill="#2563eb" opacity="0.48"/>
<circle cx="653.8" cy="115.5" r="3" fill="#2563eb" opacity="0.48"/>
<circle cx="655.9" cy="110.5" r="3" fill="#2563eb" opacity="0.48"/>
<circle cx="658.1" cy="117.2" r="3" fill="#2563eb" opacity="0.48"/>
<circle cx="650.8" cy="113.1" r="3" fill="#2563eb" opacity="0.48"/>
<circle cx="660.1" cy="111.0" r="3" fill="#2563eb" opacity="0.48"/>
<circle cx="654.0" cy="119.6" r="3" fill="#2563eb" opacity="0.48"/>
<circle cx="652.6" cy="108.3" r="3" fill="#2563eb" opacity="0.48"/>
<circle cx="661.9" cy="116.2" r="3" fill="#2563eb" opacity="0.48"/>
<circle cx="648.9" cy="116.6" r="3" fill="#2563eb" opacity="0.48"/>
<circle cx="655.6" cy="162.8" r="3" fill="#2563eb" opacity="0.48"/>
<circle cx="653.8" cy="164.4" r="3" fill="#2563eb" opacity="0.48"/>
<circle cx="655.6" cy="69.0" r="3" fill="#2563eb" opacity="0.48"/>
<circle cx="653.8" cy="69.0" r="3" fill="#2563eb" opacity="0.48"/>
<circle cx="655.9" cy="69.0" r="3" fill="#2563eb" opacity="0.48"/>
<circle cx="658.1" cy="69.0" r="3" fill="#2563eb" opacity="0.48"/>
<circle cx="650.8" cy="69.0" r="3" fill="#2563eb" opacity="0.48"/>
<circle cx="721.0" cy="69.0" r="3" fill="#2563eb" opacity="0.48"/>
<circle cx="721.0" cy="69.0" r="3" fill="#2563eb" opacity="0.48"/>
<circle cx="721.0" cy="69.0" r="3" fill="#2563eb" opacity="0.48"/>
<circle cx="721.0" cy="69.0" r="3" fill="#2563eb" opacity="0.48"/>
<circle cx="720.3" cy="69.0" r="3" fill="#2563eb" opacity="0.48"/>
<circle cx="721.0" cy="69.0" r="3" fill="#2563eb" opacity="0.48"/>
<circle cx="721.0" cy="70.7" r="3" fill="#2563eb" opacity="0.48"/>
<circle cx="721.0" cy="69.0" r="3" fill="#2563eb" opacity="0.48"/>
<circle cx="721.0" cy="69.0" r="3" fill="#2563eb" opacity="0.48"/>
<circle cx="718.3" cy="69.0" r="3" fill="#2563eb" opacity="0.48"/>
<circle cx="721.0" cy="69.0" r="3" fill="#2563eb" opacity="0.48"/>
<circle cx="721.0" cy="72.6" r="3" fill="#2563eb" opacity="0.48"/>
<circle cx="717.8" cy="69.0" r="3" fill="#2563eb" opacity="0.48"/>
<circle cx="721.0" cy="69.0" r="3" fill="#2563eb" opacity="0.48"/>
<circle cx="719.8" cy="72.3" r="3" fill="#2563eb" opacity="0.48"/>
<circle cx="721.0" cy="69.0" r="3" fill="#2563eb" opacity="0.48"/>
<circle cx="721.0" cy="71.2" r="3" fill="#2563eb" opacity="0.48"/>
<circle cx="715.1" cy="69.0" r="3" fill="#2563eb" opacity="0.48"/>
<circle cx="721.0" cy="69.0" r="3" fill="#2563eb" opacity="0.48"/>
<circle cx="721.0" cy="75.5" r="3" fill="#2563eb" opacity="0.48"/>
<circle cx="718.1" cy="69.0" r="3" fill="#2563eb" opacity="0.48"/>
<circle cx="721.0" cy="69.0" r="3" fill="#2563eb" opacity="0.48"/>
<circle cx="715.8" cy="71.4" r="3" fill="#2563eb" opacity="0.48"/>
<circle cx="721.0" cy="69.0" r="3" fill="#2563eb" opacity="0.48"/>
<circle cx="721.0" cy="75.2" r="3" fill="#2563eb" opacity="0.48"/>
<circle cx="713.6" cy="69.0" r="3" fill="#2563eb" opacity="0.48"/>
<circle cx="721.0" cy="69.0" r="3" fill="#2563eb" opacity="0.48"/>
<circle cx="720.2" cy="76.5" r="3" fill="#2563eb" opacity="0.48"/>
<circle cx="720.7" cy="69.0" r="3" fill="#2563eb" opacity="0.48"/>
<circle cx="721.0" cy="71.0" r="3" fill="#2563eb" opacity="0.48"/>
<circle cx="712.3" cy="69.0" r="3" fill="#2563eb" opacity="0.48"/>
<circle cx="721.0" cy="69.0" r="3" fill="#2563eb" opacity="0.48"/>
<circle cx="721.0" cy="78.4" r="3" fill="#2563eb" opacity="0.48"/>
<circle cx="714.1" cy="69.0" r="3" fill="#2563eb" opacity="0.48"/>
<circle cx="721.0" cy="69.0" r="3" fill="#2563eb" opacity="0.48"/>
<circle cx="715.4" cy="75.4" r="3" fill="#2563eb" opacity="0.48"/>
<circle cx="721.0" cy="69.0" r="3" fill="#2563eb" opacity="0.48"/>
<circle cx="721.0" cy="75.8" r="3" fill="#2563eb" opacity="0.48"/>
<circle cx="710.3" cy="69.0" r="3" fill="#2563eb" opacity="0.48"/>
<circle cx="721.0" cy="69.0" r="3" fill="#2563eb" opacity="0.48"/>
<circle cx="721.0" cy="79.9" r="3" fill="#2563eb" opacity="0.48"/>
<circle cx="716.8" cy="69.0" r="3" fill="#2563eb" opacity="0.48"/>
<circle cx="721.0" cy="69.1" r="3" fill="#2563eb" opacity="0.48"/>
<circle cx="711.0" cy="72.2" r="3" fill="#2563eb" opacity="0.48"/>
<circle cx="721.0" cy="69.0" r="3" fill="#2563eb" opacity="0.48"/>
<circle cx="721.0" cy="79.9" r="3" fill="#2563eb" opacity="0.48"/>
<circle cx="710.3" cy="69.0" r="3" fill="#2563eb" opacity="0.48"/>
<circle cx="721.0" cy="69.0" r="3" fill="#2563eb" opacity="0.48"/>
<circle cx="716.6" cy="79.3" r="3" fill="#2563eb" opacity="0.48"/>
<circle cx="721.0" cy="69.0" r="3" fill="#2563eb" opacity="0.48"/>
<circle cx="721.0" cy="74.8" r="3" fill="#2563eb" opacity="0.48"/>
<circle cx="708.0" cy="69.0" r="3" fill="#2563eb" opacity="0.48"/>
<circle cx="721.0" cy="69.0" r="3" fill="#2563eb" opacity="0.48"/>
<circle cx="721.0" cy="82.5" r="3" fill="#2563eb" opacity="0.48"/>
<circle cx="712.6" cy="69.0" r="3" fill="#2563eb" opacity="0.48"/>
<circle cx="721.0" cy="69.0" r="3" fill="#2563eb" opacity="0.48"/>
<circle cx="711.2" cy="76.4" r="3" fill="#2563eb" opacity="0.48"/>
<circle cx="721.0" cy="69.0" r="3" fill="#2563eb" opacity="0.48"/>
<circle cx="721.0" cy="80.1" r="3" fill="#2563eb" opacity="0.48"/>
<circle cx="707.0" cy="69.0" r="3" fill="#2563eb" opacity="0.48"/>
<circle cx="721.0" cy="69.0" r="3" fill="#2563eb" opacity="0.48"/>
<circle cx="719.2" cy="82.8" r="3" fill="#2563eb" opacity="0.48"/>
<circle cx="717.2" cy="69.0" r="3" fill="#2563eb" opacity="0.48"/>
<circle cx="721.0" cy="72.4" r="3" fill="#2563eb" opacity="0.48"/>
<circle cx="706.9" cy="71.4" r="3" fill="#2563eb" opacity="0.48"/>
<circle cx="721.0" cy="69.0" r="3" fill="#2563eb" opacity="0.48"/>
<circle cx="721.0" cy="83.9" r="3" fill="#2563eb" opacity="0.48"/>
<circle cx="708.5" cy="69.0" r="3" fill="#2563eb" opacity="0.48"/>
<circle cx="721.0" cy="69.0" r="3" fill="#2563eb" opacity="0.48"/>
<circle cx="712.7" cy="80.7" r="3" fill="#2563eb" opacity="0.48"/>
<circle cx="721.0" cy="69.0" r="3" fill="#2563eb" opacity="0.48"/>
<circle cx="721.0" cy="78.8" r="3" fill="#2563eb" opacity="0.48"/>
<circle cx="704.6" cy="69.0" r="3" fill="#2563eb" opacity="0.48"/>
<circle cx="721.0" cy="69.0" r="3" fill="#2563eb" opacity="0.48"/>
<circle cx="721.0" cy="85.5" r="3" fill="#2563eb" opacity="0.48"/>
<circle cx="712.5" cy="69.0" r="3" fill="#2563eb" opacity="0.48"/>
<circle cx="721.0" cy="69.0" r="3" fill="#2563eb" opacity="0.48"/>
<circle cx="707.1" cy="76.1" r="3" fill="#2563eb" opacity="0.48"/>
<circle cx="721.0" cy="69.0" r="3" fill="#2563eb" opacity="0.48"/>
<circle cx="721.0" cy="84.0" r="3" fill="#2563eb" opacity="0.48"/>
<circle cx="704.9" cy="69.0" r="3" fill="#2563eb" opacity="0.48"/>
<circle cx="721.0" cy="69.0" r="3" fill="#2563eb" opacity="0.48"/>
<circle cx="715.6" cy="84.6" r="3" fill="#2563eb" opacity="0.48"/>
<circle cx="718.7" cy="69.0" r="3" fill="#2563eb" opacity="0.48"/>
<circle cx="721.0" cy="76.2" r="3" fill="#2563eb" opacity="0.48"/>
<circle cx="703.5" cy="69.5" r="3" fill="#2563eb" opacity="0.48"/>
<circle cx="721.0" cy="69.0" r="3" fill="#2563eb" opacity="0.48"/>
<circle cx="721.0" cy="86.8" r="3" fill="#2563eb" opacity="0.48"/>
<circle cx="708.3" cy="69.0" r="3" fill="#2563eb" opacity="0.48"/>
<circle cx="721.0" cy="69.0" r="3" fill="#2563eb" opacity="0.48"/>
<circle cx="709.3" cy="80.4" r="3" fill="#2563eb" opacity="0.48"/>
<circle cx="721.0" cy="69.0" r="3" fill="#2563eb" opacity="0.48"/>
<circle cx="721.0" cy="82.0" r="3" fill="#2563eb" opacity="0.48"/>
<circle cx="703.2" cy="69.0" r="3" fill="#2563eb" opacity="0.48"/>
<circle cx="721.0" cy="69.0" r="3" fill="#2563eb" opacity="0.48"/>
<circle cx="720.0" cy="86.4" r="3" fill="#2563eb" opacity="0.48"/>
<circle cx="714.2" cy="69.0" r="3" fill="#2563eb" opacity="0.48"/>
<circle cx="721.0" cy="71.9" r="3" fill="#2563eb" opacity="0.48"/>
<circle cx="704.9" cy="74.0" r="3" fill="#2563eb" opacity="0.48"/>
<circle cx="586.1" cy="162.8" r="3" fill="#2563eb" opacity="0.48"/>
<circle cx="586.1" cy="69.0" r="3" fill="#2563eb" opacity="0.48"/>
<circle cx="584.3" cy="69.0" r="3" fill="#2563eb" opacity="0.48"/>
<circle cx="721.0" cy="162.8" r="3" fill="#2563eb" opacity="0.48"/>
<circle cx="721.0" cy="113.9" r="3" fill="#2563eb" opacity="0.48"/>
<circle cx="568.8" cy="69.0" r="3" fill="#2563eb" opacity="0.48"/>
<circle cx="567.0" cy="69.0" r="3" fill="#2563eb" opacity="0.48"/>
<circle cx="569.0" cy="69.0" r="3" fill="#2563eb" opacity="0.48"/>
<circle cx="571.3" cy="69.0" r="3" fill="#2563eb" opacity="0.48"/>
<circle cx="564.0" cy="69.0" r="3" fill="#2563eb" opacity="0.48"/>
<circle cx="573.3" cy="69.0" r="3" fill="#2563eb" opacity="0.48"/>
<circle cx="567.2" cy="70.7" r="3" fill="#2563eb" opacity="0.48"/>
<circle cx="565.8" cy="69.0" r="3" fill="#2563eb" opacity="0.48"/>
<circle cx="575.1" cy="69.0" r="3" fill="#2563eb" opacity="0.48"/>
<circle cx="562.1" cy="69.0" r="3" fill="#2563eb" opacity="0.48"/>
<circle cx="721.0" cy="175.0" r="3" fill="#2563eb" opacity="0.48"/>
<circle cx="721.0" cy="176.6" r="3" fill="#2563eb" opacity="0.48"/>
<circle cx="721.0" cy="171.6" r="3" fill="#2563eb" opacity="0.48"/>
<circle cx="721.0" cy="178.3" r="3" fill="#2563eb" opacity="0.48"/>
<circle cx="720.3" cy="174.2" r="3" fill="#2563eb" opacity="0.48"/>
<circle cx="721.0" cy="172.1" r="3" fill="#2563eb" opacity="0.48"/>
<circle cx="721.0" cy="180.7" r="3" fill="#2563eb" opacity="0.48"/>
<circle cx="721.0" cy="169.4" r="3" fill="#2563eb" opacity="0.48"/>
<circle cx="721.0" cy="177.3" r="3" fill="#2563eb" opacity="0.48"/>
<circle cx="718.3" cy="177.7" r="3" fill="#2563eb" opacity="0.48"/>
<circle cx="721.0" cy="168.1" r="3" fill="#2563eb" opacity="0.48"/>
<circle cx="721.0" cy="182.6" r="3" fill="#2563eb" opacity="0.48"/>
<circle cx="568.8" cy="175.0" r="3" fill="#2563eb" opacity="0.48"/>
<circle cx="567.0" cy="176.6" r="3" fill="#2563eb" opacity="0.48"/>
<circle cx="569.0" cy="171.6" r="3" fill="#2563eb" opacity="0.48"/>
<circle cx="571.3" cy="178.3" r="3" fill="#2563eb" opacity="0.48"/>
<circle cx="564.0" cy="174.2" r="3" fill="#2563eb" opacity="0.48"/>
<circle cx="573.3" cy="172.1" r="3" fill="#2563eb" opacity="0.48"/>
<circle cx="567.2" cy="180.7" r="3" fill="#2563eb" opacity="0.48"/>
<text x="655.6" y="103.9" text-anchor="middle" font-size="13" font-weight="700" fill="#0f172a">10</text>
<text x="655.6" y="152.8" text-anchor="middle" font-size="13" font-weight="700" fill="#0f172a">2</text>
<text x="655.6" y="79.0" text-anchor="middle" font-size="13" font-weight="700" fill="#0f172a">5</text>
<text x="711.0" y="79.0" text-anchor="middle" font-size="13" font-weight="700" fill="#0f172a">99</text>
<text x="586.1" y="79.0" text-anchor="middle" font-size="13" font-weight="700" fill="#0f172a">2</text>
<text x="568.8" y="79.0" text-anchor="middle" font-size="13" font-weight="700" fill="#0f172a">10</text>
<text x="711.0" y="165.0" text-anchor="middle" font-size="13" font-weight="700" fill="#0f172a">12</text>
<text x="568.8" y="165.0" text-anchor="middle" font-size="13" font-weight="700" fill="#0f172a">7</text>
<text x="725" y="47" text-anchor="end" font-size="15" fill="#64748b">n=150; gleiche Scores leicht versetzt</text>
<text x="412.5" y="574" text-anchor="middle" font-size="26" fill="#475569">Score des direkten Aufrufs (%)</text>
<text x="28" y="285" transform="rotate(-90 28 285)" text-anchor="middle" font-size="26" fill="#475569">Score Workflow (%)</text>
</svg>
