<svg xmlns="http://www.w3.org/2000/svg" width="760" height="600" viewBox="0 0 760 600" role="img" aria-label="Scorevergleich Direkter Aufruf vs Workflow">
<rect width="100%" height="100%" fill="white"/>
<text x="380" y="34" text-anchor="middle" font-size="26" font-weight="700" fill="#0f172a">Scorevergleich Direkter Aufruf vs Workflow</text>
<line x1="100.0" y1="65" x2="100.0" y2="505.0" stroke="#e2e8f0"/>
<line x1="100" y1="505.0" x2="725.0" y2="505.0" stroke="#e2e8f0"/>
<text x="100.0" y="529.0" text-anchor="middle" font-size="16" fill="#64748b">0</text>
<text x="90.0" y="510.0" text-anchor="end" font-size="16" fill="#64748b">0</text>
<line x1="256.3" y1="65" x2="256.3" y2="505.0" stroke="#e2e8f0"/>
<line x1="100" y1="395.0" x2="725.0" y2="395.0" stroke="#e2e8f0"/>
<text x="256.3" y="529.0" text-anchor="middle" font-size="16" fill="#64748b">25</text>
<text x="90.0" y="400.0" text-anchor="end" font-size="16" fill="#64748b">25</text>
<line x1="412.5" y1="65" x2="412.5" y2="505.0" stroke="#e2e8f0"/>
<line x1="100" y1="285.0" x2="725.0" y2="285.0" stroke="#e2e8f0"/>
<text x="412.5" y="529.0" text-anchor="middle" font-size="16" fill="#64748b">50</text>
<text x="90.0" y="290.0" text-anchor="end" font-size="16" fill="#64748b">50</text>
<line x1="568.8" y1="65" x2="568.8" y2="505.0" stroke="#e2e8f0"/>
<line x1="100" y1="175.0" x2="725.0" y2="175.0" stroke="#e2e8f0"/>
<text x="568.8" y="529.0" text-anchor="middle" font-size="16" fill="#64748b">75</text>
<text x="90.0" y="180.0" text-anchor="end" font-size="16" fill="#64748b">75</text>
<line x1="725.0" y1="65" x2="725.0" y2="505.0" stroke="#e2e8f0"/>
<line x1="100" y1="65.0" x2="725.0" y2="65.0" stroke="#e2e8f0"/>
<text x="725.0" y="529.0" text-anchor="middle" font-size="16" fill="#64748b">100</text>
<text x="90.0" y="70.0" text-anchor="end" font-size="16" fill="#64748b">100</text>
<line x1="100" y1="505" x2="725" y2="505" stroke="#cbd5e1"/>
<line x1="100" y1="65" x2="100" y2="505" stroke="#cbd5e1"/>
<line x1="100" y1="505" x2="725" y2="65" stroke="#94a3b8" stroke-dasharray="5 5"/>
<circle cx="721.0" cy="309.4" r="3" fill="#2563eb" opacity="0.48"/>
<circle cx="721.0" cy="311.1" r="3" fill="#2563eb" opacity="0.48"/>
<circle cx="721.0" cy="260.6" r="3" fill="#2563eb" opacity="0.48"/>
<circle cx="655.6" cy="162.8" r="3" fill="#2563eb" opacity="0.48"/>
<circle cx="653.8" cy="164.4" r="3" fill="#2563eb" opacity="0.48"/>
<circle cx="655.6" cy="113.9" r="3" fill="#2563eb" opacity="0.48"/>
<circle cx="653.8" cy="115.5" r="3" fill="#2563eb" opacity="0.48"/>
<circle cx="655.9" cy="110.5" r="3" fill="#2563eb" opacity="0.48"/>
<circle cx="655.6" cy="309.4" r="3" fill="#2563eb" opacity="0.48"/>
<circle cx="653.8" cy="311.1" r="3" fill="#2563eb" opacity="0.48"/>
<circle cx="655.6" cy="69.0" r="3" fill="#2563eb" opacity="0.48"/>
<circle cx="655.6" cy="501.0" r="3" fill="#2563eb" opacity="0.48"/>
<circle cx="653.8" cy="501.0" r="3" fill="#2563eb" opacity="0.48"/>
<circle cx="655.9" cy="501.0" r="3" fill="#2563eb" opacity="0.48"/>
<circle cx="721.0" cy="501.0" r="3" fill="#2563eb" opacity="0.48"/>
<circle cx="721.0" cy="501.0" r="3" fill="#2563eb" opacity="0.48"/>
<circle cx="721.0" cy="501.0" r="3" fill="#2563eb" opacity="0.48"/>
<circle cx="377.8" cy="456.1" r="3" fill="#2563eb" opacity="0.48"/>
<circle cx="377.8" cy="501.0" r="3" fill="#2563eb" opacity="0.48"/>
<circle cx="376.0" cy="501.0" r="3" fill="#2563eb" opacity="0.48"/>
<circle cx="378.1" cy="501.0" r="3" fill="#2563eb" opacity="0.48"/>
<circle cx="380.3" cy="501.0" r="3" fill="#2563eb" opacity="0.48"/>
<circle cx="169.4" cy="407.2" r="3" fill="#2563eb" opacity="0.48"/>
<circle cx="169.4" cy="309.4" r="3" fill="#2563eb" opacity="0.48"/>
<circle cx="586.1" cy="501.0" r="3" fill="#2563eb" opacity="0.48"/>
<circle cx="584.3" cy="501.0" r="3" fill="#2563eb" opacity="0.48"/>
<circle cx="308.3" cy="260.6" r="3" fill="#2563eb" opacity="0.48"/>
<circle cx="169.4" cy="162.8" r="3" fill="#2563eb" opacity="0.48"/>
<circle cx="721.0" cy="69.0" r="3" fill="#2563eb" opacity="0.48"/>
<circle cx="721.0" cy="69.0" r="3" fill="#2563eb" opacity="0.48"/>
<circle cx="721.0" cy="69.0" r="3" fill="#2563eb" opacity="0.48"/>
<circle cx="721.0" cy="69.0" r="3" fill="#2563eb" opacity="0.48"/>
<circle cx="720.3" cy="69.0" r="3" fill="#2563eb" opacity="0.48"/>
<circle cx="721.0" cy="69.0" r="3" fill="#2563eb" opacity="0.48"/>
<circle cx="721.0" cy="70.7" r="3" fill="#2563eb" opacity="0.48"/>
<circle cx="721.0" cy="69.0" r="3" fill="#2563eb" opacity="0.48"/>
<circle cx="721.0" cy="69.0" r="3" fill="#2563eb" opacity="0.48"/>
<circle cx="718.3" cy="69.0" r="3" fill="#2563eb" opacity="0.48"/>
<circle cx="721.0" cy="69.0" r="3" fill="#2563eb" opacity="0.48"/>
<circle cx="721.0" cy="72.6" r="3" fill="#2563eb" opacity="0.48"/>
<circle cx="717.8" cy="69.0" r="3" fill="#2563eb" opacity="0.48"/>
<circle cx="721.0" cy="69.0" r="3" fill="#2563eb" opacity="0.48"/>
<circle cx="719.8" cy="72.3" r="3" fill="#2563eb" opacity="0.48"/>
<circle cx="721.0" cy="69.0" r="3" fill="#2563eb" opacity="0.48"/>
<circle cx="721.0" cy="71.2" r="3" fill="#2563eb" opacity="0.48"/>
<circle cx="715.1" cy="69.0" r="3" fill="#2563eb" opacity="0.48"/>
<circle cx="721.0" cy="69.0" r="3" fill="#2563eb" opacity="0.48"/>
<circle cx="721.0" cy="162.8" r="3" fill="#2563eb" opacity="0.48"/>
<circle cx="586.1" cy="113.9" r="3" fill="#2563eb" opacity="0.48"/>
<circle cx="584.3" cy="115.5" r="3" fill="#2563eb" opacity="0.48"/>
<circle cx="586.4" cy="110.5" r="3" fill="#2563eb" opacity="0.48"/>
<circle cx="655.6" cy="260.6" r="3" fill="#2563eb" opacity="0.48"/>
<circle cx="308.3" cy="113.9" r="3" fill="#2563eb" opacity="0.48"/>
<circle cx="655.6" cy="407.2" r="3" fill="#2563eb" opacity="0.48"/>
<circle cx="447.2" cy="501.0" r="3" fill="#2563eb" opacity="0.48"/>
<circle cx="586.1" cy="456.1" r="3" fill="#2563eb" opacity="0.48"/>
<circle cx="447.2" cy="358.3" r="3" fill="#2563eb" opacity="0.48"/>
<circle cx="447.2" cy="69.0" r="3" fill="#2563eb" opacity="0.48"/>
<circle cx="586.1" cy="162.8" r="3" fill="#2563eb" opacity="0.48"/>
<circle cx="721.0" cy="407.2" r="3" fill="#2563eb" opacity="0.48"/>
<circle cx="516.7" cy="407.2" r="3" fill="#2563eb" opacity="0.48"/>
<circle cx="238.9" cy="407.2" r="3" fill="#2563eb" opacity="0.48"/>
<circle cx="169.4" cy="358.3" r="3" fill="#2563eb" opacity="0.48"/>
<circle cx="308.3" cy="501.0" r="3" fill="#2563eb" opacity="0.48"/>
<circle cx="516.7" cy="456.1" r="3" fill="#2563eb" opacity="0.48"/>
<circle cx="568.8" cy="175.0" r="3" fill="#2563eb" opacity="0.48"/>
<circle cx="567.0" cy="176.6" r="3" fill="#2563eb" opacity="0.48"/>
<circle cx="569.0" cy="171.6" r="3" fill="#2563eb" opacity="0.48"/>
<circle cx="571.3" cy="178.3" r="3" fill="#2563eb" opacity="0.48"/>
<circle cx="564.0" cy="174.2" r="3" fill="#2563eb" opacity="0.48"/>
<circle cx="573.3" cy="172.1" r="3" fill="#2563eb" opacity="0.48"/>
<circle cx="567.2" cy="180.7" r="3" fill="#2563eb" opacity="0.48"/>
<circle cx="565.8" cy="169.4" r="3" fill="#2563eb" opacity="0.48"/>
<circle cx="575.1" cy="177.3" r="3" fill="#2563eb" opacity="0.48"/>
<circle cx="562.1" cy="177.7" r="3" fill="#2563eb" opacity="0.48"/>
<circle cx="572.0" cy="168.1" r="3" fill="#2563eb" opacity="0.48"/>
<circle cx="571.1" cy="182.6" r="3" fill="#2563eb" opacity="0.48"/>
<circle cx="561.6" cy="170.8" r="3" fill="#2563eb" opacity="0.48"/>
<circle cx="577.2" cy="173.1" r="3" fill="#2563eb" opacity="0.48"/>
<circle cx="563.6" cy="182.3" r="3" fill="#2563eb" opacity="0.48"/>
<circle cx="567.6" cy="165.8" r="3" fill="#2563eb" opacity="0.48"/>
<circle cx="576.1" cy="181.2" r="3" fill="#2563eb" opacity="0.48"/>
<circle cx="558.9" cy="175.4" r="3" fill="#2563eb" opacity="0.48"/>
<circle cx="576.0" cy="167.8" r="3" fill="#2563eb" opacity="0.48"/>
<circle cx="568.3" cy="185.5" r="3" fill="#2563eb" opacity="0.48"/>
<circle cx="561.9" cy="166.8" r="3" fill="#2563eb" opacity="0.48"/>
<circle cx="579.6" cy="176.5" r="3" fill="#2563eb" opacity="0.48"/>
<circle cx="559.5" cy="181.4" r="3" fill="#2563eb" opacity="0.48"/>
<circle cx="571.3" cy="163.8" r="3" fill="#2563eb" opacity="0.48"/>
<circle cx="574.6" cy="185.2" r="3" fill="#2563eb" opacity="0.48"/>
<circle cx="557.3" cy="171.4" r="3" fill="#2563eb" opacity="0.48"/>
<circle cx="579.9" cy="169.9" r="3" fill="#2563eb" opacity="0.48"/>
<circle cx="563.9" cy="186.5" r="3" fill="#2563eb" opacity="0.48"/>
<circle cx="564.5" cy="163.0" r="3" fill="#2563eb" opacity="0.48"/>
<circle cx="580.2" cy="181.0" r="3" fill="#2563eb" opacity="0.48"/>
<circle cx="556.0" cy="178.4" r="3" fill="#2563eb" opacity="0.48"/>
<circle cx="576.0" cy="163.8" r="3" fill="#2563eb" opacity="0.48"/>
<circle cx="571.0" cy="188.4" r="3" fill="#2563eb" opacity="0.48"/>
<circle cx="557.8" cy="166.6" r="3" fill="#2563eb" opacity="0.48"/>
<circle cx="582.7" cy="173.8" r="3" fill="#2563eb" opacity="0.48"/>
<circle cx="559.1" cy="185.4" r="3" fill="#2563eb" opacity="0.48"/>
<circle cx="568.8" cy="160.6" r="3" fill="#2563eb" opacity="0.48"/>
<circle cx="578.6" cy="185.8" r="3" fill="#2563eb" opacity="0.48"/>
<circle cx="554.0" cy="173.6" r="3" fill="#2563eb" opacity="0.48"/>
<circle cx="580.7" cy="165.9" r="3" fill="#2563eb" opacity="0.48"/>
<circle cx="566.0" cy="189.9" r="3" fill="#2563eb" opacity="0.48"/>
<circle cx="560.6" cy="162.0" r="3" fill="#2563eb" opacity="0.48"/>
<circle cx="583.8" cy="179.1" r="3" fill="#2563eb" opacity="0.48"/>
<circle cx="554.7" cy="182.2" r="3" fill="#2563eb" opacity="0.48"/>
<circle cx="574.3" cy="160.1" r="3" fill="#2563eb" opacity="0.48"/>
<circle cx="574.8" cy="189.9" r="3" fill="#2563eb" opacity="0.48"/>
<circle cx="554.0" cy="168.0" r="3" fill="#2563eb" opacity="0.48"/>
<circle cx="584.5" cy="170.2" r="3" fill="#2563eb" opacity="0.48"/>
<circle cx="560.3" cy="189.3" r="3" fill="#2563eb" opacity="0.48"/>
<circle cx="565.2" cy="158.6" r="3" fill="#2563eb" opacity="0.48"/>
<circle cx="582.6" cy="184.8" r="3" fill="#2563eb" opacity="0.48"/>
<circle cx="551.7" cy="177.1" r="3" fill="#2563eb" opacity="0.48"/>
<circle cx="580.0" cy="161.8" r="3" fill="#2563eb" opacity="0.48"/>
<circle cx="569.4" cy="192.5" r="3" fill="#2563eb" opacity="0.48"/>
<circle cx="556.4" cy="162.4" r="3" fill="#2563eb" opacity="0.48"/>
<circle cx="586.5" cy="175.9" r="3" fill="#2563eb" opacity="0.48"/>
<circle cx="554.9" cy="186.4" r="3" fill="#2563eb" opacity="0.48"/>
<circle cx="412.5" cy="175.0" r="3" fill="#2563eb" opacity="0.48"/>
<circle cx="410.7" cy="176.6" r="3" fill="#2563eb" opacity="0.48"/>
<circle cx="412.8" cy="171.6" r="3" fill="#2563eb" opacity="0.48"/>
<circle cx="415.0" cy="178.3" r="3" fill="#2563eb" opacity="0.48"/>
<circle cx="407.8" cy="174.2" r="3" fill="#2563eb" opacity="0.48"/>
<circle cx="417.0" cy="172.1" r="3" fill="#2563eb" opacity="0.48"/>
<circle cx="411.0" cy="180.7" r="3" fill="#2563eb" opacity="0.48"/>
<circle cx="409.6" cy="169.4" r="3" fill="#2563eb" opacity="0.48"/>
<circle cx="418.9" cy="177.3" r="3" fill="#2563eb" opacity="0.48"/>
<circle cx="405.8" cy="177.7" r="3" fill="#2563eb" opacity="0.48"/>
<circle cx="415.7" cy="168.1" r="3" fill="#2563eb" opacity="0.48"/>
<circle cx="414.9" cy="182.6" r="3" fill="#2563eb" opacity="0.48"/>
<circle cx="405.3" cy="170.8" r="3" fill="#2563eb" opacity="0.48"/>
<circle cx="568.8" cy="395.0" r="3" fill="#2563eb" opacity="0.48"/>
<circle cx="412.5" cy="69.0" r="3" fill="#2563eb" opacity="0.48"/>
<circle cx="410.7" cy="69.0" r="3" fill="#2563eb" opacity="0.48"/>
<circle cx="412.8" cy="69.0" r="3" fill="#2563eb" opacity="0.48"/>
<circle cx="415.0" cy="69.0" r="3" fill="#2563eb" opacity="0.48"/>
<circle cx="407.8" cy="69.0" r="3" fill="#2563eb" opacity="0.48"/>
<circle cx="417.0" cy="69.0" r="3" fill="#2563eb" opacity="0.48"/>
<circle cx="411.0" cy="70.7" r="3" fill="#2563eb" opacity="0.48"/>
<circle cx="409.6" cy="69.0" r="3" fill="#2563eb" opacity="0.48"/>
<circle cx="418.9" cy="69.0" r="3" fill="#2563eb" opacity="0.48"/>
<circle cx="405.8" cy="69.0" r="3" fill="#2563eb" opacity="0.48"/>
<circle cx="415.7" cy="69.0" r="3" fill="#2563eb" opacity="0.48"/>
<circle cx="414.9" cy="72.6" r="3" fill="#2563eb" opacity="0.48"/>
<circle cx="405.3" cy="69.0" r="3" fill="#2563eb" opacity="0.48"/>
<circle cx="421.0" cy="69.0" r="3" fill="#2563eb" opacity="0.48"/>
<circle cx="407.3" cy="72.3" r="3" fill="#2563eb" opacity="0.48"/>
<circle cx="411.3" cy="69.0" r="3" fill="#2563eb" opacity="0.48"/>
<circle cx="419.8" cy="71.2" r="3" fill="#2563eb" opacity="0.48"/>
<circle cx="402.6" cy="69.0" r="3" fill="#2563eb" opacity="0.48"/>
<circle cx="419.7" cy="69.0" r="3" fill="#2563eb" opacity="0.48"/>
<circle cx="412.5" cy="285.0" r="3" fill="#2563eb" opacity="0.48"/>
<circle cx="410.7" cy="286.6" r="3" fill="#2563eb" opacity="0.48"/>
<circle cx="412.8" cy="281.6" r="3" fill="#2563eb" opacity="0.48"/>
<circle cx="415.0" cy="288.3" r="3" fill="#2563eb" opacity="0.48"/>
<circle cx="407.8" cy="284.2" r="3" fill="#2563eb" opacity="0.48"/>
<circle cx="417.0" cy="282.1" r="3" fill="#2563eb" opacity="0.48"/>
<circle cx="411.0" cy="290.7" r="3" fill="#2563eb" opacity="0.48"/>
<circle cx="409.6" cy="279.4" r="3" fill="#2563eb" opacity="0.48"/>
<circle cx="568.8" cy="69.0" r="3" fill="#2563eb" opacity="0.48"/>
<circle cx="567.0" cy="69.0" r="3" fill="#2563eb" opacity="0.48"/>
<circle cx="569.0" cy="69.0" r="3" fill="#2563eb" opacity="0.48"/>
<circle cx="571.3" cy="69.0" r="3" fill="#2563eb" opacity="0.48"/>
<circle cx="564.0" cy="69.0" r="3" fill="#2563eb" opacity="0.48"/>
<circle cx="573.3" cy="69.0" r="3" fill="#2563eb" opacity="0.48"/>
<circle cx="567.2" cy="70.7" r="3" fill="#2563eb" opacity="0.48"/>
<circle cx="565.8" cy="69.0" r="3" fill="#2563eb" opacity="0.48"/>
<circle cx="575.1" cy="69.0" r="3" fill="#2563eb" opacity="0.48"/>
<circle cx="568.8" cy="285.0" r="3" fill="#2563eb" opacity="0.48"/>
<circle cx="567.0" cy="286.6" r="3" fill="#2563eb" opacity="0.48"/>
<circle cx="569.0" cy="281.6" r="3" fill="#2563eb" opacity="0.48"/>
<circle cx="571.3" cy="288.3" r="3" fill="#2563eb" opacity="0.48"/>
<circle cx="564.0" cy="284.2" r="3" fill="#2563eb" opacity="0.48"/>
<circle cx="573.3" cy="282.1" r="3" fill="#2563eb" opacity="0.48"/>
<circle cx="567.2" cy="290.7" r="3" fill="#2563eb" opacity="0.48"/>
<circle cx="256.3" cy="69.0" r="3" fill="#2563eb" opacity="0.48"/>
<circle cx="254.5" cy="69.0" r="3" fill="#2563eb" opacity="0.48"/>
<circle cx="256.5" cy="69.0" r="3" fill="#2563eb" opacity="0.48"/>
<circle cx="258.8" cy="69.0" r="3" fill="#2563eb" opacity="0.48"/>
<circle cx="251.5" cy="69.0" r="3" fill="#2563eb" opacity="0.48"/>
<circle cx="260.8" cy="69.0" r="3" fill="#2563eb" opacity="0.48"/>
<circle cx="254.7" cy="70.7" r="3" fill="#2563eb" opacity="0.48"/>
<circle cx="253.3" cy="69.0" r="3" fill="#2563eb" opacity="0.48"/>
<circle cx="262.6" cy="69.0" r="3" fill="#2563eb" opacity="0.48"/>
<circle cx="249.6" cy="69.0" r="3" fill="#2563eb" opacity="0.48"/>
<circle cx="259.5" cy="69.0" r="3" fill="#2563eb" opacity="0.48"/>
<circle cx="256.3" cy="175.0" r="3" fill="#2563eb" opacity="0.48"/>
<circle cx="254.5" cy="176.6" r="3" fill="#2563eb" opacity="0.48"/>
<circle cx="256.5" cy="171.6" r="3" fill="#2563eb" opacity="0.48"/>
<circle cx="258.8" cy="178.3" r="3" fill="#2563eb" opacity="0.48"/>
<circle cx="721.0" cy="285.0" r="3" fill="#2563eb" opacity="0.48"/>
<circle cx="721.0" cy="286.6" r="3" fill="#2563eb" opacity="0.48"/>
<circle cx="721.0" cy="175.0" r="3" fill="#2563eb" opacity="0.48"/>
<circle cx="104.0" cy="69.0" r="3" fill="#2563eb" opacity="0.48"/>
<circle cx="256.3" cy="395.0" r="3" fill="#2563eb" opacity="0.48"/>
<text x="711.0" y="299.4" text-anchor="middle" font-size="13" font-weight="700" fill="#0f172a">2</text>
<text x="655.6" y="152.8" text-anchor="middle" font-size="13" font-weight="700" fill="#0f172a">2</text>
<text x="655.6" y="103.9" text-anchor="middle" font-size="13" font-weight="700" fill="#0f172a">3</text>
<text x="655.6" y="299.4" text-anchor="middle" font-size="13" font-weight="700" fill="#0f172a">2</text>
<text x="655.6" y="491.0" text-anchor="middle" font-size="13" font-weight="700" fill="#0f172a">3</text>
<text x="711.0" y="491.0" text-anchor="middle" font-size="13" font-weight="700" fill="#0f172a">3</text>
<text x="377.8" y="491.0" text-anchor="middle" font-size="13" font-weight="700" fill="#0f172a">4</text>
<text x="586.1" y="491.0" text-anchor="middle" font-size="13" font-weight="700" fill="#0f172a">2</text>
<text x="711.0" y="79.0" text-anchor="middle" font-size="13" font-weight="700" fill="#0f172a">19</text>
<text x="586.1" y="103.9" text-anchor="middle" font-size="13" font-weight="700" fill="#0f172a">3</text>
<text x="568.8" y="165.0" text-anchor="middle" font-size="13" font-weight="700" fill="#0f172a">57</text>
<text x="412.5" y="165.0" text-anchor="middle" font-size="13" font-weight="700" fill="#0f172a">13</text>
<text x="412.5" y="79.0" text-anchor="middle" font-size="13" font-weight="700" fill="#0f172a">19</text>
<text x="412.5" y="275.0" text-anchor="middle" font-size="13" font-weight="700" fill="#0f172a">8</text>
<text x="568.8" y="79.0" text-anchor="middle" font-size="13" font-weight="700" fill="#0f172a">9</text>
<text x="568.8" y="275.0" text-anchor="middle" font-size="13" font-weight="700" fill="#0f172a">7</text>
<text x="256.3" y="79.0" text-anchor="middle" font-size="13" font-weight="700" fill="#0f172a">11</text>
<text x="256.3" y="165.0" text-anchor="middle" font-size="13" font-weight="700" fill="#0f172a">4</text>
<text x="711.0" y="275.0" text-anchor="middle" font-size="13" font-weight="700" fill="#0f172a">2</text>
<text x="725" y="47" text-anchor="end" font-size="15" fill="#64748b">n=199; gleiche Scores leicht versetzt</text>
<text x="412.5" y="574" text-anchor="middle" font-size="26" fill="#475569">Score des direkten Aufrufs (%)</text>
<text x="28" y="285" transform="rotate(-90 28 285)" text-anchor="middle" font-size="26" fill="#475569">Score Workflow (%)</text>
</svg>
