<svg xmlns="http://www.w3.org/2000/svg" width="1195" height="560" viewBox="0 0 1195 560" role="img" aria-label="Paarweise Differenzen">
<rect width="100%" height="100%" fill="white"/>
<text x="597.5" y="34" text-anchor="middle" font-size="26" font-weight="700" fill="#0f172a">Paarweise Differenzen</text>
<text x="28" y="265" transform="rotate(-90 28 265)" text-anchor="middle" font-size="24" fill="#475569">Workflow - Direkter Aufruf (Prozentpunkte)</text>
<text x="640" y="536" text-anchor="middle" font-size="24" fill="#475569">Antwortpaare, geordnet nach Frage/Run</text>
<line x1="115" y1="230.5" x2="1165" y2="230.5" stroke="#94a3b8" stroke-dasharray="4 4"/>
<line x1="115" y1="65" x2="115" y2="465" stroke="#cbd5e1"/>
<line x1="115" y1="465" x2="1165" y2="465" stroke="#cbd5e1"/>
<line x1="115" y1="465.0" x2="1165" y2="465.0" stroke="#e2e8f0"/>
<text x="105" y="470.0" text-anchor="end" font-size="16" fill="#64748b">-113</text>
<line x1="115" y1="365.0" x2="1165" y2="365.0" stroke="#e2e8f0"/>
<text x="105" y="370.0" text-anchor="end" font-size="16" fill="#64748b">-65</text>
<line x1="115" y1="265.0" x2="1165" y2="265.0" stroke="#e2e8f0"/>
<text x="105" y="270.0" text-anchor="end" font-size="16" fill="#64748b">-17</text>
<line x1="115" y1="165.0" x2="1165" y2="165.0" stroke="#e2e8f0"/>
<text x="105" y="170.0" text-anchor="end" font-size="16" fill="#64748b">32</text>
<line x1="115" y1="65.0" x2="1165" y2="65.0" stroke="#e2e8f0"/>
<text x="105" y="70.0" text-anchor="end" font-size="16" fill="#64748b">80</text>
<rect x="116.0" y="230.5" width="5.0" height="23.0" fill="#dc2626" opacity="0.78"/>
<text x="118.5" y="271.5" text-anchor="middle" font-size="16" font-weight="700" fill="#0f172a">-11.1</text>
<rect x="123.0" y="184.5" width="5.0" height="46.0" fill="#15803d" opacity="0.78"/>
<text x="125.5" y="176.5" text-anchor="middle" font-size="16" font-weight="700" fill="#0f172a">22.2</text>
<rect x="130.0" y="230.5" width="5.0" height="114.9" fill="#dc2626" opacity="0.78"/>
<text x="132.5" y="363.5" text-anchor="middle" font-size="16" font-weight="700" fill="#0f172a">-55.6</text>
<rect x="137.0" y="230.5" width="5.0" height="114.9" fill="#dc2626" opacity="0.78"/>
<text x="139.5" y="363.5" text-anchor="middle" font-size="16" font-weight="700" fill="#0f172a">-55.6</text>
<rect x="144.0" y="207.5" width="5.0" height="23.0" fill="#15803d" opacity="0.78"/>
<text x="146.5" y="199.5" text-anchor="middle" font-size="16" font-weight="700" fill="#0f172a">11.1</text>
<rect x="151.0" y="230.5" width="5.0" height="69.0" fill="#dc2626" opacity="0.78"/>
<text x="153.5" y="317.5" text-anchor="middle" font-size="16" font-weight="700" fill="#0f172a">-33.3</text>
<rect x="158.0" y="230.5" width="5.0" height="46.0" fill="#dc2626" opacity="0.78"/>
<text x="160.5" y="294.5" text-anchor="middle" font-size="16" font-weight="700" fill="#0f172a">-22.2</text>
<rect x="165.0" y="230.5" width="5.0" height="69.0" fill="#dc2626" opacity="0.78"/>
<text x="167.5" y="317.5" text-anchor="middle" font-size="16" font-weight="700" fill="#0f172a">-33.3</text>
<rect x="172.0" y="230.5" width="5.0" height="1.0" fill="#15803d" opacity="0.78"/>
<text x="174.5" y="222.5" text-anchor="middle" font-size="16" font-weight="700" fill="#0f172a">0.0</text>
<rect x="179.0" y="230.5" width="5.0" height="1.0" fill="#15803d" opacity="0.78"/>
<text x="181.5" y="222.5" text-anchor="middle" font-size="16" font-weight="700" fill="#0f172a">0.0</text>
<rect x="186.0" y="207.5" width="5.0" height="23.0" fill="#15803d" opacity="0.78"/>
<text x="188.5" y="199.5" text-anchor="middle" font-size="16" font-weight="700" fill="#0f172a">11.1</text>
<rect x="193.0" y="207.5" width="5.0" height="23.0" fill="#15803d" opacity="0.78"/>
<text x="195.5" y="199.5" text-anchor="middle" font-size="16" font-weight="700" fill="#0f172a">11.1</text>
<rect x="200.0" y="230.5" width="5.0" height="69.0" fill="#dc2626" opacity="0.78"/>
<text x="202.5" y="317.5" text-anchor="middle" font-size="16" font-weight="700" fill="#0f172a">-33.3</text>
<rect x="207.0" y="230.5" width="5.0" height="1.0" fill="#15803d" opacity="0.78"/>
<text x="209.5" y="222.5" text-anchor="middle" font-size="16" font-weight="700" fill="#0f172a">0.0</text>
<rect x="214.0" y="230.5" width="5.0" height="46.0" fill="#dc2626" opacity="0.78"/>
<text x="216.5" y="294.5" text-anchor="middle" font-size="16" font-weight="700" fill="#0f172a">-22.2</text>
<rect x="221.0" y="230.5" width="5.0" height="92.0" fill="#dc2626" opacity="0.78"/>
<text x="223.5" y="340.5" text-anchor="middle" font-size="16" font-weight="700" fill="#0f172a">-44.4</text>
<rect x="228.0" y="230.5" width="5.0" height="1.0" fill="#15803d" opacity="0.78"/>
<text x="230.5" y="222.5" text-anchor="middle" font-size="16" font-weight="700" fill="#0f172a">0.0</text>
<rect x="235.0" y="207.5" width="5.0" height="23.0" fill="#15803d" opacity="0.78"/>
<text x="237.5" y="199.5" text-anchor="middle" font-size="16" font-weight="700" fill="#0f172a">11.1</text>
<rect x="242.0" y="230.5" width="5.0" height="1.0" fill="#15803d" opacity="0.78"/>
<text x="244.5" y="222.5" text-anchor="middle" font-size="16" font-weight="700" fill="#0f172a">0.0</text>
<rect x="249.0" y="230.5" width="5.0" height="1.0" fill="#15803d" opacity="0.78"/>
<text x="251.5" y="222.5" text-anchor="middle" font-size="16" font-weight="700" fill="#0f172a">0.0</text>
<rect x="256.0" y="230.5" width="5.0" height="1.0" fill="#15803d" opacity="0.78"/>
<text x="258.5" y="222.5" text-anchor="middle" font-size="16" font-weight="700" fill="#0f172a">0.0</text>
<rect x="263.0" y="230.5" width="5.0" height="46.0" fill="#dc2626" opacity="0.78"/>
<text x="265.5" y="294.5" text-anchor="middle" font-size="16" font-weight="700" fill="#0f172a">-22.2</text>
<rect x="270.0" y="207.5" width="5.0" height="23.0" fill="#15803d" opacity="0.78"/>
<text x="272.5" y="199.5" text-anchor="middle" font-size="16" font-weight="700" fill="#0f172a">11.1</text>
<rect x="277.0" y="230.5" width="5.0" height="1.0" fill="#15803d" opacity="0.78"/>
<text x="279.5" y="222.5" text-anchor="middle" font-size="16" font-weight="700" fill="#0f172a">0.0</text>
<rect x="284.0" y="207.5" width="5.0" height="23.0" fill="#15803d" opacity="0.78"/>
<text x="286.5" y="199.5" text-anchor="middle" font-size="16" font-weight="700" fill="#0f172a">11.1</text>
<rect x="291.0" y="230.5" width="5.0" height="1.0" fill="#15803d" opacity="0.78"/>
<text x="293.5" y="222.5" text-anchor="middle" font-size="16" font-weight="700" fill="#0f172a">0.0</text>
<rect x="298.0" y="230.5" width="5.0" height="46.0" fill="#dc2626" opacity="0.78"/>
<text x="300.5" y="294.5" text-anchor="middle" font-size="16" font-weight="700" fill="#0f172a">-22.2</text>
<rect x="305.0" y="230.5" width="5.0" height="1.0" fill="#15803d" opacity="0.78"/>
<text x="307.5" y="222.5" text-anchor="middle" font-size="16" font-weight="700" fill="#0f172a">0.0</text>
<rect x="312.0" y="230.5" width="5.0" height="1.0" fill="#15803d" opacity="0.78"/>
<text x="314.5" y="222.5" text-anchor="middle" font-size="16" font-weight="700" fill="#0f172a">0.0</text>
<rect x="319.0" y="207.5" width="5.0" height="23.0" fill="#15803d" opacity="0.78"/>
<text x="321.5" y="199.5" text-anchor="middle" font-size="16" font-weight="700" fill="#0f172a">11.1</text>
<rect x="326.0" y="230.5" width="5.0" height="1.0" fill="#15803d" opacity="0.78"/>
<text x="328.5" y="222.5" text-anchor="middle" font-size="16" font-weight="700" fill="#0f172a">0.0</text>
<rect x="333.0" y="230.5" width="5.0" height="1.0" fill="#15803d" opacity="0.78"/>
<text x="335.5" y="222.5" text-anchor="middle" font-size="16" font-weight="700" fill="#0f172a">0.0</text>
<rect x="340.0" y="230.5" width="5.0" height="1.0" fill="#15803d" opacity="0.78"/>
<text x="342.5" y="222.5" text-anchor="middle" font-size="16" font-weight="700" fill="#0f172a">0.0</text>
<rect x="347.0" y="207.5" width="5.0" height="23.0" fill="#15803d" opacity="0.78"/>
<text x="349.5" y="199.5" text-anchor="middle" font-size="16" font-weight="700" fill="#0f172a">11.1</text>
<rect x="354.0" y="230.5" width="5.0" height="1.0" fill="#15803d" opacity="0.78"/>
<text x="356.5" y="222.5" text-anchor="middle" font-size="16" font-weight="700" fill="#0f172a">0.0</text>
<rect x="361.0" y="230.5" width="5.0" height="1.0" fill="#15803d" opacity="0.78"/>
<text x="363.5" y="222.5" text-anchor="middle" font-size="16" font-weight="700" fill="#0f172a">0.0</text>
<rect x="368.0" y="230.5" width="5.0" height="1.0" fill="#15803d" opacity="0.78"/>
<text x="370.5" y="222.5" text-anchor="middle" font-size="16" font-weight="700" fill="#0f172a">0.0</text>
<rect x="375.0" y="230.5" width="5.0" height="1.0" fill="#15803d" opacity="0.78"/>
<text x="377.5" y="222.5" text-anchor="middle" font-size="16" font-weight="700" fill="#0f172a">0.0</text>
<rect x="382.0" y="230.5" width="5.0" height="23.0" fill="#dc2626" opacity="0.78"/>
<text x="384.5" y="271.5" text-anchor="middle" font-size="16" font-weight="700" fill="#0f172a">-11.1</text>
<rect x="389.0" y="184.5" width="5.0" height="46.0" fill="#15803d" opacity="0.78"/>
<text x="391.5" y="176.5" text-anchor="middle" font-size="16" font-weight="700" fill="#0f172a">22.2</text>
<rect x="396.0" y="207.5" width="5.0" height="23.0" fill="#15803d" opacity="0.78"/>
<text x="398.5" y="199.5" text-anchor="middle" font-size="16" font-weight="700" fill="#0f172a">11.1</text>
<rect x="403.0" y="230.5" width="5.0" height="69.0" fill="#dc2626" opacity="0.78"/>
<text x="405.5" y="317.5" text-anchor="middle" font-size="16" font-weight="700" fill="#0f172a">-33.3</text>
<rect x="410.0" y="230.5" width="5.0" height="23.0" fill="#dc2626" opacity="0.78"/>
<text x="412.5" y="271.5" text-anchor="middle" font-size="16" font-weight="700" fill="#0f172a">-11.1</text>
<rect x="417.0" y="207.5" width="5.0" height="23.0" fill="#15803d" opacity="0.78"/>
<text x="419.5" y="199.5" text-anchor="middle" font-size="16" font-weight="700" fill="#0f172a">11.1</text>
<rect x="424.0" y="230.5" width="5.0" height="1.0" fill="#15803d" opacity="0.78"/>
<text x="426.5" y="222.5" text-anchor="middle" font-size="16" font-weight="700" fill="#0f172a">0.0</text>
<rect x="431.0" y="230.5" width="5.0" height="1.0" fill="#15803d" opacity="0.78"/>
<text x="433.5" y="222.5" text-anchor="middle" font-size="16" font-weight="700" fill="#0f172a">0.0</text>
<rect x="438.0" y="92.6" width="5.0" height="137.9" fill="#15803d" opacity="0.78"/>
<text x="440.5" y="84.6" text-anchor="middle" font-size="16" font-weight="700" fill="#0f172a">66.7</text>
<rect x="445.0" y="230.5" width="5.0" height="114.9" fill="#dc2626" opacity="0.78"/>
<text x="447.5" y="363.5" text-anchor="middle" font-size="16" font-weight="700" fill="#0f172a">-55.6</text>
<rect x="452.0" y="230.5" width="5.0" height="1.0" fill="#15803d" opacity="0.78"/>
<text x="454.5" y="222.5" text-anchor="middle" font-size="16" font-weight="700" fill="#0f172a">0.0</text>
<rect x="459.0" y="230.5" width="5.0" height="114.9" fill="#dc2626" opacity="0.78"/>
<text x="461.5" y="363.5" text-anchor="middle" font-size="16" font-weight="700" fill="#0f172a">-55.6</text>
<rect x="466.0" y="230.5" width="5.0" height="155.2" fill="#dc2626" opacity="0.78"/>
<text x="468.5" y="403.7" text-anchor="middle" font-size="16" font-weight="700" fill="#0f172a">-75.0</text>
<rect x="473.0" y="230.5" width="5.0" height="1.0" fill="#15803d" opacity="0.78"/>
<text x="475.5" y="222.5" text-anchor="middle" font-size="16" font-weight="700" fill="#0f172a">0.0</text>
<rect x="480.0" y="230.5" width="5.0" height="51.7" fill="#dc2626" opacity="0.78"/>
<text x="482.5" y="300.2" text-anchor="middle" font-size="16" font-weight="700" fill="#0f172a">-25.0</text>
<rect x="487.0" y="230.5" width="5.0" height="51.7" fill="#dc2626" opacity="0.78"/>
<text x="489.5" y="300.2" text-anchor="middle" font-size="16" font-weight="700" fill="#0f172a">-25.0</text>
<rect x="494.0" y="178.8" width="5.0" height="51.7" fill="#15803d" opacity="0.78"/>
<text x="496.5" y="170.8" text-anchor="middle" font-size="16" font-weight="700" fill="#0f172a">25.0</text>
<rect x="501.0" y="230.5" width="5.0" height="155.2" fill="#dc2626" opacity="0.78"/>
<text x="503.5" y="403.7" text-anchor="middle" font-size="16" font-weight="700" fill="#0f172a">-75.0</text>
<rect x="508.0" y="230.5" width="5.0" height="1.0" fill="#15803d" opacity="0.78"/>
<text x="510.5" y="222.5" text-anchor="middle" font-size="16" font-weight="700" fill="#0f172a">0.0</text>
<rect x="515.0" y="127.1" width="5.0" height="103.4" fill="#15803d" opacity="0.78"/>
<text x="517.5" y="119.1" text-anchor="middle" font-size="16" font-weight="700" fill="#0f172a">50.0</text>
<rect x="522.0" y="230.5" width="5.0" height="103.4" fill="#dc2626" opacity="0.78"/>
<text x="524.5" y="352.0" text-anchor="middle" font-size="16" font-weight="700" fill="#0f172a">-50.0</text>
<rect x="529.0" y="127.1" width="5.0" height="103.4" fill="#15803d" opacity="0.78"/>
<text x="531.5" y="119.1" text-anchor="middle" font-size="16" font-weight="700" fill="#0f172a">50.0</text>
<rect x="536.0" y="178.8" width="5.0" height="51.7" fill="#15803d" opacity="0.78"/>
<text x="538.5" y="170.8" text-anchor="middle" font-size="16" font-weight="700" fill="#0f172a">25.0</text>
<rect x="543.0" y="230.5" width="5.0" height="1.0" fill="#15803d" opacity="0.78"/>
<text x="545.5" y="222.5" text-anchor="middle" font-size="16" font-weight="700" fill="#0f172a">0.0</text>
<rect x="550.0" y="230.5" width="5.0" height="1.0" fill="#15803d" opacity="0.78"/>
<text x="552.5" y="222.5" text-anchor="middle" font-size="16" font-weight="700" fill="#0f172a">0.0</text>
<rect x="557.0" y="230.5" width="5.0" height="1.0" fill="#15803d" opacity="0.78"/>
<text x="559.5" y="222.5" text-anchor="middle" font-size="16" font-weight="700" fill="#0f172a">0.0</text>
<rect x="564.0" y="230.5" width="5.0" height="1.0" fill="#15803d" opacity="0.78"/>
<text x="566.5" y="222.5" text-anchor="middle" font-size="16" font-weight="700" fill="#0f172a">0.0</text>
<rect x="571.0" y="230.5" width="5.0" height="1.0" fill="#15803d" opacity="0.78"/>
<text x="573.5" y="222.5" text-anchor="middle" font-size="16" font-weight="700" fill="#0f172a">0.0</text>
<rect x="578.0" y="230.5" width="5.0" height="1.0" fill="#15803d" opacity="0.78"/>
<text x="580.5" y="222.5" text-anchor="middle" font-size="16" font-weight="700" fill="#0f172a">0.0</text>
<rect x="585.0" y="230.5" width="5.0" height="1.0" fill="#15803d" opacity="0.78"/>
<text x="587.5" y="222.5" text-anchor="middle" font-size="16" font-weight="700" fill="#0f172a">0.0</text>
<rect x="592.0" y="230.5" width="5.0" height="1.0" fill="#15803d" opacity="0.78"/>
<text x="594.5" y="222.5" text-anchor="middle" font-size="16" font-weight="700" fill="#0f172a">0.0</text>
<rect x="599.0" y="230.5" width="5.0" height="1.0" fill="#15803d" opacity="0.78"/>
<text x="601.5" y="222.5" text-anchor="middle" font-size="16" font-weight="700" fill="#0f172a">0.0</text>
<rect x="606.0" y="230.5" width="5.0" height="1.0" fill="#15803d" opacity="0.78"/>
<text x="608.5" y="222.5" text-anchor="middle" font-size="16" font-weight="700" fill="#0f172a">0.0</text>
<rect x="613.0" y="230.5" width="5.0" height="1.0" fill="#15803d" opacity="0.78"/>
<text x="615.5" y="222.5" text-anchor="middle" font-size="16" font-weight="700" fill="#0f172a">0.0</text>
<rect x="620.0" y="230.5" width="5.0" height="1.0" fill="#15803d" opacity="0.78"/>
<text x="622.5" y="222.5" text-anchor="middle" font-size="16" font-weight="700" fill="#0f172a">0.0</text>
<rect x="627.0" y="230.5" width="5.0" height="1.0" fill="#15803d" opacity="0.78"/>
<text x="629.5" y="222.5" text-anchor="middle" font-size="16" font-weight="700" fill="#0f172a">0.0</text>
<rect x="634.0" y="230.5" width="5.0" height="1.0" fill="#15803d" opacity="0.78"/>
<text x="636.5" y="222.5" text-anchor="middle" font-size="16" font-weight="700" fill="#0f172a">0.0</text>
<rect x="641.0" y="230.5" width="5.0" height="1.0" fill="#15803d" opacity="0.78"/>
<text x="643.5" y="222.5" text-anchor="middle" font-size="16" font-weight="700" fill="#0f172a">0.0</text>
<rect x="648.0" y="230.5" width="5.0" height="1.0" fill="#15803d" opacity="0.78"/>
<text x="650.5" y="222.5" text-anchor="middle" font-size="16" font-weight="700" fill="#0f172a">0.0</text>
<rect x="655.0" y="230.5" width="5.0" height="1.0" fill="#15803d" opacity="0.78"/>
<text x="657.5" y="222.5" text-anchor="middle" font-size="16" font-weight="700" fill="#0f172a">0.0</text>
<rect x="662.0" y="230.5" width="5.0" height="1.0" fill="#15803d" opacity="0.78"/>
<text x="664.5" y="222.5" text-anchor="middle" font-size="16" font-weight="700" fill="#0f172a">0.0</text>
<rect x="669.0" y="230.5" width="5.0" height="1.0" fill="#15803d" opacity="0.78"/>
<text x="671.5" y="222.5" text-anchor="middle" font-size="16" font-weight="700" fill="#0f172a">0.0</text>
<rect x="676.0" y="230.5" width="5.0" height="51.7" fill="#dc2626" opacity="0.78"/>
<text x="678.5" y="300.2" text-anchor="middle" font-size="16" font-weight="700" fill="#0f172a">-25.0</text>
<rect x="683.0" y="230.5" width="5.0" height="51.7" fill="#dc2626" opacity="0.78"/>
<text x="685.5" y="300.2" text-anchor="middle" font-size="16" font-weight="700" fill="#0f172a">-25.0</text>
<rect x="690.0" y="230.5" width="5.0" height="1.0" fill="#15803d" opacity="0.78"/>
<text x="692.5" y="222.5" text-anchor="middle" font-size="16" font-weight="700" fill="#0f172a">0.0</text>
<rect x="697.0" y="230.5" width="5.0" height="1.0" fill="#15803d" opacity="0.78"/>
<text x="699.5" y="222.5" text-anchor="middle" font-size="16" font-weight="700" fill="#0f172a">0.0</text>
<rect x="704.0" y="230.5" width="5.0" height="1.0" fill="#15803d" opacity="0.78"/>
<text x="706.5" y="222.5" text-anchor="middle" font-size="16" font-weight="700" fill="#0f172a">0.0</text>
<rect x="711.0" y="230.5" width="5.0" height="1.0" fill="#15803d" opacity="0.78"/>
<text x="713.5" y="222.5" text-anchor="middle" font-size="16" font-weight="700" fill="#0f172a">0.0</text>
<rect x="718.0" y="230.5" width="5.0" height="1.0" fill="#15803d" opacity="0.78"/>
<text x="720.5" y="222.5" text-anchor="middle" font-size="16" font-weight="700" fill="#0f172a">0.0</text>
<rect x="725.0" y="230.5" width="5.0" height="1.0" fill="#15803d" opacity="0.78"/>
<text x="727.5" y="222.5" text-anchor="middle" font-size="16" font-weight="700" fill="#0f172a">0.0</text>
<rect x="732.0" y="178.8" width="5.0" height="51.7" fill="#15803d" opacity="0.78"/>
<text x="734.5" y="170.8" text-anchor="middle" font-size="16" font-weight="700" fill="#0f172a">25.0</text>
<rect x="739.0" y="230.5" width="5.0" height="1.0" fill="#15803d" opacity="0.78"/>
<text x="741.5" y="222.5" text-anchor="middle" font-size="16" font-weight="700" fill="#0f172a">0.0</text>
<rect x="746.0" y="178.8" width="5.0" height="51.7" fill="#15803d" opacity="0.78"/>
<text x="748.5" y="170.8" text-anchor="middle" font-size="16" font-weight="700" fill="#0f172a">25.0</text>
<rect x="753.0" y="230.5" width="5.0" height="51.7" fill="#dc2626" opacity="0.78"/>
<text x="755.5" y="300.2" text-anchor="middle" font-size="16" font-weight="700" fill="#0f172a">-25.0</text>
<rect x="760.0" y="178.8" width="5.0" height="51.7" fill="#15803d" opacity="0.78"/>
<text x="762.5" y="170.8" text-anchor="middle" font-size="16" font-weight="700" fill="#0f172a">25.0</text>
<rect x="767.0" y="178.8" width="5.0" height="51.7" fill="#15803d" opacity="0.78"/>
<text x="769.5" y="170.8" text-anchor="middle" font-size="16" font-weight="700" fill="#0f172a">25.0</text>
<rect x="774.0" y="127.1" width="5.0" height="103.4" fill="#15803d" opacity="0.78"/>
<text x="776.5" y="119.1" text-anchor="middle" font-size="16" font-weight="700" fill="#0f172a">50.0</text>
<rect x="781.0" y="230.5" width="5.0" height="1.0" fill="#15803d" opacity="0.78"/>
<text x="783.5" y="222.5" text-anchor="middle" font-size="16" font-weight="700" fill="#0f172a">0.0</text>
<rect x="788.0" y="230.5" width="5.0" height="1.0" fill="#15803d" opacity="0.78"/>
<text x="790.5" y="222.5" text-anchor="middle" font-size="16" font-weight="700" fill="#0f172a">0.0</text>
<rect x="795.0" y="230.5" width="5.0" height="51.7" fill="#dc2626" opacity="0.78"/>
<text x="797.5" y="300.2" text-anchor="middle" font-size="16" font-weight="700" fill="#0f172a">-25.0</text>
<rect x="802.0" y="127.1" width="5.0" height="103.4" fill="#15803d" opacity="0.78"/>
<text x="804.5" y="119.1" text-anchor="middle" font-size="16" font-weight="700" fill="#0f172a">50.0</text>
<rect x="809.0" y="178.8" width="5.0" height="51.7" fill="#15803d" opacity="0.78"/>
<text x="811.5" y="170.8" text-anchor="middle" font-size="16" font-weight="700" fill="#0f172a">25.0</text>
<rect x="816.0" y="230.5" width="5.0" height="1.0" fill="#15803d" opacity="0.78"/>
<text x="818.5" y="222.5" text-anchor="middle" font-size="16" font-weight="700" fill="#0f172a">0.0</text>
<rect x="823.0" y="230.5" width="5.0" height="1.0" fill="#15803d" opacity="0.78"/>
<text x="825.5" y="222.5" text-anchor="middle" font-size="16" font-weight="700" fill="#0f172a">0.0</text>
<rect x="830.0" y="230.5" width="5.0" height="51.7" fill="#dc2626" opacity="0.78"/>
<text x="832.5" y="300.2" text-anchor="middle" font-size="16" font-weight="700" fill="#0f172a">-25.0</text>
<rect x="837.0" y="230.5" width="5.0" height="1.0" fill="#15803d" opacity="0.78"/>
<text x="839.5" y="222.5" text-anchor="middle" font-size="16" font-weight="700" fill="#0f172a">0.0</text>
<rect x="844.0" y="230.5" width="5.0" height="1.0" fill="#15803d" opacity="0.78"/>
<text x="846.5" y="222.5" text-anchor="middle" font-size="16" font-weight="700" fill="#0f172a">0.0</text>
<rect x="851.0" y="230.5" width="5.0" height="1.0" fill="#15803d" opacity="0.78"/>
<text x="853.5" y="222.5" text-anchor="middle" font-size="16" font-weight="700" fill="#0f172a">0.0</text>
<rect x="858.0" y="230.5" width="5.0" height="1.0" fill="#15803d" opacity="0.78"/>
<text x="860.5" y="222.5" text-anchor="middle" font-size="16" font-weight="700" fill="#0f172a">0.0</text>
<rect x="865.0" y="230.5" width="5.0" height="1.0" fill="#15803d" opacity="0.78"/>
<text x="867.5" y="222.5" text-anchor="middle" font-size="16" font-weight="700" fill="#0f172a">0.0</text>
<rect x="872.0" y="230.5" width="5.0" height="51.7" fill="#dc2626" opacity="0.78"/>
<text x="874.5" y="300.2" text-anchor="middle" font-size="16" font-weight="700" fill="#0f172a">-25.0</text>
<rect x="879.0" y="230.5" width="5.0" height="1.0" fill="#15803d" opacity="0.78"/>
<text x="881.5" y="222.5" text-anchor="middle" font-size="16" font-weight="700" fill="#0f172a">0.0</text>
<rect x="886.0" y="230.5" width="5.0" height="1.0" fill="#15803d" opacity="0.78"/>
<text x="888.5" y="222.5" text-anchor="middle" font-size="16" font-weight="700" fill="#0f172a">0.0</text>
<rect x="893.0" y="230.5" width="5.0" height="103.4" fill="#dc2626" opacity="0.78"/>
<text x="895.5" y="352.0" text-anchor="middle" font-size="16" font-weight="700" fill="#0f172a">-50.0</text>
<rect x="900.0" y="178.8" width="5.0" height="51.7" fill="#15803d" opacity="0.78"/>
<text x="902.5" y="170.8" text-anchor="middle" font-size="16" font-weight="700" fill="#0f172a">25.0</text>
<rect x="907.0" y="127.1" width="5.0" height="103.4" fill="#15803d" opacity="0.78"/>
<text x="909.5" y="119.1" text-anchor="middle" font-size="16" font-weight="700" fill="#0f172a">50.0</text>
<rect x="914.0" y="230.5" width="5.0" height="1.0" fill="#15803d" opacity="0.78"/>
<text x="916.5" y="222.5" text-anchor="middle" font-size="16" font-weight="700" fill="#0f172a">0.0</text>
<rect x="921.0" y="230.5" width="5.0" height="206.9" fill="#dc2626" opacity="0.78"/>
<text x="923.5" y="455.4" text-anchor="middle" font-size="16" font-weight="700" fill="#0f172a">-100.0</text>
<rect x="928.0" y="230.5" width="5.0" height="103.4" fill="#dc2626" opacity="0.78"/>
<text x="930.5" y="352.0" text-anchor="middle" font-size="16" font-weight="700" fill="#0f172a">-50.0</text>
<rect x="935.0" y="230.5" width="5.0" height="1.0" fill="#15803d" opacity="0.78"/>
<text x="937.5" y="222.5" text-anchor="middle" font-size="16" font-weight="700" fill="#0f172a">0.0</text>
<rect x="942.0" y="178.8" width="5.0" height="51.7" fill="#15803d" opacity="0.78"/>
<text x="944.5" y="170.8" text-anchor="middle" font-size="16" font-weight="700" fill="#0f172a">25.0</text>
<rect x="949.0" y="230.5" width="5.0" height="51.7" fill="#dc2626" opacity="0.78"/>
<text x="951.5" y="300.2" text-anchor="middle" font-size="16" font-weight="700" fill="#0f172a">-25.0</text>
<rect x="956.0" y="230.5" width="5.0" height="1.0" fill="#15803d" opacity="0.78"/>
<text x="958.5" y="222.5" text-anchor="middle" font-size="16" font-weight="700" fill="#0f172a">0.0</text>
<rect x="963.0" y="230.5" width="5.0" height="1.0" fill="#15803d" opacity="0.78"/>
<text x="965.5" y="222.5" text-anchor="middle" font-size="16" font-weight="700" fill="#0f172a">0.0</text>
<rect x="970.0" y="230.5" width="5.0" height="1.0" fill="#15803d" opacity="0.78"/>
<text x="972.5" y="222.5" text-anchor="middle" font-size="16" font-weight="700" fill="#0f172a">0.0</text>
<rect x="977.0" y="230.5" width="5.0" height="1.0" fill="#15803d" opacity="0.78"/>
<text x="979.5" y="222.5" text-anchor="middle" font-size="16" font-weight="700" fill="#0f172a">0.0</text>
<rect x="984.0" y="230.5" width="5.0" height="1.0" fill="#15803d" opacity="0.78"/>
<text x="986.5" y="222.5" text-anchor="middle" font-size="16" font-weight="700" fill="#0f172a">0.0</text>
<rect x="991.0" y="230.5" width="5.0" height="1.0" fill="#15803d" opacity="0.78"/>
<text x="993.5" y="222.5" text-anchor="middle" font-size="16" font-weight="700" fill="#0f172a">0.0</text>
<rect x="998.0" y="230.5" width="5.0" height="1.0" fill="#15803d" opacity="0.78"/>
<text x="1000.5" y="222.5" text-anchor="middle" font-size="16" font-weight="700" fill="#0f172a">0.0</text>
<rect x="1005.0" y="230.5" width="5.0" height="1.0" fill="#15803d" opacity="0.78"/>
<text x="1007.5" y="222.5" text-anchor="middle" font-size="16" font-weight="700" fill="#0f172a">0.0</text>
<rect x="1012.0" y="230.5" width="5.0" height="1.0" fill="#15803d" opacity="0.78"/>
<text x="1014.5" y="222.5" text-anchor="middle" font-size="16" font-weight="700" fill="#0f172a">0.0</text>
<rect x="1019.0" y="230.5" width="5.0" height="1.0" fill="#15803d" opacity="0.78"/>
<text x="1021.5" y="222.5" text-anchor="middle" font-size="16" font-weight="700" fill="#0f172a">0.0</text>
<rect x="1026.0" y="230.5" width="5.0" height="1.0" fill="#15803d" opacity="0.78"/>
<text x="1028.5" y="222.5" text-anchor="middle" font-size="16" font-weight="700" fill="#0f172a">0.0</text>
<rect x="1033.0" y="230.5" width="5.0" height="51.7" fill="#dc2626" opacity="0.78"/>
<text x="1035.5" y="300.2" text-anchor="middle" font-size="16" font-weight="700" fill="#0f172a">-25.0</text>
<rect x="1040.0" y="230.5" width="5.0" height="51.7" fill="#dc2626" opacity="0.78"/>
<text x="1042.5" y="300.2" text-anchor="middle" font-size="16" font-weight="700" fill="#0f172a">-25.0</text>
<rect x="1047.0" y="230.5" width="5.0" height="103.4" fill="#dc2626" opacity="0.78"/>
<text x="1049.5" y="352.0" text-anchor="middle" font-size="16" font-weight="700" fill="#0f172a">-50.0</text>
<rect x="1054.0" y="178.8" width="5.0" height="51.7" fill="#15803d" opacity="0.78"/>
<text x="1056.5" y="170.8" text-anchor="middle" font-size="16" font-weight="700" fill="#0f172a">25.0</text>
<rect x="1061.0" y="230.5" width="5.0" height="1.0" fill="#15803d" opacity="0.78"/>
<text x="1063.5" y="222.5" text-anchor="middle" font-size="16" font-weight="700" fill="#0f172a">0.0</text>
<rect x="1068.0" y="230.5" width="5.0" height="103.4" fill="#dc2626" opacity="0.78"/>
<text x="1070.5" y="352.0" text-anchor="middle" font-size="16" font-weight="700" fill="#0f172a">-50.0</text>
<rect x="1075.0" y="230.5" width="5.0" height="51.7" fill="#dc2626" opacity="0.78"/>
<text x="1077.5" y="300.2" text-anchor="middle" font-size="16" font-weight="700" fill="#0f172a">-25.0</text>
<rect x="1082.0" y="178.8" width="5.0" height="51.7" fill="#15803d" opacity="0.78"/>
<text x="1084.5" y="170.8" text-anchor="middle" font-size="16" font-weight="700" fill="#0f172a">25.0</text>
<rect x="1089.0" y="178.8" width="5.0" height="51.7" fill="#15803d" opacity="0.78"/>
<text x="1091.5" y="170.8" text-anchor="middle" font-size="16" font-weight="700" fill="#0f172a">25.0</text>
<rect x="1096.0" y="178.8" width="5.0" height="51.7" fill="#15803d" opacity="0.78"/>
<text x="1098.5" y="170.8" text-anchor="middle" font-size="16" font-weight="700" fill="#0f172a">25.0</text>
<rect x="1103.0" y="230.5" width="5.0" height="1.0" fill="#15803d" opacity="0.78"/>
<text x="1105.5" y="222.5" text-anchor="middle" font-size="16" font-weight="700" fill="#0f172a">0.0</text>
<rect x="1110.0" y="230.5" width="5.0" height="1.0" fill="#15803d" opacity="0.78"/>
<text x="1112.5" y="222.5" text-anchor="middle" font-size="16" font-weight="700" fill="#0f172a">0.0</text>
<rect x="1117.0" y="230.5" width="5.0" height="1.0" fill="#15803d" opacity="0.78"/>
<text x="1119.5" y="222.5" text-anchor="middle" font-size="16" font-weight="700" fill="#0f172a">0.0</text>
<rect x="1124.0" y="178.8" width="5.0" height="51.7" fill="#15803d" opacity="0.78"/>
<text x="1126.5" y="170.8" text-anchor="middle" font-size="16" font-weight="700" fill="#0f172a">25.0</text>
<rect x="1131.0" y="230.5" width="5.0" height="51.7" fill="#dc2626" opacity="0.78"/>
<text x="1133.5" y="300.2" text-anchor="middle" font-size="16" font-weight="700" fill="#0f172a">-25.0</text>
<rect x="1138.0" y="230.5" width="5.0" height="51.7" fill="#dc2626" opacity="0.78"/>
<text x="1140.5" y="300.2" text-anchor="middle" font-size="16" font-weight="700" fill="#0f172a">-25.0</text>
<rect x="1145.0" y="230.5" width="5.0" height="1.0" fill="#15803d" opacity="0.78"/>
<text x="1147.5" y="222.5" text-anchor="middle" font-size="16" font-weight="700" fill="#0f172a">0.0</text>
<rect x="1152.0" y="178.8" width="5.0" height="51.7" fill="#15803d" opacity="0.78"/>
<text x="1154.5" y="170.8" text-anchor="middle" font-size="16" font-weight="700" fill="#0f172a">25.0</text>
<rect x="1159.0" y="230.5" width="5.0" height="1.0" fill="#15803d" opacity="0.78"/>
<text x="1161.5" y="222.5" text-anchor="middle" font-size="16" font-weight="700" fill="#0f172a">0.0</text>

</svg>
