<svg xmlns="http://www.w3.org/2000/svg" width="760" height="600" viewBox="0 0 760 600" role="img" aria-label="Scorevergleich Direkter Aufruf vs Workflow">
<rect width="100%" height="100%" fill="white"/>
<text x="380" y="34" text-anchor="middle" font-size="26" font-weight="700" fill="#0f172a">Scorevergleich Direkter Aufruf vs Workflow</text>
<line x1="100.0" y1="65" x2="100.0" y2="505.0" stroke="#e2e8f0"/>
<line x1="100" y1="505.0" x2="725.0" y2="505.0" stroke="#e2e8f0"/>
<text x="100.0" y="529.0" text-anchor="middle" font-size="16" fill="#64748b">0</text>
<text x="90.0" y="510.0" text-anchor="end" font-size="16" fill="#64748b">0</text>
<line x1="256.3" y1="65" x2="256.3" y2="505.0" stroke="#e2e8f0"/>
<line x1="100" y1="395.0" x2="725.0" y2="395.0" stroke="#e2e8f0"/>
<text x="256.3" y="529.0" text-anchor="middle" font-size="16" fill="#64748b">25</text>
<text x="90.0" y="400.0" text-anchor="end" font-size="16" fill="#64748b">25</text>
<line x1="412.5" y1="65" x2="412.5" y2="505.0" stroke="#e2e8f0"/>
<line x1="100" y1="285.0" x2="725.0" y2="285.0" stroke="#e2e8f0"/>
<text x="412.5" y="529.0" text-anchor="middle" font-size="16" fill="#64748b">50</text>
<text x="90.0" y="290.0" text-anchor="end" font-size="16" fill="#64748b">50</text>
<line x1="568.8" y1="65" x2="568.8" y2="505.0" stroke="#e2e8f0"/>
<line x1="100" y1="175.0" x2="725.0" y2="175.0" stroke="#e2e8f0"/>
<text x="568.8" y="529.0" text-anchor="middle" font-size="16" fill="#64748b">75</text>
<text x="90.0" y="180.0" text-anchor="end" font-size="16" fill="#64748b">75</text>
<line x1="725.0" y1="65" x2="725.0" y2="505.0" stroke="#e2e8f0"/>
<line x1="100" y1="65.0" x2="725.0" y2="65.0" stroke="#e2e8f0"/>
<text x="725.0" y="529.0" text-anchor="middle" font-size="16" fill="#64748b">100</text>
<text x="90.0" y="70.0" text-anchor="end" font-size="16" fill="#64748b">100</text>
<line x1="100" y1="505" x2="725" y2="505" stroke="#cbd5e1"/>
<line x1="100" y1="65" x2="100" y2="505" stroke="#cbd5e1"/>
<line x1="100" y1="505" x2="725" y2="65" stroke="#94a3b8" stroke-dasharray="5 5"/>
<circle cx="516.7" cy="162.8" r="3" fill="#2563eb" opacity="0.48"/>
<circle cx="514.9" cy="164.4" r="3" fill="#2563eb" opacity="0.48"/>
<circle cx="517.0" cy="159.4" r="3" fill="#2563eb" opacity="0.48"/>
<circle cx="519.2" cy="166.1" r="3" fill="#2563eb" opacity="0.48"/>
<circle cx="511.9" cy="161.9" r="3" fill="#2563eb" opacity="0.48"/>
<circle cx="521.2" cy="159.9" r="3" fill="#2563eb" opacity="0.48"/>
<circle cx="377.8" cy="260.6" r="3" fill="#2563eb" opacity="0.48"/>
<circle cx="721.0" cy="162.8" r="3" fill="#2563eb" opacity="0.48"/>
<circle cx="586.1" cy="162.8" r="3" fill="#2563eb" opacity="0.48"/>
<circle cx="584.3" cy="164.4" r="3" fill="#2563eb" opacity="0.48"/>
<circle cx="586.4" cy="159.4" r="3" fill="#2563eb" opacity="0.48"/>
<circle cx="588.6" cy="166.1" r="3" fill="#2563eb" opacity="0.48"/>
<circle cx="581.4" cy="161.9" r="3" fill="#2563eb" opacity="0.48"/>
<circle cx="590.6" cy="159.9" r="3" fill="#2563eb" opacity="0.48"/>
<circle cx="584.6" cy="168.5" r="3" fill="#2563eb" opacity="0.48"/>
<circle cx="583.2" cy="157.1" r="3" fill="#2563eb" opacity="0.48"/>
<circle cx="592.5" cy="165.1" r="3" fill="#2563eb" opacity="0.48"/>
<circle cx="579.5" cy="165.5" r="3" fill="#2563eb" opacity="0.48"/>
<circle cx="589.3" cy="155.9" r="3" fill="#2563eb" opacity="0.48"/>
<circle cx="588.5" cy="170.4" r="3" fill="#2563eb" opacity="0.48"/>
<circle cx="578.9" cy="158.6" r="3" fill="#2563eb" opacity="0.48"/>
<circle cx="594.6" cy="160.9" r="3" fill="#2563eb" opacity="0.48"/>
<circle cx="580.9" cy="170.1" r="3" fill="#2563eb" opacity="0.48"/>
<circle cx="447.2" cy="162.8" r="3" fill="#2563eb" opacity="0.48"/>
<circle cx="445.5" cy="164.4" r="3" fill="#2563eb" opacity="0.48"/>
<circle cx="516.7" cy="113.9" r="3" fill="#2563eb" opacity="0.48"/>
<circle cx="586.1" cy="69.0" r="3" fill="#2563eb" opacity="0.48"/>
<circle cx="584.3" cy="69.0" r="3" fill="#2563eb" opacity="0.48"/>
<circle cx="586.4" cy="69.0" r="3" fill="#2563eb" opacity="0.48"/>
<circle cx="588.6" cy="69.0" r="3" fill="#2563eb" opacity="0.48"/>
<circle cx="308.3" cy="113.9" r="3" fill="#2563eb" opacity="0.48"/>
<circle cx="306.6" cy="115.5" r="3" fill="#2563eb" opacity="0.48"/>
<circle cx="516.7" cy="69.0" r="3" fill="#2563eb" opacity="0.48"/>
<circle cx="514.9" cy="69.0" r="3" fill="#2563eb" opacity="0.48"/>
<circle cx="517.0" cy="69.0" r="3" fill="#2563eb" opacity="0.48"/>
<circle cx="586.1" cy="407.2" r="3" fill="#2563eb" opacity="0.48"/>
<circle cx="586.1" cy="211.7" r="3" fill="#2563eb" opacity="0.48"/>
<circle cx="584.3" cy="213.3" r="3" fill="#2563eb" opacity="0.48"/>
<circle cx="721.0" cy="358.3" r="3" fill="#2563eb" opacity="0.48"/>
<circle cx="516.7" cy="309.4" r="3" fill="#2563eb" opacity="0.48"/>
<circle cx="721.0" cy="69.0" r="3" fill="#2563eb" opacity="0.48"/>
<circle cx="516.7" cy="211.7" r="3" fill="#2563eb" opacity="0.48"/>
<circle cx="514.9" cy="213.3" r="3" fill="#2563eb" opacity="0.48"/>
<circle cx="517.0" cy="208.3" r="3" fill="#2563eb" opacity="0.48"/>
<circle cx="586.1" cy="113.9" r="3" fill="#2563eb" opacity="0.48"/>
<circle cx="516.7" cy="260.6" r="3" fill="#2563eb" opacity="0.48"/>
<circle cx="721.0" cy="113.9" r="3" fill="#2563eb" opacity="0.48"/>
<circle cx="377.8" cy="309.4" r="3" fill="#2563eb" opacity="0.48"/>
<circle cx="376.0" cy="311.1" r="3" fill="#2563eb" opacity="0.48"/>
<circle cx="378.1" cy="306.1" r="3" fill="#2563eb" opacity="0.48"/>
<circle cx="256.3" cy="285.0" r="3" fill="#2563eb" opacity="0.48"/>
<circle cx="254.5" cy="286.6" r="3" fill="#2563eb" opacity="0.48"/>
<circle cx="256.5" cy="281.6" r="3" fill="#2563eb" opacity="0.48"/>
<circle cx="258.8" cy="288.3" r="3" fill="#2563eb" opacity="0.48"/>
<circle cx="251.5" cy="284.2" r="3" fill="#2563eb" opacity="0.48"/>
<circle cx="260.8" cy="282.1" r="3" fill="#2563eb" opacity="0.48"/>
<circle cx="254.7" cy="290.7" r="3" fill="#2563eb" opacity="0.48"/>
<circle cx="253.3" cy="279.4" r="3" fill="#2563eb" opacity="0.48"/>
<circle cx="262.6" cy="287.3" r="3" fill="#2563eb" opacity="0.48"/>
<circle cx="249.6" cy="287.7" r="3" fill="#2563eb" opacity="0.48"/>
<circle cx="259.5" cy="278.1" r="3" fill="#2563eb" opacity="0.48"/>
<circle cx="258.6" cy="292.6" r="3" fill="#2563eb" opacity="0.48"/>
<circle cx="249.1" cy="280.8" r="3" fill="#2563eb" opacity="0.48"/>
<circle cx="264.7" cy="283.1" r="3" fill="#2563eb" opacity="0.48"/>
<circle cx="256.3" cy="69.0" r="3" fill="#2563eb" opacity="0.48"/>
<circle cx="254.5" cy="69.0" r="3" fill="#2563eb" opacity="0.48"/>
<circle cx="256.5" cy="69.0" r="3" fill="#2563eb" opacity="0.48"/>
<circle cx="258.8" cy="69.0" r="3" fill="#2563eb" opacity="0.48"/>
<circle cx="251.5" cy="69.0" r="3" fill="#2563eb" opacity="0.48"/>
<circle cx="260.8" cy="69.0" r="3" fill="#2563eb" opacity="0.48"/>
<circle cx="254.7" cy="70.7" r="3" fill="#2563eb" opacity="0.48"/>
<circle cx="253.3" cy="69.0" r="3" fill="#2563eb" opacity="0.48"/>
<circle cx="262.6" cy="69.0" r="3" fill="#2563eb" opacity="0.48"/>
<circle cx="249.6" cy="69.0" r="3" fill="#2563eb" opacity="0.48"/>
<circle cx="259.5" cy="69.0" r="3" fill="#2563eb" opacity="0.48"/>
<circle cx="258.6" cy="72.6" r="3" fill="#2563eb" opacity="0.48"/>
<circle cx="249.1" cy="69.0" r="3" fill="#2563eb" opacity="0.48"/>
<circle cx="264.7" cy="69.0" r="3" fill="#2563eb" opacity="0.48"/>
<circle cx="251.1" cy="72.3" r="3" fill="#2563eb" opacity="0.48"/>
<circle cx="255.1" cy="69.0" r="3" fill="#2563eb" opacity="0.48"/>
<circle cx="263.6" cy="71.2" r="3" fill="#2563eb" opacity="0.48"/>
<circle cx="246.4" cy="69.0" r="3" fill="#2563eb" opacity="0.48"/>
<circle cx="263.5" cy="69.0" r="3" fill="#2563eb" opacity="0.48"/>
<circle cx="255.8" cy="75.5" r="3" fill="#2563eb" opacity="0.48"/>
<circle cx="249.4" cy="69.0" r="3" fill="#2563eb" opacity="0.48"/>
<circle cx="267.1" cy="69.0" r="3" fill="#2563eb" opacity="0.48"/>
<circle cx="247.0" cy="71.4" r="3" fill="#2563eb" opacity="0.48"/>
<circle cx="258.8" cy="69.0" r="3" fill="#2563eb" opacity="0.48"/>
<circle cx="256.3" cy="395.0" r="3" fill="#2563eb" opacity="0.48"/>
<circle cx="254.5" cy="396.6" r="3" fill="#2563eb" opacity="0.48"/>
<circle cx="256.5" cy="391.6" r="3" fill="#2563eb" opacity="0.48"/>
<circle cx="258.8" cy="398.3" r="3" fill="#2563eb" opacity="0.48"/>
<circle cx="251.5" cy="394.2" r="3" fill="#2563eb" opacity="0.48"/>
<circle cx="260.8" cy="392.1" r="3" fill="#2563eb" opacity="0.48"/>
<circle cx="254.7" cy="400.7" r="3" fill="#2563eb" opacity="0.48"/>
<circle cx="253.3" cy="389.4" r="3" fill="#2563eb" opacity="0.48"/>
<circle cx="262.6" cy="397.3" r="3" fill="#2563eb" opacity="0.48"/>
<circle cx="249.6" cy="397.7" r="3" fill="#2563eb" opacity="0.48"/>
<circle cx="259.5" cy="388.1" r="3" fill="#2563eb" opacity="0.48"/>
<circle cx="258.6" cy="402.6" r="3" fill="#2563eb" opacity="0.48"/>
<circle cx="249.1" cy="390.8" r="3" fill="#2563eb" opacity="0.48"/>
<circle cx="264.7" cy="393.1" r="3" fill="#2563eb" opacity="0.48"/>
<circle cx="251.1" cy="402.3" r="3" fill="#2563eb" opacity="0.48"/>
<circle cx="255.1" cy="385.8" r="3" fill="#2563eb" opacity="0.48"/>
<circle cx="263.6" cy="401.2" r="3" fill="#2563eb" opacity="0.48"/>
<circle cx="246.4" cy="395.4" r="3" fill="#2563eb" opacity="0.48"/>
<circle cx="263.5" cy="387.8" r="3" fill="#2563eb" opacity="0.48"/>
<circle cx="721.0" cy="395.0" r="3" fill="#2563eb" opacity="0.48"/>
<circle cx="256.3" cy="501.0" r="3" fill="#2563eb" opacity="0.48"/>
<circle cx="254.5" cy="501.0" r="3" fill="#2563eb" opacity="0.48"/>
<circle cx="256.5" cy="501.0" r="3" fill="#2563eb" opacity="0.48"/>
<circle cx="568.8" cy="395.0" r="3" fill="#2563eb" opacity="0.48"/>
<circle cx="567.0" cy="396.6" r="3" fill="#2563eb" opacity="0.48"/>
<circle cx="104.0" cy="501.0" r="3" fill="#2563eb" opacity="0.48"/>
<circle cx="104.0" cy="501.0" r="3" fill="#2563eb" opacity="0.48"/>
<circle cx="104.0" cy="501.0" r="3" fill="#2563eb" opacity="0.48"/>
<circle cx="104.0" cy="501.0" r="3" fill="#2563eb" opacity="0.48"/>
<circle cx="104.0" cy="501.0" r="3" fill="#2563eb" opacity="0.48"/>
<circle cx="104.0" cy="175.0" r="3" fill="#2563eb" opacity="0.48"/>
<circle cx="104.0" cy="176.6" r="3" fill="#2563eb" opacity="0.48"/>
<circle cx="104.0" cy="171.6" r="3" fill="#2563eb" opacity="0.48"/>
<circle cx="104.0" cy="178.3" r="3" fill="#2563eb" opacity="0.48"/>
<circle cx="104.0" cy="174.2" r="3" fill="#2563eb" opacity="0.48"/>
<circle cx="104.5" cy="172.1" r="3" fill="#2563eb" opacity="0.48"/>
<circle cx="104.0" cy="180.7" r="3" fill="#2563eb" opacity="0.48"/>
<circle cx="104.0" cy="285.0" r="3" fill="#2563eb" opacity="0.48"/>
<circle cx="104.0" cy="286.6" r="3" fill="#2563eb" opacity="0.48"/>
<circle cx="104.0" cy="281.6" r="3" fill="#2563eb" opacity="0.48"/>
<circle cx="104.0" cy="288.3" r="3" fill="#2563eb" opacity="0.48"/>
<circle cx="104.0" cy="284.2" r="3" fill="#2563eb" opacity="0.48"/>
<circle cx="256.3" cy="175.0" r="3" fill="#2563eb" opacity="0.48"/>
<circle cx="254.5" cy="176.6" r="3" fill="#2563eb" opacity="0.48"/>
<circle cx="256.5" cy="171.6" r="3" fill="#2563eb" opacity="0.48"/>
<circle cx="258.8" cy="178.3" r="3" fill="#2563eb" opacity="0.48"/>
<circle cx="251.5" cy="174.2" r="3" fill="#2563eb" opacity="0.48"/>
<circle cx="260.8" cy="172.1" r="3" fill="#2563eb" opacity="0.48"/>
<circle cx="254.7" cy="180.7" r="3" fill="#2563eb" opacity="0.48"/>
<circle cx="253.3" cy="169.4" r="3" fill="#2563eb" opacity="0.48"/>
<circle cx="262.6" cy="177.3" r="3" fill="#2563eb" opacity="0.48"/>
<circle cx="249.6" cy="177.7" r="3" fill="#2563eb" opacity="0.48"/>
<circle cx="259.5" cy="168.1" r="3" fill="#2563eb" opacity="0.48"/>
<circle cx="258.6" cy="182.6" r="3" fill="#2563eb" opacity="0.48"/>
<circle cx="104.0" cy="69.0" r="3" fill="#2563eb" opacity="0.48"/>
<circle cx="104.0" cy="69.0" r="3" fill="#2563eb" opacity="0.48"/>
<circle cx="104.0" cy="69.0" r="3" fill="#2563eb" opacity="0.48"/>
<circle cx="104.0" cy="395.0" r="3" fill="#2563eb" opacity="0.48"/>
<circle cx="104.0" cy="396.6" r="3" fill="#2563eb" opacity="0.48"/>
<circle cx="104.0" cy="391.6" r="3" fill="#2563eb" opacity="0.48"/>
<circle cx="104.0" cy="398.3" r="3" fill="#2563eb" opacity="0.48"/>
<circle cx="104.0" cy="394.2" r="3" fill="#2563eb" opacity="0.48"/>
<circle cx="104.5" cy="392.1" r="3" fill="#2563eb" opacity="0.48"/>
<circle cx="104.0" cy="400.7" r="3" fill="#2563eb" opacity="0.48"/>
<circle cx="104.0" cy="389.4" r="3" fill="#2563eb" opacity="0.48"/>
<circle cx="106.4" cy="397.3" r="3" fill="#2563eb" opacity="0.48"/>
<circle cx="104.0" cy="397.7" r="3" fill="#2563eb" opacity="0.48"/>
<circle cx="104.0" cy="388.1" r="3" fill="#2563eb" opacity="0.48"/>
<circle cx="104.0" cy="402.6" r="3" fill="#2563eb" opacity="0.48"/>
<circle cx="568.8" cy="69.0" r="3" fill="#2563eb" opacity="0.48"/>
<circle cx="567.0" cy="69.0" r="3" fill="#2563eb" opacity="0.48"/>
<circle cx="569.0" cy="69.0" r="3" fill="#2563eb" opacity="0.48"/>
<circle cx="571.3" cy="69.0" r="3" fill="#2563eb" opacity="0.48"/>
<circle cx="412.5" cy="175.0" r="3" fill="#2563eb" opacity="0.48"/>
<circle cx="410.7" cy="176.6" r="3" fill="#2563eb" opacity="0.48"/>
<circle cx="412.5" cy="285.0" r="3" fill="#2563eb" opacity="0.48"/>
<circle cx="410.7" cy="286.6" r="3" fill="#2563eb" opacity="0.48"/>
<circle cx="412.8" cy="281.6" r="3" fill="#2563eb" opacity="0.48"/>
<circle cx="415.0" cy="288.3" r="3" fill="#2563eb" opacity="0.48"/>
<circle cx="407.8" cy="284.2" r="3" fill="#2563eb" opacity="0.48"/>
<circle cx="417.0" cy="282.1" r="3" fill="#2563eb" opacity="0.48"/>
<circle cx="411.0" cy="290.7" r="3" fill="#2563eb" opacity="0.48"/>
<circle cx="412.5" cy="69.0" r="3" fill="#2563eb" opacity="0.48"/>
<circle cx="410.7" cy="69.0" r="3" fill="#2563eb" opacity="0.48"/>
<circle cx="568.8" cy="285.0" r="3" fill="#2563eb" opacity="0.48"/>
<circle cx="412.5" cy="395.0" r="3" fill="#2563eb" opacity="0.48"/>
<circle cx="410.7" cy="396.6" r="3" fill="#2563eb" opacity="0.48"/>
<circle cx="412.8" cy="391.6" r="3" fill="#2563eb" opacity="0.48"/>
<text x="516.7" y="152.8" text-anchor="middle" font-size="13" font-weight="700" fill="#0f172a">6</text>
<text x="586.1" y="152.8" text-anchor="middle" font-size="13" font-weight="700" fill="#0f172a">15</text>
<text x="447.2" y="152.8" text-anchor="middle" font-size="13" font-weight="700" fill="#0f172a">2</text>
<text x="586.1" y="79.0" text-anchor="middle" font-size="13" font-weight="700" fill="#0f172a">4</text>
<text x="308.3" y="103.9" text-anchor="middle" font-size="13" font-weight="700" fill="#0f172a">2</text>
<text x="516.7" y="79.0" text-anchor="middle" font-size="13" font-weight="700" fill="#0f172a">3</text>
<text x="586.1" y="201.7" text-anchor="middle" font-size="13" font-weight="700" fill="#0f172a">2</text>
<text x="516.7" y="201.7" text-anchor="middle" font-size="13" font-weight="700" fill="#0f172a">3</text>
<text x="377.8" y="299.4" text-anchor="middle" font-size="13" font-weight="700" fill="#0f172a">3</text>
<text x="256.3" y="275.0" text-anchor="middle" font-size="13" font-weight="700" fill="#0f172a">14</text>
<text x="256.3" y="79.0" text-anchor="middle" font-size="13" font-weight="700" fill="#0f172a">24</text>
<text x="256.3" y="385.0" text-anchor="middle" font-size="13" font-weight="700" fill="#0f172a">19</text>
<text x="256.3" y="491.0" text-anchor="middle" font-size="13" font-weight="700" fill="#0f172a">3</text>
<text x="568.8" y="385.0" text-anchor="middle" font-size="13" font-weight="700" fill="#0f172a">2</text>
<text x="114.0" y="491.0" text-anchor="middle" font-size="13" font-weight="700" fill="#0f172a">5</text>
<text x="114.0" y="165.0" text-anchor="middle" font-size="13" font-weight="700" fill="#0f172a">7</text>
<text x="114.0" y="275.0" text-anchor="middle" font-size="13" font-weight="700" fill="#0f172a">5</text>
<text x="256.3" y="165.0" text-anchor="middle" font-size="13" font-weight="700" fill="#0f172a">12</text>
<text x="114.0" y="79.0" text-anchor="middle" font-size="13" font-weight="700" fill="#0f172a">3</text>
<text x="114.0" y="385.0" text-anchor="middle" font-size="13" font-weight="700" fill="#0f172a">12</text>
<text x="568.8" y="79.0" text-anchor="middle" font-size="13" font-weight="700" fill="#0f172a">4</text>
<text x="412.5" y="165.0" text-anchor="middle" font-size="13" font-weight="700" fill="#0f172a">2</text>
<text x="412.5" y="275.0" text-anchor="middle" font-size="13" font-weight="700" fill="#0f172a">7</text>
<text x="412.5" y="79.0" text-anchor="middle" font-size="13" font-weight="700" fill="#0f172a">2</text>
<text x="412.5" y="385.0" text-anchor="middle" font-size="13" font-weight="700" fill="#0f172a">3</text>
<text x="725" y="47" text-anchor="end" font-size="15" fill="#64748b">n=176; gleiche Scores leicht versetzt</text>
<text x="412.5" y="574" text-anchor="middle" font-size="26" fill="#475569">Score des direkten Aufrufs (%)</text>
<text x="28" y="285" transform="rotate(-90 28 285)" text-anchor="middle" font-size="26" fill="#475569">Score Workflow (%)</text>
</svg>
