<svg xmlns="http://www.w3.org/2000/svg" width="980" height="560" viewBox="0 0 980 560" role="img" aria-label="Paarweise Differenzen Teil 2/2">
<rect width="100%" height="100%" fill="white"/>
<text x="490" y="34" text-anchor="middle" font-size="26" font-weight="700" fill="#0f172a">Paarweise Differenzen Teil 2/2</text>
<text x="28" y="265" transform="rotate(-90 28 265)" text-anchor="middle" font-size="24" fill="#475569">Workflow - Direkter Aufruf (Prozentpunkte)</text>
<text x="532.5" y="536" text-anchor="middle" font-size="24" fill="#475569">Antwortpaare 101-176 von 176</text>
<line x1="115" y1="368.4" x2="950" y2="368.4" stroke="#94a3b8" stroke-dasharray="4 4"/>
<line x1="115" y1="65" x2="115" y2="465" stroke="#cbd5e1"/>
<line x1="115" y1="465" x2="950" y2="465" stroke="#cbd5e1"/>
<line x1="115" y1="465.0" x2="950" y2="465.0" stroke="#e2e8f0"/>
<text x="105" y="470.0" text-anchor="end" font-size="16" fill="#64748b">-35</text>
<line x1="115" y1="365.0" x2="950" y2="365.0" stroke="#e2e8f0"/>
<text x="105" y="370.0" text-anchor="end" font-size="16" fill="#64748b">1</text>
<line x1="115" y1="265.0" x2="950" y2="265.0" stroke="#e2e8f0"/>
<text x="105" y="270.0" text-anchor="end" font-size="16" fill="#64748b">38</text>
<line x1="115" y1="165.0" x2="950" y2="165.0" stroke="#e2e8f0"/>
<text x="105" y="170.0" text-anchor="end" font-size="16" fill="#64748b">74</text>
<line x1="115" y1="65.0" x2="950" y2="65.0" stroke="#e2e8f0"/>
<text x="105" y="70.0" text-anchor="end" font-size="16" fill="#64748b">110</text>
<rect x="116.5" y="230.5" width="7.9" height="137.9" fill="#15803d" opacity="0.78"/>

<rect x="127.5" y="299.5" width="7.9" height="69.0" fill="#15803d" opacity="0.78"/>

<rect x="138.5" y="299.5" width="7.9" height="69.0" fill="#15803d" opacity="0.78"/>

<rect x="149.5" y="230.5" width="7.9" height="137.9" fill="#15803d" opacity="0.78"/>

<rect x="160.5" y="299.5" width="7.9" height="69.0" fill="#15803d" opacity="0.78"/>

<rect x="171.5" y="161.6" width="7.9" height="206.9" fill="#15803d" opacity="0.78"/>

<rect x="182.5" y="161.6" width="7.9" height="206.9" fill="#15803d" opacity="0.78"/>

<rect x="193.4" y="92.6" width="7.9" height="275.9" fill="#15803d" opacity="0.78"/>

<rect x="204.4" y="161.6" width="7.9" height="206.9" fill="#15803d" opacity="0.78"/>

<rect x="215.4" y="161.6" width="7.9" height="206.9" fill="#15803d" opacity="0.78"/>

<rect x="226.4" y="92.6" width="7.9" height="275.9" fill="#15803d" opacity="0.78"/>

<rect x="237.4" y="230.5" width="7.9" height="137.9" fill="#15803d" opacity="0.78"/>

<rect x="248.4" y="299.5" width="7.9" height="69.0" fill="#15803d" opacity="0.78"/>

<rect x="259.4" y="230.5" width="7.9" height="137.9" fill="#15803d" opacity="0.78"/>

<rect x="270.4" y="161.6" width="7.9" height="206.9" fill="#15803d" opacity="0.78"/>

<rect x="281.3" y="299.5" width="7.9" height="69.0" fill="#15803d" opacity="0.78"/>

<rect x="292.3" y="299.5" width="7.9" height="69.0" fill="#15803d" opacity="0.78"/>

<rect x="303.3" y="299.5" width="7.9" height="69.0" fill="#15803d" opacity="0.78"/>

<rect x="314.3" y="299.5" width="7.9" height="69.0" fill="#15803d" opacity="0.78"/>

<rect x="325.3" y="299.5" width="7.9" height="69.0" fill="#15803d" opacity="0.78"/>

<rect x="336.3" y="230.5" width="7.9" height="137.9" fill="#15803d" opacity="0.78"/>

<rect x="347.3" y="299.5" width="7.9" height="69.0" fill="#15803d" opacity="0.78"/>

<rect x="358.2" y="230.5" width="7.9" height="137.9" fill="#15803d" opacity="0.78"/>

<rect x="369.2" y="299.5" width="7.9" height="69.0" fill="#15803d" opacity="0.78"/>

<rect x="380.2" y="368.4" width="7.9" height="1.0" fill="#15803d" opacity="0.78"/>

<rect x="391.2" y="368.4" width="7.9" height="1.0" fill="#15803d" opacity="0.78"/>

<rect x="402.2" y="368.4" width="7.9" height="1.0" fill="#15803d" opacity="0.78"/>

<rect x="413.2" y="368.4" width="7.9" height="69.0" fill="#dc2626" opacity="0.78"/>

<rect x="424.2" y="299.5" width="7.9" height="69.0" fill="#15803d" opacity="0.78"/>

<rect x="435.2" y="368.4" width="7.9" height="1.0" fill="#15803d" opacity="0.78"/>

<rect x="446.1" y="161.6" width="7.9" height="206.9" fill="#15803d" opacity="0.78"/>

<rect x="457.1" y="368.4" width="7.9" height="1.0" fill="#15803d" opacity="0.78"/>

<rect x="468.1" y="368.4" width="7.9" height="69.0" fill="#dc2626" opacity="0.78"/>

<rect x="479.1" y="299.5" width="7.9" height="69.0" fill="#15803d" opacity="0.78"/>

<rect x="490.1" y="161.6" width="7.9" height="206.9" fill="#15803d" opacity="0.78"/>

<rect x="501.1" y="299.5" width="7.9" height="69.0" fill="#15803d" opacity="0.78"/>

<rect x="512.1" y="161.6" width="7.9" height="206.9" fill="#15803d" opacity="0.78"/>

<rect x="523.1" y="161.6" width="7.9" height="206.9" fill="#15803d" opacity="0.78"/>

<rect x="534.0" y="368.4" width="7.9" height="1.0" fill="#15803d" opacity="0.78"/>

<rect x="545.0" y="161.6" width="7.9" height="206.9" fill="#15803d" opacity="0.78"/>

<rect x="556.0" y="368.4" width="7.9" height="1.0" fill="#15803d" opacity="0.78"/>

<rect x="567.0" y="230.5" width="7.9" height="137.9" fill="#15803d" opacity="0.78"/>

<rect x="578.0" y="368.4" width="7.9" height="69.0" fill="#dc2626" opacity="0.78"/>

<rect x="589.0" y="368.4" width="7.9" height="1.0" fill="#15803d" opacity="0.78"/>

<rect x="600.0" y="368.4" width="7.9" height="1.0" fill="#15803d" opacity="0.78"/>

<rect x="610.9" y="368.4" width="7.9" height="1.0" fill="#15803d" opacity="0.78"/>

<rect x="621.9" y="368.4" width="7.9" height="69.0" fill="#dc2626" opacity="0.78"/>

<rect x="632.9" y="161.6" width="7.9" height="206.9" fill="#15803d" opacity="0.78"/>

<rect x="643.9" y="299.5" width="7.9" height="69.0" fill="#15803d" opacity="0.78"/>

<rect x="654.9" y="161.6" width="7.9" height="206.9" fill="#15803d" opacity="0.78"/>

<rect x="665.9" y="161.6" width="7.9" height="206.9" fill="#15803d" opacity="0.78"/>

<rect x="676.9" y="161.6" width="7.9" height="206.9" fill="#15803d" opacity="0.78"/>

<rect x="687.9" y="368.4" width="7.9" height="1.0" fill="#15803d" opacity="0.78"/>

<rect x="698.8" y="161.6" width="7.9" height="206.9" fill="#15803d" opacity="0.78"/>

<rect x="709.8" y="161.6" width="7.9" height="206.9" fill="#15803d" opacity="0.78"/>

<rect x="720.8" y="161.6" width="7.9" height="206.9" fill="#15803d" opacity="0.78"/>

<rect x="731.8" y="299.5" width="7.9" height="69.0" fill="#15803d" opacity="0.78"/>

<rect x="742.8" y="299.5" width="7.9" height="69.0" fill="#15803d" opacity="0.78"/>

<rect x="753.8" y="299.5" width="7.9" height="69.0" fill="#15803d" opacity="0.78"/>

<rect x="764.8" y="368.4" width="7.9" height="1.0" fill="#15803d" opacity="0.78"/>

<rect x="775.7" y="230.5" width="7.9" height="137.9" fill="#15803d" opacity="0.78"/>

<rect x="786.7" y="368.4" width="7.9" height="69.0" fill="#dc2626" opacity="0.78"/>

<rect x="797.7" y="368.4" width="7.9" height="1.0" fill="#15803d" opacity="0.78"/>

<rect x="808.7" y="368.4" width="7.9" height="1.0" fill="#15803d" opacity="0.78"/>

<rect x="819.7" y="230.5" width="7.9" height="137.9" fill="#15803d" opacity="0.78"/>

<rect x="830.7" y="368.4" width="7.9" height="1.0" fill="#15803d" opacity="0.78"/>

<rect x="841.7" y="368.4" width="7.9" height="1.0" fill="#15803d" opacity="0.78"/>

<rect x="852.7" y="299.5" width="7.9" height="69.0" fill="#15803d" opacity="0.78"/>

<rect x="863.6" y="299.5" width="7.9" height="69.0" fill="#15803d" opacity="0.78"/>

<rect x="874.6" y="368.4" width="7.9" height="1.0" fill="#15803d" opacity="0.78"/>

<rect x="885.6" y="230.5" width="7.9" height="137.9" fill="#15803d" opacity="0.78"/>

<rect x="896.6" y="230.5" width="7.9" height="137.9" fill="#15803d" opacity="0.78"/>

<rect x="907.6" y="368.4" width="7.9" height="1.0" fill="#15803d" opacity="0.78"/>

<rect x="918.6" y="368.4" width="7.9" height="1.0" fill="#15803d" opacity="0.78"/>

<rect x="929.6" y="299.5" width="7.9" height="69.0" fill="#15803d" opacity="0.78"/>

<rect x="940.6" y="299.5" width="7.9" height="69.0" fill="#15803d" opacity="0.78"/>


</svg>
