<svg xmlns="http://www.w3.org/2000/svg" width="980" height="560" viewBox="0 0 980 560" role="img" aria-label="Verteilung der Paardifferenzen">
<rect width="100%" height="100%" fill="white"/>
<text x="490" y="34" text-anchor="middle" font-size="26" font-weight="700" fill="#0f172a">Verteilung der Paardifferenzen</text>
<text x="28" y="227.5" transform="rotate(-90 28 227.5)" text-anchor="middle" font-size="24" fill="#475569">Anzahl Paare</text>

<line x1="115" y1="390.0" x2="950" y2="390.0" stroke="#94a3b8" stroke-dasharray="4 4"/>
<line x1="115" y1="65" x2="115" y2="390" stroke="#cbd5e1"/>
<line x1="115" y1="390" x2="950" y2="390" stroke="#cbd5e1"/>
<line x1="115" y1="390.0" x2="950" y2="390.0" stroke="#e2e8f0"/>
<text x="105" y="395.0" text-anchor="end" font-size="16" fill="#64748b">0</text>
<line x1="115" y1="308.8" x2="950" y2="308.8" stroke="#e2e8f0"/>
<text x="105" y="313.8" text-anchor="end" font-size="16" fill="#64748b">63</text>
<line x1="115" y1="227.5" x2="950" y2="227.5" stroke="#e2e8f0"/>
<text x="105" y="232.5" text-anchor="end" font-size="16" fill="#64748b">126</text>
<line x1="115" y1="146.3" x2="950" y2="146.3" stroke="#e2e8f0"/>
<text x="105" y="151.3" text-anchor="end" font-size="16" fill="#64748b">188</text>
<line x1="115" y1="65.0" x2="950" y2="65.0" stroke="#e2e8f0"/>
<text x="105" y="70.0" text-anchor="end" font-size="16" fill="#64748b">251</text>
<rect x="128.0" y="384.8" width="66.8" height="5.2" fill="#dc2626" opacity="0.78"/>
<text x="161.4" y="376.8" text-anchor="middle" font-size="16" font-weight="700" fill="#0f172a">4</text>
<rect x="220.8" y="382.2" width="66.8" height="7.8" fill="#dc2626" opacity="0.78"/>
<text x="254.2" y="374.2" text-anchor="middle" font-size="16" font-weight="700" fill="#0f172a">6</text>
<rect x="313.5" y="362.8" width="66.8" height="27.2" fill="#dc2626" opacity="0.78"/>
<text x="346.9" y="354.8" text-anchor="middle" font-size="16" font-weight="700" fill="#0f172a">21</text>
<rect x="406.3" y="304.5" width="66.8" height="85.5" fill="#dc2626" opacity="0.78"/>
<text x="439.7" y="296.5" text-anchor="middle" font-size="16" font-weight="700" fill="#0f172a">66</text>
<rect x="499.1" y="65.0" width="66.8" height="325.0" fill="#64748b" opacity="0.78"/>
<text x="532.5" y="79.0" text-anchor="middle" font-size="16" font-weight="700" fill="#0f172a">251</text>
<rect x="591.9" y="365.4" width="66.8" height="24.6" fill="#15803d" opacity="0.78"/>
<text x="625.3" y="357.4" text-anchor="middle" font-size="16" font-weight="700" fill="#0f172a">19</text>
<rect x="684.7" y="318.8" width="66.8" height="71.2" fill="#15803d" opacity="0.78"/>
<text x="718.1" y="310.8" text-anchor="middle" font-size="16" font-weight="700" fill="#0f172a">55</text>
<rect x="777.4" y="378.3" width="66.8" height="11.7" fill="#15803d" opacity="0.78"/>
<text x="810.8" y="370.3" text-anchor="middle" font-size="16" font-weight="700" fill="#0f172a">9</text>
<rect x="870.2" y="383.5" width="66.8" height="6.5" fill="#15803d" opacity="0.78"/>
<text x="903.6" y="375.5" text-anchor="middle" font-size="16" font-weight="700" fill="#0f172a">5</text>
<text x="161.4" y="414.0" transform="rotate(-45 161.4 414.0)" font-size="20" text-anchor="end" fill="#475569">-100 bis -75</text>
<text x="254.2" y="414.0" transform="rotate(-45 254.2 414.0)" font-size="20" text-anchor="end" fill="#475569">-75 bis -50</text>
<text x="346.9" y="414.0" transform="rotate(-45 346.9 414.0)" font-size="20" text-anchor="end" fill="#475569">-50 bis -25</text>
<text x="439.7" y="414.0" transform="rotate(-45 439.7 414.0)" font-size="20" text-anchor="end" fill="#475569">-25 bis 0</text>
<text x="532.5" y="414.0" transform="rotate(-45 532.5 414.0)" font-size="20" text-anchor="end" fill="#475569">0</text>
<text x="625.3" y="414.0" transform="rotate(-45 625.3 414.0)" font-size="20" text-anchor="end" fill="#475569">0 bis 25</text>
<text x="718.1" y="414.0" transform="rotate(-45 718.1 414.0)" font-size="20" text-anchor="end" fill="#475569">25 bis 50</text>
<text x="810.8" y="414.0" transform="rotate(-45 810.8 414.0)" font-size="20" text-anchor="end" fill="#475569">50 bis 75</text>
<text x="903.6" y="414.0" transform="rotate(-45 903.6 414.0)" font-size="20" text-anchor="end" fill="#475569">75 bis 100</text>
</svg>
