<svg xmlns="http://www.w3.org/2000/svg" width="980" height="560" viewBox="0 0 980 560" role="img" aria-label="Paarweise Differenzen Teil 2/2">
<rect width="100%" height="100%" fill="white"/>
<text x="490" y="34" text-anchor="middle" font-size="26" font-weight="700" fill="#0f172a">Paarweise Differenzen Teil 2/2</text>
<text x="28" y="265" transform="rotate(-90 28 265)" text-anchor="middle" font-size="24" fill="#475569">Workflow - Direkter Aufruf (Prozentpunkte)</text>
<text x="532.5" y="536" text-anchor="middle" font-size="24" fill="#475569">Antwortpaare 101-194 von 194</text>
<line x1="115" y1="207.5" x2="950" y2="207.5" stroke="#94a3b8" stroke-dasharray="4 4"/>
<line x1="115" y1="65" x2="115" y2="465" stroke="#cbd5e1"/>
<line x1="115" y1="465" x2="950" y2="465" stroke="#cbd5e1"/>
<line x1="115" y1="465.0" x2="950" y2="465.0" stroke="#e2e8f0"/>
<text x="105" y="470.0" text-anchor="end" font-size="16" fill="#64748b">-112</text>
<line x1="115" y1="365.0" x2="950" y2="365.0" stroke="#e2e8f0"/>
<text x="105" y="370.0" text-anchor="end" font-size="16" fill="#64748b">-69</text>
<line x1="115" y1="265.0" x2="950" y2="265.0" stroke="#e2e8f0"/>
<text x="105" y="270.0" text-anchor="end" font-size="16" fill="#64748b">-25</text>
<line x1="115" y1="165.0" x2="950" y2="165.0" stroke="#e2e8f0"/>
<text x="105" y="170.0" text-anchor="end" font-size="16" fill="#64748b">19</text>
<line x1="115" y1="65.0" x2="950" y2="65.0" stroke="#e2e8f0"/>
<text x="105" y="70.0" text-anchor="end" font-size="16" fill="#64748b">62</text>
<rect x="116.2" y="92.6" width="6.4" height="114.9" fill="#15803d" opacity="0.78"/>

<rect x="125.1" y="207.5" width="6.4" height="1.0" fill="#15803d" opacity="0.78"/>

<rect x="134.0" y="92.6" width="6.4" height="114.9" fill="#15803d" opacity="0.78"/>

<rect x="142.9" y="150.1" width="6.4" height="57.5" fill="#15803d" opacity="0.78"/>

<rect x="151.8" y="150.1" width="6.4" height="57.5" fill="#15803d" opacity="0.78"/>

<rect x="160.7" y="150.1" width="6.4" height="57.5" fill="#15803d" opacity="0.78"/>

<rect x="169.5" y="150.1" width="6.4" height="57.5" fill="#15803d" opacity="0.78"/>

<rect x="178.4" y="150.1" width="6.4" height="57.5" fill="#15803d" opacity="0.78"/>

<rect x="187.3" y="150.1" width="6.4" height="57.5" fill="#15803d" opacity="0.78"/>

<rect x="196.2" y="207.5" width="6.4" height="1.0" fill="#15803d" opacity="0.78"/>

<rect x="205.1" y="92.6" width="6.4" height="114.9" fill="#15803d" opacity="0.78"/>

<rect x="214.0" y="92.6" width="6.4" height="114.9" fill="#15803d" opacity="0.78"/>

<rect x="222.8" y="207.5" width="6.4" height="1.0" fill="#15803d" opacity="0.78"/>

<rect x="231.7" y="207.5" width="6.4" height="57.5" fill="#dc2626" opacity="0.78"/>

<rect x="240.6" y="150.1" width="6.4" height="57.5" fill="#15803d" opacity="0.78"/>

<rect x="249.5" y="150.1" width="6.4" height="57.5" fill="#15803d" opacity="0.78"/>

<rect x="258.4" y="207.5" width="6.4" height="57.5" fill="#dc2626" opacity="0.78"/>

<rect x="267.3" y="207.5" width="6.4" height="1.0" fill="#15803d" opacity="0.78"/>

<rect x="276.1" y="207.5" width="6.4" height="57.5" fill="#dc2626" opacity="0.78"/>

<rect x="285.0" y="150.1" width="6.4" height="57.5" fill="#15803d" opacity="0.78"/>

<rect x="293.9" y="207.5" width="6.4" height="1.0" fill="#15803d" opacity="0.78"/>

<rect x="302.8" y="207.5" width="6.4" height="1.0" fill="#15803d" opacity="0.78"/>

<rect x="311.7" y="207.5" width="6.4" height="1.0" fill="#15803d" opacity="0.78"/>

<rect x="320.6" y="150.1" width="6.4" height="57.5" fill="#15803d" opacity="0.78"/>

<rect x="329.4" y="207.5" width="6.4" height="1.0" fill="#15803d" opacity="0.78"/>

<rect x="338.3" y="150.1" width="6.4" height="57.5" fill="#15803d" opacity="0.78"/>

<rect x="347.2" y="150.1" width="6.4" height="57.5" fill="#15803d" opacity="0.78"/>

<rect x="356.1" y="92.6" width="6.4" height="114.9" fill="#15803d" opacity="0.78"/>

<rect x="365.0" y="207.5" width="6.4" height="57.5" fill="#dc2626" opacity="0.78"/>

<rect x="373.8" y="207.5" width="6.4" height="1.0" fill="#15803d" opacity="0.78"/>

<rect x="382.7" y="150.1" width="6.4" height="57.5" fill="#15803d" opacity="0.78"/>

<rect x="391.6" y="207.5" width="6.4" height="1.0" fill="#15803d" opacity="0.78"/>

<rect x="400.5" y="207.5" width="6.4" height="1.0" fill="#15803d" opacity="0.78"/>

<rect x="409.4" y="207.5" width="6.4" height="1.0" fill="#15803d" opacity="0.78"/>

<rect x="418.3" y="207.5" width="6.4" height="57.5" fill="#dc2626" opacity="0.78"/>

<rect x="427.1" y="150.1" width="6.4" height="57.5" fill="#15803d" opacity="0.78"/>

<rect x="436.0" y="150.1" width="6.4" height="57.5" fill="#15803d" opacity="0.78"/>

<rect x="444.9" y="207.5" width="6.4" height="1.0" fill="#15803d" opacity="0.78"/>

<rect x="453.8" y="207.5" width="6.4" height="229.9" fill="#dc2626" opacity="0.78"/>

<rect x="462.7" y="207.5" width="6.4" height="1.0" fill="#15803d" opacity="0.78"/>

<rect x="471.6" y="150.1" width="6.4" height="57.5" fill="#15803d" opacity="0.78"/>

<rect x="480.4" y="150.1" width="6.4" height="57.5" fill="#15803d" opacity="0.78"/>

<rect x="489.3" y="150.1" width="6.4" height="57.5" fill="#15803d" opacity="0.78"/>

<rect x="498.2" y="207.5" width="6.4" height="1.0" fill="#15803d" opacity="0.78"/>

<rect x="507.1" y="207.5" width="6.4" height="1.0" fill="#15803d" opacity="0.78"/>

<rect x="516.0" y="150.1" width="6.4" height="57.5" fill="#15803d" opacity="0.78"/>

<rect x="524.9" y="92.6" width="6.4" height="114.9" fill="#15803d" opacity="0.78"/>

<rect x="533.7" y="207.5" width="6.4" height="1.0" fill="#15803d" opacity="0.78"/>

<rect x="542.6" y="150.1" width="6.4" height="57.5" fill="#15803d" opacity="0.78"/>

<rect x="551.5" y="150.1" width="6.4" height="57.5" fill="#15803d" opacity="0.78"/>

<rect x="560.4" y="92.6" width="6.4" height="114.9" fill="#15803d" opacity="0.78"/>

<rect x="569.3" y="150.1" width="6.4" height="57.5" fill="#15803d" opacity="0.78"/>

<rect x="578.2" y="150.1" width="6.4" height="57.5" fill="#15803d" opacity="0.78"/>

<rect x="587.0" y="92.6" width="6.4" height="114.9" fill="#15803d" opacity="0.78"/>

<rect x="595.9" y="150.1" width="6.4" height="57.5" fill="#15803d" opacity="0.78"/>

<rect x="604.8" y="150.1" width="6.4" height="57.5" fill="#15803d" opacity="0.78"/>

<rect x="613.7" y="150.1" width="6.4" height="57.5" fill="#15803d" opacity="0.78"/>

<rect x="622.6" y="207.5" width="6.4" height="114.9" fill="#dc2626" opacity="0.78"/>

<rect x="631.5" y="150.1" width="6.4" height="57.5" fill="#15803d" opacity="0.78"/>

<rect x="640.3" y="207.5" width="6.4" height="1.0" fill="#15803d" opacity="0.78"/>

<rect x="649.2" y="207.5" width="6.4" height="1.0" fill="#15803d" opacity="0.78"/>

<rect x="658.1" y="207.5" width="6.4" height="57.5" fill="#dc2626" opacity="0.78"/>

<rect x="667.0" y="207.5" width="6.4" height="57.5" fill="#dc2626" opacity="0.78"/>

<rect x="675.9" y="207.5" width="6.4" height="1.0" fill="#15803d" opacity="0.78"/>

<rect x="684.8" y="207.5" width="6.4" height="1.0" fill="#15803d" opacity="0.78"/>

<rect x="693.6" y="207.5" width="6.4" height="1.0" fill="#15803d" opacity="0.78"/>

<rect x="702.5" y="207.5" width="6.4" height="1.0" fill="#15803d" opacity="0.78"/>

<rect x="711.4" y="207.5" width="6.4" height="57.5" fill="#dc2626" opacity="0.78"/>

<rect x="720.3" y="207.5" width="6.4" height="1.0" fill="#15803d" opacity="0.78"/>

<rect x="729.2" y="207.5" width="6.4" height="1.0" fill="#15803d" opacity="0.78"/>

<rect x="738.1" y="207.5" width="6.4" height="1.0" fill="#15803d" opacity="0.78"/>

<rect x="746.9" y="92.6" width="6.4" height="114.9" fill="#15803d" opacity="0.78"/>

<rect x="755.8" y="150.1" width="6.4" height="57.5" fill="#15803d" opacity="0.78"/>

<rect x="764.7" y="92.6" width="6.4" height="114.9" fill="#15803d" opacity="0.78"/>

<rect x="773.6" y="150.1" width="6.4" height="57.5" fill="#15803d" opacity="0.78"/>

<rect x="782.5" y="207.5" width="6.4" height="1.0" fill="#15803d" opacity="0.78"/>

<rect x="791.4" y="207.5" width="6.4" height="57.5" fill="#dc2626" opacity="0.78"/>

<rect x="800.2" y="207.5" width="6.4" height="114.9" fill="#dc2626" opacity="0.78"/>

<rect x="809.1" y="207.5" width="6.4" height="57.5" fill="#dc2626" opacity="0.78"/>

<rect x="818.0" y="207.5" width="6.4" height="57.5" fill="#dc2626" opacity="0.78"/>

<rect x="826.9" y="207.5" width="6.4" height="57.5" fill="#dc2626" opacity="0.78"/>

<rect x="835.8" y="207.5" width="6.4" height="1.0" fill="#15803d" opacity="0.78"/>

<rect x="844.6" y="207.5" width="6.4" height="1.0" fill="#15803d" opacity="0.78"/>

<rect x="853.5" y="150.1" width="6.4" height="57.5" fill="#15803d" opacity="0.78"/>

<rect x="862.4" y="207.5" width="6.4" height="1.0" fill="#15803d" opacity="0.78"/>

<rect x="871.3" y="207.5" width="6.4" height="57.5" fill="#dc2626" opacity="0.78"/>

<rect x="880.2" y="207.5" width="6.4" height="1.0" fill="#15803d" opacity="0.78"/>

<rect x="889.1" y="150.1" width="6.4" height="57.5" fill="#15803d" opacity="0.78"/>

<rect x="897.9" y="207.5" width="6.4" height="1.0" fill="#15803d" opacity="0.78"/>

<rect x="906.8" y="207.5" width="6.4" height="1.0" fill="#15803d" opacity="0.78"/>

<rect x="915.7" y="207.5" width="6.4" height="57.5" fill="#dc2626" opacity="0.78"/>

<rect x="924.6" y="207.5" width="6.4" height="1.0" fill="#15803d" opacity="0.78"/>

<rect x="933.5" y="207.5" width="6.4" height="1.0" fill="#15803d" opacity="0.78"/>

<rect x="942.4" y="207.5" width="6.4" height="1.0" fill="#15803d" opacity="0.78"/>


</svg>
