<svg xmlns="http://www.w3.org/2000/svg" width="980" height="560" viewBox="0 0 980 560" role="img" aria-label="Paarweise Differenzen Teil 8/8">
<rect width="100%" height="100%" fill="white"/>
<text x="490" y="34" text-anchor="middle" font-size="26" font-weight="700" fill="#0f172a">Paarweise Differenzen Teil 8/8</text>
<text x="28" y="265" transform="rotate(-90 28 265)" text-anchor="middle" font-size="24" fill="#475569">Workflow - Direkter Aufruf (Prozentpunkte)</text>
<text x="532.5" y="536" text-anchor="middle" font-size="24" fill="#475569">Antwortpaare 701-780 von 780</text>
<line x1="115" y1="289.6" x2="950" y2="289.6" stroke="#94a3b8" stroke-dasharray="4 4"/>
<line x1="115" y1="65" x2="115" y2="465" stroke="#cbd5e1"/>
<line x1="115" y1="465" x2="950" y2="465" stroke="#cbd5e1"/>
<line x1="115" y1="465.0" x2="950" y2="465.0" stroke="#e2e8f0"/>
<text x="105" y="470.0" text-anchor="end" font-size="16" fill="#64748b">-89</text>
<line x1="115" y1="365.0" x2="950" y2="365.0" stroke="#e2e8f0"/>
<text x="105" y="370.0" text-anchor="end" font-size="16" fill="#64748b">-38</text>
<line x1="115" y1="265.0" x2="950" y2="265.0" stroke="#e2e8f0"/>
<text x="105" y="270.0" text-anchor="end" font-size="16" fill="#64748b">13</text>
<line x1="115" y1="165.0" x2="950" y2="165.0" stroke="#e2e8f0"/>
<text x="105" y="170.0" text-anchor="end" font-size="16" fill="#64748b">63</text>
<line x1="115" y1="65.0" x2="950" y2="65.0" stroke="#e2e8f0"/>
<text x="105" y="70.0" text-anchor="end" font-size="16" fill="#64748b">114</text>
<rect x="116.5" y="289.6" width="7.5" height="1.0" fill="#15803d" opacity="0.78"/>

<rect x="126.9" y="289.6" width="7.5" height="49.3" fill="#dc2626" opacity="0.78"/>

<rect x="137.3" y="289.6" width="7.5" height="49.3" fill="#dc2626" opacity="0.78"/>

<rect x="147.8" y="289.6" width="7.5" height="1.0" fill="#15803d" opacity="0.78"/>

<rect x="158.2" y="289.6" width="7.5" height="1.0" fill="#15803d" opacity="0.78"/>

<rect x="168.6" y="289.6" width="7.5" height="49.3" fill="#dc2626" opacity="0.78"/>

<rect x="179.1" y="289.6" width="7.5" height="49.3" fill="#dc2626" opacity="0.78"/>

<rect x="189.5" y="289.6" width="7.5" height="49.3" fill="#dc2626" opacity="0.78"/>

<rect x="200.0" y="289.6" width="7.5" height="49.3" fill="#dc2626" opacity="0.78"/>

<rect x="210.4" y="289.6" width="7.5" height="1.0" fill="#15803d" opacity="0.78"/>

<rect x="220.8" y="289.6" width="7.5" height="1.0" fill="#15803d" opacity="0.78"/>

<rect x="231.3" y="240.4" width="7.5" height="49.3" fill="#15803d" opacity="0.78"/>

<rect x="241.7" y="289.6" width="7.5" height="1.0" fill="#15803d" opacity="0.78"/>

<rect x="252.1" y="240.4" width="7.5" height="49.3" fill="#15803d" opacity="0.78"/>

<rect x="262.6" y="240.4" width="7.5" height="49.3" fill="#15803d" opacity="0.78"/>

<rect x="273.0" y="191.1" width="7.5" height="98.5" fill="#15803d" opacity="0.78"/>

<rect x="283.5" y="240.4" width="7.5" height="49.3" fill="#15803d" opacity="0.78"/>

<rect x="293.9" y="240.4" width="7.5" height="49.3" fill="#15803d" opacity="0.78"/>

<rect x="304.3" y="289.6" width="7.5" height="1.0" fill="#15803d" opacity="0.78"/>

<rect x="314.8" y="289.6" width="7.5" height="1.0" fill="#15803d" opacity="0.78"/>

<rect x="325.2" y="240.4" width="7.5" height="49.3" fill="#15803d" opacity="0.78"/>

<rect x="335.6" y="289.6" width="7.5" height="1.0" fill="#15803d" opacity="0.78"/>

<rect x="346.1" y="289.6" width="7.5" height="1.0" fill="#15803d" opacity="0.78"/>

<rect x="356.5" y="289.6" width="7.5" height="1.0" fill="#15803d" opacity="0.78"/>

<rect x="367.0" y="289.6" width="7.5" height="49.3" fill="#dc2626" opacity="0.78"/>

<rect x="377.4" y="289.6" width="7.5" height="1.0" fill="#15803d" opacity="0.78"/>

<rect x="387.8" y="289.6" width="7.5" height="1.0" fill="#15803d" opacity="0.78"/>

<rect x="398.3" y="289.6" width="7.5" height="1.0" fill="#15803d" opacity="0.78"/>

<rect x="408.7" y="240.4" width="7.5" height="49.3" fill="#15803d" opacity="0.78"/>

<rect x="419.1" y="240.4" width="7.5" height="49.3" fill="#15803d" opacity="0.78"/>

<rect x="429.6" y="289.6" width="7.5" height="1.0" fill="#15803d" opacity="0.78"/>

<rect x="440.0" y="289.6" width="7.5" height="1.0" fill="#15803d" opacity="0.78"/>

<rect x="450.5" y="240.4" width="7.5" height="49.3" fill="#15803d" opacity="0.78"/>

<rect x="460.9" y="92.6" width="7.5" height="197.0" fill="#15803d" opacity="0.78"/>

<rect x="471.3" y="289.6" width="7.5" height="1.0" fill="#15803d" opacity="0.78"/>

<rect x="481.8" y="289.6" width="7.5" height="49.3" fill="#dc2626" opacity="0.78"/>

<rect x="492.2" y="191.1" width="7.5" height="98.5" fill="#15803d" opacity="0.78"/>

<rect x="502.6" y="289.6" width="7.5" height="1.0" fill="#15803d" opacity="0.78"/>

<rect x="513.1" y="289.6" width="7.5" height="1.0" fill="#15803d" opacity="0.78"/>

<rect x="523.5" y="289.6" width="7.5" height="1.0" fill="#15803d" opacity="0.78"/>

<rect x="534.0" y="191.1" width="7.5" height="98.5" fill="#15803d" opacity="0.78"/>

<rect x="544.4" y="289.6" width="7.5" height="49.3" fill="#dc2626" opacity="0.78"/>

<rect x="554.8" y="240.4" width="7.5" height="49.3" fill="#15803d" opacity="0.78"/>

<rect x="565.3" y="289.6" width="7.5" height="98.5" fill="#dc2626" opacity="0.78"/>

<rect x="575.7" y="289.6" width="7.5" height="1.0" fill="#15803d" opacity="0.78"/>

<rect x="586.1" y="289.6" width="7.5" height="49.3" fill="#dc2626" opacity="0.78"/>

<rect x="596.6" y="289.6" width="7.5" height="49.3" fill="#dc2626" opacity="0.78"/>

<rect x="607.0" y="289.6" width="7.5" height="49.3" fill="#dc2626" opacity="0.78"/>

<rect x="617.5" y="240.4" width="7.5" height="49.3" fill="#15803d" opacity="0.78"/>

<rect x="627.9" y="240.4" width="7.5" height="49.3" fill="#15803d" opacity="0.78"/>

<rect x="638.3" y="289.6" width="7.5" height="1.0" fill="#15803d" opacity="0.78"/>

<rect x="648.8" y="289.6" width="7.5" height="1.0" fill="#15803d" opacity="0.78"/>

<rect x="659.2" y="289.6" width="7.5" height="1.0" fill="#15803d" opacity="0.78"/>

<rect x="669.6" y="289.6" width="7.5" height="1.0" fill="#15803d" opacity="0.78"/>

<rect x="680.1" y="141.8" width="7.5" height="147.8" fill="#15803d" opacity="0.78"/>

<rect x="690.5" y="92.6" width="7.5" height="197.0" fill="#15803d" opacity="0.78"/>

<rect x="701.0" y="141.8" width="7.5" height="147.8" fill="#15803d" opacity="0.78"/>

<rect x="711.4" y="289.6" width="7.5" height="1.0" fill="#15803d" opacity="0.78"/>

<rect x="721.8" y="289.6" width="7.5" height="49.3" fill="#dc2626" opacity="0.78"/>

<rect x="732.3" y="191.1" width="7.5" height="98.5" fill="#15803d" opacity="0.78"/>

<rect x="742.7" y="240.4" width="7.5" height="49.3" fill="#15803d" opacity="0.78"/>

<rect x="753.1" y="289.6" width="7.5" height="1.0" fill="#15803d" opacity="0.78"/>

<rect x="763.6" y="289.6" width="7.5" height="1.0" fill="#15803d" opacity="0.78"/>

<rect x="774.0" y="289.6" width="7.5" height="49.3" fill="#dc2626" opacity="0.78"/>

<rect x="784.5" y="191.1" width="7.5" height="98.5" fill="#15803d" opacity="0.78"/>

<rect x="794.9" y="289.6" width="7.5" height="1.0" fill="#15803d" opacity="0.78"/>

<rect x="805.3" y="289.6" width="7.5" height="1.0" fill="#15803d" opacity="0.78"/>

<rect x="815.8" y="289.6" width="7.5" height="1.0" fill="#15803d" opacity="0.78"/>

<rect x="826.2" y="240.4" width="7.5" height="49.3" fill="#15803d" opacity="0.78"/>

<rect x="836.6" y="289.6" width="7.5" height="1.0" fill="#15803d" opacity="0.78"/>

<rect x="847.1" y="289.6" width="7.5" height="1.0" fill="#15803d" opacity="0.78"/>

<rect x="857.5" y="289.6" width="7.5" height="1.0" fill="#15803d" opacity="0.78"/>

<rect x="868.0" y="240.4" width="7.5" height="49.3" fill="#15803d" opacity="0.78"/>

<rect x="878.4" y="289.6" width="7.5" height="147.8" fill="#dc2626" opacity="0.78"/>

<rect x="888.8" y="289.6" width="7.5" height="1.0" fill="#15803d" opacity="0.78"/>

<rect x="899.3" y="289.6" width="7.5" height="98.5" fill="#dc2626" opacity="0.78"/>

<rect x="909.7" y="240.4" width="7.5" height="49.3" fill="#15803d" opacity="0.78"/>

<rect x="920.1" y="240.4" width="7.5" height="49.3" fill="#15803d" opacity="0.78"/>

<rect x="930.6" y="141.8" width="7.5" height="147.8" fill="#15803d" opacity="0.78"/>

<rect x="941.0" y="92.6" width="7.5" height="197.0" fill="#15803d" opacity="0.78"/>


</svg>
