<svg xmlns="http://www.w3.org/2000/svg" width="980" height="560" viewBox="0 0 980 560" role="img" aria-label="Paarweise Differenzen Teil 1/1">
<rect width="100%" height="100%" fill="white"/>
<text x="490" y="34" text-anchor="middle" font-size="26" font-weight="700" fill="#0f172a">Paarweise Differenzen Teil 1/1</text>
<text x="28" y="265" transform="rotate(-90 28 265)" text-anchor="middle" font-size="24" fill="#475569">Workflow - Direkter Aufruf (Prozentpunkte)</text>
<text x="532.5" y="536" text-anchor="middle" font-size="24" fill="#475569">Antwortpaare 1-67 von 67</text>
<line x1="115" y1="314.3" x2="950" y2="314.3" stroke="#94a3b8" stroke-dasharray="4 4"/>
<line x1="115" y1="65" x2="115" y2="465" stroke="#cbd5e1"/>
<line x1="115" y1="465" x2="950" y2="465" stroke="#cbd5e1"/>
<line x1="115" y1="465.0" x2="950" y2="465.0" stroke="#e2e8f0"/>
<text x="105" y="470.0" text-anchor="end" font-size="16" fill="#64748b">-68</text>
<line x1="115" y1="365.0" x2="950" y2="365.0" stroke="#e2e8f0"/>
<text x="105" y="370.0" text-anchor="end" font-size="16" fill="#64748b">-23</text>
<line x1="115" y1="265.0" x2="950" y2="265.0" stroke="#e2e8f0"/>
<text x="105" y="270.0" text-anchor="end" font-size="16" fill="#64748b">22</text>
<line x1="115" y1="165.0" x2="950" y2="165.0" stroke="#e2e8f0"/>
<text x="105" y="170.0" text-anchor="end" font-size="16" fill="#64748b">67</text>
<line x1="115" y1="65.0" x2="950" y2="65.0" stroke="#e2e8f0"/>
<text x="105" y="70.0" text-anchor="end" font-size="16" fill="#64748b">112</text>
<rect x="116.7" y="314.3" width="9.0" height="1.0" fill="#15803d" opacity="0.78"/>

<rect x="129.2" y="269.9" width="9.0" height="44.3" fill="#15803d" opacity="0.78"/>

<rect x="141.7" y="269.9" width="9.0" height="44.3" fill="#15803d" opacity="0.78"/>

<rect x="154.1" y="269.9" width="9.0" height="44.3" fill="#15803d" opacity="0.78"/>

<rect x="166.6" y="225.6" width="9.0" height="88.7" fill="#15803d" opacity="0.78"/>

<rect x="179.1" y="314.3" width="9.0" height="44.3" fill="#dc2626" opacity="0.78"/>

<rect x="191.5" y="225.6" width="9.0" height="88.7" fill="#15803d" opacity="0.78"/>

<rect x="204.0" y="314.3" width="9.0" height="1.0" fill="#15803d" opacity="0.78"/>

<rect x="216.4" y="225.6" width="9.0" height="88.7" fill="#15803d" opacity="0.78"/>

<rect x="228.9" y="314.3" width="9.0" height="1.0" fill="#15803d" opacity="0.78"/>

<rect x="241.4" y="314.3" width="9.0" height="1.0" fill="#15803d" opacity="0.78"/>

<rect x="253.8" y="269.9" width="9.0" height="44.3" fill="#15803d" opacity="0.78"/>

<rect x="266.3" y="269.9" width="9.0" height="44.3" fill="#15803d" opacity="0.78"/>

<rect x="278.8" y="269.9" width="9.0" height="44.3" fill="#15803d" opacity="0.78"/>

<rect x="291.2" y="314.3" width="9.0" height="1.0" fill="#15803d" opacity="0.78"/>

<rect x="303.7" y="314.3" width="9.0" height="1.0" fill="#15803d" opacity="0.78"/>

<rect x="316.1" y="258.8" width="9.0" height="55.4" fill="#15803d" opacity="0.78"/>

<rect x="328.6" y="203.4" width="9.0" height="110.8" fill="#15803d" opacity="0.78"/>

<rect x="341.1" y="148.0" width="9.0" height="166.3" fill="#15803d" opacity="0.78"/>

<rect x="353.5" y="314.3" width="9.0" height="55.4" fill="#dc2626" opacity="0.78"/>

<rect x="366.0" y="314.3" width="9.0" height="1.0" fill="#15803d" opacity="0.78"/>

<rect x="378.5" y="314.3" width="9.0" height="1.0" fill="#15803d" opacity="0.78"/>

<rect x="390.9" y="314.3" width="9.0" height="1.0" fill="#15803d" opacity="0.78"/>

<rect x="403.4" y="314.3" width="9.0" height="1.0" fill="#15803d" opacity="0.78"/>

<rect x="415.8" y="289.6" width="9.0" height="24.6" fill="#15803d" opacity="0.78"/>

<rect x="428.3" y="166.5" width="9.0" height="147.8" fill="#15803d" opacity="0.78"/>

<rect x="440.8" y="314.3" width="9.0" height="98.5" fill="#dc2626" opacity="0.78"/>

<rect x="453.2" y="314.3" width="9.0" height="49.3" fill="#dc2626" opacity="0.78"/>

<rect x="465.7" y="289.6" width="9.0" height="24.6" fill="#15803d" opacity="0.78"/>

<rect x="478.2" y="265.0" width="9.0" height="49.3" fill="#15803d" opacity="0.78"/>

<rect x="490.6" y="265.0" width="9.0" height="49.3" fill="#15803d" opacity="0.78"/>

<rect x="503.1" y="314.3" width="9.0" height="1.0" fill="#15803d" opacity="0.78"/>

<rect x="515.6" y="265.0" width="9.0" height="49.3" fill="#15803d" opacity="0.78"/>

<rect x="528.0" y="166.5" width="9.0" height="147.8" fill="#15803d" opacity="0.78"/>

<rect x="540.5" y="215.7" width="9.0" height="98.5" fill="#15803d" opacity="0.78"/>

<rect x="552.9" y="314.3" width="9.0" height="98.5" fill="#dc2626" opacity="0.78"/>

<rect x="565.4" y="314.3" width="9.0" height="123.2" fill="#dc2626" opacity="0.78"/>

<rect x="577.9" y="117.2" width="9.0" height="197.0" fill="#15803d" opacity="0.78"/>

<rect x="590.3" y="314.3" width="9.0" height="49.3" fill="#dc2626" opacity="0.78"/>

<rect x="602.8" y="215.7" width="9.0" height="98.5" fill="#15803d" opacity="0.78"/>

<rect x="615.3" y="215.7" width="9.0" height="98.5" fill="#15803d" opacity="0.78"/>

<rect x="627.7" y="289.6" width="9.0" height="24.6" fill="#15803d" opacity="0.78"/>

<rect x="640.2" y="265.0" width="9.0" height="49.3" fill="#15803d" opacity="0.78"/>

<rect x="652.6" y="314.3" width="9.0" height="1.0" fill="#15803d" opacity="0.78"/>

<rect x="665.1" y="314.3" width="9.0" height="49.3" fill="#dc2626" opacity="0.78"/>

<rect x="677.6" y="314.3" width="9.0" height="1.0" fill="#15803d" opacity="0.78"/>

<rect x="690.0" y="314.3" width="9.0" height="24.6" fill="#dc2626" opacity="0.78"/>

<rect x="702.5" y="265.0" width="9.0" height="49.3" fill="#15803d" opacity="0.78"/>

<rect x="715.0" y="240.4" width="9.0" height="73.9" fill="#15803d" opacity="0.78"/>

<rect x="727.4" y="141.8" width="9.0" height="172.4" fill="#15803d" opacity="0.78"/>

<rect x="739.9" y="203.4" width="9.0" height="110.8" fill="#15803d" opacity="0.78"/>

<rect x="752.3" y="258.8" width="9.0" height="55.4" fill="#15803d" opacity="0.78"/>

<rect x="764.8" y="203.4" width="9.0" height="110.8" fill="#15803d" opacity="0.78"/>

<rect x="777.3" y="203.4" width="9.0" height="110.8" fill="#15803d" opacity="0.78"/>

<rect x="789.7" y="203.4" width="9.0" height="110.8" fill="#15803d" opacity="0.78"/>

<rect x="802.2" y="258.8" width="9.0" height="55.4" fill="#15803d" opacity="0.78"/>

<rect x="814.7" y="258.8" width="9.0" height="55.4" fill="#15803d" opacity="0.78"/>

<rect x="827.1" y="258.8" width="9.0" height="55.4" fill="#15803d" opacity="0.78"/>

<rect x="839.6" y="258.8" width="9.0" height="55.4" fill="#15803d" opacity="0.78"/>

<rect x="852.0" y="258.8" width="9.0" height="55.4" fill="#15803d" opacity="0.78"/>

<rect x="864.5" y="258.8" width="9.0" height="55.4" fill="#15803d" opacity="0.78"/>

<rect x="877.0" y="203.4" width="9.0" height="110.8" fill="#15803d" opacity="0.78"/>

<rect x="889.4" y="92.6" width="9.0" height="221.7" fill="#15803d" opacity="0.78"/>

<rect x="901.9" y="314.3" width="9.0" height="110.8" fill="#dc2626" opacity="0.78"/>

<rect x="914.4" y="258.8" width="9.0" height="55.4" fill="#15803d" opacity="0.78"/>

<rect x="926.8" y="314.3" width="9.0" height="110.8" fill="#dc2626" opacity="0.78"/>

<rect x="939.3" y="314.3" width="9.0" height="55.4" fill="#dc2626" opacity="0.78"/>


</svg>
