<svg xmlns="http://www.w3.org/2000/svg" width="980" height="560" viewBox="0 0 980 560" role="img" aria-label="Paarweise Differenzen Teil 4/4">
<rect width="100%" height="100%" fill="white"/>
<text x="490" y="34" text-anchor="middle" font-size="26" font-weight="700" fill="#0f172a">Paarweise Differenzen Teil 4/4</text>
<text x="28" y="265" transform="rotate(-90 28 265)" text-anchor="middle" font-size="24" fill="#475569">Workflow - Direkter Aufruf (Prozentpunkte)</text>
<text x="532.5" y="536" text-anchor="middle" font-size="24" fill="#475569">Antwortpaare 301-340 von 340</text>
<line x1="115" y1="289.6" x2="950" y2="289.6" stroke="#94a3b8" stroke-dasharray="4 4"/>
<line x1="115" y1="65" x2="115" y2="465" stroke="#cbd5e1"/>
<line x1="115" y1="465" x2="950" y2="465" stroke="#cbd5e1"/>
<line x1="115" y1="465.0" x2="950" y2="465.0" stroke="#e2e8f0"/>
<text x="105" y="470.0" text-anchor="end" font-size="16" fill="#64748b">-89</text>
<line x1="115" y1="365.0" x2="950" y2="365.0" stroke="#e2e8f0"/>
<text x="105" y="370.0" text-anchor="end" font-size="16" fill="#64748b">-38</text>
<line x1="115" y1="265.0" x2="950" y2="265.0" stroke="#e2e8f0"/>
<text x="105" y="270.0" text-anchor="end" font-size="16" fill="#64748b">13</text>
<line x1="115" y1="165.0" x2="950" y2="165.0" stroke="#e2e8f0"/>
<text x="105" y="170.0" text-anchor="end" font-size="16" fill="#64748b">63</text>
<line x1="115" y1="65.0" x2="950" y2="65.0" stroke="#e2e8f0"/>
<text x="105" y="70.0" text-anchor="end" font-size="16" fill="#64748b">114</text>
<rect x="117.9" y="289.6" width="15.0" height="1.0" fill="#15803d" opacity="0.78"/>
<text x="125.4" y="281.6" text-anchor="middle" font-size="16" font-weight="700" fill="#0f172a">0.0</text>
<rect x="138.8" y="289.6" width="15.0" height="1.0" fill="#15803d" opacity="0.78"/>
<text x="146.3" y="281.6" text-anchor="middle" font-size="16" font-weight="700" fill="#0f172a">0.0</text>
<rect x="159.7" y="240.4" width="15.0" height="49.3" fill="#15803d" opacity="0.78"/>
<text x="167.2" y="232.4" text-anchor="middle" font-size="16" font-weight="700" fill="#0f172a">25.0</text>
<rect x="180.5" y="240.4" width="15.0" height="49.3" fill="#15803d" opacity="0.78"/>
<text x="188.1" y="232.4" text-anchor="middle" font-size="16" font-weight="700" fill="#0f172a">25.0</text>
<rect x="201.4" y="240.4" width="15.0" height="49.3" fill="#15803d" opacity="0.78"/>
<text x="208.9" y="232.4" text-anchor="middle" font-size="16" font-weight="700" fill="#0f172a">25.0</text>
<rect x="222.3" y="289.6" width="15.0" height="1.0" fill="#15803d" opacity="0.78"/>
<text x="229.8" y="281.6" text-anchor="middle" font-size="16" font-weight="700" fill="#0f172a">0.0</text>
<rect x="243.2" y="289.6" width="15.0" height="1.0" fill="#15803d" opacity="0.78"/>
<text x="250.7" y="281.6" text-anchor="middle" font-size="16" font-weight="700" fill="#0f172a">0.0</text>
<rect x="264.0" y="289.6" width="15.0" height="1.0" fill="#15803d" opacity="0.78"/>
<text x="271.6" y="281.6" text-anchor="middle" font-size="16" font-weight="700" fill="#0f172a">0.0</text>
<rect x="284.9" y="240.4" width="15.0" height="49.3" fill="#15803d" opacity="0.78"/>
<text x="292.4" y="232.4" text-anchor="middle" font-size="16" font-weight="700" fill="#0f172a">25.0</text>
<rect x="305.8" y="191.1" width="15.0" height="98.5" fill="#15803d" opacity="0.78"/>
<text x="313.3" y="183.1" text-anchor="middle" font-size="16" font-weight="700" fill="#0f172a">50.0</text>
<rect x="326.7" y="141.8" width="15.0" height="147.8" fill="#15803d" opacity="0.78"/>
<text x="334.2" y="133.8" text-anchor="middle" font-size="16" font-weight="700" fill="#0f172a">75.0</text>
<rect x="347.5" y="92.6" width="15.0" height="197.0" fill="#15803d" opacity="0.78"/>
<text x="355.1" y="84.6" text-anchor="middle" font-size="16" font-weight="700" fill="#0f172a">100.0</text>
<rect x="368.4" y="240.4" width="15.0" height="49.3" fill="#15803d" opacity="0.78"/>
<text x="375.9" y="232.4" text-anchor="middle" font-size="16" font-weight="700" fill="#0f172a">25.0</text>
<rect x="389.3" y="289.6" width="15.0" height="1.0" fill="#15803d" opacity="0.78"/>
<text x="396.8" y="281.6" text-anchor="middle" font-size="16" font-weight="700" fill="#0f172a">0.0</text>
<rect x="410.2" y="141.8" width="15.0" height="147.8" fill="#15803d" opacity="0.78"/>
<text x="417.7" y="133.8" text-anchor="middle" font-size="16" font-weight="700" fill="#0f172a">75.0</text>
<rect x="431.0" y="289.6" width="15.0" height="1.0" fill="#15803d" opacity="0.78"/>
<text x="438.6" y="281.6" text-anchor="middle" font-size="16" font-weight="700" fill="#0f172a">0.0</text>
<rect x="451.9" y="289.6" width="15.0" height="1.0" fill="#15803d" opacity="0.78"/>
<text x="459.4" y="281.6" text-anchor="middle" font-size="16" font-weight="700" fill="#0f172a">0.0</text>
<rect x="472.8" y="141.8" width="15.0" height="147.8" fill="#15803d" opacity="0.78"/>
<text x="480.3" y="133.8" text-anchor="middle" font-size="16" font-weight="700" fill="#0f172a">75.0</text>
<rect x="493.7" y="191.1" width="15.0" height="98.5" fill="#15803d" opacity="0.78"/>
<text x="501.2" y="183.1" text-anchor="middle" font-size="16" font-weight="700" fill="#0f172a">50.0</text>
<rect x="514.5" y="289.6" width="15.0" height="147.8" fill="#dc2626" opacity="0.78"/>
<text x="522.1" y="455.4" text-anchor="middle" font-size="16" font-weight="700" fill="#0f172a">-75.0</text>
<rect x="535.4" y="289.6" width="15.0" height="1.0" fill="#15803d" opacity="0.78"/>
<text x="542.9" y="281.6" text-anchor="middle" font-size="16" font-weight="700" fill="#0f172a">0.0</text>
<rect x="556.3" y="289.6" width="15.0" height="1.0" fill="#15803d" opacity="0.78"/>
<text x="563.8" y="281.6" text-anchor="middle" font-size="16" font-weight="700" fill="#0f172a">0.0</text>
<rect x="577.2" y="289.6" width="15.0" height="1.0" fill="#15803d" opacity="0.78"/>
<text x="584.7" y="281.6" text-anchor="middle" font-size="16" font-weight="700" fill="#0f172a">0.0</text>
<rect x="598.0" y="289.6" width="15.0" height="1.0" fill="#15803d" opacity="0.78"/>
<text x="605.6" y="281.6" text-anchor="middle" font-size="16" font-weight="700" fill="#0f172a">0.0</text>
<rect x="618.9" y="289.6" width="15.0" height="1.0" fill="#15803d" opacity="0.78"/>
<text x="626.4" y="281.6" text-anchor="middle" font-size="16" font-weight="700" fill="#0f172a">0.0</text>
<rect x="639.8" y="289.6" width="15.0" height="1.0" fill="#15803d" opacity="0.78"/>
<text x="647.3" y="281.6" text-anchor="middle" font-size="16" font-weight="700" fill="#0f172a">0.0</text>
<rect x="660.7" y="289.6" width="15.0" height="1.0" fill="#15803d" opacity="0.78"/>
<text x="668.2" y="281.6" text-anchor="middle" font-size="16" font-weight="700" fill="#0f172a">0.0</text>
<rect x="681.5" y="289.6" width="15.0" height="1.0" fill="#15803d" opacity="0.78"/>
<text x="689.1" y="281.6" text-anchor="middle" font-size="16" font-weight="700" fill="#0f172a">0.0</text>
<rect x="702.4" y="289.6" width="15.0" height="49.3" fill="#dc2626" opacity="0.78"/>
<text x="709.9" y="356.9" text-anchor="middle" font-size="16" font-weight="700" fill="#0f172a">-25.0</text>
<rect x="723.3" y="191.1" width="15.0" height="98.5" fill="#15803d" opacity="0.78"/>
<text x="730.8" y="183.1" text-anchor="middle" font-size="16" font-weight="700" fill="#0f172a">50.0</text>
<rect x="744.2" y="191.1" width="15.0" height="98.5" fill="#15803d" opacity="0.78"/>
<text x="751.7" y="183.1" text-anchor="middle" font-size="16" font-weight="700" fill="#0f172a">50.0</text>
<rect x="765.0" y="92.6" width="15.0" height="197.0" fill="#15803d" opacity="0.78"/>
<text x="772.6" y="84.6" text-anchor="middle" font-size="16" font-weight="700" fill="#0f172a">100.0</text>
<rect x="785.9" y="289.6" width="15.0" height="49.3" fill="#dc2626" opacity="0.78"/>
<text x="793.4" y="356.9" text-anchor="middle" font-size="16" font-weight="700" fill="#0f172a">-25.0</text>
<rect x="806.8" y="289.6" width="15.0" height="49.3" fill="#dc2626" opacity="0.78"/>
<text x="814.3" y="356.9" text-anchor="middle" font-size="16" font-weight="700" fill="#0f172a">-25.0</text>
<rect x="827.7" y="191.1" width="15.0" height="98.5" fill="#15803d" opacity="0.78"/>
<text x="835.2" y="183.1" text-anchor="middle" font-size="16" font-weight="700" fill="#0f172a">50.0</text>
<rect x="848.5" y="289.6" width="15.0" height="1.0" fill="#15803d" opacity="0.78"/>
<text x="856.1" y="281.6" text-anchor="middle" font-size="16" font-weight="700" fill="#0f172a">0.0</text>
<rect x="869.4" y="289.6" width="15.0" height="1.0" fill="#15803d" opacity="0.78"/>
<text x="876.9" y="281.6" text-anchor="middle" font-size="16" font-weight="700" fill="#0f172a">0.0</text>
<rect x="890.3" y="289.6" width="15.0" height="1.0" fill="#15803d" opacity="0.78"/>
<text x="897.8" y="281.6" text-anchor="middle" font-size="16" font-weight="700" fill="#0f172a">0.0</text>
<rect x="911.2" y="289.6" width="15.0" height="98.5" fill="#dc2626" opacity="0.78"/>
<text x="918.7" y="406.2" text-anchor="middle" font-size="16" font-weight="700" fill="#0f172a">-50.0</text>
<rect x="932.0" y="240.4" width="15.0" height="49.3" fill="#15803d" opacity="0.78"/>
<text x="939.6" y="232.4" text-anchor="middle" font-size="16" font-weight="700" fill="#0f172a">25.0</text>

</svg>
