<svg xmlns="http://www.w3.org/2000/svg" width="980" height="560" viewBox="0 0 980 560" role="img" aria-label="Paarweise Differenzen Teil 4/4">
<rect width="100%" height="100%" fill="white"/>
<text x="490" y="34" text-anchor="middle" font-size="26" font-weight="700" fill="#0f172a">Paarweise Differenzen Teil 4/4</text>
<text x="28" y="265" transform="rotate(-90 28 265)" text-anchor="middle" font-size="24" fill="#475569">Workflow - Direkter Aufruf (Prozentpunkte)</text>
<text x="532.5" y="536" text-anchor="middle" font-size="24" fill="#475569">Antwortpaare 301-382 von 382</text>
<line x1="115" y1="299.5" x2="950" y2="299.5" stroke="#94a3b8" stroke-dasharray="4 4"/>
<line x1="115" y1="65" x2="115" y2="465" stroke="#cbd5e1"/>
<line x1="115" y1="465" x2="950" y2="465" stroke="#cbd5e1"/>
<line x1="115" y1="465.0" x2="950" y2="465.0" stroke="#e2e8f0"/>
<text x="105" y="470.0" text-anchor="end" font-size="16" fill="#64748b">-60</text>
<line x1="115" y1="365.0" x2="950" y2="365.0" stroke="#e2e8f0"/>
<text x="105" y="370.0" text-anchor="end" font-size="16" fill="#64748b">-24</text>
<line x1="115" y1="265.0" x2="950" y2="265.0" stroke="#e2e8f0"/>
<text x="105" y="270.0" text-anchor="end" font-size="16" fill="#64748b">13</text>
<line x1="115" y1="165.0" x2="950" y2="165.0" stroke="#e2e8f0"/>
<text x="105" y="170.0" text-anchor="end" font-size="16" fill="#64748b">49</text>
<line x1="115" y1="65.0" x2="950" y2="65.0" stroke="#e2e8f0"/>
<text x="105" y="70.0" text-anchor="end" font-size="16" fill="#64748b">85</text>
<rect x="116.4" y="299.5" width="7.3" height="1.0" fill="#15803d" opacity="0.78"/>

<rect x="126.6" y="299.5" width="7.3" height="1.0" fill="#15803d" opacity="0.78"/>

<rect x="136.8" y="230.5" width="7.3" height="69.0" fill="#15803d" opacity="0.78"/>

<rect x="147.0" y="299.5" width="7.3" height="69.0" fill="#dc2626" opacity="0.78"/>

<rect x="157.2" y="299.5" width="7.3" height="69.0" fill="#dc2626" opacity="0.78"/>

<rect x="167.3" y="230.5" width="7.3" height="69.0" fill="#15803d" opacity="0.78"/>

<rect x="177.5" y="299.5" width="7.3" height="1.0" fill="#15803d" opacity="0.78"/>

<rect x="187.7" y="299.5" width="7.3" height="1.0" fill="#15803d" opacity="0.78"/>

<rect x="197.9" y="299.5" width="7.3" height="1.0" fill="#15803d" opacity="0.78"/>

<rect x="208.1" y="299.5" width="7.3" height="1.0" fill="#15803d" opacity="0.78"/>

<rect x="218.3" y="299.5" width="7.3" height="1.0" fill="#15803d" opacity="0.78"/>

<rect x="228.4" y="299.5" width="7.3" height="1.0" fill="#15803d" opacity="0.78"/>

<rect x="238.6" y="230.5" width="7.3" height="69.0" fill="#15803d" opacity="0.78"/>

<rect x="248.8" y="299.5" width="7.3" height="1.0" fill="#15803d" opacity="0.78"/>

<rect x="259.0" y="299.5" width="7.3" height="1.0" fill="#15803d" opacity="0.78"/>

<rect x="269.2" y="230.5" width="7.3" height="69.0" fill="#15803d" opacity="0.78"/>

<rect x="279.4" y="299.5" width="7.3" height="1.0" fill="#15803d" opacity="0.78"/>

<rect x="289.5" y="299.5" width="7.3" height="1.0" fill="#15803d" opacity="0.78"/>

<rect x="299.7" y="299.5" width="7.3" height="1.0" fill="#15803d" opacity="0.78"/>

<rect x="309.9" y="230.5" width="7.3" height="69.0" fill="#15803d" opacity="0.78"/>

<rect x="320.1" y="299.5" width="7.3" height="1.0" fill="#15803d" opacity="0.78"/>

<rect x="330.3" y="299.5" width="7.3" height="1.0" fill="#15803d" opacity="0.78"/>

<rect x="340.4" y="299.5" width="7.3" height="1.0" fill="#15803d" opacity="0.78"/>

<rect x="350.6" y="230.5" width="7.3" height="69.0" fill="#15803d" opacity="0.78"/>

<rect x="360.8" y="299.5" width="7.3" height="69.0" fill="#dc2626" opacity="0.78"/>

<rect x="371.0" y="299.5" width="7.3" height="1.0" fill="#15803d" opacity="0.78"/>

<rect x="381.2" y="230.5" width="7.3" height="69.0" fill="#15803d" opacity="0.78"/>

<rect x="391.4" y="299.5" width="7.3" height="1.0" fill="#15803d" opacity="0.78"/>

<rect x="401.5" y="299.5" width="7.3" height="1.0" fill="#15803d" opacity="0.78"/>

<rect x="411.7" y="230.5" width="7.3" height="69.0" fill="#15803d" opacity="0.78"/>

<rect x="421.9" y="299.5" width="7.3" height="1.0" fill="#15803d" opacity="0.78"/>

<rect x="432.1" y="230.5" width="7.3" height="69.0" fill="#15803d" opacity="0.78"/>

<rect x="442.3" y="299.5" width="7.3" height="1.0" fill="#15803d" opacity="0.78"/>

<rect x="452.5" y="299.5" width="7.3" height="69.0" fill="#dc2626" opacity="0.78"/>

<rect x="462.6" y="230.5" width="7.3" height="69.0" fill="#15803d" opacity="0.78"/>

<rect x="472.8" y="299.5" width="7.3" height="1.0" fill="#15803d" opacity="0.78"/>

<rect x="483.0" y="230.5" width="7.3" height="69.0" fill="#15803d" opacity="0.78"/>

<rect x="493.2" y="230.5" width="7.3" height="69.0" fill="#15803d" opacity="0.78"/>

<rect x="503.4" y="299.5" width="7.3" height="1.0" fill="#15803d" opacity="0.78"/>

<rect x="513.6" y="299.5" width="7.3" height="1.0" fill="#15803d" opacity="0.78"/>

<rect x="523.7" y="299.5" width="7.3" height="1.0" fill="#15803d" opacity="0.78"/>

<rect x="533.9" y="299.5" width="7.3" height="1.0" fill="#15803d" opacity="0.78"/>

<rect x="544.1" y="299.5" width="7.3" height="1.0" fill="#15803d" opacity="0.78"/>

<rect x="554.3" y="299.5" width="7.3" height="1.0" fill="#15803d" opacity="0.78"/>

<rect x="564.5" y="230.5" width="7.3" height="69.0" fill="#15803d" opacity="0.78"/>

<rect x="574.7" y="299.5" width="7.3" height="1.0" fill="#15803d" opacity="0.78"/>

<rect x="584.8" y="299.5" width="7.3" height="1.0" fill="#15803d" opacity="0.78"/>

<rect x="595.0" y="230.5" width="7.3" height="69.0" fill="#15803d" opacity="0.78"/>

<rect x="605.2" y="230.5" width="7.3" height="69.0" fill="#15803d" opacity="0.78"/>

<rect x="615.4" y="299.5" width="7.3" height="1.0" fill="#15803d" opacity="0.78"/>

<rect x="625.6" y="299.5" width="7.3" height="1.0" fill="#15803d" opacity="0.78"/>

<rect x="635.8" y="299.5" width="7.3" height="1.0" fill="#15803d" opacity="0.78"/>

<rect x="645.9" y="299.5" width="7.3" height="1.0" fill="#15803d" opacity="0.78"/>

<rect x="656.1" y="299.5" width="7.3" height="1.0" fill="#15803d" opacity="0.78"/>

<rect x="666.3" y="230.5" width="7.3" height="69.0" fill="#15803d" opacity="0.78"/>

<rect x="676.5" y="230.5" width="7.3" height="69.0" fill="#15803d" opacity="0.78"/>

<rect x="686.7" y="299.5" width="7.3" height="1.0" fill="#15803d" opacity="0.78"/>

<rect x="696.9" y="299.5" width="7.3" height="1.0" fill="#15803d" opacity="0.78"/>

<rect x="707.0" y="230.5" width="7.3" height="69.0" fill="#15803d" opacity="0.78"/>

<rect x="717.2" y="161.6" width="7.3" height="137.9" fill="#15803d" opacity="0.78"/>

<rect x="727.4" y="230.5" width="7.3" height="69.0" fill="#15803d" opacity="0.78"/>

<rect x="737.6" y="299.5" width="7.3" height="137.9" fill="#dc2626" opacity="0.78"/>

<rect x="747.8" y="299.5" width="7.3" height="1.0" fill="#15803d" opacity="0.78"/>

<rect x="758.0" y="299.5" width="7.3" height="1.0" fill="#15803d" opacity="0.78"/>

<rect x="768.1" y="230.5" width="7.3" height="69.0" fill="#15803d" opacity="0.78"/>

<rect x="778.3" y="299.5" width="7.3" height="1.0" fill="#15803d" opacity="0.78"/>

<rect x="788.5" y="230.5" width="7.3" height="69.0" fill="#15803d" opacity="0.78"/>

<rect x="798.7" y="299.5" width="7.3" height="1.0" fill="#15803d" opacity="0.78"/>

<rect x="808.9" y="299.5" width="7.3" height="1.0" fill="#15803d" opacity="0.78"/>

<rect x="819.0" y="299.5" width="7.3" height="1.0" fill="#15803d" opacity="0.78"/>

<rect x="829.2" y="230.5" width="7.3" height="69.0" fill="#15803d" opacity="0.78"/>

<rect x="839.4" y="92.6" width="7.3" height="206.9" fill="#15803d" opacity="0.78"/>

<rect x="849.6" y="161.6" width="7.3" height="137.9" fill="#15803d" opacity="0.78"/>

<rect x="859.8" y="299.5" width="7.3" height="1.0" fill="#15803d" opacity="0.78"/>

<rect x="870.0" y="299.5" width="7.3" height="1.0" fill="#15803d" opacity="0.78"/>

<rect x="880.1" y="161.6" width="7.3" height="137.9" fill="#15803d" opacity="0.78"/>

<rect x="890.3" y="299.5" width="7.3" height="1.0" fill="#15803d" opacity="0.78"/>

<rect x="900.5" y="299.5" width="7.3" height="69.0" fill="#dc2626" opacity="0.78"/>

<rect x="910.7" y="299.5" width="7.3" height="1.0" fill="#15803d" opacity="0.78"/>

<rect x="920.9" y="161.6" width="7.3" height="137.9" fill="#15803d" opacity="0.78"/>

<rect x="931.1" y="299.5" width="7.3" height="1.0" fill="#15803d" opacity="0.78"/>

<rect x="941.2" y="299.5" width="7.3" height="69.0" fill="#dc2626" opacity="0.78"/>


</svg>
