<svg xmlns="http://www.w3.org/2000/svg" width="980" height="560" viewBox="0 0 980 560" role="img" aria-label="Paarweise Differenzen (Sample)">
<rect width="100%" height="100%" fill="white"/>
<text x="490" y="34" text-anchor="middle" font-size="26" font-weight="700" fill="#0f172a">Paarweise Differenzen (Sample)</text>
<text x="28" y="265" transform="rotate(-90 28 265)" text-anchor="middle" font-size="24" fill="#475569">Workflow - Direkter Aufruf (Prozentpunkte)</text>
<text x="532.5" y="536" text-anchor="middle" font-size="24" fill="#475569">Erste 120 Antwortpaare, geordnet nach Frage/Run</text>
<line x1="115" y1="290.7" x2="950" y2="290.7" stroke="#94a3b8" stroke-dasharray="4 4"/>
<line x1="115" y1="65" x2="115" y2="465" stroke="#cbd5e1"/>
<line x1="115" y1="465" x2="950" y2="465" stroke="#cbd5e1"/>
<line x1="115" y1="465.0" x2="950" y2="465.0" stroke="#e2e8f0"/>
<text x="105" y="470.0" text-anchor="end" font-size="16" fill="#64748b">-66</text>
<line x1="115" y1="365.0" x2="950" y2="365.0" stroke="#e2e8f0"/>
<text x="105" y="370.0" text-anchor="end" font-size="16" fill="#64748b">-28</text>
<line x1="115" y1="265.0" x2="950" y2="265.0" stroke="#e2e8f0"/>
<text x="105" y="270.0" text-anchor="end" font-size="16" fill="#64748b">10</text>
<line x1="115" y1="165.0" x2="950" y2="165.0" stroke="#e2e8f0"/>
<text x="105" y="170.0" text-anchor="end" font-size="16" fill="#64748b">48</text>
<line x1="115" y1="65.0" x2="950" y2="65.0" stroke="#e2e8f0"/>
<text x="105" y="70.0" text-anchor="end" font-size="16" fill="#64748b">85</text>
<rect x="116.1" y="237.9" width="5.5" height="52.8" fill="#15803d" opacity="0.78"/>
<text x="118.8" y="229.9" text-anchor="middle" font-size="16" font-weight="700" fill="#0f172a">20.0</text>
<rect x="123.7" y="237.9" width="5.5" height="52.8" fill="#15803d" opacity="0.78"/>
<text x="126.5" y="229.9" text-anchor="middle" font-size="16" font-weight="700" fill="#0f172a">20.0</text>
<rect x="131.4" y="237.9" width="5.5" height="52.8" fill="#15803d" opacity="0.78"/>
<text x="134.2" y="229.9" text-anchor="middle" font-size="16" font-weight="700" fill="#0f172a">20.0</text>
<rect x="139.1" y="237.9" width="5.5" height="52.8" fill="#15803d" opacity="0.78"/>
<text x="141.8" y="229.9" text-anchor="middle" font-size="16" font-weight="700" fill="#0f172a">20.0</text>
<rect x="146.7" y="237.9" width="5.5" height="52.8" fill="#15803d" opacity="0.78"/>
<text x="149.5" y="229.9" text-anchor="middle" font-size="16" font-weight="700" fill="#0f172a">20.0</text>
<rect x="154.4" y="290.7" width="5.5" height="1.0" fill="#15803d" opacity="0.78"/>
<text x="157.1" y="282.7" text-anchor="middle" font-size="16" font-weight="700" fill="#0f172a">0.0</text>
<rect x="162.0" y="290.7" width="5.5" height="1.0" fill="#15803d" opacity="0.78"/>
<text x="164.8" y="282.7" text-anchor="middle" font-size="16" font-weight="700" fill="#0f172a">0.0</text>
<rect x="169.7" y="237.9" width="5.5" height="52.8" fill="#15803d" opacity="0.78"/>
<text x="172.5" y="229.9" text-anchor="middle" font-size="16" font-weight="700" fill="#0f172a">20.0</text>
<rect x="177.4" y="185.0" width="5.5" height="105.6" fill="#15803d" opacity="0.78"/>
<text x="180.1" y="177.0" text-anchor="middle" font-size="16" font-weight="700" fill="#0f172a">40.0</text>
<rect x="185.0" y="290.7" width="5.5" height="1.0" fill="#15803d" opacity="0.78"/>
<text x="187.8" y="282.7" text-anchor="middle" font-size="16" font-weight="700" fill="#0f172a">0.0</text>
<rect x="192.7" y="185.0" width="5.5" height="105.6" fill="#15803d" opacity="0.78"/>
<text x="195.4" y="177.0" text-anchor="middle" font-size="16" font-weight="700" fill="#0f172a">40.0</text>
<rect x="200.3" y="290.7" width="5.5" height="1.0" fill="#15803d" opacity="0.78"/>
<text x="203.1" y="282.7" text-anchor="middle" font-size="16" font-weight="700" fill="#0f172a">0.0</text>
<rect x="208.0" y="290.7" width="5.5" height="1.0" fill="#15803d" opacity="0.78"/>
<text x="210.8" y="282.7" text-anchor="middle" font-size="16" font-weight="700" fill="#0f172a">0.0</text>
<rect x="215.7" y="290.7" width="5.5" height="66.0" fill="#dc2626" opacity="0.78"/>
<text x="218.4" y="374.7" text-anchor="middle" font-size="16" font-weight="700" fill="#0f172a">-25.0</text>
<rect x="223.3" y="290.7" width="5.5" height="66.0" fill="#dc2626" opacity="0.78"/>
<text x="226.1" y="374.7" text-anchor="middle" font-size="16" font-weight="700" fill="#0f172a">-25.0</text>
<rect x="231.0" y="290.7" width="5.5" height="1.0" fill="#15803d" opacity="0.78"/>
<text x="233.7" y="282.7" text-anchor="middle" font-size="16" font-weight="700" fill="#0f172a">0.0</text>
<rect x="238.6" y="290.7" width="5.5" height="1.0" fill="#15803d" opacity="0.78"/>
<text x="241.4" y="282.7" text-anchor="middle" font-size="16" font-weight="700" fill="#0f172a">0.0</text>
<rect x="246.3" y="290.7" width="5.5" height="132.1" fill="#dc2626" opacity="0.78"/>
<text x="249.1" y="440.7" text-anchor="middle" font-size="16" font-weight="700" fill="#0f172a">-50.0</text>
<rect x="254.0" y="290.7" width="5.5" height="66.0" fill="#dc2626" opacity="0.78"/>
<text x="256.7" y="374.7" text-anchor="middle" font-size="16" font-weight="700" fill="#0f172a">-25.0</text>
<rect x="261.6" y="290.7" width="5.5" height="66.0" fill="#dc2626" opacity="0.78"/>
<text x="264.4" y="374.7" text-anchor="middle" font-size="16" font-weight="700" fill="#0f172a">-25.0</text>
<rect x="269.3" y="290.7" width="5.5" height="66.0" fill="#dc2626" opacity="0.78"/>
<text x="272.0" y="374.7" text-anchor="middle" font-size="16" font-weight="700" fill="#0f172a">-25.0</text>
<rect x="276.9" y="224.6" width="5.5" height="66.0" fill="#15803d" opacity="0.78"/>
<text x="279.7" y="216.6" text-anchor="middle" font-size="16" font-weight="700" fill="#0f172a">25.0</text>
<rect x="284.6" y="290.7" width="5.5" height="1.0" fill="#15803d" opacity="0.78"/>
<text x="287.4" y="282.7" text-anchor="middle" font-size="16" font-weight="700" fill="#0f172a">0.0</text>
<rect x="292.3" y="290.7" width="5.5" height="1.0" fill="#15803d" opacity="0.78"/>
<text x="295.0" y="282.7" text-anchor="middle" font-size="16" font-weight="700" fill="#0f172a">0.0</text>
<rect x="299.9" y="158.6" width="5.5" height="132.1" fill="#15803d" opacity="0.78"/>
<text x="302.7" y="150.6" text-anchor="middle" font-size="16" font-weight="700" fill="#0f172a">50.0</text>
<rect x="307.6" y="224.6" width="5.5" height="66.0" fill="#15803d" opacity="0.78"/>
<text x="310.3" y="216.6" text-anchor="middle" font-size="16" font-weight="700" fill="#0f172a">25.0</text>
<rect x="315.2" y="290.7" width="5.5" height="1.0" fill="#15803d" opacity="0.78"/>
<text x="318.0" y="282.7" text-anchor="middle" font-size="16" font-weight="700" fill="#0f172a">0.0</text>
<rect x="322.9" y="224.6" width="5.5" height="66.0" fill="#15803d" opacity="0.78"/>
<text x="325.7" y="216.6" text-anchor="middle" font-size="16" font-weight="700" fill="#0f172a">25.0</text>
<rect x="330.6" y="290.7" width="5.5" height="1.0" fill="#15803d" opacity="0.78"/>
<text x="333.3" y="282.7" text-anchor="middle" font-size="16" font-weight="700" fill="#0f172a">0.0</text>
<rect x="338.2" y="261.3" width="5.5" height="29.3" fill="#15803d" opacity="0.78"/>
<text x="341.0" y="253.3" text-anchor="middle" font-size="16" font-weight="700" fill="#0f172a">11.1</text>
<rect x="345.9" y="261.3" width="5.5" height="29.3" fill="#15803d" opacity="0.78"/>
<text x="348.6" y="253.3" text-anchor="middle" font-size="16" font-weight="700" fill="#0f172a">11.1</text>
<rect x="353.5" y="261.3" width="5.5" height="29.3" fill="#15803d" opacity="0.78"/>
<text x="356.3" y="253.3" text-anchor="middle" font-size="16" font-weight="700" fill="#0f172a">11.1</text>
<rect x="361.2" y="290.7" width="5.5" height="29.3" fill="#dc2626" opacity="0.78"/>
<text x="364.0" y="338.0" text-anchor="middle" font-size="16" font-weight="700" fill="#0f172a">-11.1</text>
<rect x="368.9" y="261.3" width="5.5" height="29.3" fill="#15803d" opacity="0.78"/>
<text x="371.6" y="253.3" text-anchor="middle" font-size="16" font-weight="700" fill="#0f172a">11.1</text>
<rect x="376.5" y="290.7" width="5.5" height="88.0" fill="#dc2626" opacity="0.78"/>
<text x="379.3" y="396.7" text-anchor="middle" font-size="16" font-weight="700" fill="#0f172a">-33.3</text>
<rect x="384.2" y="290.7" width="5.5" height="88.0" fill="#dc2626" opacity="0.78"/>
<text x="386.9" y="396.7" text-anchor="middle" font-size="16" font-weight="700" fill="#0f172a">-33.3</text>
<rect x="391.9" y="173.3" width="5.5" height="117.4" fill="#15803d" opacity="0.78"/>
<text x="394.6" y="165.3" text-anchor="middle" font-size="16" font-weight="700" fill="#0f172a">44.4</text>
<rect x="399.5" y="290.7" width="5.5" height="29.3" fill="#dc2626" opacity="0.78"/>
<text x="402.3" y="338.0" text-anchor="middle" font-size="16" font-weight="700" fill="#0f172a">-11.1</text>
<rect x="407.2" y="261.3" width="5.5" height="29.3" fill="#15803d" opacity="0.78"/>
<text x="409.9" y="253.3" text-anchor="middle" font-size="16" font-weight="700" fill="#0f172a">11.1</text>
<rect x="414.8" y="290.7" width="5.5" height="29.3" fill="#dc2626" opacity="0.78"/>
<text x="417.6" y="338.0" text-anchor="middle" font-size="16" font-weight="700" fill="#0f172a">-11.1</text>
<rect x="422.5" y="114.6" width="5.5" height="176.1" fill="#15803d" opacity="0.78"/>
<text x="425.3" y="106.6" text-anchor="middle" font-size="16" font-weight="700" fill="#0f172a">66.7</text>
<rect x="430.2" y="202.6" width="5.5" height="88.0" fill="#15803d" opacity="0.78"/>
<text x="432.9" y="194.6" text-anchor="middle" font-size="16" font-weight="700" fill="#0f172a">33.3</text>
<rect x="437.8" y="202.6" width="5.5" height="88.0" fill="#15803d" opacity="0.78"/>
<text x="440.6" y="194.6" text-anchor="middle" font-size="16" font-weight="700" fill="#0f172a">33.3</text>
<rect x="445.5" y="202.6" width="5.5" height="88.0" fill="#15803d" opacity="0.78"/>
<text x="448.2" y="194.6" text-anchor="middle" font-size="16" font-weight="700" fill="#0f172a">33.3</text>
<rect x="453.1" y="290.7" width="5.5" height="58.7" fill="#dc2626" opacity="0.78"/>
<text x="455.9" y="367.4" text-anchor="middle" font-size="16" font-weight="700" fill="#0f172a">-22.2</text>
<rect x="460.8" y="290.7" width="5.5" height="146.7" fill="#dc2626" opacity="0.78"/>
<text x="463.6" y="455.4" text-anchor="middle" font-size="16" font-weight="700" fill="#0f172a">-55.6</text>
<rect x="468.5" y="290.7" width="5.5" height="117.4" fill="#dc2626" opacity="0.78"/>
<text x="471.2" y="426.1" text-anchor="middle" font-size="16" font-weight="700" fill="#0f172a">-44.4</text>
<rect x="476.1" y="232.0" width="5.5" height="58.7" fill="#15803d" opacity="0.78"/>
<text x="478.9" y="224.0" text-anchor="middle" font-size="16" font-weight="700" fill="#0f172a">22.2</text>
<rect x="483.8" y="290.7" width="5.5" height="1.0" fill="#15803d" opacity="0.78"/>
<text x="486.5" y="282.7" text-anchor="middle" font-size="16" font-weight="700" fill="#0f172a">0.0</text>
<rect x="491.4" y="202.6" width="5.5" height="88.0" fill="#15803d" opacity="0.78"/>
<text x="494.2" y="194.6" text-anchor="middle" font-size="16" font-weight="700" fill="#0f172a">33.3</text>
<rect x="499.1" y="202.6" width="5.5" height="88.0" fill="#15803d" opacity="0.78"/>
<text x="501.9" y="194.6" text-anchor="middle" font-size="16" font-weight="700" fill="#0f172a">33.3</text>
<rect x="506.8" y="202.6" width="5.5" height="88.0" fill="#15803d" opacity="0.78"/>
<text x="509.5" y="194.6" text-anchor="middle" font-size="16" font-weight="700" fill="#0f172a">33.3</text>
<rect x="514.4" y="261.3" width="5.5" height="29.3" fill="#15803d" opacity="0.78"/>
<text x="517.2" y="253.3" text-anchor="middle" font-size="16" font-weight="700" fill="#0f172a">11.1</text>
<rect x="522.1" y="202.6" width="5.5" height="88.0" fill="#15803d" opacity="0.78"/>
<text x="524.8" y="194.6" text-anchor="middle" font-size="16" font-weight="700" fill="#0f172a">33.3</text>
<rect x="529.7" y="290.7" width="5.5" height="1.0" fill="#15803d" opacity="0.78"/>
<text x="532.5" y="282.7" text-anchor="middle" font-size="16" font-weight="700" fill="#0f172a">0.0</text>
<rect x="537.4" y="290.7" width="5.5" height="29.3" fill="#dc2626" opacity="0.78"/>
<text x="540.2" y="338.0" text-anchor="middle" font-size="16" font-weight="700" fill="#0f172a">-11.1</text>
<rect x="545.1" y="202.6" width="5.5" height="88.0" fill="#15803d" opacity="0.78"/>
<text x="547.8" y="194.6" text-anchor="middle" font-size="16" font-weight="700" fill="#0f172a">33.3</text>
<rect x="552.7" y="290.7" width="5.5" height="1.0" fill="#15803d" opacity="0.78"/>
<text x="555.5" y="282.7" text-anchor="middle" font-size="16" font-weight="700" fill="#0f172a">0.0</text>
<rect x="560.4" y="290.7" width="5.5" height="117.4" fill="#dc2626" opacity="0.78"/>
<text x="563.1" y="426.1" text-anchor="middle" font-size="16" font-weight="700" fill="#0f172a">-44.4</text>
<rect x="568.0" y="290.7" width="5.5" height="1.0" fill="#15803d" opacity="0.78"/>
<text x="570.8" y="282.7" text-anchor="middle" font-size="16" font-weight="700" fill="#0f172a">0.0</text>
<rect x="575.7" y="173.3" width="5.5" height="117.4" fill="#15803d" opacity="0.78"/>
<text x="578.5" y="165.3" text-anchor="middle" font-size="16" font-weight="700" fill="#0f172a">44.4</text>
<rect x="583.4" y="232.0" width="5.5" height="58.7" fill="#15803d" opacity="0.78"/>
<text x="586.1" y="224.0" text-anchor="middle" font-size="16" font-weight="700" fill="#0f172a">22.2</text>
<rect x="591.0" y="261.3" width="5.5" height="29.3" fill="#15803d" opacity="0.78"/>
<text x="593.8" y="253.3" text-anchor="middle" font-size="16" font-weight="700" fill="#0f172a">11.1</text>
<rect x="598.7" y="202.6" width="5.5" height="88.0" fill="#15803d" opacity="0.78"/>
<text x="601.4" y="194.6" text-anchor="middle" font-size="16" font-weight="700" fill="#0f172a">33.3</text>
<rect x="606.3" y="290.7" width="5.5" height="1.0" fill="#15803d" opacity="0.78"/>
<text x="609.1" y="282.7" text-anchor="middle" font-size="16" font-weight="700" fill="#0f172a">0.0</text>
<rect x="614.0" y="290.7" width="5.5" height="66.0" fill="#dc2626" opacity="0.78"/>
<text x="616.8" y="374.7" text-anchor="middle" font-size="16" font-weight="700" fill="#0f172a">-25.0</text>
<rect x="621.7" y="224.6" width="5.5" height="66.0" fill="#15803d" opacity="0.78"/>
<text x="624.4" y="216.6" text-anchor="middle" font-size="16" font-weight="700" fill="#0f172a">25.0</text>
<rect x="629.3" y="224.6" width="5.5" height="66.0" fill="#15803d" opacity="0.78"/>
<text x="632.1" y="216.6" text-anchor="middle" font-size="16" font-weight="700" fill="#0f172a">25.0</text>
<rect x="637.0" y="224.6" width="5.5" height="66.0" fill="#15803d" opacity="0.78"/>
<text x="639.7" y="216.6" text-anchor="middle" font-size="16" font-weight="700" fill="#0f172a">25.0</text>
<rect x="644.7" y="224.6" width="5.5" height="66.0" fill="#15803d" opacity="0.78"/>
<text x="647.4" y="216.6" text-anchor="middle" font-size="16" font-weight="700" fill="#0f172a">25.0</text>
<rect x="652.3" y="158.6" width="5.5" height="132.1" fill="#15803d" opacity="0.78"/>
<text x="655.1" y="150.6" text-anchor="middle" font-size="16" font-weight="700" fill="#0f172a">50.0</text>
<rect x="660.0" y="224.6" width="5.5" height="66.0" fill="#15803d" opacity="0.78"/>
<text x="662.7" y="216.6" text-anchor="middle" font-size="16" font-weight="700" fill="#0f172a">25.0</text>
<rect x="667.6" y="290.7" width="5.5" height="66.0" fill="#dc2626" opacity="0.78"/>
<text x="670.4" y="374.7" text-anchor="middle" font-size="16" font-weight="700" fill="#0f172a">-25.0</text>
<rect x="675.3" y="158.6" width="5.5" height="132.1" fill="#15803d" opacity="0.78"/>
<text x="678.1" y="150.6" text-anchor="middle" font-size="16" font-weight="700" fill="#0f172a">50.0</text>
<rect x="683.0" y="224.6" width="5.5" height="66.0" fill="#15803d" opacity="0.78"/>
<text x="685.7" y="216.6" text-anchor="middle" font-size="16" font-weight="700" fill="#0f172a">25.0</text>
<rect x="690.6" y="290.7" width="5.5" height="1.0" fill="#15803d" opacity="0.78"/>
<text x="693.4" y="282.7" text-anchor="middle" font-size="16" font-weight="700" fill="#0f172a">0.0</text>
<rect x="698.3" y="290.7" width="5.5" height="1.0" fill="#15803d" opacity="0.78"/>
<text x="701.0" y="282.7" text-anchor="middle" font-size="16" font-weight="700" fill="#0f172a">0.0</text>
<rect x="705.9" y="290.7" width="5.5" height="1.0" fill="#15803d" opacity="0.78"/>
<text x="708.7" y="282.7" text-anchor="middle" font-size="16" font-weight="700" fill="#0f172a">0.0</text>
<rect x="713.6" y="290.7" width="5.5" height="1.0" fill="#15803d" opacity="0.78"/>
<text x="716.4" y="282.7" text-anchor="middle" font-size="16" font-weight="700" fill="#0f172a">0.0</text>
<rect x="721.3" y="290.7" width="5.5" height="1.0" fill="#15803d" opacity="0.78"/>
<text x="724.0" y="282.7" text-anchor="middle" font-size="16" font-weight="700" fill="#0f172a">0.0</text>
<rect x="728.9" y="290.7" width="5.5" height="1.0" fill="#15803d" opacity="0.78"/>
<text x="731.7" y="282.7" text-anchor="middle" font-size="16" font-weight="700" fill="#0f172a">0.0</text>
<rect x="736.6" y="290.7" width="5.5" height="1.0" fill="#15803d" opacity="0.78"/>
<text x="739.3" y="282.7" text-anchor="middle" font-size="16" font-weight="700" fill="#0f172a">0.0</text>
<rect x="744.2" y="290.7" width="5.5" height="1.0" fill="#15803d" opacity="0.78"/>
<text x="747.0" y="282.7" text-anchor="middle" font-size="16" font-weight="700" fill="#0f172a">0.0</text>
<rect x="751.9" y="290.7" width="5.5" height="1.0" fill="#15803d" opacity="0.78"/>
<text x="754.7" y="282.7" text-anchor="middle" font-size="16" font-weight="700" fill="#0f172a">0.0</text>
<rect x="759.6" y="224.6" width="5.5" height="66.0" fill="#15803d" opacity="0.78"/>
<text x="762.3" y="216.6" text-anchor="middle" font-size="16" font-weight="700" fill="#0f172a">25.0</text>
<rect x="767.2" y="224.6" width="5.5" height="66.0" fill="#15803d" opacity="0.78"/>
<text x="770.0" y="216.6" text-anchor="middle" font-size="16" font-weight="700" fill="#0f172a">25.0</text>
<rect x="774.9" y="224.6" width="5.5" height="66.0" fill="#15803d" opacity="0.78"/>
<text x="777.6" y="216.6" text-anchor="middle" font-size="16" font-weight="700" fill="#0f172a">25.0</text>
<rect x="782.5" y="224.6" width="5.5" height="66.0" fill="#15803d" opacity="0.78"/>
<text x="785.3" y="216.6" text-anchor="middle" font-size="16" font-weight="700" fill="#0f172a">25.0</text>
<rect x="790.2" y="158.6" width="5.5" height="132.1" fill="#15803d" opacity="0.78"/>
<text x="793.0" y="150.6" text-anchor="middle" font-size="16" font-weight="700" fill="#0f172a">50.0</text>
<rect x="797.9" y="158.6" width="5.5" height="132.1" fill="#15803d" opacity="0.78"/>
<text x="800.6" y="150.6" text-anchor="middle" font-size="16" font-weight="700" fill="#0f172a">50.0</text>
<rect x="805.5" y="290.7" width="5.5" height="1.0" fill="#15803d" opacity="0.78"/>
<text x="808.3" y="282.7" text-anchor="middle" font-size="16" font-weight="700" fill="#0f172a">0.0</text>
<rect x="813.2" y="224.6" width="5.5" height="66.0" fill="#15803d" opacity="0.78"/>
<text x="815.9" y="216.6" text-anchor="middle" font-size="16" font-weight="700" fill="#0f172a">25.0</text>
<rect x="820.8" y="224.6" width="5.5" height="66.0" fill="#15803d" opacity="0.78"/>
<text x="823.6" y="216.6" text-anchor="middle" font-size="16" font-weight="700" fill="#0f172a">25.0</text>
<rect x="828.5" y="224.6" width="5.5" height="66.0" fill="#15803d" opacity="0.78"/>
<text x="831.3" y="216.6" text-anchor="middle" font-size="16" font-weight="700" fill="#0f172a">25.0</text>
<rect x="836.2" y="158.6" width="5.5" height="132.1" fill="#15803d" opacity="0.78"/>
<text x="838.9" y="150.6" text-anchor="middle" font-size="16" font-weight="700" fill="#0f172a">50.0</text>
<rect x="843.8" y="290.7" width="5.5" height="1.0" fill="#15803d" opacity="0.78"/>
<text x="846.6" y="282.7" text-anchor="middle" font-size="16" font-weight="700" fill="#0f172a">0.0</text>
<rect x="851.5" y="290.7" width="5.5" height="1.0" fill="#15803d" opacity="0.78"/>
<text x="854.2" y="282.7" text-anchor="middle" font-size="16" font-weight="700" fill="#0f172a">0.0</text>
<rect x="859.1" y="224.6" width="5.5" height="66.0" fill="#15803d" opacity="0.78"/>
<text x="861.9" y="216.6" text-anchor="middle" font-size="16" font-weight="700" fill="#0f172a">25.0</text>
<rect x="866.8" y="290.7" width="5.5" height="1.0" fill="#15803d" opacity="0.78"/>
<text x="869.6" y="282.7" text-anchor="middle" font-size="16" font-weight="700" fill="#0f172a">0.0</text>
<rect x="874.5" y="92.6" width="5.5" height="198.1" fill="#15803d" opacity="0.78"/>
<text x="877.2" y="84.6" text-anchor="middle" font-size="16" font-weight="700" fill="#0f172a">75.0</text>
<rect x="882.1" y="158.6" width="5.5" height="132.1" fill="#15803d" opacity="0.78"/>
<text x="884.9" y="150.6" text-anchor="middle" font-size="16" font-weight="700" fill="#0f172a">50.0</text>
<rect x="889.8" y="290.7" width="5.5" height="1.0" fill="#15803d" opacity="0.78"/>
<text x="892.5" y="282.7" text-anchor="middle" font-size="16" font-weight="700" fill="#0f172a">0.0</text>
<rect x="897.4" y="158.6" width="5.5" height="132.1" fill="#15803d" opacity="0.78"/>
<text x="900.2" y="150.6" text-anchor="middle" font-size="16" font-weight="700" fill="#0f172a">50.0</text>
<rect x="905.1" y="290.7" width="5.5" height="1.0" fill="#15803d" opacity="0.78"/>
<text x="907.9" y="282.7" text-anchor="middle" font-size="16" font-weight="700" fill="#0f172a">0.0</text>
<rect x="912.8" y="290.7" width="5.5" height="66.0" fill="#dc2626" opacity="0.78"/>
<text x="915.5" y="374.7" text-anchor="middle" font-size="16" font-weight="700" fill="#0f172a">-25.0</text>
<rect x="920.4" y="290.7" width="5.5" height="1.0" fill="#15803d" opacity="0.78"/>
<text x="923.2" y="282.7" text-anchor="middle" font-size="16" font-weight="700" fill="#0f172a">0.0</text>
<rect x="928.1" y="158.6" width="5.5" height="132.1" fill="#15803d" opacity="0.78"/>
<text x="930.8" y="150.6" text-anchor="middle" font-size="16" font-weight="700" fill="#0f172a">50.0</text>
<rect x="935.8" y="290.7" width="5.5" height="1.0" fill="#15803d" opacity="0.78"/>
<text x="938.5" y="282.7" text-anchor="middle" font-size="16" font-weight="700" fill="#0f172a">0.0</text>
<rect x="943.4" y="290.7" width="5.5" height="66.0" fill="#dc2626" opacity="0.78"/>
<text x="946.2" y="374.7" text-anchor="middle" font-size="16" font-weight="700" fill="#0f172a">-25.0</text>

</svg>
